<svg width="301" height="205" viewBox="0 0 301 205" fill="none" xmlns="http://www.w3.org/2000/svg">
<path d="M5.73425 27.8387C5.64464 27.9019 5.53941 27.9392 5.43004 27.9466C5.32067 27.9541 5.21136 27.9314 5.11401 27.881C5.01666 27.8306 4.93502 27.7544 4.87798 27.6608C4.82093 27.5672 4.79069 27.4597 4.79053 27.3501V15.2901C4.79047 15.1803 4.82056 15.0727 4.87751 14.9789C4.93446 14.8851 5.01609 14.8088 5.11348 14.7582C5.21087 14.7077 5.32027 14.6849 5.42975 14.6923C5.53922 14.6997 5.64456 14.737 5.73425 14.8002L14.2769 20.8302C14.3552 20.8855 14.4191 20.9588 14.4632 21.044C14.5074 21.1291 14.5304 21.2236 14.5304 21.3195C14.5304 21.4154 14.5074 21.5098 14.4632 21.595C14.4191 21.6801 14.3552 21.7534 14.2769 21.8087L5.73425 27.8387ZM15.5691 15.2901C15.569 15.1803 15.5991 15.0727 15.6561 14.9789C15.713 14.8851 15.7947 14.8088 15.8921 14.7582C15.9894 14.7077 16.0988 14.6849 16.2083 14.6923C16.3178 14.6997 16.4231 14.737 16.5128 14.8002L25.0554 20.8302C25.1338 20.8855 25.1977 20.9588 25.2418 21.044C25.2859 21.1291 25.309 21.2236 25.309 21.3195C25.309 21.4154 25.2859 21.5098 25.2418 21.595C25.1977 21.6801 25.1338 21.7534 25.0554 21.8087L16.5128 27.8387C16.4232 27.9019 16.318 27.9392 16.2086 27.9466C16.0993 27.9541 15.9899 27.9314 15.8926 27.881C15.7952 27.8306 15.7136 27.7544 15.6566 27.6608C15.5995 27.5672 15.5693 27.4597 15.5691 27.3501V15.2901Z" fill="white"/>
<path d="M41.7017 14.3203V5.59304H44.8125C45.4887 5.59304 46.0497 5.70952 46.4958 5.94247C46.9446 6.17543 47.2799 6.49787 47.5014 6.9098C47.723 7.31889 47.8338 7.7919 47.8338 8.32884C47.8338 8.86293 47.7216 9.3331 47.4972 9.73935C47.2756 10.1428 46.9404 10.4567 46.4915 10.6811C46.0455 10.9055 45.4844 11.0178 44.8083 11.0178H42.4517V9.88423H44.6889C45.1151 9.88423 45.4617 9.82315 45.7287 9.70099C45.9986 9.57884 46.196 9.40128 46.321 9.16832C46.446 8.93537 46.5085 8.65554 46.5085 8.32884C46.5085 7.99929 46.4446 7.71378 46.3168 7.4723C46.1918 7.23082 45.9943 7.04616 45.7245 6.91832C45.4574 6.78764 45.1066 6.7223 44.6719 6.7223H43.0185V14.3203H41.7017ZM46.01 10.3828L48.1662 14.3203H46.6662L44.5526 10.3828H46.01ZM50.1733 14.3203H48.7756L51.9162 5.59304H53.4375L56.5781 14.3203H55.1804L52.7131 7.17827H52.6449L50.1733 14.3203ZM50.4077 10.9027H54.9418V12.0107H50.4077V10.9027ZM57.8384 14.3203V5.59304H60.9492C61.6282 5.59304 62.1907 5.71662 62.6367 5.96378C63.0828 6.21094 63.4166 6.54901 63.6382 6.97798C63.8598 7.40412 63.9705 7.88423 63.9705 8.41832C63.9705 8.95526 63.8583 9.43821 63.6339 9.86719C63.4123 10.2933 63.0771 10.6314 62.6282 10.8814C62.1822 11.1286 61.6211 11.2521 60.945 11.2521H58.8058V10.1357H60.8257C61.2546 10.1357 61.6027 10.0618 61.8697 9.91406C62.1367 9.76349 62.3328 9.55895 62.4578 9.30043C62.5828 9.0419 62.6453 8.74787 62.6453 8.41832C62.6453 8.08878 62.5828 7.79616 62.4578 7.54048C62.3328 7.2848 62.1353 7.08452 61.8654 6.93963C61.5984 6.79474 61.2461 6.7223 60.8086 6.7223H59.1552V14.3203H57.8384ZM66.831 5.59304V14.3203H65.5142V5.59304H66.831ZM71.5739 14.3203H68.7486V5.59304H71.6634C72.5185 5.59304 73.2529 5.76776 73.8665 6.11719C74.4801 6.46378 74.9503 6.96236 75.277 7.61293C75.6066 8.26065 75.7713 9.03764 75.7713 9.94389C75.7713 10.853 75.6051 11.6342 75.2727 12.2876C74.9432 12.9411 74.4659 13.4439 73.8409 13.7962C73.2159 14.1456 72.4602 14.3203 71.5739 14.3203ZM70.0654 13.1697H71.5014C72.1662 13.1697 72.7188 13.0447 73.1591 12.7947C73.5995 12.5419 73.929 12.1768 74.1477 11.6996C74.3665 11.2195 74.4759 10.6342 74.4759 9.94389C74.4759 9.25923 74.3665 8.67827 74.1477 8.20099C73.9318 7.72372 73.6094 7.36151 73.1804 7.11435C72.7514 6.86719 72.2188 6.74361 71.5824 6.74361H70.0654V13.1697ZM80.5845 14.3203V5.59304H83.6953C84.3743 5.59304 84.9368 5.71662 85.3828 5.96378C85.8289 6.21094 86.1627 6.54901 86.3843 6.97798C86.6058 7.40412 86.7166 7.88423 86.7166 8.41832C86.7166 8.95526 86.6044 9.43821 86.38 9.86719C86.1584 10.2933 85.8232 10.6314 85.3743 10.8814C84.9283 11.1286 84.3672 11.2521 83.6911 11.2521H81.5519V10.1357H83.5718C84.0007 10.1357 84.3487 10.0618 84.6158 9.91406C84.8828 9.76349 85.0789 9.55895 85.2039 9.30043C85.3289 9.0419 85.3914 8.74787 85.3914 8.41832C85.3914 8.08878 85.3289 7.79616 85.2039 7.54048C85.0789 7.2848 84.8814 7.08452 84.6115 6.93963C84.3445 6.79474 83.9922 6.7223 83.5547 6.7223H81.9013V14.3203H80.5845ZM88.2603 14.3203V5.59304H91.3711C92.0473 5.59304 92.6083 5.70952 93.0544 5.94247C93.5032 6.17543 93.8384 6.49787 94.06 6.9098C94.2816 7.31889 94.3924 7.7919 94.3924 8.32884C94.3924 8.86293 94.2802 9.3331 94.0558 9.73935C93.8342 10.1428 93.499 10.4567 93.0501 10.6811C92.6041 10.9055 92.043 11.0178 91.3669 11.0178H89.0103V9.88423H91.2475C91.6737 9.88423 92.0203 9.82315 92.2873 9.70099C92.5572 9.57884 92.7546 9.40128 92.8796 9.16832C93.0046 8.93537 93.0671 8.65554 93.0671 8.32884C93.0671 7.99929 93.0032 7.71378 92.8754 7.4723C92.7504 7.23082 92.5529 7.04616 92.283 6.91832C92.016 6.78764 91.6652 6.7223 91.2305 6.7223H89.5771V14.3203H88.2603ZM92.5686 10.3828L94.7248 14.3203H93.2248L91.1112 10.3828H92.5686ZM103.576 9.95668C103.576 10.8885 103.405 11.6896 103.064 12.3601C102.723 13.0277 102.256 13.5419 101.662 13.9027C101.071 14.2607 100.4 14.4396 99.6467 14.4396C98.891 14.4396 98.2163 14.2607 97.6225 13.9027C97.0316 13.5419 96.5657 13.0263 96.2248 12.3558C95.8839 11.6854 95.7134 10.8857 95.7134 9.95668C95.7134 9.02486 95.8839 8.22514 96.2248 7.55753C96.5657 6.88707 97.0316 6.37287 97.6225 6.01491C98.2163 5.65412 98.891 5.47372 99.6467 5.47372C100.4 5.47372 101.071 5.65412 101.662 6.01491C102.256 6.37287 102.723 6.88707 103.064 7.55753C103.405 8.22514 103.576 9.02486 103.576 9.95668ZM102.272 9.95668C102.272 9.24645 102.157 8.64844 101.927 8.16264C101.699 7.67401 101.387 7.30469 100.989 7.05469C100.594 6.80185 100.147 6.67543 99.6467 6.67543C99.1438 6.67543 98.695 6.80185 98.3001 7.05469C97.9052 7.30469 97.5927 7.67401 97.3626 8.16264C97.1353 8.64844 97.0217 9.24645 97.0217 9.95668C97.0217 10.6669 97.1353 11.2663 97.3626 11.755C97.5927 12.2408 97.9052 12.6101 98.3001 12.8629C98.695 13.1129 99.1438 13.2379 99.6467 13.2379C100.147 13.2379 100.594 13.1129 100.989 12.8629C101.387 12.6101 101.699 12.2408 101.927 11.755C102.157 11.2663 102.272 10.6669 102.272 9.95668ZM104.412 6.72656V5.59304H111.166V6.72656H108.443V14.3203H107.131V6.72656H104.412ZM119.865 9.95668C119.865 10.8885 119.694 11.6896 119.353 12.3601C119.012 13.0277 118.545 13.5419 117.951 13.9027C117.36 14.2607 116.689 14.4396 115.936 14.4396C115.18 14.4396 114.505 14.2607 113.912 13.9027C113.321 13.5419 112.855 13.0263 112.514 12.3558C112.173 11.6854 112.003 10.8857 112.003 9.95668C112.003 9.02486 112.173 8.22514 112.514 7.55753C112.855 6.88707 113.321 6.37287 113.912 6.01491C114.505 5.65412 115.18 5.47372 115.936 5.47372C116.689 5.47372 117.36 5.65412 117.951 6.01491C118.545 6.37287 119.012 6.88707 119.353 7.55753C119.694 8.22514 119.865 9.02486 119.865 9.95668ZM118.561 9.95668C118.561 9.24645 118.446 8.64844 118.216 8.16264C117.988 7.67401 117.676 7.30469 117.278 7.05469C116.883 6.80185 116.436 6.67543 115.936 6.67543C115.433 6.67543 114.984 6.80185 114.589 7.05469C114.194 7.30469 113.882 7.67401 113.652 8.16264C113.424 8.64844 113.311 9.24645 113.311 9.95668C113.311 10.6669 113.424 11.2663 113.652 11.755C113.882 12.2408 114.194 12.6101 114.589 12.8629C114.984 13.1129 115.433 13.2379 115.936 13.2379C116.436 13.2379 116.883 13.1129 117.278 12.8629C117.676 12.6101 117.988 12.2408 118.216 11.755C118.446 11.2663 118.561 10.6669 118.561 9.95668ZM120.701 6.72656V5.59304H127.455V6.72656H124.732V14.3203H123.42V6.72656H120.701ZM128.275 5.59304H129.77L132.05 9.56037H132.144L134.424 5.59304H135.919L132.753 10.8942V14.3203H131.441V10.8942L128.275 5.59304ZM137.163 14.3203V5.59304H140.273C140.952 5.59304 141.515 5.71662 141.961 5.96378C142.407 6.21094 142.741 6.54901 142.962 6.97798C143.184 7.40412 143.295 7.88423 143.295 8.41832C143.295 8.95526 143.183 9.43821 142.958 9.86719C142.737 10.2933 142.401 10.6314 141.952 10.8814C141.506 11.1286 140.945 11.2521 140.269 11.2521H138.13V10.1357H140.15C140.579 10.1357 140.927 10.0618 141.194 9.91406C141.461 9.76349 141.657 9.55895 141.782 9.30043C141.907 9.0419 141.969 8.74787 141.969 8.41832C141.969 8.08878 141.907 7.79616 141.782 7.54048C141.657 7.2848 141.46 7.08452 141.19 6.93963C140.923 6.79474 140.57 6.7223 140.133 6.7223H138.479V14.3203H137.163ZM146.155 5.59304V14.3203H144.838V5.59304H146.155ZM155.117 5.59304V14.3203H153.907L149.471 7.91974H149.39V14.3203H148.073V5.59304H149.292L153.732 12.0021H153.813V5.59304H155.117ZM162.944 8.35014C162.862 8.09162 162.751 7.86009 162.612 7.65554C162.475 7.44815 162.312 7.27202 162.121 7.12713C161.931 6.9794 161.714 6.86719 161.469 6.79048C161.228 6.71378 160.962 6.67543 160.673 6.67543C160.181 6.67543 159.738 6.80185 159.343 7.05469C158.948 7.30753 158.636 7.67827 158.406 8.1669C158.178 8.6527 158.065 9.24787 158.065 9.95241C158.065 10.6598 158.18 11.2578 158.41 11.7464C158.64 12.2351 158.955 12.6058 159.356 12.8587C159.756 13.1115 160.212 13.2379 160.724 13.2379C161.198 13.2379 161.612 13.1413 161.964 12.9482C162.319 12.755 162.593 12.4822 162.786 12.13C162.982 11.7749 163.08 11.3572 163.08 10.8771L163.421 10.9411H160.924V9.8544H164.354V10.8473C164.354 11.5803 164.198 12.2166 163.886 12.7564C163.576 13.2933 163.147 13.7081 162.599 14.0007C162.053 14.2933 161.428 14.4396 160.724 14.4396C159.934 14.4396 159.241 14.2578 158.644 13.8942C158.05 13.5305 157.587 13.0149 157.255 12.3473C156.923 11.6768 156.756 10.8814 156.756 9.96094C156.756 9.26491 156.853 8.63991 157.046 8.08594C157.239 7.53196 157.511 7.06179 157.86 6.67543C158.212 6.28622 158.626 5.98935 159.1 5.7848C159.577 5.57741 160.099 5.47372 160.664 5.47372C161.136 5.47372 161.575 5.54332 161.981 5.68253C162.39 5.82173 162.754 6.01918 163.072 6.27486C163.393 6.53054 163.658 6.83452 163.869 7.18679C164.079 7.53622 164.221 7.92401 164.295 8.35014H162.944Z" fill="#B5B5B5"/>
<rect x="40.7429" y="28.6128" width="260" height="13.7073" rx="6.85365" fill="#18181F"/>
<rect x="40.7429" y="28.3203" width="235" height="13.7073" rx="6.85365" fill="#6360FF"/>
<path d="M14.3715 87.2966C12.7347 87.2966 11.1878 86.9821 9.73068 86.3529C8.27358 85.7238 7.00131 84.8655 5.91387 83.778C4.82563 82.6906 3.96734 81.4183 3.33899 79.9612C2.71064 78.5041 2.39606 76.9572 2.39526 75.3204C2.39526 73.6637 2.71982 72.1068 3.36893 70.6497C4.01804 69.1926 4.89629 67.9251 6.00369 66.8473C7.11109 65.7694 8.40332 64.9163 9.88039 64.288C11.3575 63.6596 12.9343 63.345 14.611 63.3442C16.2078 63.3442 17.7148 63.6189 19.132 64.1682C20.5492 64.7175 21.7919 65.476 22.8602 66.4437C23.9277 67.4114 24.776 68.5591 25.4051 69.8868C26.0343 71.2146 26.3485 72.6465 26.3477 74.1827C26.3477 76.4781 25.649 78.2398 24.2518 79.4678C22.8546 80.6958 21.158 81.3093 19.1619 81.3085H16.9463C16.7667 81.3085 16.6421 81.3584 16.5727 81.4582C16.5032 81.558 16.4681 81.6678 16.4673 81.7876C16.4673 82.0271 16.617 82.3716 16.9164 82.8211C17.2158 83.2706 17.3655 83.7844 17.3655 84.3625C17.3655 85.3605 17.0913 86.099 16.5427 86.5781C15.9942 87.0571 15.2705 87.2966 14.3715 87.2966ZM7.78455 76.5181C8.30352 76.5181 8.73267 76.3484 9.07199 76.0091C9.41132 75.6697 9.58098 75.2406 9.58098 74.7216C9.58098 74.2027 9.41132 73.7735 9.07199 73.4342C8.73267 73.0949 8.30352 72.9252 7.78455 72.9252C7.26558 72.9252 6.83644 73.0949 6.49711 73.4342C6.15779 73.7735 5.98812 74.2027 5.98812 74.7216C5.98812 75.2406 6.15779 75.6697 6.49711 76.0091C6.83644 76.3484 7.26558 76.5181 7.78455 76.5181ZM11.3774 71.7276C11.8964 71.7276 12.3255 71.5579 12.6649 71.2186C13.0042 70.8793 13.1738 70.4501 13.1738 69.9311C13.1738 69.4122 13.0042 68.983 12.6649 68.6437C12.3255 68.3044 11.8964 68.1347 11.3774 68.1347C10.8584 68.1347 10.4293 68.3044 10.09 68.6437C9.75064 68.983 9.58098 69.4122 9.58098 69.9311C9.58098 70.4501 9.75064 70.8793 10.09 71.2186C10.4293 71.5579 10.8584 71.7276 11.3774 71.7276ZM17.3655 71.7276C17.8845 71.7276 18.3136 71.5579 18.653 71.2186C18.9923 70.8793 19.1619 70.4501 19.1619 69.9311C19.1619 69.4122 18.9923 68.983 18.653 68.6437C18.3136 68.3044 17.8845 68.1347 17.3655 68.1347C16.8465 68.1347 16.4174 68.3044 16.0781 68.6437C15.7387 68.983 15.5691 69.4122 15.5691 69.9311C15.5691 70.4501 15.7387 70.8793 16.0781 71.2186C16.4174 71.5579 16.8465 71.7276 17.3655 71.7276ZM20.9584 76.5181C21.4773 76.5181 21.9065 76.3484 22.2458 76.0091C22.5851 75.6697 22.7548 75.2406 22.7548 74.7216C22.7548 74.2027 22.5851 73.7735 22.2458 73.4342C21.9065 73.0949 21.4773 72.9252 20.9584 72.9252C20.4394 72.9252 20.0103 73.0949 19.6709 73.4342C19.3316 73.7735 19.1619 74.2027 19.1619 74.7216C19.1619 75.2406 19.3316 75.6697 19.6709 76.0091C20.0103 76.3484 20.4394 76.5181 20.9584 76.5181Z" fill="white"/>
<path d="M41.5014 68.3203V59.593H44.9958C45.6378 59.593 46.1733 59.6882 46.6023 59.8786C47.0313 60.0689 47.3537 60.3331 47.5696 60.6712C47.7855 61.0064 47.8935 61.3928 47.8935 61.8303C47.8935 62.1712 47.8253 62.4709 47.6889 62.7294C47.5526 62.9851 47.3651 63.1953 47.1264 63.3601C46.8906 63.522 46.6208 63.6371 46.3168 63.7053V63.7905C46.6492 63.8047 46.9602 63.8984 47.25 64.0717C47.5426 64.245 47.7799 64.4879 47.9617 64.8004C48.1435 65.1101 48.2344 65.4794 48.2344 65.9084C48.2344 66.3714 48.1193 66.7848 47.8892 67.1484C47.662 67.5092 47.3253 67.7947 46.8793 68.005C46.4333 68.2152 45.8835 68.3203 45.2301 68.3203H41.5014ZM43.3466 66.8118H44.8509C45.3651 66.8118 45.7401 66.7138 45.9759 66.5178C46.2117 66.3189 46.3296 66.0547 46.3296 65.7251C46.3296 65.4837 46.2713 65.2706 46.1549 65.0859C46.0384 64.9013 45.8722 64.7564 45.6563 64.6513C45.4432 64.5462 45.1889 64.4936 44.8935 64.4936H43.3466V66.8118ZM43.3466 63.245H44.7145C44.9674 63.245 45.1918 63.201 45.3878 63.1129C45.5867 63.022 45.7429 62.8942 45.8566 62.7294C45.973 62.5646 46.0313 62.3672 46.0313 62.1371C46.0313 61.8217 45.9191 61.5675 45.6946 61.3743C45.473 61.1811 45.1577 61.0845 44.7486 61.0845H43.3466V63.245ZM49.435 68.3203V59.593H52.8782C53.5373 59.593 54.0998 59.7109 54.5657 59.9467C55.0345 60.1797 55.391 60.5107 55.6353 60.9396C55.8825 61.3658 56.0061 61.8672 56.0061 62.4439C56.0061 63.0234 55.8811 63.522 55.6311 63.9396C55.3811 64.3544 55.0188 64.6726 54.5444 64.8942C54.0728 65.1158 53.5018 65.2266 52.8313 65.2266H50.5259V63.7436H52.533C52.8853 63.7436 53.1779 63.6953 53.4109 63.5987C53.6438 63.5021 53.8171 63.3572 53.9308 63.1641C54.0473 62.9709 54.1055 62.7308 54.1055 62.4439C54.1055 62.1541 54.0473 61.9098 53.9308 61.7109C53.8171 61.5121 53.6424 61.3615 53.4066 61.2592C53.1737 61.1541 52.8796 61.1016 52.5245 61.1016H51.2802V68.3203H49.435ZM54.1481 64.3487L56.3171 68.3203H54.2802L52.158 64.3487H54.1481ZM58.8143 68.3203H56.837L59.8498 59.593H62.2277L65.2362 68.3203H63.2589L61.0728 61.5874H61.0046L58.8143 68.3203ZM58.6907 64.8899H63.3612V66.3303H58.6907V64.8899ZM73.5863 59.593V68.3203H71.9926L68.1957 62.8274H68.1318V68.3203H66.2866V59.593H67.9059L71.673 65.0817H71.7497V59.593H73.5863ZM78.2046 68.3203H75.1108V59.593H78.2301C79.108 59.593 79.8637 59.7678 80.4972 60.1172C81.1307 60.4638 81.6179 60.9624 81.9588 61.6129C82.3026 62.2635 82.4745 63.0419 82.4745 63.9482C82.4745 64.8572 82.3026 65.6385 81.9588 66.2919C81.6179 66.9453 81.1279 67.4467 80.4887 67.7962C79.8523 68.1456 79.0909 68.3203 78.2046 68.3203ZM76.956 66.7393H78.1279C78.6733 66.7393 79.1321 66.6428 79.5043 66.4496C79.8793 66.2536 80.1605 65.951 80.348 65.5419C80.5384 65.13 80.6335 64.5987 80.6335 63.9482C80.6335 63.3033 80.5384 62.7763 80.348 62.3672C80.1605 61.9581 79.8807 61.657 79.5085 61.4638C79.1364 61.2706 78.6776 61.174 78.1321 61.174H76.956V66.7393ZM85.6865 59.593V68.3203H83.8413V59.593H85.6865ZM94.5043 59.593V68.3203H92.9105L89.1137 62.8274H89.0497V68.3203H87.2046V59.593H88.8239L92.5909 65.0817H92.6676V59.593H94.5043ZM101.816 62.4141C101.756 62.2067 101.672 62.0234 101.564 61.8643C101.456 61.7024 101.324 61.5661 101.168 61.4553C101.015 61.3416 100.838 61.255 100.64 61.1953C100.444 61.1357 100.226 61.1058 99.9876 61.1058C99.5416 61.1058 99.1495 61.2166 98.8115 61.4382C98.4762 61.6598 98.2149 61.9822 98.0274 62.4055C97.8399 62.826 97.7461 63.3402 97.7461 63.9482C97.7461 64.5561 97.8384 65.0732 98.0231 65.4993C98.2078 65.9254 98.4691 66.2507 98.8072 66.4751C99.1453 66.6967 99.5444 66.8075 100.005 66.8075C100.422 66.8075 100.779 66.7337 101.074 66.5859C101.373 66.4354 101.6 66.2237 101.756 65.951C101.915 65.6783 101.995 65.3558 101.995 64.9837L102.37 65.0391H100.12V63.6499H103.772V64.7493C103.772 65.5163 103.61 66.1754 103.286 66.7266C102.962 67.2749 102.516 67.6982 101.948 67.9964C101.38 68.2919 100.729 68.4396 99.9961 68.4396C99.1779 68.4396 98.4592 68.2592 97.8399 67.8984C97.2205 67.5348 96.7376 67.0192 96.391 66.3516C96.0473 65.6811 95.8754 64.8857 95.8754 63.9652C95.8754 63.2578 95.9777 62.6271 96.1822 62.0732C96.3896 61.5163 96.6794 61.0447 97.0515 60.6584C97.4237 60.272 97.8569 59.978 98.3512 59.7763C98.8455 59.5746 99.3811 59.4737 99.9578 59.4737C100.452 59.4737 100.912 59.5462 101.338 59.6911C101.765 59.8331 102.142 60.0348 102.472 60.2962C102.804 60.5575 103.076 60.8686 103.286 61.2294C103.496 61.5874 103.631 61.9822 103.691 62.4141H101.816Z" fill="#B5B5B5"/>
<rect x="40.7429" y="82.3203" width="260" height="13.9636" rx="6.98182" fill="#18181F"/>
<rect x="40.7429" y="82.3564" width="219" height="13.9636" rx="6.98182" fill="#6360FF"/>
<path d="M14.3715 133.512C13.2598 133.512 12.1937 133.07 11.4076 132.284C10.6215 131.498 10.1799 130.432 10.1799 129.32C10.1799 128.208 10.6215 127.142 11.4076 126.356C12.1937 125.57 13.2598 125.128 14.3715 125.128C15.4832 125.128 16.5494 125.57 17.3355 126.356C18.1216 127.142 18.5632 128.208 18.5632 129.32C18.5632 130.432 18.1216 131.498 17.3355 132.284C16.5494 133.07 15.4832 133.512 14.3715 133.512ZM23.2698 130.482C23.3177 130.098 23.3537 129.715 23.3537 129.32C23.3537 128.925 23.3177 128.53 23.2698 128.122L25.7968 126.17C26.0244 125.991 26.0842 125.667 25.9405 125.404L23.5453 121.26C23.4016 120.996 23.0782 120.889 22.8147 120.996L19.8327 122.194C19.2099 121.727 18.5632 121.32 17.8087 121.02L17.3656 117.847C17.3412 117.706 17.2678 117.578 17.1582 117.486C17.0486 117.394 16.9099 117.343 16.7668 117.344H11.9763C11.6769 117.344 11.4254 117.559 11.3775 117.847L10.9344 121.02C10.1799 121.32 9.53314 121.727 8.91037 122.194L5.9283 120.996C5.66483 120.889 5.34147 120.996 5.19775 121.26L2.80252 125.404C2.64682 125.667 2.71868 125.991 2.94623 126.17L5.47321 128.122C5.4253 128.53 5.38937 128.925 5.38937 129.32C5.38937 129.715 5.4253 130.098 5.47321 130.482L2.94623 132.47C2.71868 132.649 2.64682 132.973 2.80252 133.236L5.19775 137.38C5.34147 137.643 5.66483 137.739 5.9283 137.643L8.91037 136.434C9.53314 136.913 10.1799 137.32 10.9344 137.619L11.3775 140.793C11.4254 141.081 11.6769 141.296 11.9763 141.296H16.7668C17.0662 141.296 17.3177 141.081 17.3656 140.793L17.8087 137.619C18.5632 137.308 19.2099 136.913 19.8327 136.434L22.8147 137.643C23.0782 137.739 23.4016 137.643 23.5453 137.38L25.9405 133.236C26.0842 132.973 26.0244 132.649 25.7968 132.47L23.2698 130.482Z" fill="white"/>
<path d="M44.527 122.32H41.7017V113.593H44.6165C45.4716 113.593 46.206 113.768 46.8196 114.117C47.4333 114.464 47.9034 114.962 48.2301 115.613C48.5597 116.261 48.7245 117.038 48.7245 117.944C48.7245 118.853 48.5583 119.634 48.2259 120.288C47.8963 120.941 47.4191 121.444 46.7941 121.796C46.1691 122.146 45.4134 122.32 44.527 122.32ZM43.0185 121.17H44.4546C45.1193 121.17 45.6719 121.045 46.1122 120.795C46.5526 120.542 46.8821 120.177 47.1009 119.7C47.3196 119.219 47.429 118.634 47.429 117.944C47.429 117.259 47.3196 116.678 47.1009 116.201C46.885 115.724 46.5625 115.362 46.1335 115.114C45.7046 114.867 45.1719 114.744 44.5355 114.744H43.0185V121.17ZM50.3619 122.32V113.593H55.8335V114.727H51.6786V117.386H55.548V118.515H51.6786V121.187H55.8846V122.32H50.3619ZM62.3523 115.886C62.3068 115.482 62.1193 115.17 61.7898 114.948C61.4602 114.724 61.0455 114.612 60.5455 114.612C60.1875 114.612 59.8779 114.668 59.6165 114.782C59.3551 114.893 59.152 115.046 59.0071 115.242C58.8651 115.435 58.7941 115.656 58.7941 115.903C58.7941 116.11 58.8424 116.289 58.9389 116.44C59.0384 116.59 59.1676 116.717 59.3267 116.819C59.4887 116.918 59.662 117.002 59.8466 117.07C60.0313 117.136 60.2088 117.19 60.3793 117.232L61.2316 117.454C61.51 117.522 61.7955 117.614 62.0881 117.731C62.3807 117.847 62.652 118.001 62.902 118.191C63.152 118.381 63.3537 118.617 63.5071 118.898C63.6634 119.18 63.7415 119.516 63.7415 119.908C63.7415 120.403 63.6137 120.842 63.358 121.225C63.1051 121.609 62.7372 121.911 62.2543 122.133C61.7742 122.354 61.1932 122.465 60.5114 122.465C59.858 122.465 59.2926 122.362 58.8154 122.154C58.3381 121.947 57.9645 121.653 57.6946 121.272C57.4247 120.888 57.2756 120.434 57.2472 119.908H58.5682C58.5938 120.224 58.696 120.487 58.875 120.697C59.0568 120.904 59.2884 121.059 59.5696 121.161C59.8537 121.261 60.1648 121.31 60.5029 121.31C60.875 121.31 61.206 121.252 61.4958 121.136C61.7884 121.016 62.0185 120.852 62.1861 120.641C62.3537 120.428 62.4375 120.18 62.4375 119.896C62.4375 119.637 62.3637 119.425 62.2159 119.261C62.071 119.096 61.8736 118.96 61.6236 118.852C61.3764 118.744 61.0966 118.648 60.7841 118.566L59.7529 118.285C59.054 118.094 58.5 117.815 58.0909 117.445C57.6847 117.076 57.4816 116.587 57.4816 115.979C57.4816 115.477 57.6179 115.038 57.8906 114.663C58.1634 114.288 58.5327 113.996 58.9986 113.789C59.4645 113.579 59.9901 113.474 60.5753 113.474C61.1662 113.474 61.6875 113.577 62.1392 113.785C62.5938 113.992 62.9517 114.278 63.2131 114.641C63.4745 115.002 63.6108 115.417 63.6222 115.886H62.3523ZM66.6318 113.593V122.32H65.315V113.593H66.6318ZM74.4556 116.35C74.3732 116.092 74.2625 115.86 74.1232 115.656C73.9869 115.448 73.8235 115.272 73.6332 115.127C73.4428 114.979 73.2255 114.867 72.9812 114.79C72.7397 114.714 72.4741 114.675 72.1843 114.675C71.6928 114.675 71.2497 114.802 70.8548 115.055C70.4599 115.308 70.1474 115.678 69.9173 116.167C69.69 116.653 69.5764 117.248 69.5764 117.952C69.5764 118.66 69.6914 119.258 69.9215 119.746C70.1517 120.235 70.467 120.606 70.8676 120.859C71.2681 121.112 71.7241 121.238 72.2355 121.238C72.7099 121.238 73.1232 121.141 73.4755 120.948C73.8306 120.755 74.1048 120.482 74.298 120.13C74.494 119.775 74.592 119.357 74.592 118.877L74.9329 118.941H72.4357V117.854H75.8661V118.847C75.8661 119.58 75.7099 120.217 75.3974 120.756C75.0877 121.293 74.6588 121.708 74.1105 122.001C73.565 122.293 72.94 122.44 72.2355 122.44C71.4457 122.44 70.7525 122.258 70.1559 121.894C69.5622 121.531 69.0991 121.015 68.7667 120.347C68.4343 119.677 68.2681 118.881 68.2681 117.961C68.2681 117.265 68.3647 116.64 68.5579 116.086C68.7511 115.532 69.0224 115.062 69.3718 114.675C69.7241 114.286 70.1375 113.989 70.6119 113.785C71.0892 113.577 71.6105 113.474 72.1758 113.474C72.6474 113.474 73.0863 113.543 73.4926 113.683C73.9017 113.822 74.2653 114.019 74.5835 114.275C74.9045 114.531 75.1701 114.835 75.3803 115.187C75.5906 115.536 75.7326 115.924 75.8065 116.35H74.4556ZM84.5817 113.593V122.32H83.3715L78.9354 115.92H78.8544V122.32H77.5377V113.593H78.7564L83.1968 120.002H83.2777V113.593H84.5817ZM94.4382 115.886C94.3928 115.482 94.2053 115.17 93.8757 114.948C93.5462 114.724 93.1314 114.612 92.6314 114.612C92.2735 114.612 91.9638 114.668 91.7024 114.782C91.4411 114.893 91.2379 115.046 91.0931 115.242C90.951 115.435 90.88 115.656 90.88 115.903C90.88 116.11 90.9283 116.289 91.0249 116.44C91.1243 116.59 91.2536 116.717 91.4127 116.819C91.5746 116.918 91.7479 117.002 91.9326 117.07C92.1172 117.136 92.2948 117.19 92.4652 117.232L93.3175 117.454C93.5959 117.522 93.8814 117.614 94.174 117.731C94.4666 117.847 94.7379 118.001 94.9879 118.191C95.2379 118.381 95.4397 118.617 95.5931 118.898C95.7493 119.18 95.8274 119.516 95.8274 119.908C95.8274 120.403 95.6996 120.842 95.4439 121.225C95.1911 121.609 94.8232 121.911 94.3402 122.133C93.8601 122.354 93.2791 122.465 92.5973 122.465C91.9439 122.465 91.3786 122.362 90.9013 122.154C90.424 121.947 90.0504 121.653 89.7806 121.272C89.5107 120.888 89.3615 120.434 89.3331 119.908H90.6541C90.6797 120.224 90.782 120.487 90.961 120.697C91.1428 120.904 91.3743 121.059 91.6556 121.161C91.9397 121.261 92.2507 121.31 92.5888 121.31C92.961 121.31 93.2919 121.252 93.5817 121.136C93.8743 121.016 94.1044 120.852 94.272 120.641C94.4397 120.428 94.5235 120.18 94.5235 119.896C94.5235 119.637 94.4496 119.425 94.3019 119.261C94.157 119.096 93.9595 118.96 93.7095 118.852C93.4624 118.744 93.1826 118.648 92.8701 118.566L91.8388 118.285C91.1399 118.094 90.586 117.815 90.1769 117.445C89.7706 117.076 89.5675 116.587 89.5675 115.979C89.5675 115.477 89.7039 115.038 89.9766 114.663C90.2493 114.288 90.6186 113.996 91.0845 113.789C91.5504 113.579 92.076 113.474 92.6612 113.474C93.2522 113.474 93.7735 113.577 94.2252 113.785C94.6797 113.992 95.0377 114.278 95.299 114.641C95.5604 115.002 95.6968 115.417 95.7081 115.886H94.4382ZM96.7277 113.593H98.2234L100.503 117.56H100.597L102.877 113.593H104.373L101.206 118.894V122.32H99.8938V118.894L96.7277 113.593ZM110.376 115.886C110.33 115.482 110.143 115.17 109.813 114.948C109.484 114.724 109.069 114.612 108.569 114.612C108.211 114.612 107.901 114.668 107.64 114.782C107.379 114.893 107.175 115.046 107.031 115.242C106.889 115.435 106.817 115.656 106.817 115.903C106.817 116.11 106.866 116.289 106.962 116.44C107.062 116.59 107.191 116.717 107.35 116.819C107.512 116.918 107.685 117.002 107.87 117.07C108.055 117.136 108.232 117.19 108.403 117.232L109.255 117.454C109.533 117.522 109.819 117.614 110.112 117.731C110.404 117.847 110.675 118.001 110.925 118.191C111.175 118.381 111.377 118.617 111.531 118.898C111.687 119.18 111.765 119.516 111.765 119.908C111.765 120.403 111.637 120.842 111.381 121.225C111.129 121.609 110.761 121.911 110.278 122.133C109.798 122.354 109.217 122.465 108.535 122.465C107.881 122.465 107.316 122.362 106.839 122.154C106.362 121.947 105.988 121.653 105.718 121.272C105.448 120.888 105.299 120.434 105.271 119.908H106.592C106.617 120.224 106.719 120.487 106.898 120.697C107.08 120.904 107.312 121.059 107.593 121.161C107.877 121.261 108.188 121.31 108.526 121.31C108.898 121.31 109.229 121.252 109.519 121.136C109.812 121.016 110.042 120.852 110.21 120.641C110.377 120.428 110.461 120.18 110.461 119.896C110.461 119.637 110.387 119.425 110.239 119.261C110.094 119.096 109.897 118.96 109.647 118.852C109.4 118.744 109.12 118.648 108.808 118.566L107.776 118.285C107.077 118.094 106.523 117.815 106.114 117.445C105.708 117.076 105.505 116.587 105.505 115.979C105.505 115.477 105.641 115.038 105.914 114.663C106.187 114.288 106.556 113.996 107.022 113.789C107.488 113.579 108.014 113.474 108.599 113.474C109.19 113.474 109.711 113.577 110.163 113.785C110.617 113.992 110.975 114.278 111.237 114.641C111.498 115.002 111.634 115.417 111.646 115.886H110.376ZM112.908 114.727V113.593H119.662V114.727H116.939V122.32H115.627V114.727H112.908ZM121.155 122.32V113.593H126.626V114.727H122.472V117.386H126.341V118.515H122.472V121.187H126.678V122.32H121.155ZM128.385 113.593H129.983L132.762 120.377H132.864L135.642 113.593H137.24V122.32H135.988V116.005H135.907L133.333 122.308H132.293L129.719 116.001H129.638V122.32H128.385V113.593ZM143.915 115.886C143.869 115.482 143.682 115.17 143.352 114.948C143.023 114.724 142.608 114.612 142.108 114.612C141.75 114.612 141.44 114.668 141.179 114.782C140.918 114.893 140.715 115.046 140.57 115.242C140.428 115.435 140.357 115.656 140.357 115.903C140.357 116.11 140.405 116.289 140.501 116.44C140.601 116.59 140.73 116.717 140.889 116.819C141.051 116.918 141.224 117.002 141.409 117.07C141.594 117.136 141.771 117.19 141.942 117.232L142.794 117.454C143.072 117.522 143.358 117.614 143.651 117.731C143.943 117.847 144.215 118.001 144.465 118.191C144.715 118.381 144.916 118.617 145.07 118.898C145.226 119.18 145.304 119.516 145.304 119.908C145.304 120.403 145.176 120.842 144.92 121.225C144.668 121.609 144.3 121.911 143.817 122.133C143.337 122.354 142.756 122.465 142.074 122.465C141.42 122.465 140.855 122.362 140.378 122.154C139.901 121.947 139.527 121.653 139.257 121.272C138.987 120.888 138.838 120.434 138.81 119.908H140.131C140.156 120.224 140.259 120.487 140.438 120.697C140.619 120.904 140.851 121.059 141.132 121.161C141.416 121.261 141.727 121.31 142.065 121.31C142.438 121.31 142.768 121.252 143.058 121.136C143.351 121.016 143.581 120.852 143.749 120.641C143.916 120.428 144 120.18 144 119.896C144 119.637 143.926 119.425 143.778 119.261C143.634 119.096 143.436 118.96 143.186 118.852C142.939 118.744 142.659 118.648 142.347 118.566L141.315 118.285C140.616 118.094 140.063 117.815 139.653 117.445C139.247 117.076 139.044 116.587 139.044 115.979C139.044 115.477 139.18 115.038 139.453 114.663C139.726 114.288 140.095 113.996 140.561 113.789C141.027 113.579 141.553 113.474 142.138 113.474C142.729 113.474 143.25 113.577 143.702 113.785C144.156 113.992 144.514 114.278 144.776 114.641C145.037 115.002 145.173 115.417 145.185 115.886H143.915Z" fill="#B5B5B5"/>
<rect x="40.7429" y="136.32" width="260" height="14" rx="7" fill="#18181F"/>
<rect x="40.7429" y="136.32" width="196" height="14" rx="7" fill="#6360FF"/>
<path d="M9.58098 190.506L2.39526 183.32L9.58098 176.134L11.2876 177.841L5.77854 183.35L11.2576 188.829L9.58098 190.506ZM19.1619 190.506L17.4553 188.799L22.9644 183.29L17.4853 177.811L19.1619 176.134L26.3477 183.32L19.1619 190.506Z" fill="white"/>
<path d="M41.7017 176.32V167.593H47.1137V168.727H43.0185V171.386H46.7259V172.515H43.0185V176.32H41.7017ZM48.733 176.32V167.593H51.8438C52.5199 167.593 53.081 167.71 53.527 167.942C53.9759 168.175 54.3111 168.498 54.5327 168.91C54.7543 169.319 54.8651 169.792 54.8651 170.329C54.8651 170.863 54.7529 171.333 54.5284 171.739C54.3068 172.143 53.9716 172.457 53.5227 172.681C53.0767 172.906 52.5156 173.018 51.8395 173.018H49.483V171.884H51.7202C52.1463 171.884 52.4929 171.823 52.76 171.701C53.0299 171.579 53.2273 171.401 53.3523 171.168C53.4773 170.935 53.5398 170.656 53.5398 170.329C53.5398 169.999 53.4759 169.714 53.348 169.472C53.223 169.231 53.0256 169.046 52.7557 168.918C52.4887 168.788 52.1378 168.722 51.7031 168.722H50.0497V176.32H48.733ZM53.0412 172.383L55.1975 176.32H53.6975L51.5838 172.383H53.0412ZM64.0483 171.957C64.0483 172.888 63.8779 173.69 63.537 174.36C63.196 175.028 62.7287 175.542 62.135 175.903C61.5441 176.261 60.8722 176.44 60.1193 176.44C59.3637 176.44 58.6889 176.261 58.0952 175.903C57.5043 175.542 57.0384 175.026 56.6975 174.356C56.3566 173.685 56.1861 172.886 56.1861 171.957C56.1861 171.025 56.3566 170.225 56.6975 169.558C57.0384 168.887 57.5043 168.373 58.0952 168.015C58.6889 167.654 59.3637 167.474 60.1193 167.474C60.8722 167.474 61.5441 167.654 62.135 168.015C62.7287 168.373 63.196 168.887 63.537 169.558C63.8779 170.225 64.0483 171.025 64.0483 171.957ZM62.7443 171.957C62.7443 171.246 62.6293 170.648 62.3992 170.163C62.1719 169.674 61.8594 169.305 61.4617 169.055C61.0668 168.802 60.6193 168.675 60.1193 168.675C59.6165 168.675 59.1676 168.802 58.7727 169.055C58.3779 169.305 58.0654 169.674 57.8352 170.163C57.608 170.648 57.4943 171.246 57.4943 171.957C57.4943 172.667 57.608 173.266 57.8352 173.755C58.0654 174.241 58.3779 174.61 58.7727 174.863C59.1676 175.113 59.6165 175.238 60.1193 175.238C60.6193 175.238 61.0668 175.113 61.4617 174.863C61.8594 174.61 62.1719 174.241 62.3992 173.755C62.6293 173.266 62.7443 172.667 62.7443 171.957ZM72.734 167.593V176.32H71.5238L67.0877 169.92H67.0068V176.32H65.69V167.593H66.9088L71.3491 174.002H71.4301V167.593H72.734ZM74.2245 168.727V167.593H80.9787V168.727H78.2557V176.32H76.9432V168.727H74.2245ZM85.5107 171.403V172.511H81.6414V171.403H85.5107ZM87.3111 176.32V167.593H92.7827V168.727H88.6279V171.386H92.4972V172.515H88.6279V175.187H92.8338V176.32H87.3111ZM101.586 167.593V176.32H100.375L95.9393 169.92H95.8583V176.32H94.5416V167.593H95.7603L100.201 174.002H100.282V167.593H101.586ZM106.332 176.32H103.506V167.593H106.421C107.276 167.593 108.011 167.768 108.624 168.117C109.238 168.464 109.708 168.962 110.035 169.613C110.364 170.261 110.529 171.038 110.529 171.944C110.529 172.853 110.363 173.634 110.031 174.288C109.701 174.941 109.224 175.444 108.599 175.796C107.974 176.146 107.218 176.32 106.332 176.32ZM104.823 175.17H106.259C106.924 175.17 107.477 175.045 107.917 174.795C108.357 174.542 108.687 174.177 108.906 173.7C109.124 173.219 109.234 172.634 109.234 171.944C109.234 171.259 109.124 170.678 108.906 170.201C108.69 169.724 108.367 169.362 107.938 169.114C107.509 168.867 106.977 168.744 106.34 168.744H104.823V175.17ZM115.611 171.957C115.611 170.888 115.751 169.906 116.033 169.008C116.314 168.11 116.724 167.282 117.264 166.523H118.432C118.222 166.805 118.026 167.15 117.844 167.559C117.662 167.968 117.503 168.417 117.366 168.906C117.23 169.391 117.124 169.896 117.047 170.418C116.97 170.938 116.932 171.451 116.932 171.957C116.932 172.633 116.999 173.317 117.132 174.011C117.266 174.704 117.446 175.347 117.673 175.941C117.901 176.535 118.153 177.019 118.432 177.394H117.264C116.724 176.636 116.314 175.808 116.033 174.91C115.751 174.012 115.611 173.028 115.611 171.957ZM119.878 176.32V167.593H121.194V171.386H125.545V167.593H126.866V176.32H125.545V172.515H121.194V176.32H119.878ZM128.353 168.727V167.593H135.108V168.727H132.385V176.32H131.072V168.727H128.353ZM136.6 167.593H138.198L140.977 174.377H141.079L143.857 167.593H145.455V176.32H144.202V170.005H144.121L141.548 176.308H140.508L137.934 170.001H137.853V176.32H136.6V167.593ZM147.37 176.32V167.593H148.686V175.187H152.641V176.32H147.37ZM155.699 175.127L155.635 175.592C155.592 175.933 155.52 176.288 155.417 176.657C155.318 177.029 155.214 177.374 155.106 177.692C155.001 178.011 154.914 178.263 154.846 178.451H153.943C153.98 178.275 154.031 178.036 154.096 177.735C154.162 177.437 154.226 177.103 154.288 176.734C154.351 176.364 154.397 175.988 154.429 175.604L154.471 175.127H155.699ZM167.884 170.431H166.554C166.503 170.147 166.408 169.897 166.269 169.681C166.13 169.465 165.959 169.282 165.757 169.131C165.556 168.981 165.33 168.867 165.08 168.79C164.833 168.714 164.57 168.675 164.292 168.675C163.789 168.675 163.338 168.802 162.941 169.055C162.546 169.308 162.233 169.678 162.003 170.167C161.776 170.656 161.662 171.252 161.662 171.957C161.662 172.667 161.776 173.266 162.003 173.755C162.233 174.244 162.547 174.613 162.945 174.863C163.343 175.113 163.79 175.238 164.287 175.238C164.563 175.238 164.824 175.201 165.071 175.127C165.321 175.05 165.547 174.938 165.749 174.79C165.951 174.643 166.121 174.462 166.26 174.249C166.402 174.033 166.5 173.786 166.554 173.508L167.884 173.512C167.813 173.941 167.675 174.336 167.471 174.697C167.269 175.055 167.009 175.364 166.691 175.626C166.375 175.884 166.015 176.085 165.608 176.227C165.202 176.369 164.759 176.44 164.279 176.44C163.523 176.44 162.85 176.261 162.259 175.903C161.668 175.542 161.202 175.026 160.861 174.356C160.523 173.685 160.354 172.886 160.354 171.957C160.354 171.025 160.525 170.225 160.865 169.558C161.206 168.887 161.672 168.373 162.263 168.015C162.854 167.654 163.526 167.474 164.279 167.474C164.742 167.474 165.174 167.54 165.574 167.674C165.978 167.805 166.34 167.998 166.661 168.254C166.982 168.506 167.248 168.816 167.458 169.183C167.668 169.546 167.81 169.962 167.884 170.431ZM174.219 169.886C174.174 169.482 173.987 169.17 173.657 168.948C173.327 168.724 172.913 168.612 172.413 168.612C172.055 168.612 171.745 168.668 171.484 168.782C171.222 168.893 171.019 169.046 170.874 169.242C170.732 169.435 170.661 169.656 170.661 169.903C170.661 170.11 170.71 170.289 170.806 170.44C170.906 170.59 171.035 170.717 171.194 170.819C171.356 170.918 171.529 171.002 171.714 171.07C171.898 171.136 172.076 171.19 172.246 171.232L173.099 171.454C173.377 171.522 173.663 171.614 173.955 171.731C174.248 171.847 174.519 172.001 174.769 172.191C175.019 172.381 175.221 172.617 175.374 172.898C175.531 173.18 175.609 173.516 175.609 173.908C175.609 174.403 175.481 174.842 175.225 175.225C174.972 175.609 174.604 175.911 174.121 176.133C173.641 176.354 173.06 176.465 172.379 176.465C171.725 176.465 171.16 176.362 170.683 176.154C170.205 175.947 169.832 175.653 169.562 175.272C169.292 174.888 169.143 174.434 169.114 173.908H170.435C170.461 174.224 170.563 174.487 170.742 174.697C170.924 174.904 171.156 175.059 171.437 175.161C171.721 175.261 172.032 175.31 172.37 175.31C172.742 175.31 173.073 175.252 173.363 175.136C173.656 175.016 173.886 174.852 174.053 174.641C174.221 174.428 174.305 174.18 174.305 173.896C174.305 173.637 174.231 173.425 174.083 173.261C173.938 173.096 173.741 172.96 173.491 172.852C173.244 172.744 172.964 172.648 172.651 172.566L171.62 172.285C170.921 172.094 170.367 171.815 169.958 171.445C169.552 171.076 169.349 170.587 169.349 169.979C169.349 169.477 169.485 169.038 169.758 168.663C170.031 168.288 170.4 167.996 170.866 167.789C171.332 167.579 171.857 167.474 172.442 167.474C173.033 167.474 173.555 167.577 174.006 167.785C174.461 167.992 174.819 168.278 175.08 168.641C175.342 169.002 175.478 169.417 175.489 169.886H174.219ZM181.942 169.886C181.897 169.482 181.709 169.17 181.38 168.948C181.05 168.724 180.635 168.612 180.135 168.612C179.777 168.612 179.468 168.668 179.206 168.782C178.945 168.893 178.742 169.046 178.597 169.242C178.455 169.435 178.384 169.656 178.384 169.903C178.384 170.11 178.432 170.289 178.529 170.44C178.628 170.59 178.757 170.717 178.917 170.819C179.079 170.918 179.252 171.002 179.436 171.07C179.621 171.136 179.799 171.19 179.969 171.232L180.821 171.454C181.1 171.522 181.385 171.614 181.678 171.731C181.971 171.847 182.242 172.001 182.492 172.191C182.742 172.381 182.944 172.617 183.097 172.898C183.253 173.18 183.331 173.516 183.331 173.908C183.331 174.403 183.204 174.842 182.948 175.225C182.695 175.609 182.327 175.911 181.844 176.133C181.364 176.354 180.783 176.465 180.101 176.465C179.448 176.465 178.882 176.362 178.405 176.154C177.928 175.947 177.554 175.653 177.284 175.272C177.015 174.888 176.865 174.434 176.837 173.908H178.158C178.184 174.224 178.286 174.487 178.465 174.697C178.647 174.904 178.878 175.059 179.159 175.161C179.444 175.261 179.755 175.31 180.093 175.31C180.465 175.31 180.796 175.252 181.086 175.136C181.378 175.016 181.608 174.852 181.776 174.641C181.944 174.428 182.027 174.18 182.027 173.896C182.027 173.637 181.954 173.425 181.806 173.261C181.661 173.096 181.463 172.96 181.213 172.852C180.966 172.744 180.686 172.648 180.374 172.566L179.343 172.285C178.644 172.094 178.09 171.815 177.681 171.445C177.275 171.076 177.071 170.587 177.071 169.979C177.071 169.477 177.208 169.038 177.48 168.663C177.753 168.288 178.123 167.996 178.588 167.789C179.054 167.579 179.58 167.474 180.165 167.474C180.756 167.474 181.277 167.577 181.729 167.785C182.184 167.992 182.542 168.278 182.803 168.641C183.064 169.002 183.201 169.417 183.212 169.886H181.942ZM186.46 175.127L186.396 175.592C186.354 175.933 186.281 176.288 186.179 176.657C186.08 177.029 185.976 177.374 185.868 177.692C185.763 178.011 185.676 178.263 185.608 178.451H184.705C184.741 178.275 184.793 178.036 184.858 177.735C184.923 177.437 184.987 177.103 185.05 176.734C185.112 176.364 185.159 175.988 185.19 175.604L185.233 175.127H186.46ZM194.789 167.593H196.102V173.781C196.102 174.34 195.991 174.819 195.769 175.217C195.55 175.614 195.242 175.918 194.844 176.129C194.447 176.336 193.981 176.44 193.447 176.44C192.955 176.44 192.514 176.35 192.121 176.171C191.732 175.992 191.424 175.732 191.197 175.391C190.972 175.048 190.86 174.63 190.86 174.138H192.168C192.168 174.38 192.224 174.589 192.335 174.765C192.448 174.941 192.603 175.079 192.799 175.178C192.998 175.275 193.225 175.323 193.481 175.323C193.759 175.323 193.995 175.265 194.188 175.148C194.384 175.029 194.533 174.854 194.636 174.624C194.738 174.394 194.789 174.113 194.789 173.781V167.593ZM202.778 169.886C202.733 169.482 202.545 169.17 202.216 168.948C201.886 168.724 201.471 168.612 200.971 168.612C200.613 168.612 200.304 168.668 200.042 168.782C199.781 168.893 199.578 169.046 199.433 169.242C199.291 169.435 199.22 169.656 199.22 169.903C199.22 170.11 199.268 170.289 199.365 170.44C199.464 170.59 199.593 170.717 199.753 170.819C199.914 170.918 200.088 171.002 200.272 171.07C200.457 171.136 200.635 171.19 200.805 171.232L201.657 171.454C201.936 171.522 202.221 171.614 202.514 171.731C202.806 171.847 203.078 172.001 203.328 172.191C203.578 172.381 203.779 172.617 203.933 172.898C204.089 173.18 204.167 173.516 204.167 173.908C204.167 174.403 204.039 174.842 203.784 175.225C203.531 175.609 203.163 175.911 202.68 176.133C202.2 176.354 201.619 176.465 200.937 176.465C200.284 176.465 199.718 176.362 199.241 176.154C198.764 175.947 198.39 175.653 198.12 175.272C197.851 174.888 197.701 174.434 197.673 173.908H198.994C199.02 174.224 199.122 174.487 199.301 174.697C199.483 174.904 199.714 175.059 199.995 175.161C200.279 175.261 200.591 175.31 200.929 175.31C201.301 175.31 201.632 175.252 201.922 175.136C202.214 175.016 202.444 174.852 202.612 174.641C202.779 174.428 202.863 174.18 202.863 173.896C202.863 173.637 202.789 173.425 202.642 173.261C202.497 173.096 202.299 172.96 202.049 172.852C201.802 172.744 201.522 172.648 201.21 172.566L200.179 172.285C199.48 172.094 198.926 171.815 198.517 171.445C198.11 171.076 197.907 170.587 197.907 169.979C197.907 169.477 198.044 169.038 198.316 168.663C198.589 168.288 198.958 167.996 199.424 167.789C199.89 167.579 200.416 167.474 201.001 167.474C201.592 167.474 202.113 167.577 202.565 167.785C203.02 167.992 203.378 168.278 203.639 168.641C203.9 169.002 204.037 169.417 204.048 169.886H202.778ZM207.296 175.127L207.232 175.592C207.19 175.933 207.117 176.288 207.015 176.657C206.916 177.029 206.812 177.374 206.704 177.692C206.599 178.011 206.512 178.263 206.444 178.451H205.541C205.577 178.275 205.629 178.036 205.694 177.735C205.759 177.437 205.823 177.103 205.886 176.734C205.948 176.364 205.995 175.988 206.026 175.604L206.069 175.127H207.296ZM212.233 176.32V167.593H215.344C216.02 167.593 216.581 167.71 217.027 167.942C217.476 168.175 217.811 168.498 218.033 168.91C218.254 169.319 218.365 169.792 218.365 170.329C218.365 170.863 218.253 171.333 218.028 171.739C217.807 172.143 217.472 172.457 217.023 172.681C216.577 172.906 216.016 173.018 215.34 173.018H212.983V171.884H215.22C215.646 171.884 215.993 171.823 216.26 171.701C216.53 171.579 216.727 171.401 216.852 171.168C216.977 170.935 217.04 170.656 217.04 170.329C217.04 169.999 216.976 169.714 216.848 169.472C216.723 169.231 216.526 169.046 216.256 168.918C215.989 168.788 215.638 168.722 215.203 168.722H213.55V176.32H212.233ZM216.541 172.383L218.697 176.32H217.197L215.084 172.383H216.541ZM222.604 176.452C221.959 176.452 221.404 176.315 220.938 176.039C220.475 175.761 220.117 175.37 219.864 174.867C219.614 174.362 219.489 173.769 219.489 173.09C219.489 172.42 219.614 171.829 219.864 171.317C220.117 170.806 220.469 170.407 220.921 170.12C221.375 169.833 221.907 169.69 222.515 169.69C222.884 169.69 223.242 169.751 223.588 169.873C223.935 169.995 224.246 170.187 224.522 170.448C224.797 170.71 225.015 171.049 225.174 171.467C225.333 171.881 225.412 172.386 225.412 172.979V173.431H220.209V172.477H224.164C224.164 172.141 224.096 171.844 223.959 171.586C223.823 171.325 223.631 171.119 223.384 170.968C223.14 170.817 222.853 170.742 222.523 170.742C222.165 170.742 221.853 170.83 221.586 171.006C221.321 171.18 221.117 171.407 220.972 171.688C220.83 171.967 220.759 172.269 220.759 172.596V173.342C220.759 173.779 220.836 174.151 220.989 174.458C221.145 174.765 221.363 174.999 221.641 175.161C221.919 175.32 222.245 175.4 222.617 175.4C222.858 175.4 223.079 175.366 223.277 175.298C223.476 175.227 223.648 175.121 223.793 174.982C223.938 174.843 224.049 174.671 224.125 174.467L225.331 174.684C225.235 175.039 225.061 175.35 224.811 175.617C224.564 175.881 224.253 176.087 223.878 176.235C223.506 176.38 223.081 176.452 222.604 176.452ZM228.731 176.465C228.316 176.465 227.941 176.388 227.606 176.235C227.271 176.079 227.005 175.853 226.809 175.558C226.616 175.262 226.519 174.9 226.519 174.471C226.519 174.102 226.59 173.798 226.732 173.559C226.874 173.32 227.066 173.131 227.308 172.992C227.549 172.853 227.819 172.748 228.117 172.677C228.416 172.606 228.719 172.552 229.029 172.515C229.421 172.469 229.739 172.433 229.984 172.404C230.228 172.373 230.406 172.323 230.516 172.255C230.627 172.187 230.683 172.076 230.683 171.923V171.893C230.683 171.521 230.577 171.232 230.367 171.028C230.16 170.823 229.85 170.721 229.438 170.721C229.009 170.721 228.671 170.816 228.424 171.006C228.18 171.194 228.011 171.403 227.917 171.633L226.719 171.36C226.862 170.962 227.069 170.641 227.342 170.397C227.617 170.15 227.934 169.971 228.292 169.86C228.65 169.746 229.026 169.69 229.421 169.69C229.683 169.69 229.96 169.721 230.252 169.783C230.548 169.843 230.823 169.954 231.079 170.116C231.337 170.278 231.549 170.509 231.714 170.81C231.879 171.109 231.961 171.496 231.961 171.974V176.32H230.717V175.425H230.666C230.583 175.59 230.46 175.752 230.295 175.911C230.13 176.07 229.918 176.202 229.66 176.308C229.401 176.413 229.092 176.465 228.731 176.465ZM229.008 175.442C229.36 175.442 229.661 175.373 229.911 175.234C230.164 175.094 230.356 174.913 230.487 174.688C230.62 174.461 230.687 174.218 230.687 173.96V173.116C230.641 173.161 230.553 173.204 230.423 173.244C230.295 173.281 230.148 173.313 229.984 173.342C229.819 173.367 229.658 173.391 229.502 173.414C229.346 173.434 229.215 173.451 229.11 173.465C228.863 173.496 228.637 173.549 228.433 173.623C228.231 173.697 228.069 173.803 227.947 173.942C227.827 174.079 227.768 174.261 227.768 174.488C227.768 174.803 227.884 175.042 228.117 175.204C228.35 175.363 228.647 175.442 229.008 175.442ZM236.415 176.452C235.782 176.452 235.236 176.309 234.779 176.022C234.324 175.732 233.975 175.333 233.73 174.825C233.486 174.316 233.364 173.734 233.364 173.077C233.364 172.413 233.489 171.826 233.739 171.317C233.989 170.806 234.341 170.407 234.796 170.12C235.25 169.833 235.786 169.69 236.402 169.69C236.9 169.69 237.343 169.782 237.732 169.967C238.121 170.148 238.435 170.404 238.674 170.734C238.915 171.063 239.059 171.448 239.104 171.888H237.864C237.796 171.582 237.64 171.317 237.395 171.096C237.154 170.874 236.83 170.763 236.424 170.763C236.069 170.763 235.757 170.857 235.49 171.045C235.226 171.229 235.02 171.494 234.873 171.837C234.725 172.178 234.651 172.582 234.651 173.048C234.651 173.525 234.723 173.937 234.868 174.283C235.013 174.63 235.218 174.898 235.482 175.089C235.749 175.279 236.063 175.374 236.424 175.374C236.665 175.374 236.884 175.33 237.08 175.242C237.279 175.151 237.445 175.022 237.579 174.854C237.715 174.687 237.81 174.485 237.864 174.249H239.104C239.059 174.673 238.921 175.05 238.691 175.383C238.461 175.715 238.152 175.977 237.766 176.167C237.382 176.357 236.932 176.452 236.415 176.452ZM243.522 169.775V170.798H239.947V169.775H243.522ZM240.906 168.207H242.18V174.398C242.18 174.646 242.217 174.832 242.291 174.957C242.364 175.079 242.46 175.163 242.576 175.208C242.695 175.251 242.825 175.272 242.964 175.272C243.066 175.272 243.156 175.265 243.232 175.251C243.309 175.237 243.369 175.225 243.411 175.217L243.641 176.269C243.567 176.298 243.462 176.326 243.326 176.354C243.19 176.386 243.019 176.403 242.815 176.406C242.479 176.411 242.167 176.352 241.877 176.227C241.587 176.102 241.353 175.908 241.174 175.647C240.995 175.386 240.906 175.058 240.906 174.663V168.207ZM247.382 172.698C247.382 173.769 247.241 174.754 246.96 175.651C246.679 176.549 246.268 177.377 245.728 178.136H244.561C244.771 177.854 244.967 177.509 245.149 177.1C245.331 176.691 245.49 176.244 245.626 175.758C245.762 175.269 245.869 174.763 245.946 174.241C246.022 173.718 246.061 173.204 246.061 172.698C246.061 172.025 245.994 171.342 245.86 170.648C245.727 169.955 245.547 169.312 245.319 168.718C245.092 168.124 244.839 167.64 244.561 167.265H245.728C246.268 168.023 246.679 168.852 246.96 169.749C247.241 170.647 247.382 171.63 247.382 172.698Z" fill="#B5B5B5"/>
<rect x="40.7429" y="190.32" width="260" height="14" rx="7" fill="#18181F"/>
<rect x="40.7429" y="190.32" width="160" height="14" rx="7" fill="#6360FF"/>
</svg>
