<svg width="302" height="214" viewBox="0 0 302 214" fill="none" xmlns="http://www.w3.org/2000/svg">
<rect width="301.05" height="213.818" fill="#101010"/>
<path d="M17.7068 22.3355L16.4294 21.0576C16.1368 20.7649 15.7402 20.6 15.3264 20.5989C14.9125 20.5978 14.5151 20.7606 14.2209 21.0517L5.33952 29.2482C5.01612 29.553 4.80379 29.9414 4.78422 30.3764C4.77477 30.5921 4.80991 30.8074 4.88744 31.009C4.96497 31.2105 5.08323 31.3939 5.23482 31.5476L7.1429 33.4768C7.14393 33.478 7.14507 33.4792 7.14633 33.4802C7.44121 33.774 7.84014 33.9397 8.25644 33.9411H8.31417C8.74911 33.9249 9.13856 33.7209 9.44777 33.3946L17.7014 24.5538C17.8478 24.4087 17.9641 24.2361 18.0436 24.046C18.1231 23.8558 18.1643 23.6519 18.1648 23.4458C18.1653 23.2397 18.1251 23.0355 18.0465 22.845C17.9679 22.6545 17.8525 22.4813 17.7068 22.3355ZM27.9733 19.7528L27.9581 19.7376L26.2815 18.0781C26.1832 17.9802 26.0666 17.9027 25.9383 17.8501C25.81 17.7976 25.6725 17.7709 25.5339 17.7718C25.3092 17.772 25.0903 17.8429 24.9081 17.9743C24.9081 17.9533 24.9111 17.9327 24.9125 17.9146C24.9345 17.5966 24.9688 17.1162 24.6581 16.6808C24.2887 16.1829 23.8832 15.7129 23.4448 15.2746C23.4436 15.2732 23.4423 15.2719 23.4409 15.2707C22.7892 14.6288 21.3708 13.4199 19.1981 12.5339C18.374 12.1957 17.4918 12.022 16.6011 12.0226C15.057 12.0226 13.8828 12.7193 13.4332 13.1322C13.1786 13.3754 12.9464 13.641 12.7395 13.9258C12.6406 14.0623 12.5884 14.227 12.5906 14.3955C12.5929 14.5641 12.6495 14.7274 12.752 14.8611C12.8545 14.9949 12.9975 15.0921 13.1596 15.1381C13.3217 15.1841 13.4944 15.1766 13.6519 15.1166C13.7891 15.0654 13.9293 15.0224 14.0717 14.9879C14.3682 14.9253 14.6723 14.9063 14.9744 14.9317C15.6197 14.985 16.3829 15.3055 16.7205 15.5721C17.2929 16.0325 17.5684 16.6529 17.6139 17.5824C17.6227 17.7693 17.2362 18.4699 16.6354 19.2694C16.5209 19.4202 16.465 19.6075 16.4781 19.7964C16.4911 19.9853 16.5722 20.1631 16.7063 20.2968L18.3898 21.9803C18.5313 22.1221 18.7217 22.2043 18.922 22.21C19.1222 22.2156 19.3169 22.1443 19.4662 22.0107C19.9422 21.5855 20.6673 20.9446 20.9207 20.7875C21.297 20.5561 21.566 20.5116 21.6399 20.5038C21.8316 20.485 22.0245 20.5257 22.1923 20.6202C22.1931 20.6286 22.1922 20.637 22.1896 20.645C22.187 20.653 22.1827 20.6604 22.1771 20.6667L22.0881 20.7513L22.0734 20.765C21.975 20.863 21.897 20.9796 21.8438 21.1079C21.7907 21.2362 21.7634 21.3737 21.7636 21.5126C21.7639 21.6515 21.7916 21.789 21.8451 21.9171C21.8987 22.0452 21.9771 22.1615 22.0758 22.2592L23.752 23.9183C23.8503 24.0161 23.9669 24.0935 24.0952 24.1459C24.2235 24.1984 24.361 24.225 24.4996 24.224C24.778 24.2245 25.0454 24.1155 25.2442 23.9207L27.9596 21.2386C27.9689 21.2293 27.9782 21.2195 27.987 21.2098C28.1691 21.0101 28.269 20.7488 28.2664 20.4786C28.2639 20.2083 28.1592 19.949 27.9733 19.7528Z" fill="white"/>
<path d="M38.0085 18V9.27273H39.3253V13.0653H43.6761V9.27273H44.9971V18H43.6761V14.1946H39.3253V18H38.0085ZM52.527 9.27273H53.848V15.0128C53.848 15.6236 53.7045 16.1648 53.4176 16.6364C53.1306 17.1051 52.7272 17.4744 52.2074 17.7443C51.6875 18.0114 51.0781 18.1449 50.3792 18.1449C49.6832 18.1449 49.0753 18.0114 48.5554 17.7443C48.0355 17.4744 47.6321 17.1051 47.3451 16.6364C47.0582 16.1648 46.9147 15.6236 46.9147 15.0128V9.27273H48.2315V14.9062C48.2315 15.3011 48.3181 15.652 48.4914 15.9588C48.6676 16.2656 48.9162 16.5071 49.2372 16.6832C49.5582 16.8565 49.9389 16.9432 50.3792 16.9432C50.8224 16.9432 51.2045 16.8565 51.5255 16.6832C51.8494 16.5071 52.0966 16.2656 52.267 15.9588C52.4403 15.652 52.527 15.3011 52.527 14.9062V9.27273ZM55.7624 9.27273H57.3604L60.1388 16.0568H60.2411L63.0195 9.27273H64.6175V18H63.3647V11.6847H63.2837L60.7098 17.9872H59.6701L57.0962 11.6804H57.0152V18H55.7624V9.27273ZM67.2691 18H65.8714L69.012 9.27273H70.5333L73.674 18H72.2762L69.8089 10.858H69.7407L67.2691 18ZM67.5035 14.5824H72.0376V15.6903H67.5035V14.5824ZM81.9783 9.27273V18H80.7681L76.332 11.5994H76.251V18H74.9343V9.27273H76.153L80.5934 15.6818H80.6743V9.27273H81.9783ZM87.6534 13.0824V14.1903H83.7841V13.0824H87.6534ZM96.7024 12.1108H95.3728C95.3217 11.8267 95.2265 11.5767 95.0873 11.3608C94.9481 11.1449 94.7777 10.9616 94.576 10.8111C94.3743 10.6605 94.1484 10.5469 93.8984 10.4702C93.6512 10.3935 93.3885 10.3551 93.1101 10.3551C92.6072 10.3551 92.1569 10.4815 91.7592 10.7344C91.3643 10.9872 91.0518 11.358 90.8217 11.8466C90.5944 12.3352 90.4808 12.9318 90.4808 13.6364C90.4808 14.3466 90.5944 14.946 90.8217 15.4347C91.0518 15.9233 91.3657 16.2926 91.7635 16.5426C92.1612 16.7926 92.6086 16.9176 93.1058 16.9176C93.3814 16.9176 93.6427 16.8807 93.8899 16.8068C94.1399 16.7301 94.3657 16.6179 94.5674 16.4702C94.7691 16.3224 94.9396 16.142 95.0788 15.929C95.2208 15.7131 95.3189 15.4659 95.3728 15.1875L96.7024 15.1918C96.6314 15.6207 96.4936 16.0156 96.289 16.3764C96.0873 16.7344 95.8274 17.044 95.5092 17.3054C95.1939 17.5639 94.8331 17.7642 94.4268 17.9062C94.0206 18.0483 93.5774 18.1193 93.0973 18.1193C92.3416 18.1193 91.6683 17.9403 91.0774 17.5824C90.4865 17.2216 90.0206 16.706 89.6797 16.0355C89.3416 15.3651 89.1726 14.5653 89.1726 13.6364C89.1726 12.7045 89.343 11.9048 89.6839 11.2372C90.0248 10.5668 90.4907 10.0526 91.0816 9.6946C91.6726 9.33381 92.3444 9.15341 93.0973 9.15341C93.5603 9.15341 93.9922 9.22017 94.3927 9.35369C94.7961 9.48437 95.1583 9.67756 95.4794 9.93324C95.8004 10.1861 96.066 10.4957 96.2762 10.8622C96.4865 11.2259 96.6285 11.642 96.7024 12.1108ZM98.278 18V9.27273H103.75V10.4062H99.5948V13.0653H103.464V14.1946H99.5948V16.8665H103.801V18H98.278ZM112.553 9.27273V18H111.342L106.906 11.5994H106.825V18H105.508V9.27273H106.727L111.168 15.6818H111.249V9.27273H112.553ZM114.043 10.4062V9.27273H120.797V10.4062H118.074V18H116.762V10.4062H114.043ZM122.29 18V9.27273H127.761V10.4062H123.607V13.0653H127.476V14.1946H123.607V16.8665H127.812V18H122.29ZM129.52 18V9.27273H132.631C133.307 9.27273 133.868 9.3892 134.314 9.62216C134.763 9.85511 135.098 10.1776 135.32 10.5895C135.542 10.9986 135.652 11.4716 135.652 12.0085C135.652 12.5426 135.54 13.0128 135.316 13.419C135.094 13.8224 134.759 14.1364 134.31 14.3608C133.864 14.5852 133.303 14.6974 132.627 14.6974H130.27V13.5639H132.507C132.934 13.5639 133.28 13.5028 133.547 13.3807C133.817 13.2585 134.015 13.081 134.14 12.848C134.265 12.6151 134.327 12.3352 134.327 12.0085C134.327 11.679 134.263 11.3935 134.135 11.152C134.01 10.9105 133.813 10.7259 133.543 10.598C133.276 10.4673 132.925 10.402 132.49 10.402H130.837V18H129.52ZM133.828 14.0625L135.985 18H134.485L132.371 14.0625H133.828ZM137.255 18V9.27273H142.726V10.4062H138.571V13.0653H142.441V14.1946H138.571V16.8665H142.777V18H137.255ZM147.31 18H144.485V9.27273H147.4C148.255 9.27273 148.989 9.44744 149.603 9.79688C150.217 10.1435 150.687 10.642 151.013 11.2926C151.343 11.9403 151.508 12.7173 151.508 13.6236C151.508 14.5327 151.342 15.3139 151.009 15.9673C150.68 16.6207 150.202 17.1236 149.577 17.4759C148.952 17.8253 148.197 18 147.31 18ZM145.802 16.8494H147.238C147.903 16.8494 148.455 16.7244 148.896 16.4744C149.336 16.2216 149.665 15.8565 149.884 15.3793C150.103 14.8991 150.212 14.3139 150.212 13.6236C150.212 12.9389 150.103 12.358 149.884 11.8807C149.668 11.4034 149.346 11.0412 148.917 10.794C148.488 10.5469 147.955 10.4233 147.319 10.4233H145.802V16.8494ZM159.146 18H156.321V9.27273H159.236C160.091 9.27273 160.825 9.44744 161.439 9.79688C162.053 10.1435 162.523 10.642 162.849 11.2926C163.179 11.9403 163.344 12.7173 163.344 13.6236C163.344 14.5327 163.178 15.3139 162.845 15.9673C162.516 16.6207 162.038 17.1236 161.413 17.4759C160.788 17.8253 160.033 18 159.146 18ZM157.638 16.8494H159.074C159.739 16.8494 160.291 16.7244 160.732 16.4744C161.172 16.2216 161.501 15.8565 161.72 15.3793C161.939 14.8991 162.048 14.3139 162.048 13.6236C162.048 12.9389 161.939 12.358 161.72 11.8807C161.504 11.4034 161.182 11.0412 160.753 10.794C160.324 10.5469 159.791 10.4233 159.155 10.4233H157.638V16.8494ZM164.981 18V9.27273H170.453V10.4062H166.298V13.0653H170.167V14.1946H166.298V16.8665H170.504V18H164.981ZM176.972 11.5653C176.926 11.1619 176.739 10.8494 176.409 10.6278C176.08 10.4034 175.665 10.2912 175.165 10.2912C174.807 10.2912 174.497 10.348 174.236 10.4616C173.974 10.5724 173.771 10.7259 173.626 10.9219C173.484 11.1151 173.413 11.3352 173.413 11.5824C173.413 11.7898 173.462 11.9687 173.558 12.1193C173.658 12.2699 173.787 12.3963 173.946 12.4986C174.108 12.598 174.281 12.6818 174.466 12.75C174.651 12.8153 174.828 12.8693 174.999 12.9119L175.851 13.1335C176.129 13.2017 176.415 13.294 176.707 13.4105C177 13.527 177.271 13.6804 177.521 13.8707C177.771 14.0611 177.973 14.2969 178.126 14.5781C178.283 14.8594 178.361 15.196 178.361 15.5881C178.361 16.0824 178.233 16.5213 177.977 16.9048C177.724 17.2884 177.357 17.5909 176.874 17.8125C176.393 18.0341 175.812 18.1449 175.131 18.1449C174.477 18.1449 173.912 18.0412 173.435 17.8338C172.957 17.6264 172.584 17.3324 172.314 16.9517C172.044 16.5682 171.895 16.1136 171.866 15.5881H173.187C173.213 15.9034 173.315 16.1662 173.494 16.3764C173.676 16.5838 173.908 16.7386 174.189 16.8409C174.473 16.9403 174.784 16.9901 175.122 16.9901C175.494 16.9901 175.825 16.9318 176.115 16.8153C176.408 16.696 176.638 16.5312 176.805 16.321C176.973 16.108 177.057 15.8594 177.057 15.5753C177.057 15.3168 176.983 15.1051 176.835 14.9403C176.69 14.7756 176.493 14.6392 176.243 14.5312C175.996 14.4233 175.716 14.3281 175.403 14.2457L174.372 13.9645C173.673 13.7741 173.119 13.4943 172.71 13.125C172.304 12.7557 172.101 12.267 172.101 11.6591C172.101 11.1562 172.237 10.7173 172.51 10.3423C172.783 9.96733 173.152 9.67614 173.618 9.46875C174.084 9.25852 174.609 9.15341 175.195 9.15341C175.785 9.15341 176.307 9.2571 176.758 9.46449C177.213 9.67188 177.571 9.95739 177.832 10.321C178.094 10.6818 178.23 11.0966 178.241 11.5653H176.972ZM181.251 9.27273V18H179.934V9.27273H181.251ZM189.075 12.0298C188.993 11.7713 188.882 11.5398 188.743 11.3352C188.606 11.1278 188.443 10.9517 188.252 10.8068C188.062 10.6591 187.845 10.5469 187.6 10.4702C187.359 10.3935 187.093 10.3551 186.804 10.3551C186.312 10.3551 185.869 10.4815 185.474 10.7344C185.079 10.9872 184.767 11.358 184.537 11.8466C184.309 12.3324 184.196 12.9276 184.196 13.6321C184.196 14.3395 184.311 14.9375 184.541 15.4261C184.771 15.9148 185.086 16.2855 185.487 16.5384C185.887 16.7912 186.343 16.9176 186.855 16.9176C187.329 16.9176 187.743 16.821 188.095 16.6278C188.45 16.4347 188.724 16.1619 188.917 15.8097C189.113 15.4545 189.211 15.0369 189.211 14.5568L189.552 14.6207H187.055V13.5341H190.485V14.527C190.485 15.2599 190.329 15.8963 190.017 16.4361C189.707 16.973 189.278 17.3878 188.73 17.6804C188.184 17.973 187.559 18.1193 186.855 18.1193C186.065 18.1193 185.372 17.9375 184.775 17.5739C184.181 17.2102 183.718 16.6946 183.386 16.027C183.054 15.3565 182.887 14.5611 182.887 13.6406C182.887 12.9446 182.984 12.3196 183.177 11.7656C183.37 11.2116 183.642 10.7415 183.991 10.3551C184.343 9.96591 184.757 9.66903 185.231 9.46449C185.708 9.2571 186.23 9.15341 186.795 9.15341C187.267 9.15341 187.706 9.22301 188.112 9.36222C188.521 9.50142 188.885 9.69886 189.203 9.95455C189.524 10.2102 189.789 10.5142 190 10.8665C190.21 11.2159 190.352 11.6037 190.426 12.0298H189.075ZM199.201 9.27273V18H197.991L193.555 11.5994H193.474V18H192.157V9.27273H193.376L197.816 15.6818H197.897V9.27273H199.201Z" fill="#B5B5B5"/>
<rect x="36.7997" y="27.75" width="260.5" height="14.4636" fill="#1D1D1F" stroke="#3B3B3B" stroke-width="0.5"/>
<rect x="40.0497" y="31.0727" width="241" height="8" fill="#6360FF"/>
<rect x="40.5497" y="31.5727" width="240" height="7" stroke="white" stroke-opacity="0.05"/>
<path d="M27.484 64.1626C27.484 64.3703 27.4016 64.5694 27.2548 64.7162C27.108 64.863 26.9088 64.9454 26.7012 64.9454H23.57V68.0767H24.3528C24.768 68.0767 25.1663 68.2416 25.4599 68.5352C25.7535 68.8288 25.9184 69.227 25.9184 69.6423V72.7735C25.9184 73.1887 25.7535 73.5869 25.4599 73.8805C25.1663 74.1741 24.768 74.3391 24.3528 74.3391H21.2216C20.8064 74.3391 20.4082 74.1741 20.1146 73.8805C19.821 73.5869 19.656 73.1887 19.656 72.7735V69.6423C19.656 69.227 19.821 68.8288 20.1146 68.5352C20.4082 68.2416 20.8064 68.0767 21.2216 68.0767H22.0044V64.9454H11.0452V68.0767H11.828C12.2432 68.0767 12.6414 68.2416 12.935 68.5352C13.2286 68.8288 13.3936 69.227 13.3936 69.6423V72.7735C13.3936 73.1887 13.2286 73.5869 12.935 73.8805C12.6414 74.1741 12.2432 74.3391 11.828 74.3391H8.69676C8.28154 74.3391 7.88332 74.1741 7.58971 73.8805C7.2961 73.5869 7.13116 73.1887 7.13116 72.7735V69.6423C7.13116 69.227 7.2961 68.8288 7.58971 68.5352C7.88332 68.2416 8.28154 68.0767 8.69676 68.0767H9.47957V64.9454H6.34835C6.14074 64.9454 5.94163 64.863 5.79483 64.7162C5.64803 64.5694 5.56555 64.3703 5.56555 64.1626C5.56555 63.955 5.64803 63.7559 5.79483 63.6091C5.94163 63.4623 6.14074 63.3798 6.34835 63.3798H15.742V61.0314H14.9592C14.544 61.0314 14.1457 60.8665 13.8521 60.5729C13.5585 60.2793 13.3936 59.8811 13.3936 59.4658V56.3346C13.3936 55.9194 13.5585 55.5212 13.8521 55.2276C14.1457 54.934 14.544 54.769 14.9592 54.769H18.0904C18.5056 54.769 18.9038 54.934 19.1974 55.2276C19.4911 55.5212 19.656 55.9194 19.656 56.3346V59.4658C19.656 59.8811 19.4911 60.2793 19.1974 60.5729C18.9038 60.8665 18.5056 61.0314 18.0904 61.0314H17.3076V63.3798H26.7012C26.9088 63.3798 27.108 63.4623 27.2548 63.6091C27.4016 63.7559 27.484 63.955 27.484 64.1626Z" fill="white"/>
<path d="M42.7684 53.529C42.723 53.1256 42.5355 52.8131 42.2059 52.5915C41.8764 52.367 41.4616 52.2548 40.9616 52.2548C40.6037 52.2548 40.294 52.3116 40.0326 52.4253C39.7713 52.5361 39.5681 52.6895 39.4233 52.8855C39.2812 53.0787 39.2102 53.2989 39.2102 53.546C39.2102 53.7534 39.2585 53.9324 39.3551 54.083C39.4545 54.2335 39.5838 54.3599 39.7429 54.4622C39.9048 54.5616 40.0781 54.6455 40.2628 54.7136C40.4474 54.779 40.625 54.833 40.7954 54.8756L41.6477 55.0972C41.9261 55.1653 42.2116 55.2577 42.5042 55.3741C42.7968 55.4906 43.0681 55.644 43.3181 55.8344C43.5681 56.0247 43.7699 56.2605 43.9233 56.5418C44.0795 56.823 44.1576 57.1597 44.1576 57.5517C44.1576 58.046 44.0298 58.4849 43.7741 58.8685C43.5213 59.252 43.1534 59.5545 42.6704 59.7761C42.1903 59.9977 41.6093 60.1085 40.9275 60.1085C40.2741 60.1085 39.7088 60.0048 39.2315 59.7974C38.7542 59.5901 38.3806 59.296 38.1108 58.9153C37.8409 58.5318 37.6917 58.0773 37.6633 57.5517H38.9843C39.0099 57.867 39.1122 58.1298 39.2912 58.3401C39.473 58.5474 39.7045 58.7023 39.9858 58.8045C40.2699 58.904 40.5809 58.9537 40.919 58.9537C41.2912 58.9537 41.6221 58.8955 41.9119 58.779C42.2045 58.6597 42.4346 58.4949 42.6022 58.2847C42.7699 58.0716 42.8537 57.823 42.8537 57.5389C42.8537 57.2804 42.7798 57.0688 42.6321 56.904C42.4872 56.7392 42.2897 56.6028 42.0397 56.4949C41.7926 56.3869 41.5128 56.2918 41.2003 56.2094L40.169 55.9281C39.4701 55.7378 38.9162 55.458 38.5071 55.0886C38.1008 54.7193 37.8977 54.2307 37.8977 53.6227C37.8977 53.1199 38.0341 52.681 38.3068 52.306C38.5795 51.931 38.9488 51.6398 39.4147 51.4324C39.8806 51.2222 40.4062 51.117 40.9914 51.117C41.5824 51.117 42.1037 51.2207 42.5554 51.4281C43.0099 51.6355 43.3679 51.921 43.6292 52.2847C43.8906 52.6455 44.027 53.0602 44.0383 53.529H42.7684ZM45.0579 51.2364H46.5536L48.8334 55.2037H48.9272L51.207 51.2364H52.7027L49.5365 56.5375V59.9636H48.224V56.5375L45.0579 51.2364ZM58.7059 53.529C58.6605 53.1256 58.473 52.8131 58.1434 52.5915C57.8139 52.367 57.3991 52.2548 56.8991 52.2548C56.5412 52.2548 56.2315 52.3116 55.9701 52.4253C55.7088 52.5361 55.5056 52.6895 55.3608 52.8855C55.2187 53.0787 55.1477 53.2989 55.1477 53.546C55.1477 53.7534 55.196 53.9324 55.2926 54.083C55.392 54.2335 55.5213 54.3599 55.6804 54.4622C55.8423 54.5616 56.0156 54.6455 56.2003 54.7136C56.3849 54.779 56.5625 54.833 56.7329 54.8756L57.5852 55.0972C57.8636 55.1653 58.1491 55.2577 58.4417 55.3741C58.7343 55.4906 59.0056 55.644 59.2556 55.8344C59.5056 56.0247 59.7074 56.2605 59.8608 56.5418C60.017 56.823 60.0951 57.1597 60.0951 57.5517C60.0951 58.046 59.9673 58.4849 59.7116 58.8685C59.4588 59.252 59.0909 59.5545 58.6079 59.7761C58.1278 59.9977 57.5468 60.1085 56.865 60.1085C56.2116 60.1085 55.6463 60.0048 55.169 59.7974C54.6917 59.5901 54.3181 59.296 54.0483 58.9153C53.7784 58.5318 53.6292 58.0773 53.6008 57.5517H54.9218C54.9474 57.867 55.0497 58.1298 55.2287 58.3401C55.4105 58.5474 55.642 58.7023 55.9233 58.8045C56.2074 58.904 56.5184 58.9537 56.8565 58.9537C57.2287 58.9537 57.5596 58.8955 57.8494 58.779C58.142 58.6597 58.3721 58.4949 58.5397 58.2847C58.7074 58.0716 58.7912 57.823 58.7912 57.5389C58.7912 57.2804 58.7173 57.0688 58.5696 56.904C58.4247 56.7392 58.2272 56.6028 57.9772 56.4949C57.7301 56.3869 57.4503 56.2918 57.1378 56.2094L56.1065 55.9281C55.4076 55.7378 54.8537 55.458 54.4446 55.0886C54.0383 54.7193 53.8352 54.2307 53.8352 53.6227C53.8352 53.1199 53.9716 52.681 54.2443 52.306C54.517 51.931 54.8863 51.6398 55.3522 51.4324C55.8181 51.2222 56.3437 51.117 56.9289 51.117C57.5199 51.117 58.0412 51.2207 58.4929 51.4281C58.9474 51.6355 59.3054 51.921 59.5667 52.2847C59.8281 52.6455 59.9645 53.0602 59.9758 53.529H58.7059ZM61.2382 52.3699V51.2364H67.9925V52.3699H65.2695V59.9636H63.957V52.3699H61.2382ZM69.4851 59.9636V51.2364H74.9566V52.3699H70.8018V55.029H74.6711V56.1582H70.8018V58.8301H75.0078V59.9636H69.4851ZM76.7155 51.2364H78.3135L81.0919 58.0205H81.1942L83.9726 51.2364H85.5706V59.9636H84.3178V53.6483H84.2368L81.663 59.9509H80.6232L78.0493 53.644H77.9684V59.9636H76.7155V51.2364ZM92.245 53.529C92.1995 53.1256 92.012 52.8131 91.6825 52.5915C91.3529 52.367 90.9382 52.2548 90.4382 52.2548C90.0802 52.2548 89.7706 52.3116 89.5092 52.4253C89.2478 52.5361 89.0447 52.6895 88.8998 52.8855C88.7578 53.0787 88.6868 53.2989 88.6868 53.546C88.6868 53.7534 88.7351 53.9324 88.8316 54.083C88.9311 54.2335 89.0603 54.3599 89.2194 54.4622C89.3814 54.5616 89.5547 54.6455 89.7393 54.7136C89.924 54.779 90.1015 54.833 90.272 54.8756L91.1243 55.0972C91.4027 55.1653 91.6882 55.2577 91.9808 55.3741C92.2734 55.4906 92.5447 55.644 92.7947 55.8344C93.0447 56.0247 93.2464 56.2605 93.3998 56.5418C93.5561 56.823 93.6342 57.1597 93.6342 57.5517C93.6342 58.046 93.5064 58.4849 93.2507 58.8685C92.9978 59.252 92.6299 59.5545 92.147 59.7761C91.6669 59.9977 91.0859 60.1085 90.4041 60.1085C89.7507 60.1085 89.1853 60.0048 88.7081 59.7974C88.2308 59.5901 87.8572 59.296 87.5873 58.9153C87.3174 58.5318 87.1683 58.0773 87.1399 57.5517H88.4609C88.4865 57.867 88.5887 58.1298 88.7677 58.3401C88.9495 58.5474 89.1811 58.7023 89.4623 58.8045C89.7464 58.904 90.0575 58.9537 90.3956 58.9537C90.7677 58.9537 91.0987 58.8955 91.3885 58.779C91.6811 58.6597 91.9112 58.4949 92.0788 58.2847C92.2464 58.0716 92.3302 57.823 92.3302 57.5389C92.3302 57.2804 92.2564 57.0688 92.1086 56.904C91.9637 56.7392 91.7663 56.6028 91.5163 56.4949C91.2691 56.3869 90.9893 56.2918 90.6768 56.2094L89.6456 55.9281C88.9467 55.7378 88.3927 55.458 87.9836 55.0886C87.5774 54.7193 87.3743 54.2307 87.3743 53.6227C87.3743 53.1199 87.5106 52.681 87.7833 52.306C88.0561 51.931 88.4254 51.6398 88.8913 51.4324C89.3572 51.2222 89.8828 51.117 90.468 51.117C91.0589 51.117 91.5802 51.2207 92.0319 51.4281C92.4865 51.6355 92.8444 51.921 93.1058 52.2847C93.3672 52.6455 93.5035 53.0602 93.5149 53.529H92.245ZM97.9531 52.3699V51.2364H104.707V52.3699H101.984V59.9636H100.672V52.3699H97.9531ZM106.2 59.9636V51.2364H107.517V55.029H111.868V51.2364H113.189V59.9636H111.868V56.1582H107.517V59.9636H106.2ZM116.423 51.2364V59.9636H115.106V51.2364H116.423ZM125.385 51.2364V59.9636H124.174L119.738 53.5631H119.657V59.9636H118.341V51.2364H119.559L124 57.6455H124.081V51.2364H125.385ZM127.305 59.9636V51.2364H128.622V55.404H128.729L132.389 51.2364H134.047L130.527 55.1653L134.06 59.9636H132.474L129.653 56.0645L128.622 57.2491V59.9636H127.305ZM136.591 51.2364V59.9636H135.274V51.2364H136.591ZM145.553 51.2364V59.9636H144.342L139.906 53.5631H139.825V59.9636H138.508V51.2364H139.727L144.168 57.6455H144.249V51.2364H145.553ZM153.38 53.9935C153.297 53.7349 153.186 53.5034 153.047 53.2989C152.911 53.0915 152.747 52.9153 152.557 52.7705C152.367 52.6227 152.149 52.5105 151.905 52.4338C151.664 52.3571 151.398 52.3188 151.108 52.3188C150.617 52.3188 150.174 52.4452 149.779 52.698C149.384 52.9509 149.071 53.3216 148.841 53.8102C148.614 54.296 148.5 54.8912 148.5 55.5957C148.5 56.3031 148.615 56.9011 148.845 57.3898C149.076 57.8784 149.391 58.2491 149.792 58.502C150.192 58.7548 150.648 58.8813 151.159 58.8813C151.634 58.8813 152.047 58.7847 152.399 58.5915C152.755 58.3983 153.029 58.1256 153.222 57.7733C153.418 57.4182 153.516 57.0006 153.516 56.5205L153.857 56.5844H151.36V55.4977H154.79V56.4906C154.79 57.2236 154.634 57.8599 154.321 58.3997C154.012 58.9366 153.583 59.3514 153.034 59.644C152.489 59.9366 151.864 60.083 151.159 60.083C150.37 60.083 149.676 59.9011 149.08 59.5375C148.486 59.1739 148.023 58.6582 147.691 57.9906C147.358 57.3202 147.192 56.5247 147.192 55.6043C147.192 54.9082 147.289 54.2832 147.482 53.7293C147.675 53.1753 147.946 52.7051 148.296 52.3188C148.648 51.9295 149.061 51.6327 149.536 51.4281C150.013 51.2207 150.534 51.117 151.1 51.117C151.571 51.117 152.01 51.1866 152.417 51.3259C152.826 51.4651 153.189 51.6625 153.507 51.9182C153.828 52.1739 154.094 52.4778 154.304 52.8301C154.515 53.1795 154.657 53.5673 154.73 53.9935H153.38Z" fill="#B5B5B5"/>
<rect x="36.7997" y="69.7136" width="260.5" height="14.4636" fill="#1D1D1F" stroke="#3B3B3B" stroke-width="0.5"/>
<rect x="40" y="73" width="236" height="8" fill="#6360FF"/>
<rect x="40.5" y="73.5" width="235" height="7" stroke="white" stroke-opacity="0.05"/>
<path d="M8.788 112.352C8.71318 112.405 8.62531 112.436 8.53399 112.442C8.44267 112.449 8.35139 112.43 8.2701 112.387C8.18882 112.345 8.12065 112.282 8.07302 112.204C8.02539 112.125 8.00013 112.036 8 111.944V101.874C7.99995 101.783 8.02507 101.693 8.07263 101.614C8.12018 101.536 8.18834 101.472 8.26966 101.43C8.35098 101.388 8.44233 101.369 8.53374 101.375C8.62515 101.381 8.71311 101.412 8.788 101.465L15.921 106.5C15.9864 106.546 16.0398 106.608 16.0766 106.679C16.1135 106.75 16.1327 106.829 16.1327 106.909C16.1327 106.989 16.1135 107.068 16.0766 107.139C16.0398 107.21 15.9864 107.271 15.921 107.317L8.788 112.352ZM17 101.874C16.9999 101.783 17.0251 101.693 17.0726 101.614C17.1202 101.536 17.1883 101.472 17.2697 101.43C17.351 101.388 17.4423 101.369 17.5337 101.375C17.6252 101.381 17.7131 101.412 17.788 101.465L24.921 106.5C24.9864 106.546 25.0398 106.608 25.0766 106.679C25.1135 106.75 25.1327 106.829 25.1327 106.909C25.1327 106.989 25.1135 107.068 25.0766 107.139C25.0398 107.21 24.9864 107.271 24.921 107.317L17.788 112.352C17.7132 112.405 17.6253 112.436 17.534 112.442C17.4427 112.449 17.3514 112.43 17.2701 112.387C17.1888 112.345 17.1206 112.282 17.073 112.204C17.0254 112.125 17.0001 112.036 17 111.944V101.874Z" fill="white"/>
<path d="M36.9588 101.927V93.2H40.0696C40.7457 93.2 41.3068 93.3165 41.7528 93.5494C42.2017 93.7824 42.5369 94.1048 42.7585 94.5168C42.9801 94.9259 43.0909 95.3989 43.0909 95.9358C43.0909 96.4699 42.9787 96.9401 42.7543 97.3463C42.5327 97.7497 42.1974 98.0636 41.7486 98.2881C41.3026 98.5125 40.7415 98.6247 40.0653 98.6247H37.7088V97.4912H39.946C40.3722 97.4912 40.7188 97.4301 40.9858 97.308C41.2557 97.1858 41.4531 97.0082 41.5781 96.7753C41.7031 96.5423 41.7656 96.2625 41.7656 95.9358C41.7656 95.6063 41.7017 95.3207 41.5739 95.0793C41.4489 94.8378 41.2514 94.6531 40.9815 94.5253C40.7145 94.3946 40.3636 94.3293 39.929 94.3293H38.2756V101.927H36.9588ZM41.267 97.9898L43.4233 101.927H41.9233L39.8097 97.9898H41.267ZM45.4304 101.927H44.0327L47.1733 93.2H48.6946L51.8352 101.927H50.4375L47.9702 94.7852H47.902L45.4304 101.927ZM45.6648 98.5097H50.1989V99.6176H45.6648V98.5097ZM53.0955 101.927V93.2H56.2063C56.8853 93.2 57.4478 93.3236 57.8938 93.5707C58.3398 93.8179 58.6737 94.156 58.8952 94.5849C59.1168 95.0111 59.2276 95.4912 59.2276 96.0253C59.2276 96.5622 59.1154 97.0452 58.891 97.4742C58.6694 97.9003 58.3342 98.2384 57.8853 98.4884C57.4393 98.7355 56.8782 98.8591 56.2021 98.8591H54.0629V97.7426H56.0827C56.5117 97.7426 56.8597 97.6688 57.1268 97.521C57.3938 97.3705 57.5898 97.1659 57.7148 96.9074C57.8398 96.6489 57.9023 96.3548 57.9023 96.0253C57.9023 95.6957 57.8398 95.4031 57.7148 95.1474C57.5898 94.8918 57.3924 94.6915 57.1225 94.5466C56.8555 94.4017 56.5032 94.3293 56.0657 94.3293H54.4123V101.927H53.0955ZM62.0881 93.2V101.927H60.7713V93.2H62.0881ZM66.831 101.927H64.0057V93.2H66.9205C67.7756 93.2 68.5099 93.3747 69.1236 93.7242C69.7372 94.0707 70.2074 94.5693 70.5341 95.2199C70.8636 95.8676 71.0284 96.6446 71.0284 97.5509C71.0284 98.4599 70.8622 99.2412 70.5298 99.8946C70.2003 100.548 69.723 101.051 69.098 101.403C68.473 101.753 67.7173 101.927 66.831 101.927ZM65.3224 100.777H66.7585C67.4233 100.777 67.9759 100.652 68.4162 100.402C68.8565 100.149 69.1861 99.7838 69.4048 99.3065C69.6236 98.8264 69.733 98.2412 69.733 97.5509C69.733 96.8662 69.6236 96.2852 69.4048 95.808C69.1889 95.3307 68.8665 94.9685 68.4375 94.7213C68.0085 94.4742 67.4759 94.3506 66.8395 94.3506H65.3224V100.777ZM75.8416 101.927V93.2H78.9524C79.6314 93.2 80.1939 93.3236 80.6399 93.5707C81.0859 93.8179 81.4197 94.156 81.6413 94.5849C81.8629 95.0111 81.9737 95.4912 81.9737 96.0253C81.9737 96.5622 81.8615 97.0452 81.6371 97.4742C81.4155 97.9003 81.0803 98.2384 80.6314 98.4884C80.1854 98.7355 79.6243 98.8591 78.9482 98.8591H76.8089V97.7426H78.8288C79.2578 97.7426 79.6058 97.6688 79.8729 97.521C80.1399 97.3705 80.3359 97.1659 80.4609 96.9074C80.5859 96.6489 80.6484 96.3548 80.6484 96.0253C80.6484 95.6957 80.5859 95.4031 80.4609 95.1474C80.3359 94.8918 80.1385 94.6915 79.8686 94.5466C79.6016 94.4017 79.2493 94.3293 78.8118 94.3293H77.1584V101.927H75.8416ZM83.5174 101.927V93.2H86.6282C87.3043 93.2 87.8654 93.3165 88.3114 93.5494C88.7603 93.7824 89.0955 94.1048 89.3171 94.5168C89.5387 94.9259 89.6495 95.3989 89.6495 95.9358C89.6495 96.4699 89.5373 96.9401 89.3129 97.3463C89.0913 97.7497 88.756 98.0636 88.3072 98.2881C87.8612 98.5125 87.3001 98.6247 86.6239 98.6247H84.2674V97.4912H86.5046C86.9308 97.4912 87.2773 97.4301 87.5444 97.308C87.8143 97.1858 88.0117 97.0082 88.1367 96.7753C88.2617 96.5423 88.3242 96.2625 88.3242 95.9358C88.3242 95.6063 88.2603 95.3207 88.1325 95.0793C88.0075 94.8378 87.81 94.6531 87.5401 94.5253C87.2731 94.3946 86.9222 94.3293 86.4876 94.3293H84.8342V101.927H83.5174ZM87.8256 97.9898L89.9819 101.927H88.4819L86.3683 97.9898H87.8256ZM98.8327 97.5636C98.8327 98.4955 98.6623 99.2966 98.3214 99.967C97.9805 100.635 97.5131 101.149 96.9194 101.51C96.3285 101.868 95.6566 102.047 94.9038 102.047C94.1481 102.047 93.4734 101.868 92.8796 101.51C92.2887 101.149 91.8228 100.633 91.4819 99.9628C91.141 99.2923 90.9705 98.4926 90.9705 97.5636C90.9705 96.6318 91.141 95.8321 91.4819 95.1645C91.8228 94.494 92.2887 93.9798 92.8796 93.6219C93.4734 93.2611 94.1481 93.0807 94.9038 93.0807C95.6566 93.0807 96.3285 93.2611 96.9194 93.6219C97.5131 93.9798 97.9805 94.494 98.3214 95.1645C98.6623 95.8321 98.8327 96.6318 98.8327 97.5636ZM97.5288 97.5636C97.5288 96.8534 97.4137 96.2554 97.1836 95.7696C96.9563 95.281 96.6438 94.9117 96.2461 94.6617C95.8512 94.4088 95.4038 94.2824 94.9038 94.2824C94.4009 94.2824 93.9521 94.4088 93.5572 94.6617C93.1623 94.9117 92.8498 95.281 92.6197 95.7696C92.3924 96.2554 92.2788 96.8534 92.2788 97.5636C92.2788 98.2739 92.3924 98.8733 92.6197 99.3619C92.8498 99.8477 93.1623 100.217 93.5572 100.47C93.9521 100.72 94.4009 100.845 94.9038 100.845C95.4038 100.845 95.8512 100.72 96.2461 100.47C96.6438 100.217 96.9563 99.8477 97.1836 99.3619C97.4137 98.8733 97.5288 98.2739 97.5288 97.5636ZM99.669 94.3335V93.2H106.423V94.3335H103.7V101.927H102.388V94.3335H99.669ZM115.122 97.5636C115.122 98.4955 114.951 99.2966 114.61 99.967C114.27 100.635 113.802 101.149 113.208 101.51C112.618 101.868 111.946 102.047 111.193 102.047C110.437 102.047 109.762 101.868 109.169 101.51C108.578 101.149 108.112 100.633 107.771 99.9628C107.43 99.2923 107.26 98.4926 107.26 97.5636C107.26 96.6318 107.43 95.8321 107.771 95.1645C108.112 94.494 108.578 93.9798 109.169 93.6219C109.762 93.2611 110.437 93.0807 111.193 93.0807C111.946 93.0807 112.618 93.2611 113.208 93.6219C113.802 93.9798 114.27 94.494 114.61 95.1645C114.951 95.8321 115.122 96.6318 115.122 97.5636ZM113.818 97.5636C113.818 96.8534 113.703 96.2554 113.473 95.7696C113.245 95.281 112.933 94.9117 112.535 94.6617C112.14 94.4088 111.693 94.2824 111.193 94.2824C110.69 94.2824 110.241 94.4088 109.846 94.6617C109.451 94.9117 109.139 95.281 108.909 95.7696C108.681 96.2554 108.568 96.8534 108.568 97.5636C108.568 98.2739 108.681 98.8733 108.909 99.3619C109.139 99.8477 109.451 100.217 109.846 100.47C110.241 100.72 110.69 100.845 111.193 100.845C111.693 100.845 112.14 100.72 112.535 100.47C112.933 100.217 113.245 99.8477 113.473 99.3619C113.703 98.8733 113.818 98.2739 113.818 97.5636ZM115.958 94.3335V93.2H122.712V94.3335H119.989V101.927H118.677V94.3335H115.958ZM123.532 93.2H125.027L127.307 97.1673H127.401L129.681 93.2H131.176L128.01 98.5011V101.927H126.698V98.5011L123.532 93.2ZM132.42 101.927V93.2H135.531C136.21 93.2 136.772 93.3236 137.218 93.5707C137.664 93.8179 137.998 94.156 138.219 94.5849C138.441 95.0111 138.552 95.4912 138.552 96.0253C138.552 96.5622 138.44 97.0452 138.215 97.4742C137.994 97.9003 137.658 98.2384 137.21 98.4884C136.763 98.7355 136.202 98.8591 135.526 98.8591H133.387V97.7426H135.407C135.836 97.7426 136.184 97.6688 136.451 97.521C136.718 97.3705 136.914 97.1659 137.039 96.9074C137.164 96.6489 137.227 96.3548 137.227 96.0253C137.227 95.6957 137.164 95.4031 137.039 95.1474C136.914 94.8918 136.717 94.6915 136.447 94.5466C136.18 94.4017 135.827 94.3293 135.39 94.3293H133.737V101.927H132.42ZM141.412 93.2V101.927H140.096V93.2H141.412ZM150.374 93.2V101.927H149.164L144.728 95.5267H144.647V101.927H143.33V93.2H144.549L148.989 99.6091H149.07V93.2H150.374ZM158.201 95.9571C158.119 95.6986 158.008 95.467 157.869 95.2625C157.732 95.0551 157.569 94.879 157.379 94.7341C157.188 94.5864 156.971 94.4742 156.727 94.3974C156.485 94.3207 156.219 94.2824 155.93 94.2824C155.438 94.2824 154.995 94.4088 154.6 94.6617C154.205 94.9145 153.893 95.2852 153.663 95.7739C153.435 96.2597 153.322 96.8548 153.322 97.5594C153.322 98.2668 153.437 98.8648 153.667 99.3534C153.897 99.842 154.212 100.213 154.613 100.466C155.013 100.718 155.469 100.845 155.981 100.845C156.455 100.845 156.869 100.748 157.221 100.555C157.576 100.362 157.85 100.089 158.043 99.7369C158.239 99.3818 158.337 98.9642 158.337 98.4841L158.678 98.548H156.181V97.4614H159.612V98.4543C159.612 99.1872 159.455 99.8236 159.143 100.363C158.833 100.9 158.404 101.315 157.856 101.608C157.31 101.9 156.685 102.047 155.981 102.047C155.191 102.047 154.498 101.865 153.901 101.501C153.308 101.138 152.844 100.622 152.512 99.9543C152.18 99.2838 152.013 98.4884 152.013 97.5679C152.013 96.8719 152.11 96.2469 152.303 95.6929C152.496 95.1389 152.768 94.6688 153.117 94.2824C153.469 93.8932 153.883 93.5963 154.357 93.3918C154.835 93.1844 155.356 93.0807 155.921 93.0807C156.393 93.0807 156.832 93.1503 157.238 93.2895C157.647 93.4287 158.011 93.6261 158.329 93.8818C158.65 94.1375 158.915 94.4415 159.126 94.7938C159.336 95.1432 159.478 95.531 159.552 95.9571H158.201Z" fill="#B5B5B5"/>
<rect x="35.75" y="111.677" width="260.5" height="14.4636" fill="#1D1D1F" stroke="#3B3B3B" stroke-width="0.5"/>
<rect x="39" y="115" width="214" height="8" fill="#6360FF"/>
<rect x="39.5" y="115.5" width="213" height="7" stroke="white" stroke-opacity="0.05"/>
<path d="M12 154.873L6 148.873L12 142.873L13.425 144.298L8.825 148.898L13.4 153.473L12 154.873ZM20 154.873L18.575 153.448L23.175 148.848L18.6 144.273L20 142.873L26 148.873L20 154.873Z" fill="white"/>
<path d="M36.9588 143.891V135.164H42.3707V136.297H38.2756V138.956H41.983V140.086H38.2756V143.891H36.9588ZM49.6023 135.164H50.9233V140.904C50.9233 141.514 50.7798 142.056 50.4929 142.527C50.206 142.996 49.8026 143.365 49.2827 143.635C48.7628 143.902 48.1534 144.036 47.4545 144.036C46.7585 144.036 46.1506 143.902 45.6307 143.635C45.1108 143.365 44.7074 142.996 44.4205 142.527C44.1335 142.056 43.9901 141.514 43.9901 140.904V135.164H45.3068V140.797C45.3068 141.192 45.3935 141.543 45.5668 141.85C45.7429 142.157 45.9915 142.398 46.3125 142.574C46.6335 142.747 47.0142 142.834 47.4545 142.834C47.8977 142.834 48.2798 142.747 48.6009 142.574C48.9247 142.398 49.1719 142.157 49.3423 141.85C49.5156 141.543 49.6023 141.192 49.6023 140.797V135.164ZM52.8377 143.891V135.164H54.1545V142.757H58.109V143.891H52.8377ZM59.6112 143.891V135.164H60.9279V142.757H64.8825V143.891H59.6112ZM69.3185 138.973V140.081H65.4492V138.973H69.3185ZM75.8789 137.456C75.8335 137.053 75.646 136.74 75.3164 136.519C74.9869 136.294 74.5721 136.182 74.0721 136.182C73.7141 136.182 73.4045 136.239 73.1431 136.353C72.8817 136.463 72.6786 136.617 72.5337 136.813C72.3917 137.006 72.3207 137.226 72.3207 137.473C72.3207 137.681 72.369 137.86 72.4656 138.01C72.565 138.161 72.6942 138.287 72.8533 138.389C73.0153 138.489 73.1886 138.573 73.3732 138.641C73.5579 138.706 73.7354 138.76 73.9059 138.803L74.7582 139.024C75.0366 139.093 75.3221 139.185 75.6147 139.301C75.9073 139.418 76.1786 139.571 76.4286 139.762C76.6786 139.952 76.8803 140.188 77.0337 140.469C77.19 140.75 77.2681 141.087 77.2681 141.479C77.2681 141.973 77.1403 142.412 76.8846 142.796C76.6317 143.179 76.2638 143.482 75.7809 143.703C75.3008 143.925 74.7198 144.036 74.038 144.036C73.3846 144.036 72.8192 143.932 72.342 143.725C71.8647 143.517 71.4911 143.223 71.2212 142.843C70.9513 142.459 70.8022 142.005 70.7738 141.479H72.0948C72.1204 141.794 72.2227 142.057 72.4016 142.267C72.5835 142.475 72.815 142.63 73.0962 142.732C73.3803 142.831 73.6914 142.881 74.0295 142.881C74.4016 142.881 74.7326 142.823 75.0224 142.706C75.315 142.587 75.5451 142.422 75.7127 142.212C75.8803 141.999 75.9641 141.75 75.9641 141.466C75.9641 141.208 75.8903 140.996 75.7425 140.831C75.5977 140.666 75.4002 140.53 75.1502 140.422C74.9031 140.314 74.6232 140.219 74.3107 140.137L73.2795 139.855C72.5806 139.665 72.0266 139.385 71.6175 139.016C71.2113 138.647 71.0082 138.158 71.0082 137.55C71.0082 137.047 71.1445 136.608 71.4173 136.233C71.69 135.858 72.0593 135.567 72.5252 135.36C72.9911 135.149 73.5167 135.044 74.1019 135.044C74.6928 135.044 75.2141 135.148 75.6658 135.355C76.1204 135.563 76.4783 135.848 76.7397 136.212C77.0011 136.573 77.1374 136.988 77.1488 137.456H75.8789ZM78.4112 136.297V135.164H85.1655V136.297H82.4425V143.891H81.13V136.297H78.4112ZM86.364 143.891H84.9663L88.1069 135.164H89.6282L92.7688 143.891H91.3711L88.9038 136.749H88.8356L86.364 143.891ZM86.5984 140.473H91.1325V141.581H86.5984V140.473ZM100.868 138.002H99.538C99.4869 137.718 99.3917 137.468 99.2525 137.252C99.1133 137.036 98.9428 136.853 98.7411 136.702C98.5394 136.551 98.3136 136.438 98.0636 136.361C97.8164 136.284 97.5536 136.246 97.2752 136.246C96.7724 136.246 96.3221 136.372 95.9244 136.625C95.5295 136.878 95.217 137.249 94.9869 137.738C94.7596 138.226 94.646 138.823 94.646 139.527C94.646 140.238 94.7596 140.837 94.9869 141.326C95.217 141.814 95.5309 142.184 95.9286 142.434C96.3263 142.684 96.7738 142.809 97.271 142.809C97.5465 142.809 97.8079 142.772 98.055 142.698C98.305 142.621 98.5309 142.509 98.7326 142.361C98.9343 142.213 99.1048 142.033 99.244 141.82C99.386 141.604 99.484 141.357 99.538 141.078L100.868 141.083C100.797 141.512 100.659 141.907 100.454 142.267C100.252 142.625 99.9925 142.935 99.6744 143.196C99.359 143.455 98.9982 143.655 98.592 143.797C98.1857 143.939 97.7425 144.01 97.2624 144.01C96.5067 144.01 95.8335 143.831 95.2425 143.473C94.6516 143.113 94.1857 142.597 93.8448 141.926C93.5067 141.256 93.3377 140.456 93.3377 139.527C93.3377 138.595 93.5082 137.796 93.8491 137.128C94.19 136.458 94.6559 135.943 95.2468 135.586C95.8377 135.225 96.5096 135.044 97.2624 135.044C97.7255 135.044 98.1573 135.111 98.5579 135.245C98.9613 135.375 99.3235 135.568 99.6445 135.824C99.9656 136.077 100.231 136.387 100.441 136.753C100.652 137.117 100.794 137.533 100.868 138.002ZM102.443 143.891V135.164H103.76V139.331H103.866L107.527 135.164H109.185L105.665 139.093L109.197 143.891H107.612L104.791 139.992L103.76 141.176V143.891H102.443ZM116.413 143.891H113.588V135.164H116.502C117.358 135.164 118.092 135.338 118.706 135.688C119.319 136.034 119.789 136.533 120.116 137.184C120.446 137.831 120.61 138.608 120.61 139.514C120.61 140.424 120.444 141.205 120.112 141.858C119.782 142.512 119.305 143.014 118.68 143.367C118.055 143.716 117.299 143.891 116.413 143.891ZM114.904 142.74H116.341C117.005 142.74 117.558 142.615 117.998 142.365C118.439 142.113 118.768 141.747 118.987 141.27C119.206 140.79 119.315 140.205 119.315 139.514C119.315 138.83 119.206 138.249 118.987 137.772C118.771 137.294 118.449 136.932 118.02 136.685C117.591 136.438 117.058 136.314 116.422 136.314H114.904V142.74ZM122.248 143.891V135.164H127.719V136.297H123.565V138.956H127.434V140.086H123.565V142.757H127.771V143.891H122.248ZM130.241 135.164L132.67 142.272H132.768L135.197 135.164H136.62L133.48 143.891H131.958L128.818 135.164H130.241ZM137.881 143.891V135.164H143.352V136.297H139.197V138.956H143.067V140.086H139.197V142.757H143.403V143.891H137.881ZM145.111 143.891V135.164H146.428V142.757H150.382V143.891H145.111ZM159.126 139.527C159.126 140.459 158.955 141.26 158.614 141.931C158.273 142.598 157.806 143.113 157.212 143.473C156.621 143.831 155.95 144.01 155.197 144.01C154.441 144.01 153.766 143.831 153.173 143.473C152.582 143.113 152.116 142.597 151.775 141.926C151.434 141.256 151.263 140.456 151.263 139.527C151.263 138.595 151.434 137.796 151.775 137.128C152.116 136.458 152.582 135.943 153.173 135.586C153.766 135.225 154.441 135.044 155.197 135.044C155.95 135.044 156.621 135.225 157.212 135.586C157.806 135.943 158.273 136.458 158.614 137.128C158.955 137.796 159.126 138.595 159.126 139.527ZM157.822 139.527C157.822 138.817 157.707 138.219 157.477 137.733C157.249 137.245 156.937 136.875 156.539 136.625C156.144 136.372 155.697 136.246 155.197 136.246C154.694 136.246 154.245 136.372 153.85 136.625C153.455 136.875 153.143 137.245 152.913 137.733C152.685 138.219 152.572 138.817 152.572 139.527C152.572 140.238 152.685 140.837 152.913 141.326C153.143 141.811 153.455 142.181 153.85 142.434C154.245 142.684 154.694 142.809 155.197 142.809C155.697 142.809 156.144 142.684 156.539 142.434C156.937 142.181 157.249 141.811 157.477 141.326C157.707 140.837 157.822 140.238 157.822 139.527ZM160.767 143.891V135.164H163.878C164.557 135.164 165.12 135.287 165.566 135.534C166.012 135.782 166.346 136.12 166.567 136.549C166.789 136.975 166.9 137.455 166.9 137.989C166.9 138.526 166.787 139.009 166.563 139.438C166.341 139.864 166.006 140.202 165.557 140.452C165.111 140.699 164.55 140.823 163.874 140.823H161.735V139.706H163.755C164.184 139.706 164.532 139.632 164.799 139.485C165.066 139.334 165.262 139.13 165.387 138.871C165.512 138.613 165.574 138.318 165.574 137.989C165.574 137.659 165.512 137.367 165.387 137.111C165.262 136.855 165.064 136.655 164.794 136.51C164.527 136.365 164.175 136.293 163.738 136.293H162.084V143.891H160.767ZM168.443 135.164H170.041L172.82 141.948H172.922L175.7 135.164H177.298V143.891H176.045V137.576H175.964L173.391 143.878H172.351L169.777 137.571H169.696V143.891H168.443V135.164ZM179.213 143.891V135.164H184.684V136.297H180.529V138.956H184.399V140.086H180.529V142.757H184.735V143.891H179.213ZM193.487 135.164V143.891H192.277L187.841 137.49H187.76V143.891H186.443V135.164H187.662L192.102 141.573H192.183V135.164H193.487ZM194.978 136.297V135.164H201.732V136.297H199.009V143.891H197.696V136.297H194.978Z" fill="#B5B5B5"/>
<rect x="35.75" y="153.641" width="260.5" height="14.4636" fill="#1D1D1F" stroke="#3B3B3B" stroke-width="0.5"/>
<rect x="39" y="157" width="158" height="8" fill="#6360FF"/>
<rect x="39.5" y="157.5" width="157" height="7" stroke="white" stroke-opacity="0.05"/>
<g clip-path="url(#clip0_1435_4408)">
<path d="M15.2724 182.909C14.9027 182.909 14.5366 182.981 14.195 183.123C13.8535 183.264 13.5431 183.472 13.2817 183.733C13.0203 183.995 12.8129 184.305 12.6714 184.647C12.5299 184.988 12.4571 185.354 12.4571 185.724C12.4571 186.094 12.5299 186.46 12.6714 186.801C12.8129 187.143 13.0203 187.453 13.2817 187.715C13.5431 187.976 13.8535 188.183 14.195 188.325C14.5366 188.466 14.9027 188.539 15.2724 188.539C16.019 188.539 16.7351 188.243 17.2631 187.715C17.791 187.187 18.0876 186.471 18.0876 185.724C18.0876 184.977 17.791 184.261 17.2631 183.733C16.7351 183.205 16.019 182.909 15.2724 182.909ZM21.6131 184.315C21.0525 184.315 20.5149 184.538 20.1186 184.934C19.7222 185.33 19.4995 185.868 19.4995 186.428C19.4995 186.989 19.7222 187.527 20.1186 187.923C20.5149 188.319 21.0525 188.542 21.6131 188.542C22.1736 188.542 22.7112 188.319 23.1076 187.923C23.504 187.527 23.7266 186.989 23.7266 186.428C23.7266 185.868 23.504 185.33 23.1076 184.934C22.7112 184.538 22.1736 184.315 21.6131 184.315ZM8.93167 184.315C8.37112 184.315 7.83352 184.538 7.43715 184.934C7.04078 185.33 6.8181 185.868 6.8181 186.428C6.8181 186.989 7.04078 187.527 7.43715 187.923C7.83352 188.319 8.37112 188.542 8.93167 188.542C9.49222 188.542 10.0298 188.319 10.4262 187.923C10.8226 187.527 11.0452 186.989 11.0452 186.428C11.0452 185.868 10.8226 185.33 10.4262 184.934C10.0298 184.538 9.49222 184.315 8.93167 184.315ZM11.0452 191.35C11.0478 190.978 11.1974 190.622 11.4614 190.36C11.7254 190.098 12.0823 189.951 12.4543 189.951H18.0905C18.4642 189.951 18.8226 190.1 19.0868 190.364C19.3511 190.628 19.4995 190.986 19.4995 191.36V195.587C19.4999 196.031 19.4305 196.472 19.2938 196.893C18.9818 197.85 18.3391 198.664 17.4811 199.189C16.6231 199.714 15.606 199.916 14.6124 199.758C13.6189 199.601 12.7139 199.095 12.0601 198.33C11.4064 197.566 11.0465 196.593 11.0452 195.587V191.35ZM9.63619 191.36C9.63619 190.846 9.77287 190.365 10.0138 189.951H6.8181C6.4444 189.951 6.086 190.1 5.82176 190.364C5.55751 190.628 5.40906 190.986 5.40906 191.36V194.883C5.40887 195.459 5.55028 196.027 5.82088 196.537C6.09149 197.046 6.483 197.481 6.96104 197.804C7.43908 198.126 7.98903 198.327 8.56258 198.387C9.13614 198.448 9.71575 198.366 10.2505 198.15C9.84585 197.356 9.63531 196.477 9.63619 195.586V191.36ZM20.9086 191.36V195.587C20.9086 196.51 20.6873 197.381 20.2942 198.15C20.829 198.366 21.4086 198.448 21.9822 198.387C22.5557 198.327 23.1057 198.126 23.5837 197.804C24.0617 197.481 24.4533 197.046 24.7239 196.537C24.9945 196.027 25.1359 195.459 25.1357 194.883V191.36C25.1357 190.986 24.9872 190.628 24.723 190.364C24.4587 190.1 24.1003 189.951 23.7266 189.951H20.5309C20.7705 190.365 20.9086 190.846 20.9086 191.36Z" fill="white"/>
</g>
<path d="M44.2074 179.965H42.8778C42.8267 179.681 42.7315 179.431 42.5923 179.215C42.4531 178.999 42.2827 178.816 42.081 178.666C41.8793 178.515 41.6534 178.401 41.4034 178.325C41.1563 178.248 40.8935 178.21 40.6151 178.21C40.1122 178.21 39.6619 178.336 39.2642 178.589C38.8693 178.842 38.5568 179.213 38.3267 179.701C38.0994 180.19 37.9858 180.786 37.9858 181.491C37.9858 182.201 38.0994 182.801 38.3267 183.289C38.5568 183.778 38.8707 184.147 39.2685 184.397C39.6662 184.647 40.1136 184.772 40.6108 184.772C40.8864 184.772 41.1477 184.735 41.3949 184.661C41.6449 184.585 41.8707 184.472 42.0724 184.325C42.2741 184.177 42.4446 183.997 42.5838 183.784C42.7259 183.568 42.8239 183.32 42.8778 183.042L44.2074 183.046C44.1364 183.475 43.9986 183.87 43.794 184.231C43.5923 184.589 43.3324 184.899 43.0142 185.16C42.6989 185.418 42.3381 185.619 41.9318 185.761C41.5256 185.903 41.0824 185.974 40.6023 185.974C39.8466 185.974 39.1733 185.795 38.5824 185.437C37.9915 185.076 37.5256 184.561 37.1847 183.89C36.8466 183.22 36.6776 182.42 36.6776 181.491C36.6776 180.559 36.848 179.759 37.1889 179.092C37.5298 178.421 37.9957 177.907 38.5866 177.549C39.1776 177.188 39.8494 177.008 40.6023 177.008C41.0653 177.008 41.4972 177.075 41.8977 177.208C42.3011 177.339 42.6634 177.532 42.9844 177.788C43.3054 178.041 43.571 178.35 43.7812 178.717C43.9915 179.08 44.1335 179.497 44.2074 179.965ZM45.783 185.855V177.127H48.8938C49.57 177.127 50.131 177.244 50.5771 177.477C51.0259 177.71 51.3612 178.032 51.5827 178.444C51.8043 178.853 51.9151 179.326 51.9151 179.863C51.9151 180.397 51.8029 180.867 51.5785 181.274C51.3569 181.677 51.0217 181.991 50.5728 182.215C50.1268 182.44 49.5657 182.552 48.8896 182.552H46.533V181.418H48.7702C49.1964 181.418 49.543 181.357 49.81 181.235C50.0799 181.113 50.2773 180.936 50.4023 180.703C50.5273 180.47 50.5898 180.19 50.5898 179.863C50.5898 179.534 50.5259 179.248 50.3981 179.007C50.2731 178.765 50.0756 178.58 49.8058 178.453C49.5387 178.322 49.1879 178.257 48.7532 178.257H47.0998V185.855H45.783ZM50.0913 181.917L52.2475 185.855H50.7475L48.6339 181.917H50.0913ZM61.0984 181.491C61.0984 182.423 60.9279 183.224 60.587 183.894C60.2461 184.562 59.7788 185.076 59.185 185.437C58.5941 185.795 57.9222 185.974 57.1694 185.974C56.4137 185.974 55.739 185.795 55.1452 185.437C54.5543 185.076 54.0884 184.561 53.7475 183.89C53.4066 183.22 53.2362 182.42 53.2362 181.491C53.2362 180.559 53.4066 179.759 53.7475 179.092C54.0884 178.421 54.5543 177.907 55.1452 177.549C55.739 177.188 56.4137 177.008 57.1694 177.008C57.9222 177.008 58.5941 177.188 59.185 177.549C59.7788 177.907 60.2461 178.421 60.587 179.092C60.9279 179.759 61.0984 180.559 61.0984 181.491ZM59.7944 181.491C59.7944 180.781 59.6793 180.183 59.4492 179.697C59.2219 179.208 58.9094 178.839 58.5117 178.589C58.1168 178.336 57.6694 178.21 57.1694 178.21C56.6665 178.21 56.2177 178.336 55.8228 178.589C55.4279 178.839 55.1154 179.208 54.8853 179.697C54.658 180.183 54.5444 180.781 54.5444 181.491C54.5444 182.201 54.658 182.801 54.8853 183.289C55.1154 183.775 55.4279 184.144 55.8228 184.397C56.2177 184.647 56.6665 184.772 57.1694 184.772C57.6694 184.772 58.1168 184.647 58.5117 184.397C58.9094 184.144 59.2219 183.775 59.4492 183.289C59.6793 182.801 59.7944 182.201 59.7944 181.491ZM67.5 179.42C67.4545 179.016 67.267 178.704 66.9375 178.482C66.608 178.258 66.1932 178.146 65.6932 178.146C65.3352 178.146 65.0256 178.203 64.7642 178.316C64.5028 178.427 64.2997 178.58 64.1548 178.776C64.0128 178.97 63.9418 179.19 63.9418 179.437C63.9418 179.644 63.9901 179.823 64.0866 179.974C64.1861 180.124 64.3153 180.251 64.4744 180.353C64.6364 180.453 64.8097 180.536 64.9943 180.605C65.179 180.67 65.3565 180.724 65.527 180.766L66.3793 180.988C66.6577 181.056 66.9432 181.149 67.2358 181.265C67.5284 181.382 67.7997 181.535 68.0497 181.725C68.2997 181.916 68.5014 182.151 68.6548 182.433C68.8111 182.714 68.8892 183.051 68.8892 183.443C68.8892 183.937 68.7614 184.376 68.5057 184.759C68.2528 185.143 67.8849 185.445 67.402 185.667C66.9219 185.889 66.3409 185.999 65.6591 185.999C65.0057 185.999 64.4403 185.896 63.9631 185.688C63.4858 185.481 63.1122 185.187 62.8423 184.806C62.5724 184.423 62.4233 183.968 62.3949 183.443H63.7159C63.7415 183.758 63.8438 184.021 64.0227 184.231C64.2045 184.438 64.4361 184.593 64.7173 184.695C65.0014 184.795 65.3125 184.845 65.6506 184.845C66.0227 184.845 66.3537 184.786 66.6435 184.67C66.9361 184.551 67.1662 184.386 67.3338 184.176C67.5014 183.963 67.5852 183.714 67.5852 183.43C67.5852 183.171 67.5114 182.96 67.3636 182.795C67.2188 182.63 67.0213 182.494 66.7713 182.386C66.5241 182.278 66.2443 182.183 65.9318 182.1L64.9006 181.819C64.2017 181.629 63.6477 181.349 63.2386 180.98C62.8324 180.61 62.6293 180.122 62.6293 179.514C62.6293 179.011 62.7656 178.572 63.0384 178.197C63.3111 177.822 63.6804 177.531 64.1463 177.323C64.6122 177.113 65.1378 177.008 65.723 177.008C66.3139 177.008 66.8352 177.112 67.2869 177.319C67.7415 177.526 68.0994 177.812 68.3608 178.176C68.6222 178.536 68.7585 178.951 68.7699 179.42H67.5ZM75.2227 179.42C75.1772 179.016 74.9897 178.704 74.6602 178.482C74.3306 178.258 73.9158 178.146 73.4158 178.146C73.0579 178.146 72.7482 178.203 72.4869 178.316C72.2255 178.427 72.0224 178.58 71.8775 178.776C71.7354 178.97 71.6644 179.19 71.6644 179.437C71.6644 179.644 71.7127 179.823 71.8093 179.974C71.9087 180.124 72.038 180.251 72.1971 180.353C72.359 180.453 72.5323 180.536 72.717 180.605C72.9016 180.67 73.0792 180.724 73.2496 180.766L74.1019 180.988C74.3803 181.056 74.6658 181.149 74.9585 181.265C75.2511 181.382 75.5224 181.535 75.7724 181.725C76.0224 181.916 76.2241 182.151 76.3775 182.433C76.5337 182.714 76.6119 183.051 76.6119 183.443C76.6119 183.937 76.484 184.376 76.2283 184.759C75.9755 185.143 75.6076 185.445 75.1246 185.667C74.6445 185.889 74.0636 185.999 73.3817 185.999C72.7283 185.999 72.163 185.896 71.6857 185.688C71.2085 185.481 70.8349 185.187 70.565 184.806C70.2951 184.423 70.146 183.968 70.1175 183.443H71.4386C71.4641 183.758 71.5664 184.021 71.7454 184.231C71.9272 184.438 72.1587 184.593 72.44 184.695C72.7241 184.795 73.0352 184.845 73.3732 184.845C73.7454 184.845 74.0763 184.786 74.3661 184.67C74.6587 184.551 74.8888 184.386 75.0565 184.176C75.2241 183.963 75.3079 183.714 75.3079 183.43C75.3079 183.171 75.234 182.96 75.0863 182.795C74.9414 182.63 74.744 182.494 74.494 182.386C74.2468 182.278 73.967 182.183 73.6545 182.1L72.6232 181.819C71.9244 181.629 71.3704 181.349 70.9613 180.98C70.555 180.61 70.3519 180.122 70.3519 179.514C70.3519 179.011 70.4883 178.572 70.761 178.197C71.0337 177.822 71.4031 177.531 71.869 177.323C72.3349 177.113 72.8604 177.008 73.4457 177.008C74.0366 177.008 74.5579 177.112 75.0096 177.319C75.4641 177.526 75.8221 177.812 76.0835 178.176C76.3448 178.536 76.4812 178.951 76.4925 179.42H75.2227ZM81.9396 180.937V182.045H78.0703V180.937H81.9396ZM83.7401 185.855V177.127H89.152V178.261H85.0568V180.92H88.7642V182.049H85.0568V185.855H83.7401ZM96.3835 177.127H97.7045V182.867C97.7045 183.478 97.5611 184.019 97.2741 184.491C96.9872 184.96 96.5838 185.329 96.0639 185.599C95.544 185.866 94.9347 185.999 94.2358 185.999C93.5398 185.999 92.9318 185.866 92.4119 185.599C91.892 185.329 91.4886 184.96 91.2017 184.491C90.9148 184.019 90.7713 183.478 90.7713 182.867V177.127H92.0881V182.761C92.0881 183.156 92.1747 183.507 92.348 183.813C92.5241 184.12 92.7727 184.362 93.0938 184.538C93.4148 184.711 93.7955 184.798 94.2358 184.798C94.679 184.798 95.0611 184.711 95.3821 184.538C95.706 184.362 95.9531 184.12 96.1236 183.813C96.2969 183.507 96.3835 183.156 96.3835 182.761V177.127ZM106.663 177.127V185.855H105.453L101.017 179.454H100.936V185.855H99.619V177.127H100.838L105.278 183.536H105.359V177.127H106.663ZM115.832 179.965H114.503C114.452 179.681 114.357 179.431 114.217 179.215C114.078 178.999 113.908 178.816 113.706 178.666C113.504 178.515 113.278 178.401 113.028 178.325C112.781 178.248 112.518 178.21 112.24 178.21C111.737 178.21 111.287 178.336 110.889 178.589C110.494 178.842 110.182 179.213 109.952 179.701C109.724 180.19 109.611 180.786 109.611 181.491C109.611 182.201 109.724 182.801 109.952 183.289C110.182 183.778 110.496 184.147 110.893 184.397C111.291 184.647 111.739 184.772 112.236 184.772C112.511 184.772 112.773 184.735 113.02 184.661C113.27 184.585 113.496 184.472 113.697 184.325C113.899 184.177 114.07 183.997 114.209 183.784C114.351 183.568 114.449 183.32 114.503 183.042L115.832 183.046C115.761 183.475 115.624 183.87 115.419 184.231C115.217 184.589 114.957 184.899 114.639 185.16C114.324 185.418 113.963 185.619 113.557 185.761C113.151 185.903 112.707 185.974 112.227 185.974C111.472 185.974 110.798 185.795 110.207 185.437C109.616 185.076 109.151 184.561 108.81 183.89C108.472 183.22 108.303 182.42 108.303 181.491C108.303 180.559 108.473 179.759 108.814 179.092C109.155 178.421 109.621 177.907 110.212 177.549C110.803 177.188 111.474 177.008 112.227 177.008C112.69 177.008 113.122 177.075 113.523 177.208C113.926 177.339 114.288 177.532 114.609 177.788C114.93 178.041 115.196 178.35 115.406 178.717C115.616 179.08 115.759 179.497 115.832 179.965ZM116.978 178.261V177.127H123.732V178.261H121.009V185.855H119.696V178.261H116.978ZM126.541 177.127V185.855H125.224V177.127H126.541ZM136.04 181.491C136.04 182.423 135.869 183.224 135.528 183.894C135.188 184.562 134.72 185.076 134.126 185.437C133.536 185.795 132.864 185.974 132.111 185.974C131.355 185.974 130.68 185.795 130.087 185.437C129.496 185.076 129.03 184.561 128.689 183.89C128.348 183.22 128.178 182.42 128.178 181.491C128.178 180.559 128.348 179.759 128.689 179.092C129.03 178.421 129.496 177.907 130.087 177.549C130.68 177.188 131.355 177.008 132.111 177.008C132.864 177.008 133.536 177.188 134.126 177.549C134.72 177.907 135.188 178.421 135.528 179.092C135.869 179.759 136.04 180.559 136.04 181.491ZM134.736 181.491C134.736 180.781 134.621 180.183 134.391 179.697C134.163 179.208 133.851 178.839 133.453 178.589C133.058 178.336 132.611 178.21 132.111 178.21C131.608 178.21 131.159 178.336 130.764 178.589C130.369 178.839 130.057 179.208 129.827 179.697C129.599 180.183 129.486 180.781 129.486 181.491C129.486 182.201 129.599 182.801 129.827 183.289C130.057 183.775 130.369 184.144 130.764 184.397C131.159 184.647 131.608 184.772 132.111 184.772C132.611 184.772 133.058 184.647 133.453 184.397C133.851 184.144 134.163 183.775 134.391 183.289C134.621 182.801 134.736 182.201 134.736 181.491ZM144.725 177.127V185.855H143.515L139.079 179.454H138.998V185.855H137.681V177.127H138.9L143.341 183.536H143.422V177.127H144.725ZM147.384 185.855H145.986L149.126 177.127H150.648L153.788 185.855H152.391L149.923 178.713H149.855L147.384 185.855ZM147.618 182.437H152.152V183.545H147.618V182.437ZM155.049 185.855V177.127H156.365V184.721H160.32V185.855H155.049ZM172.246 179.965H170.917C170.866 179.681 170.771 179.431 170.631 179.215C170.492 178.999 170.322 178.816 170.12 178.666C169.918 178.515 169.692 178.401 169.442 178.325C169.195 178.248 168.933 178.21 168.654 178.21C168.151 178.21 167.701 178.336 167.303 178.589C166.908 178.842 166.596 179.213 166.366 179.701C166.138 180.19 166.025 180.786 166.025 181.491C166.025 182.201 166.138 182.801 166.366 183.289C166.596 183.778 166.91 184.147 167.308 184.397C167.705 184.647 168.153 184.772 168.65 184.772C168.925 184.772 169.187 184.735 169.434 184.661C169.684 184.585 169.91 184.472 170.112 184.325C170.313 184.177 170.484 183.997 170.623 183.784C170.765 183.568 170.863 183.32 170.917 183.042L172.246 183.046C172.175 183.475 172.038 183.87 171.833 184.231C171.631 184.589 171.371 184.899 171.053 185.16C170.738 185.418 170.377 185.619 169.971 185.761C169.565 185.903 169.121 185.974 168.641 185.974C167.886 185.974 167.212 185.795 166.621 185.437C166.031 185.076 165.565 184.561 165.224 183.89C164.886 183.22 164.717 182.42 164.717 181.491C164.717 180.559 164.887 179.759 165.228 179.092C165.569 178.421 166.035 177.907 166.626 177.549C167.217 177.188 167.888 177.008 168.641 177.008C169.104 177.008 169.536 177.075 169.937 177.208C170.34 177.339 170.702 177.532 171.023 177.788C171.344 178.041 171.61 178.35 171.82 178.717C172.031 179.08 172.173 179.497 172.246 179.965ZM181.403 181.491C181.403 182.423 181.233 183.224 180.892 183.894C180.551 184.562 180.083 185.076 179.49 185.437C178.899 185.795 178.227 185.974 177.474 185.974C176.718 185.974 176.044 185.795 175.45 185.437C174.859 185.076 174.393 184.561 174.052 183.89C173.711 183.22 173.541 182.42 173.541 181.491C173.541 180.559 173.711 179.759 174.052 179.092C174.393 178.421 174.859 177.907 175.45 177.549C176.044 177.188 176.718 177.008 177.474 177.008C178.227 177.008 178.899 177.188 179.49 177.549C180.083 177.907 180.551 178.421 180.892 179.092C181.233 179.759 181.403 180.559 181.403 181.491ZM180.099 181.491C180.099 180.781 179.984 180.183 179.754 179.697C179.527 179.208 179.214 178.839 178.816 178.589C178.422 178.336 177.974 178.21 177.474 178.21C176.971 178.21 176.522 178.336 176.127 178.589C175.733 178.839 175.42 179.208 175.19 179.697C174.963 180.183 174.849 180.781 174.849 181.491C174.849 182.201 174.963 182.801 175.19 183.289C175.42 183.775 175.733 184.144 176.127 184.397C176.522 184.647 176.971 184.772 177.474 184.772C177.974 184.772 178.422 184.647 178.816 184.397C179.214 184.144 179.527 183.775 179.754 183.289C179.984 182.801 180.099 182.201 180.099 181.491ZM183.045 185.855V177.127H184.362V184.721H188.316V185.855H183.045ZM189.818 185.855V177.127H191.135V184.721H195.089V185.855H189.818ZM197.774 185.855H196.376L199.517 177.127H201.038L204.179 185.855H202.781L200.314 178.713H200.246L197.774 185.855ZM198.009 182.437H202.543V183.545H198.009V182.437ZM205.439 185.855V177.127H208.635C209.255 177.127 209.767 177.23 210.174 177.434C210.58 177.636 210.884 177.91 211.086 178.257C211.287 178.6 211.388 178.988 211.388 179.42C211.388 179.784 211.321 180.09 211.188 180.34C211.054 180.588 210.875 180.786 210.651 180.937C210.429 181.085 210.185 181.193 209.918 181.261V181.346C210.208 181.36 210.49 181.454 210.766 181.627C211.044 181.798 211.275 182.041 211.456 182.356C211.638 182.671 211.729 183.055 211.729 183.507C211.729 183.953 211.624 184.353 211.414 184.708C211.206 185.061 210.885 185.34 210.451 185.548C210.016 185.752 209.461 185.855 208.784 185.855H205.439ZM206.756 184.725H208.657C209.287 184.725 209.739 184.603 210.012 184.359C210.284 184.114 210.421 183.809 210.421 183.443C210.421 183.167 210.351 182.914 210.212 182.684C210.073 182.454 209.874 182.271 209.615 182.134C209.36 181.998 209.056 181.93 208.703 181.93H206.756V184.725ZM206.756 180.903H208.52C208.816 180.903 209.081 180.846 209.317 180.732C209.556 180.619 209.745 180.46 209.884 180.255C210.026 180.048 210.097 179.803 210.097 179.522C210.097 179.161 209.971 178.859 209.718 178.614C209.465 178.37 209.077 178.248 208.554 178.248H206.756V180.903ZM220.872 181.491C220.872 182.423 220.701 183.224 220.36 183.894C220.02 184.562 219.552 185.076 218.958 185.437C218.368 185.795 217.696 185.974 216.943 185.974C216.187 185.974 215.512 185.795 214.919 185.437C214.328 185.076 213.862 184.561 213.521 183.89C213.18 183.22 213.01 182.42 213.01 181.491C213.01 180.559 213.18 179.759 213.521 179.092C213.862 178.421 214.328 177.907 214.919 177.549C215.512 177.188 216.187 177.008 216.943 177.008C217.696 177.008 218.368 177.188 218.958 177.549C219.552 177.907 220.02 178.421 220.36 179.092C220.701 179.759 220.872 180.559 220.872 181.491ZM219.568 181.491C219.568 180.781 219.453 180.183 219.223 179.697C218.995 179.208 218.683 178.839 218.285 178.589C217.89 178.336 217.443 178.21 216.943 178.21C216.44 178.21 215.991 178.336 215.596 178.589C215.201 178.839 214.889 179.208 214.659 179.697C214.431 180.183 214.318 180.781 214.318 181.491C214.318 182.201 214.431 182.801 214.659 183.289C214.889 183.775 215.201 184.144 215.596 184.397C215.991 184.647 216.44 184.772 216.943 184.772C217.443 184.772 217.89 184.647 218.285 184.397C218.683 184.144 218.995 183.775 219.223 183.289C219.453 182.801 219.568 182.201 219.568 181.491ZM222.513 185.855V177.127H225.624C226.3 177.127 226.862 177.244 227.308 177.477C227.756 177.71 228.092 178.032 228.313 178.444C228.535 178.853 228.646 179.326 228.646 179.863C228.646 180.397 228.533 180.867 228.309 181.274C228.087 181.677 227.752 181.991 227.303 182.215C226.857 182.44 226.296 182.552 225.62 182.552H223.263V181.418H225.501C225.927 181.418 226.273 181.357 226.54 181.235C226.81 181.113 227.008 180.936 227.133 180.703C227.258 180.47 227.32 180.19 227.32 179.863C227.32 179.534 227.256 179.248 227.129 179.007C227.004 178.765 226.806 178.58 226.536 178.453C226.269 178.322 225.918 178.257 225.484 178.257H223.83V185.855H222.513ZM226.822 181.917L228.978 185.855H227.478L225.364 181.917H226.822ZM230.985 185.855H229.587L232.728 177.127H234.249L237.39 185.855H235.992L233.525 178.713H233.457L230.985 185.855ZM231.219 182.437H235.754V183.545H231.219V182.437ZM237.189 178.261V177.127H243.943V178.261H241.22V185.855H239.907V178.261H237.189ZM246.752 177.127V185.855H245.435V177.127H246.752ZM256.251 181.491C256.251 182.423 256.08 183.224 255.739 183.894C255.398 184.562 254.931 185.076 254.337 185.437C253.746 185.795 253.075 185.974 252.322 185.974C251.566 185.974 250.891 185.795 250.298 185.437C249.707 185.076 249.241 184.561 248.9 183.89C248.559 183.22 248.388 182.42 248.388 181.491C248.388 180.559 248.559 179.759 248.9 179.092C249.241 178.421 249.707 177.907 250.298 177.549C250.891 177.188 251.566 177.008 252.322 177.008C253.075 177.008 253.746 177.188 254.337 177.549C254.931 177.907 255.398 178.421 255.739 179.092C256.08 179.759 256.251 180.559 256.251 181.491ZM254.947 181.491C254.947 180.781 254.832 180.183 254.602 179.697C254.374 179.208 254.062 178.839 253.664 178.589C253.269 178.336 252.822 178.21 252.322 178.21C251.819 178.21 251.37 178.336 250.975 178.589C250.58 178.839 250.268 179.208 250.038 179.697C249.81 180.183 249.697 180.781 249.697 181.491C249.697 182.201 249.81 182.801 250.038 183.289C250.268 183.775 250.58 184.144 250.975 184.397C251.37 184.647 251.819 184.772 252.322 184.772C252.822 184.772 253.269 184.647 253.664 184.397C254.062 184.144 254.374 183.775 254.602 183.289C254.832 182.801 254.947 182.201 254.947 181.491ZM264.936 177.127V185.855H263.726L259.29 179.454H259.209V185.855H257.892V177.127H259.111L263.551 183.536H263.632V177.127H264.936Z" fill="#B5B5B5"/>
<rect x="35.75" y="195.605" width="260.5" height="14.4636" fill="#1D1D1F" stroke="#3B3B3B" stroke-width="0.5"/>
<rect x="39.2571" y="198.964" width="222" height="8" fill="#6360FF"/>
<rect x="39.7571" y="199.464" width="221" height="7" stroke="white" stroke-opacity="0.05"/>
<defs>
<clipPath id="clip0_1435_4408">
<rect width="24" height="24" fill="white" transform="translate(4 178.836)"/>
</clipPath>
</defs>
</svg>
