<svg width="302" height="44" viewBox="0 0 302 44" fill="none" xmlns="http://www.w3.org/2000/svg">
<path d="M15 34.5C13.2917 34.5 11.6771 34.1717 10.1563 33.515C8.63542 32.8583 7.3075 31.9625 6.1725 30.8275C5.03667 29.6925 4.14083 28.3646 3.485 26.8438C2.82917 25.3229 2.50083 23.7083 2.5 22C2.5 20.2708 2.83875 18.6458 3.51625 17.125C4.19375 15.6042 5.11042 14.2812 6.26625 13.1563C7.42208 12.0313 8.77083 11.1408 10.3125 10.485C11.8542 9.82917 13.5 9.50083 15.25 9.5C16.9167 9.5 18.4896 9.78667 19.9688 10.36C21.4479 10.9333 22.745 11.725 23.86 12.735C24.9742 13.745 25.8596 14.9429 26.5163 16.3287C27.1729 17.7146 27.5008 19.2092 27.5 20.8125C27.5 23.2083 26.7708 25.0471 25.3125 26.3288C23.8542 27.6104 22.0833 28.2508 20 28.25H17.6875C17.5 28.25 17.37 28.3021 17.2975 28.4062C17.225 28.5104 17.1883 28.625 17.1875 28.75C17.1875 29 17.3438 29.3596 17.6563 29.8288C17.9688 30.2979 18.125 30.8342 18.125 31.4375C18.125 32.4792 17.8388 33.25 17.2663 33.75C16.6938 34.25 15.9383 34.5 15 34.5ZM8.125 23.25C8.66667 23.25 9.11458 23.0729 9.46875 22.7188C9.82292 22.3646 10 21.9167 10 21.375C10 20.8333 9.82292 20.3854 9.46875 20.0312C9.11458 19.6771 8.66667 19.5 8.125 19.5C7.58333 19.5 7.13542 19.6771 6.78125 20.0312C6.42708 20.3854 6.25 20.8333 6.25 21.375C6.25 21.9167 6.42708 22.3646 6.78125 22.7188C7.13542 23.0729 7.58333 23.25 8.125 23.25ZM11.875 18.25C12.4167 18.25 12.8646 18.0729 13.2188 17.7188C13.5729 17.3646 13.75 16.9167 13.75 16.375C13.75 15.8333 13.5729 15.3854 13.2188 15.0312C12.8646 14.6771 12.4167 14.5 11.875 14.5C11.3333 14.5 10.8854 14.6771 10.5313 15.0312C10.1771 15.3854 10 15.8333 10 16.375C10 16.9167 10.1771 17.3646 10.5313 17.7188C10.8854 18.0729 11.3333 18.25 11.875 18.25ZM18.125 18.25C18.6667 18.25 19.1146 18.0729 19.4688 17.7188C19.8229 17.3646 20 16.9167 20 16.375C20 15.8333 19.8229 15.3854 19.4688 15.0312C19.1146 14.6771 18.6667 14.5 18.125 14.5C17.5833 14.5 17.1354 14.6771 16.7813 15.0312C16.4271 15.3854 16.25 15.8333 16.25 16.375C16.25 16.9167 16.4271 17.3646 16.7813 17.7188C17.1354 18.0729 17.5833 18.25 18.125 18.25ZM21.875 23.25C22.4167 23.25 22.8646 23.0729 23.2188 22.7188C23.5729 22.3646 23.75 21.9167 23.75 21.375C23.75 20.8333 23.5729 20.3854 23.2188 20.0312C22.8646 19.6771 22.4167 19.5 21.875 19.5C21.3333 19.5 20.8854 19.6771 20.5312 20.0312C20.1771 20.3854 20 20.8333 20 21.375C20 21.9167 20.1771 22.3646 20.5312 22.7188C20.8854 23.0729 21.3333 23.25 21.875 23.25Z" fill="white"/>
<path d="M42.9588 14V5.27273H46.1548C46.7741 5.27273 47.2869 5.375 47.6932 5.57955C48.0994 5.78125 48.4034 6.0554 48.6051 6.40199C48.8068 6.74574 48.9077 7.13352 48.9077 7.56534C48.9077 7.92898 48.8409 8.2358 48.7074 8.4858C48.5739 8.73295 48.3949 8.93182 48.1705 9.08239C47.9489 9.23011 47.7045 9.33807 47.4375 9.40625V9.49148C47.7273 9.50568 48.0099 9.59943 48.2855 9.77273C48.5639 9.94318 48.794 10.1861 48.9759 10.5014C49.1577 10.8168 49.2486 11.2003 49.2486 11.652C49.2486 12.098 49.1435 12.4986 48.9332 12.8537C48.7259 13.206 48.4048 13.4858 47.9702 13.6932C47.5355 13.8977 46.9801 14 46.304 14H42.9588ZM44.2756 12.8707H46.1761C46.8068 12.8707 47.2585 12.7486 47.5312 12.5043C47.804 12.2599 47.9403 11.9545 47.9403 11.5881C47.9403 11.3125 47.8707 11.0597 47.7315 10.8295C47.5923 10.5994 47.3935 10.4162 47.1349 10.2798C46.8793 10.1435 46.5753 10.0753 46.223 10.0753H44.2756V12.8707ZM44.2756 9.0483H46.0398C46.3352 9.0483 46.6009 8.99148 46.8366 8.87784C47.0753 8.7642 47.2642 8.60511 47.4034 8.40057C47.5455 8.19318 47.6165 7.94886 47.6165 7.66761C47.6165 7.30682 47.4901 7.00426 47.2372 6.75994C46.9844 6.51562 46.5966 6.39347 46.0739 6.39347H44.2756V9.0483ZM50.8104 14V5.27273H53.9212C54.5973 5.27273 55.1584 5.3892 55.6044 5.62216C56.0533 5.85511 56.3885 6.17756 56.6101 6.58949C56.8317 6.99858 56.9425 7.47159 56.9425 8.00852C56.9425 8.54261 56.8303 9.01278 56.6058 9.41903C56.3842 9.82244 56.049 10.1364 55.6001 10.3608C55.1541 10.5852 54.593 10.6974 53.9169 10.6974H51.5604V9.56392H53.7976C54.2237 9.56392 54.5703 9.50284 54.8374 9.38068C55.1072 9.25852 55.3047 9.08097 55.4297 8.84801C55.5547 8.61506 55.6172 8.33523 55.6172 8.00852C55.6172 7.67898 55.5533 7.39347 55.4254 7.15199C55.3004 6.91051 55.103 6.72585 54.8331 6.59801C54.5661 6.46733 54.2152 6.40199 53.7805 6.40199H52.1271V14H50.8104ZM55.1186 10.0625L57.2749 14H55.7749L53.6612 10.0625H55.1186ZM59.282 14H57.8842L61.0249 5.27273H62.5462L65.6868 14H64.2891L61.8217 6.85795H61.7536L59.282 14ZM59.5163 10.5824H64.0504V11.6903H59.5163V10.5824ZM73.9911 5.27273V14H72.7809L68.3448 7.59943H68.2638V14H66.9471V5.27273H68.1658L72.6062 11.6818H72.6871V5.27273H73.9911ZM78.7372 14H75.9119V5.27273H78.8267C79.6818 5.27273 80.4162 5.44744 81.0298 5.79688C81.6435 6.14347 82.1136 6.64205 82.4403 7.29261C82.7699 7.94034 82.9347 8.71733 82.9347 9.62358C82.9347 10.5327 82.7685 11.3139 82.4361 11.9673C82.1065 12.6207 81.6293 13.1236 81.0043 13.4759C80.3793 13.8253 79.6236 14 78.7372 14ZM77.2287 12.8494H78.6648C79.3295 12.8494 79.8821 12.7244 80.3224 12.4744C80.7628 12.2216 81.0923 11.8565 81.3111 11.3793C81.5298 10.8991 81.6392 10.3139 81.6392 9.62358C81.6392 8.93892 81.5298 8.35795 81.3111 7.88068C81.0952 7.40341 80.7727 7.04119 80.3438 6.79403C79.9148 6.54687 79.3821 6.4233 78.7457 6.4233H77.2287V12.8494ZM85.8888 5.27273V14H84.5721V5.27273H85.8888ZM94.8505 5.27273V14H93.6403L89.2042 7.59943H89.1232V14H87.8065V5.27273H89.0252L93.4656 11.6818H93.5465V5.27273H94.8505ZM102.678 8.02983C102.595 7.77131 102.484 7.53977 102.345 7.33523C102.209 7.12784 102.045 6.9517 101.855 6.80682C101.665 6.65909 101.447 6.54687 101.203 6.47017C100.962 6.39347 100.696 6.35511 100.406 6.35511C99.9148 6.35511 99.4716 6.48153 99.0767 6.73438C98.6818 6.98722 98.3693 7.35795 98.1392 7.84659C97.9119 8.33239 97.7983 8.92756 97.7983 9.6321C97.7983 10.3395 97.9134 10.9375 98.1435 11.4261C98.3736 11.9148 98.6889 12.2855 99.0895 12.5384C99.4901 12.7912 99.946 12.9176 100.457 12.9176C100.932 12.9176 101.345 12.821 101.697 12.6278C102.053 12.4347 102.327 12.1619 102.52 11.8097C102.716 11.4545 102.814 11.0369 102.814 10.5568L103.155 10.6207H100.658V9.53409H104.088V10.527C104.088 11.2599 103.932 11.8963 103.619 12.4361C103.31 12.973 102.881 13.3878 102.332 13.6804C101.787 13.973 101.162 14.1193 100.457 14.1193C99.6676 14.1193 98.9744 13.9375 98.3778 13.5739C97.7841 13.2102 97.321 12.6946 96.9886 12.027C96.6563 11.3565 96.4901 10.5611 96.4901 9.64062C96.4901 8.9446 96.5866 8.3196 96.7798 7.76562C96.973 7.21165 97.2443 6.74148 97.5938 6.35511C97.946 5.96591 98.3594 5.66903 98.8338 5.46449C99.3111 5.2571 99.8324 5.15341 100.398 5.15341C100.869 5.15341 101.308 5.22301 101.714 5.36222C102.124 5.50142 102.487 5.69886 102.805 5.95455C103.126 6.21023 103.392 6.5142 103.602 6.86648C103.813 7.21591 103.955 7.60369 104.028 8.02983H102.678Z" fill="#B5B5B5"/>
<rect x="49" y="30" width="206" height="8" rx="4" fill="#6360FF"/>
<rect x="42.5" y="24.5" width="259" height="19" rx="9.5" stroke="white" stroke-opacity="0.25"/>
</svg>
