<svg width="302" height="44" viewBox="0 0 302 44" fill="none" xmlns="http://www.w3.org/2000/svg">
<path d="M15 26.375C13.8397 26.375 12.7269 25.914 11.9065 25.0936C11.086 24.2731 10.625 23.1603 10.625 22C10.625 20.8396 11.086 19.7269 11.9065 18.9064C12.7269 18.0859 13.8397 17.625 15 17.625C16.1604 17.625 17.2732 18.0859 18.0936 18.9064C18.9141 19.7269 19.375 20.8396 19.375 22C19.375 23.1603 18.9141 24.2731 18.0936 25.0936C17.2732 25.914 16.1604 26.375 15 26.375ZM24.2875 23.2125C24.3375 22.8125 24.375 22.4125 24.375 22C24.375 21.5875 24.3375 21.175 24.2875 20.75L26.925 18.7125C27.1625 18.525 27.225 18.1875 27.075 17.9125L24.575 13.5875C24.425 13.3125 24.0875 13.2 23.8125 13.3125L20.7 14.5625C20.05 14.075 19.375 13.65 18.5875 13.3375L18.125 10.025C18.0997 9.87774 18.023 9.74426 17.9086 9.64816C17.7942 9.55207 17.6494 9.49957 17.5 9.49997H12.5C12.1875 9.49997 11.925 9.72497 11.875 10.025L11.4125 13.3375C10.625 13.65 9.95004 14.075 9.30004 14.5625L6.18754 13.3125C5.91254 13.2 5.57504 13.3125 5.42504 13.5875L2.92504 17.9125C2.76254 18.1875 2.83754 18.525 3.07504 18.7125L5.71254 20.75C5.66254 21.175 5.62504 21.5875 5.62504 22C5.62504 22.4125 5.66254 22.8125 5.71254 23.2125L3.07504 25.2875C2.83754 25.475 2.76254 25.8125 2.92504 26.0875L5.42504 30.4125C5.57504 30.6875 5.91254 30.7875 6.18754 30.6875L9.30004 29.425C9.95004 29.925 10.625 30.35 11.4125 30.6625L11.875 33.975C11.925 34.275 12.1875 34.5 12.5 34.5H17.5C17.8125 34.5 18.075 34.275 18.125 33.975L18.5875 30.6625C19.375 30.3375 20.05 29.925 20.7 29.425L23.8125 30.6875C24.0875 30.7875 24.425 30.6875 24.575 30.4125L27.075 26.0875C27.225 25.8125 27.1625 25.475 26.925 25.2875L24.2875 23.2125Z" fill="white"/>
<path d="M45.7841 14H42.9588V5.27273H45.8736C46.7287 5.27273 47.4631 5.44744 48.0767 5.79688C48.6903 6.14347 49.1605 6.64205 49.4872 7.29261C49.8168 7.94034 49.9815 8.71733 49.9815 9.62358C49.9815 10.5327 49.8153 11.3139 49.483 11.9673C49.1534 12.6207 48.6761 13.1236 48.0511 13.4759C47.4261 13.8253 46.6705 14 45.7841 14ZM44.2756 12.8494H45.7116C46.3764 12.8494 46.929 12.7244 47.3693 12.4744C47.8097 12.2216 48.1392 11.8565 48.358 11.3793C48.5767 10.8991 48.6861 10.3139 48.6861 9.62358C48.6861 8.93892 48.5767 8.35795 48.358 7.88068C48.142 7.40341 47.8196 7.04119 47.3906 6.79403C46.9616 6.54687 46.429 6.4233 45.7926 6.4233H44.2756V12.8494ZM51.619 14V5.27273H57.0906V6.40625H52.9357V9.06534H56.805V10.1946H52.9357V12.8665H57.1417V14H51.619ZM63.6094 7.56534C63.5639 7.16193 63.3764 6.84943 63.0469 6.62784C62.7173 6.40341 62.3026 6.29119 61.8026 6.29119C61.4446 6.29119 61.1349 6.34801 60.8736 6.46165C60.6122 6.57244 60.4091 6.72585 60.2642 6.92188C60.1222 7.11506 60.0511 7.33523 60.0511 7.58239C60.0511 7.78977 60.0994 7.96875 60.196 8.11932C60.2955 8.26989 60.4247 8.39631 60.5838 8.49858C60.7457 8.59801 60.919 8.68182 61.1037 8.75C61.2884 8.81534 61.4659 8.86932 61.6364 8.91193L62.4886 9.13352C62.767 9.2017 63.0526 9.29403 63.3452 9.41051C63.6378 9.52699 63.9091 9.6804 64.1591 9.87074C64.4091 10.0611 64.6108 10.2969 64.7642 10.5781C64.9205 10.8594 64.9986 11.196 64.9986 11.5881C64.9986 12.0824 64.8707 12.5213 64.6151 12.9048C64.3622 13.2884 63.9943 13.5909 63.5114 13.8125C63.0313 14.0341 62.4503 14.1449 61.7685 14.1449C61.1151 14.1449 60.5497 14.0412 60.0724 13.8338C59.5952 13.6264 59.2216 13.3324 58.9517 12.9517C58.6818 12.5682 58.5327 12.1136 58.5043 11.5881H59.8253C59.8509 11.9034 59.9531 12.1662 60.1321 12.3764C60.3139 12.5838 60.5455 12.7386 60.8267 12.8409C61.1108 12.9403 61.4219 12.9901 61.7599 12.9901C62.1321 12.9901 62.4631 12.9318 62.7528 12.8153C63.0455 12.696 63.2756 12.5312 63.4432 12.321C63.6108 12.108 63.6946 11.8594 63.6946 11.5753C63.6946 11.3168 63.6207 11.1051 63.473 10.9403C63.3281 10.7756 63.1307 10.6392 62.8807 10.5312C62.6335 10.4233 62.3537 10.3281 62.0412 10.2457L61.0099 9.96449C60.3111 9.77415 59.7571 9.49432 59.348 9.125C58.9418 8.75568 58.7386 8.26705 58.7386 7.65909C58.7386 7.15625 58.875 6.71733 59.1477 6.34233C59.4205 5.96733 59.7898 5.67614 60.2557 5.46875C60.7216 5.25852 61.2472 5.15341 61.8324 5.15341C62.4233 5.15341 62.9446 5.2571 63.3963 5.46449C63.8509 5.67188 64.2088 5.95739 64.4702 6.32102C64.7315 6.68182 64.8679 7.09659 64.8793 7.56534H63.6094ZM67.8888 5.27273V14H66.5721V5.27273H67.8888ZM75.7127 8.02983C75.6303 7.77131 75.5195 7.53977 75.3803 7.33523C75.244 7.12784 75.0806 6.9517 74.8903 6.80682C74.6999 6.65909 74.4826 6.54687 74.2383 6.47017C73.9968 6.39347 73.7312 6.35511 73.4414 6.35511C72.9499 6.35511 72.5067 6.48153 72.1119 6.73438C71.717 6.98722 71.4045 7.35795 71.1744 7.84659C70.9471 8.33239 70.8335 8.92756 70.8335 9.6321C70.8335 10.3395 70.9485 10.9375 71.1786 11.4261C71.4087 11.9148 71.7241 12.2855 72.1246 12.5384C72.5252 12.7912 72.9812 12.9176 73.4925 12.9176C73.967 12.9176 74.3803 12.821 74.7326 12.6278C75.0877 12.4347 75.3619 12.1619 75.555 11.8097C75.7511 11.4545 75.8491 11.0369 75.8491 10.5568L76.19 10.6207H73.6928V9.53409H77.1232V10.527C77.1232 11.2599 76.967 11.8963 76.6545 12.4361C76.3448 12.973 75.9158 13.3878 75.3675 13.6804C74.8221 13.973 74.1971 14.1193 73.4925 14.1193C72.7028 14.1193 72.0096 13.9375 71.413 13.5739C70.8192 13.2102 70.3562 12.6946 70.0238 12.027C69.6914 11.3565 69.5252 10.5611 69.5252 9.64062C69.5252 8.9446 69.6218 8.3196 69.815 7.76562C70.0082 7.21165 70.2795 6.74148 70.6289 6.35511C70.9812 5.96591 71.3945 5.66903 71.869 5.46449C72.3462 5.2571 72.8675 5.15341 73.4329 5.15341C73.9045 5.15341 74.3434 5.22301 74.7496 5.36222C75.1587 5.50142 75.5224 5.69886 75.8406 5.95455C76.1616 6.21023 76.4272 6.5142 76.6374 6.86648C76.8477 7.21591 76.9897 7.60369 77.0636 8.02983H75.7127ZM85.8388 5.27273V14H84.6286L80.1925 7.59943H80.1115V14H78.7947V5.27273H80.0135L84.4538 11.6818H84.5348V5.27273H85.8388ZM95.6953 7.56534C95.6499 7.16193 95.4624 6.84943 95.1328 6.62784C94.8033 6.40341 94.3885 6.29119 93.8885 6.29119C93.5305 6.29119 93.2209 6.34801 92.9595 6.46165C92.6982 6.57244 92.495 6.72585 92.3501 6.92188C92.2081 7.11506 92.1371 7.33523 92.1371 7.58239C92.1371 7.78977 92.1854 7.96875 92.282 8.11932C92.3814 8.26989 92.5107 8.39631 92.6697 8.49858C92.8317 8.59801 93.005 8.68182 93.1896 8.75C93.3743 8.81534 93.5518 8.86932 93.7223 8.91193L94.5746 9.13352C94.853 9.2017 95.1385 9.29403 95.4311 9.41051C95.7237 9.52699 95.995 9.6804 96.245 9.87074C96.495 10.0611 96.6967 10.2969 96.8501 10.5781C97.0064 10.8594 97.0845 11.196 97.0845 11.5881C97.0845 12.0824 96.9567 12.5213 96.701 12.9048C96.4482 13.2884 96.0803 13.5909 95.5973 13.8125C95.1172 14.0341 94.5362 14.1449 93.8544 14.1449C93.201 14.1449 92.6357 14.0412 92.1584 13.8338C91.6811 13.6264 91.3075 13.3324 91.0376 12.9517C90.7678 12.5682 90.6186 12.1136 90.5902 11.5881H91.9112C91.9368 11.9034 92.0391 12.1662 92.218 12.3764C92.3999 12.5838 92.6314 12.7386 92.9126 12.8409C93.1967 12.9403 93.5078 12.9901 93.8459 12.9901C94.218 12.9901 94.549 12.9318 94.8388 12.8153C95.1314 12.696 95.3615 12.5312 95.5291 12.321C95.6967 12.108 95.7805 11.8594 95.7805 11.5753C95.7805 11.3168 95.7067 11.1051 95.5589 10.9403C95.4141 10.7756 95.2166 10.6392 94.9666 10.5312C94.7195 10.4233 94.4396 10.3281 94.1271 10.2457L93.0959 9.96449C92.397 9.77415 91.843 9.49432 91.4339 9.125C91.0277 8.75568 90.8246 8.26705 90.8246 7.65909C90.8246 7.15625 90.9609 6.71733 91.2337 6.34233C91.5064 5.96733 91.8757 5.67614 92.3416 5.46875C92.8075 5.25852 93.3331 5.15341 93.9183 5.15341C94.5092 5.15341 95.0305 5.2571 95.4822 5.46449C95.9368 5.67188 96.2947 5.95739 96.5561 6.32102C96.8175 6.68182 96.9538 7.09659 96.9652 7.56534H95.6953ZM97.9847 5.27273H99.4805L101.76 9.24006H101.854L104.134 5.27273H105.63L102.463 10.5739V14H101.151V10.5739L97.9847 5.27273ZM111.633 7.56534C111.587 7.16193 111.4 6.84943 111.07 6.62784C110.741 6.40341 110.326 6.29119 109.826 6.29119C109.468 6.29119 109.158 6.34801 108.897 6.46165C108.636 6.57244 108.433 6.72585 108.288 6.92188C108.146 7.11506 108.075 7.33523 108.075 7.58239C108.075 7.78977 108.123 7.96875 108.219 8.11932C108.319 8.26989 108.448 8.39631 108.607 8.49858C108.769 8.59801 108.942 8.68182 109.127 8.75C109.312 8.81534 109.489 8.86932 109.66 8.91193L110.512 9.13352C110.79 9.2017 111.076 9.29403 111.369 9.41051C111.661 9.52699 111.933 9.6804 112.183 9.87074C112.433 10.0611 112.634 10.2969 112.788 10.5781C112.944 10.8594 113.022 11.196 113.022 11.5881C113.022 12.0824 112.894 12.5213 112.638 12.9048C112.386 13.2884 112.018 13.5909 111.535 13.8125C111.055 14.0341 110.474 14.1449 109.792 14.1449C109.138 14.1449 108.573 14.0412 108.096 13.8338C107.619 13.6264 107.245 13.3324 106.975 12.9517C106.705 12.5682 106.556 12.1136 106.528 11.5881H107.849C107.874 11.9034 107.977 12.1662 108.156 12.3764C108.337 12.5838 108.569 12.7386 108.85 12.8409C109.134 12.9403 109.445 12.9901 109.783 12.9901C110.156 12.9901 110.487 12.9318 110.776 12.8153C111.069 12.696 111.299 12.5312 111.467 12.321C111.634 12.108 111.718 11.8594 111.718 11.5753C111.718 11.3168 111.644 11.1051 111.496 10.9403C111.352 10.7756 111.154 10.6392 110.904 10.5312C110.657 10.4233 110.377 10.3281 110.065 10.2457L109.033 9.96449C108.335 9.77415 107.781 9.49432 107.371 9.125C106.965 8.75568 106.762 8.26705 106.762 7.65909C106.762 7.15625 106.898 6.71733 107.171 6.34233C107.444 5.96733 107.813 5.67614 108.279 5.46875C108.745 5.25852 109.271 5.15341 109.856 5.15341C110.447 5.15341 110.968 5.2571 111.42 5.46449C111.874 5.67188 112.232 5.95739 112.494 6.32102C112.755 6.68182 112.891 7.09659 112.903 7.56534H111.633ZM114.165 6.40625V5.27273H120.919V6.40625H118.196V14H116.884V6.40625H114.165ZM122.412 14V5.27273H127.884V6.40625H123.729V9.06534H127.598V10.1946H123.729V12.8665H127.935V14H122.412ZM129.642 5.27273H131.24L134.019 12.0568H134.121L136.9 5.27273H138.498V14H137.245V7.68466H137.164L134.59 13.9872H133.55L130.976 7.6804H130.895V14H129.642V5.27273ZM145.172 7.56534C145.126 7.16193 144.939 6.84943 144.609 6.62784C144.28 6.40341 143.865 6.29119 143.365 6.29119C143.007 6.29119 142.697 6.34801 142.436 6.46165C142.175 6.57244 141.972 6.72585 141.827 6.92188C141.685 7.11506 141.614 7.33523 141.614 7.58239C141.614 7.78977 141.662 7.96875 141.759 8.11932C141.858 8.26989 141.987 8.39631 142.146 8.49858C142.308 8.59801 142.482 8.68182 142.666 8.75C142.851 8.81534 143.028 8.86932 143.199 8.91193L144.051 9.13352C144.33 9.2017 144.615 9.29403 144.908 9.41051C145.2 9.52699 145.472 9.6804 145.722 9.87074C145.972 10.0611 146.173 10.2969 146.327 10.5781C146.483 10.8594 146.561 11.196 146.561 11.5881C146.561 12.0824 146.433 12.5213 146.178 12.9048C145.925 13.2884 145.557 13.5909 145.074 13.8125C144.594 14.0341 144.013 14.1449 143.331 14.1449C142.678 14.1449 142.112 14.0412 141.635 13.8338C141.158 13.6264 140.784 13.3324 140.514 12.9517C140.244 12.5682 140.095 12.1136 140.067 11.5881H141.388C141.413 11.9034 141.516 12.1662 141.695 12.3764C141.876 12.5838 142.108 12.7386 142.389 12.8409C142.673 12.9403 142.984 12.9901 143.322 12.9901C143.695 12.9901 144.026 12.9318 144.315 12.8153C144.608 12.696 144.838 12.5312 145.006 12.321C145.173 12.108 145.257 11.8594 145.257 11.5753C145.257 11.3168 145.183 11.1051 145.036 10.9403C144.891 10.7756 144.693 10.6392 144.443 10.5312C144.196 10.4233 143.916 10.3281 143.604 10.2457L142.572 9.96449C141.874 9.77415 141.32 9.49432 140.911 9.125C140.504 8.75568 140.301 8.26705 140.301 7.65909C140.301 7.15625 140.438 6.71733 140.71 6.34233C140.983 5.96733 141.352 5.67614 141.818 5.46875C142.284 5.25852 142.81 5.15341 143.395 5.15341C143.986 5.15341 144.507 5.2571 144.959 5.46449C145.413 5.67188 145.771 5.95739 146.033 6.32102C146.294 6.68182 146.43 7.09659 146.442 7.56534H145.172Z" fill="#B5B5B5"/>
<rect x="49" y="30" width="173" height="8" rx="4" fill="#6360FF"/>
<rect x="42.5" y="24.5" width="259" height="19" rx="9.5" stroke="white" stroke-opacity="0.25"/>
</svg>
