<svg width="302" height="44" viewBox="0 0 302 44" fill="none" xmlns="http://www.w3.org/2000/svg">
<path d="M10 29.5L2.5 22L10 14.5L11.7812 16.2813L6.03125 22.0312L11.75 27.75L10 29.5ZM20 29.5L18.2188 27.7188L23.9688 21.9688L18.25 16.25L20 14.5L27.5 22L20 29.5Z" fill="white"/>
<path d="M42.9588 14V5.27273H48.3707V6.40625H44.2756V9.06534H47.983V10.1946H44.2756V14H42.9588ZM49.9901 14V5.27273H53.1009C53.777 5.27273 54.3381 5.3892 54.7841 5.62216C55.233 5.85511 55.5682 6.17756 55.7898 6.58949C56.0114 6.99858 56.1222 7.47159 56.1222 8.00852C56.1222 8.54261 56.0099 9.01278 55.7855 9.41903C55.5639 9.82244 55.2287 10.1364 54.7798 10.3608C54.3338 10.5852 53.7727 10.6974 53.0966 10.6974H50.7401V9.56392H52.9773C53.4034 9.56392 53.75 9.50284 54.017 9.38068C54.2869 9.25852 54.4844 9.08097 54.6094 8.84801C54.7344 8.61506 54.7969 8.33523 54.7969 8.00852C54.7969 7.67898 54.733 7.39347 54.6051 7.15199C54.4801 6.91051 54.2827 6.72585 54.0128 6.59801C53.7457 6.46733 53.3949 6.40199 52.9602 6.40199H51.3068V14H49.9901ZM54.2983 10.0625L56.4545 14H54.9545L52.8409 10.0625H54.2983ZM65.3054 9.63636C65.3054 10.5682 65.1349 11.3693 64.794 12.0398C64.4531 12.7074 63.9858 13.2216 63.392 13.5824C62.8011 13.9403 62.1293 14.1193 61.3764 14.1193C60.6207 14.1193 59.946 13.9403 59.3523 13.5824C58.7614 13.2216 58.2955 12.706 57.9545 12.0355C57.6136 11.3651 57.4432 10.5653 57.4432 9.63636C57.4432 8.70455 57.6136 7.90483 57.9545 7.23722C58.2955 6.56676 58.7614 6.05256 59.3523 5.6946C59.946 5.33381 60.6207 5.15341 61.3764 5.15341C62.1293 5.15341 62.8011 5.33381 63.392 5.6946C63.9858 6.05256 64.4531 6.56676 64.794 7.23722C65.1349 7.90483 65.3054 8.70455 65.3054 9.63636ZM64.0014 9.63636C64.0014 8.92614 63.8864 8.32812 63.6562 7.84233C63.429 7.35369 63.1165 6.98438 62.7188 6.73438C62.3239 6.48153 61.8764 6.35511 61.3764 6.35511C60.8736 6.35511 60.4247 6.48153 60.0298 6.73438C59.6349 6.98438 59.3224 7.35369 59.0923 7.84233C58.8651 8.32812 58.7514 8.92614 58.7514 9.63636C58.7514 10.3466 58.8651 10.946 59.0923 11.4347C59.3224 11.9205 59.6349 12.2898 60.0298 12.5426C60.4247 12.7926 60.8736 12.9176 61.3764 12.9176C61.8764 12.9176 62.3239 12.7926 62.7188 12.5426C63.1165 12.2898 63.429 11.9205 63.6562 11.4347C63.8864 10.946 64.0014 10.3466 64.0014 9.63636ZM73.9911 5.27273V14H72.7809L68.3448 7.59943H68.2638V14H66.9471V5.27273H68.1658L72.6062 11.6818H72.6871V5.27273H73.9911ZM75.4815 6.40625V5.27273H82.2358V6.40625H79.5128V14H78.2003V6.40625H75.4815ZM86.7678 9.08239V10.1903H82.8984V9.08239H86.7678ZM88.5682 14V5.27273H94.0398V6.40625H89.8849V9.06534H93.7543V10.1946H89.8849V12.8665H94.0909V14H88.5682ZM102.843 5.27273V14H101.632L97.1964 7.59943H97.1154V14H95.7987V5.27273H97.0174L101.458 11.6818H101.539V5.27273H102.843ZM107.589 14H104.763V5.27273H107.678C108.533 5.27273 109.268 5.44744 109.881 5.79688C110.495 6.14347 110.965 6.64205 111.292 7.29261C111.621 7.94034 111.786 8.71733 111.786 9.62358C111.786 10.5327 111.62 11.3139 111.288 11.9673C110.958 12.6207 110.481 13.1236 109.856 13.4759C109.231 13.8253 108.475 14 107.589 14ZM106.08 12.8494H107.516C108.181 12.8494 108.734 12.7244 109.174 12.4744C109.614 12.2216 109.944 11.8565 110.163 11.3793C110.381 10.8991 110.491 10.3139 110.491 9.62358C110.491 8.93892 110.381 8.35795 110.163 7.88068C109.947 7.40341 109.624 7.04119 109.195 6.79403C108.766 6.54687 108.234 6.4233 107.597 6.4233H106.08V12.8494ZM116.868 9.63636C116.868 8.56818 117.009 7.58523 117.29 6.6875C117.571 5.78977 117.982 4.96165 118.521 4.20312H119.689C119.479 4.48438 119.283 4.82955 119.101 5.23864C118.919 5.64773 118.76 6.09659 118.624 6.58523C118.487 7.07102 118.381 7.57528 118.304 8.09801C118.227 8.6179 118.189 9.13068 118.189 9.63636C118.189 10.3125 118.256 10.9972 118.389 11.6903C118.523 12.3835 118.703 13.027 118.93 13.6207C119.158 14.2145 119.411 14.6989 119.689 15.0739H118.521C117.982 14.3153 117.571 13.4872 117.29 12.5895C117.009 11.6918 116.868 10.7074 116.868 9.63636ZM121.135 14V5.27273H122.451V9.06534H126.802V5.27273H128.123V14H126.802V10.1946H122.451V14H121.135ZM129.61 6.40625V5.27273H136.365V6.40625H133.642V14H132.329V6.40625H129.61ZM137.857 5.27273H139.455L142.234 12.0568H142.336L145.114 5.27273H146.712V14H145.46V7.68466H145.379L142.805 13.9872H141.765L139.191 7.6804H139.11V14H137.857V5.27273ZM148.627 14V5.27273H149.944V12.8665H153.898V14H148.627ZM156.956 12.8068L156.892 13.2713C156.849 13.6122 156.777 13.9673 156.674 14.3366C156.575 14.7088 156.471 15.054 156.363 15.3722C156.258 15.6903 156.172 15.9432 156.103 16.1307H155.2C155.237 15.9545 155.288 15.7159 155.353 15.4148C155.419 15.1165 155.483 14.7827 155.545 14.4134C155.608 14.044 155.654 13.6676 155.686 13.2841L155.728 12.8068H156.956ZM169.141 8.1108H167.811C167.76 7.8267 167.665 7.5767 167.526 7.3608C167.387 7.14489 167.216 6.96165 167.015 6.81108C166.813 6.66051 166.587 6.54687 166.337 6.47017C166.09 6.39347 165.827 6.35511 165.549 6.35511C165.046 6.35511 164.596 6.48153 164.198 6.73438C163.803 6.98722 163.49 7.35795 163.26 7.84659C163.033 8.33523 162.919 8.93182 162.919 9.63636C162.919 10.3466 163.033 10.946 163.26 11.4347C163.49 11.9233 163.804 12.2926 164.202 12.5426C164.6 12.7926 165.047 12.9176 165.544 12.9176C165.82 12.9176 166.081 12.8807 166.328 12.8068C166.578 12.7301 166.804 12.6179 167.006 12.4702C167.208 12.3224 167.378 12.142 167.517 11.929C167.659 11.7131 167.757 11.4659 167.811 11.1875L169.141 11.1918C169.07 11.6207 168.932 12.0156 168.728 12.3764C168.526 12.7344 168.266 13.044 167.948 13.3054C167.632 13.5639 167.272 13.7642 166.865 13.9062C166.459 14.0483 166.016 14.1193 165.536 14.1193C164.78 14.1193 164.107 13.9403 163.516 13.5824C162.925 13.2216 162.459 12.706 162.118 12.0355C161.78 11.3651 161.611 10.5653 161.611 9.63636C161.611 8.70455 161.782 7.90483 162.123 7.23722C162.463 6.56676 162.929 6.05256 163.52 5.6946C164.111 5.33381 164.783 5.15341 165.536 5.15341C165.999 5.15341 166.431 5.22017 166.831 5.35369C167.235 5.48437 167.597 5.67756 167.918 5.93324C168.239 6.18608 168.505 6.49574 168.715 6.86222C168.925 7.22585 169.067 7.64205 169.141 8.1108ZM175.477 7.56534C175.431 7.16193 175.244 6.84943 174.914 6.62784C174.585 6.40341 174.17 6.29119 173.67 6.29119C173.312 6.29119 173.002 6.34801 172.741 6.46165C172.479 6.57244 172.276 6.72585 172.131 6.92188C171.989 7.11506 171.918 7.33523 171.918 7.58239C171.918 7.78977 171.967 7.96875 172.063 8.11932C172.163 8.26989 172.292 8.39631 172.451 8.49858C172.613 8.59801 172.786 8.68182 172.971 8.75C173.156 8.81534 173.333 8.86932 173.504 8.91193L174.356 9.13352C174.634 9.2017 174.92 9.29403 175.212 9.41051C175.505 9.52699 175.776 9.6804 176.026 9.87074C176.276 10.0611 176.478 10.2969 176.631 10.5781C176.788 10.8594 176.866 11.196 176.866 11.5881C176.866 12.0824 176.738 12.5213 176.482 12.9048C176.229 13.2884 175.862 13.5909 175.379 13.8125C174.898 14.0341 174.317 14.1449 173.636 14.1449C172.982 14.1449 172.417 14.0412 171.94 13.8338C171.462 13.6264 171.089 13.3324 170.819 12.9517C170.549 12.5682 170.4 12.1136 170.371 11.5881H171.692C171.718 11.9034 171.82 12.1662 171.999 12.3764C172.181 12.5838 172.413 12.7386 172.694 12.8409C172.978 12.9403 173.289 12.9901 173.627 12.9901C173.999 12.9901 174.33 12.9318 174.62 12.8153C174.913 12.696 175.143 12.5312 175.31 12.321C175.478 12.108 175.562 11.8594 175.562 11.5753C175.562 11.3168 175.488 11.1051 175.34 10.9403C175.195 10.7756 174.998 10.6392 174.748 10.5312C174.501 10.4233 174.221 10.3281 173.908 10.2457L172.877 9.96449C172.178 9.77415 171.624 9.49432 171.215 9.125C170.809 8.75568 170.606 8.26705 170.606 7.65909C170.606 7.15625 170.742 6.71733 171.015 6.34233C171.288 5.96733 171.657 5.67614 172.123 5.46875C172.589 5.25852 173.114 5.15341 173.7 5.15341C174.29 5.15341 174.812 5.2571 175.263 5.46449C175.718 5.67188 176.076 5.95739 176.337 6.32102C176.599 6.68182 176.735 7.09659 176.746 7.56534H175.477ZM183.199 7.56534C183.154 7.16193 182.966 6.84943 182.637 6.62784C182.307 6.40341 181.892 6.29119 181.392 6.29119C181.034 6.29119 180.725 6.34801 180.463 6.46165C180.202 6.57244 179.999 6.72585 179.854 6.92188C179.712 7.11506 179.641 7.33523 179.641 7.58239C179.641 7.78977 179.689 7.96875 179.786 8.11932C179.885 8.26989 180.015 8.39631 180.174 8.49858C180.336 8.59801 180.509 8.68182 180.694 8.75C180.878 8.81534 181.056 8.86932 181.226 8.91193L182.078 9.13352C182.357 9.2017 182.642 9.29403 182.935 9.41051C183.228 9.52699 183.499 9.6804 183.749 9.87074C183.999 10.0611 184.201 10.2969 184.354 10.5781C184.51 10.8594 184.588 11.196 184.588 11.5881C184.588 12.0824 184.461 12.5213 184.205 12.9048C183.952 13.2884 183.584 13.5909 183.101 13.8125C182.621 14.0341 182.04 14.1449 181.358 14.1449C180.705 14.1449 180.14 14.0412 179.662 13.8338C179.185 13.6264 178.811 13.3324 178.542 12.9517C178.272 12.5682 178.123 12.1136 178.094 11.5881H179.415C179.441 11.9034 179.543 12.1662 179.722 12.3764C179.904 12.5838 180.135 12.7386 180.417 12.8409C180.701 12.9403 181.012 12.9901 181.35 12.9901C181.722 12.9901 182.053 12.9318 182.343 12.8153C182.635 12.696 182.865 12.5312 183.033 12.321C183.201 12.108 183.284 11.8594 183.284 11.5753C183.284 11.3168 183.211 11.1051 183.063 10.9403C182.918 10.7756 182.721 10.6392 182.471 10.5312C182.223 10.4233 181.944 10.3281 181.631 10.2457L180.6 9.96449C179.901 9.77415 179.347 9.49432 178.938 9.125C178.532 8.75568 178.328 8.26705 178.328 7.65909C178.328 7.15625 178.465 6.71733 178.738 6.34233C179.01 5.96733 179.38 5.67614 179.846 5.46875C180.311 5.25852 180.837 5.15341 181.422 5.15341C182.013 5.15341 182.534 5.2571 182.986 5.46449C183.441 5.67188 183.799 5.95739 184.06 6.32102C184.321 6.68182 184.458 7.09659 184.469 7.56534H183.199ZM187.717 12.8068L187.653 13.2713C187.611 13.6122 187.538 13.9673 187.436 14.3366C187.337 14.7088 187.233 15.054 187.125 15.3722C187.02 15.6903 186.933 15.9432 186.865 16.1307H185.962C185.999 15.9545 186.05 15.7159 186.115 15.4148C186.18 15.1165 186.244 14.7827 186.307 14.4134C186.369 14.044 186.416 13.6676 186.447 13.2841L186.49 12.8068H187.717ZM196.046 5.27273H197.359V11.4602C197.359 12.0199 197.248 12.4986 197.026 12.8963C196.808 13.294 196.499 13.598 196.102 13.8082C195.704 14.0156 195.238 14.1193 194.704 14.1193C194.212 14.1193 193.771 14.0298 193.379 13.8509C192.989 13.6719 192.681 13.4119 192.454 13.071C192.229 12.7273 192.117 12.3097 192.117 11.8182H193.425C193.425 12.0597 193.481 12.2685 193.592 12.4446C193.705 12.6207 193.86 12.7585 194.056 12.858C194.255 12.9545 194.482 13.0028 194.738 13.0028C195.016 13.0028 195.252 12.9446 195.445 12.8281C195.641 12.7088 195.79 12.5341 195.893 12.304C195.995 12.0739 196.046 11.7926 196.046 11.4602V5.27273ZM204.035 7.56534C203.99 7.16193 203.802 6.84943 203.473 6.62784C203.143 6.40341 202.728 6.29119 202.228 6.29119C201.87 6.29119 201.561 6.34801 201.299 6.46165C201.038 6.57244 200.835 6.72585 200.69 6.92188C200.548 7.11506 200.477 7.33523 200.477 7.58239C200.477 7.78977 200.525 7.96875 200.622 8.11932C200.721 8.26989 200.85 8.39631 201.01 8.49858C201.172 8.59801 201.345 8.68182 201.529 8.75C201.714 8.81534 201.892 8.86932 202.062 8.91193L202.914 9.13352C203.193 9.2017 203.478 9.29403 203.771 9.41051C204.064 9.52699 204.335 9.6804 204.585 9.87074C204.835 10.0611 205.037 10.2969 205.19 10.5781C205.346 10.8594 205.424 11.196 205.424 11.5881C205.424 12.0824 205.297 12.5213 205.041 12.9048C204.788 13.2884 204.42 13.5909 203.937 13.8125C203.457 14.0341 202.876 14.1449 202.194 14.1449C201.541 14.1449 200.975 14.0412 200.498 13.8338C200.021 13.6264 199.647 13.3324 199.377 12.9517C199.108 12.5682 198.958 12.1136 198.93 11.5881H200.251C200.277 11.9034 200.379 12.1662 200.558 12.3764C200.74 12.5838 200.971 12.7386 201.252 12.8409C201.537 12.9403 201.848 12.9901 202.186 12.9901C202.558 12.9901 202.889 12.9318 203.179 12.8153C203.471 12.696 203.701 12.5312 203.869 12.321C204.037 12.108 204.12 11.8594 204.12 11.5753C204.12 11.3168 204.047 11.1051 203.899 10.9403C203.754 10.7756 203.556 10.6392 203.306 10.5312C203.059 10.4233 202.779 10.3281 202.467 10.2457L201.436 9.96449C200.737 9.77415 200.183 9.49432 199.774 9.125C199.368 8.75568 199.164 8.26705 199.164 7.65909C199.164 7.15625 199.301 6.71733 199.574 6.34233C199.846 5.96733 200.216 5.67614 200.681 5.46875C201.147 5.25852 201.673 5.15341 202.258 5.15341C202.849 5.15341 203.37 5.2571 203.822 5.46449C204.277 5.67188 204.635 5.95739 204.896 6.32102C205.157 6.68182 205.294 7.09659 205.305 7.56534H204.035ZM208.553 12.8068L208.489 13.2713C208.447 13.6122 208.374 13.9673 208.272 14.3366C208.173 14.7088 208.069 15.054 207.961 15.3722C207.856 15.6903 207.769 15.9432 207.701 16.1307H206.798C206.835 15.9545 206.886 15.7159 206.951 15.4148C207.016 15.1165 207.08 14.7827 207.143 14.4134C207.205 14.044 207.252 13.6676 207.283 13.2841L207.326 12.8068H208.553ZM213.49 14V5.27273H216.601C217.277 5.27273 217.838 5.3892 218.284 5.62216C218.733 5.85511 219.068 6.17756 219.29 6.58949C219.511 6.99858 219.622 7.47159 219.622 8.00852C219.622 8.54261 219.51 9.01278 219.286 9.41903C219.064 9.82244 218.729 10.1364 218.28 10.3608C217.834 10.5852 217.273 10.6974 216.597 10.6974H214.24V9.56392H216.477C216.903 9.56392 217.25 9.50284 217.517 9.38068C217.787 9.25852 217.984 9.08097 218.109 8.84801C218.234 8.61506 218.297 8.33523 218.297 8.00852C218.297 7.67898 218.233 7.39347 218.105 7.15199C217.98 6.91051 217.783 6.72585 217.513 6.59801C217.246 6.46733 216.895 6.40199 216.46 6.40199H214.807V14H213.49ZM217.798 10.0625L219.955 14H218.455L216.341 10.0625H217.798ZM223.861 14.1321C223.216 14.1321 222.661 13.9943 222.195 13.7188C221.732 13.4403 221.374 13.0497 221.121 12.5469C220.871 12.0412 220.746 11.4489 220.746 10.7699C220.746 10.0994 220.871 9.50852 221.121 8.99716C221.374 8.4858 221.726 8.08665 222.178 7.79972C222.632 7.51278 223.164 7.36932 223.772 7.36932C224.141 7.36932 224.499 7.4304 224.846 7.55256C225.192 7.67472 225.503 7.86648 225.779 8.12784C226.054 8.3892 226.272 8.72869 226.431 9.14631C226.59 9.56108 226.669 10.0653 226.669 10.6591V11.1108H221.466V10.1562H225.421C225.421 9.82102 225.353 9.52415 225.216 9.26562C225.08 9.00426 224.888 8.7983 224.641 8.64773C224.397 8.49716 224.11 8.42188 223.78 8.42188C223.422 8.42188 223.11 8.50994 222.843 8.68608C222.578 8.85937 222.374 9.08665 222.229 9.3679C222.087 9.64631 222.016 9.94886 222.016 10.2756V11.0213C222.016 11.4588 222.093 11.831 222.246 12.1378C222.402 12.4446 222.62 12.679 222.898 12.8409C223.176 13 223.502 13.0795 223.874 13.0795C224.115 13.0795 224.336 13.0455 224.534 12.9773C224.733 12.9062 224.905 12.8011 225.05 12.6619C225.195 12.5227 225.306 12.3509 225.382 12.1463L226.588 12.3636C226.492 12.7187 226.319 13.0298 226.069 13.2969C225.821 13.5611 225.51 13.767 225.135 13.9148C224.763 14.0597 224.338 14.1321 223.861 14.1321ZM229.988 14.1449C229.573 14.1449 229.198 14.0682 228.863 13.9148C228.528 13.7585 228.262 13.5327 228.066 13.2372C227.873 12.9418 227.776 12.5795 227.776 12.1506C227.776 11.7812 227.847 11.4773 227.989 11.2386C228.131 11 228.323 10.8111 228.565 10.6719C228.806 10.5327 229.076 10.4276 229.374 10.3565C229.673 10.2855 229.977 10.2315 230.286 10.1946C230.678 10.1491 230.996 10.1122 231.241 10.0838C231.485 10.0526 231.663 10.0028 231.773 9.93466C231.884 9.86648 231.94 9.75568 231.94 9.60227V9.57244C231.94 9.20028 231.835 8.91193 231.624 8.70739C231.417 8.50284 231.107 8.40057 230.695 8.40057C230.266 8.40057 229.928 8.49574 229.681 8.68608C229.437 8.87358 229.268 9.08239 229.174 9.3125L227.977 9.03977C228.119 8.64205 228.326 8.32102 228.599 8.0767C228.874 7.82955 229.191 7.65057 229.549 7.53977C229.907 7.42614 230.283 7.36932 230.678 7.36932C230.94 7.36932 231.217 7.40057 231.509 7.46307C231.805 7.52273 232.08 7.63352 232.336 7.79545C232.594 7.95739 232.806 8.18892 232.971 8.49006C233.136 8.78835 233.218 9.17614 233.218 9.65341V14H231.974V13.1051H231.923C231.84 13.2699 231.717 13.4318 231.552 13.5909C231.387 13.75 231.175 13.8821 230.917 13.9872C230.658 14.0923 230.349 14.1449 229.988 14.1449ZM230.265 13.1222C230.617 13.1222 230.918 13.0526 231.168 12.9134C231.421 12.7741 231.613 12.5923 231.744 12.3679C231.877 12.1406 231.944 11.8977 231.944 11.6392V10.7955C231.898 10.8409 231.81 10.8835 231.68 10.9233C231.552 10.9602 231.406 10.9929 231.241 11.0213C231.076 11.0469 230.915 11.071 230.759 11.0938C230.603 11.1136 230.472 11.1307 230.367 11.1449C230.12 11.1761 229.894 11.2287 229.69 11.3026C229.488 11.3764 229.326 11.483 229.204 11.6222C229.085 11.7585 229.025 11.9403 229.025 12.1676C229.025 12.483 229.141 12.7216 229.374 12.8835C229.607 13.0426 229.904 13.1222 230.265 13.1222ZM237.672 14.1321C237.039 14.1321 236.493 13.9886 236.036 13.7017C235.581 13.4119 235.232 13.0128 234.988 12.5043C234.743 11.9957 234.621 11.4134 234.621 10.7571C234.621 10.0923 234.746 9.50568 234.996 8.99716C235.246 8.4858 235.598 8.08665 236.053 7.79972C236.507 7.51278 237.043 7.36932 237.659 7.36932C238.157 7.36932 238.6 7.46165 238.989 7.64631C239.378 7.82812 239.692 8.08381 239.931 8.41335C240.172 8.7429 240.316 9.12784 240.361 9.56818H239.121C239.053 9.26136 238.897 8.99716 238.652 8.77557C238.411 8.55398 238.087 8.44318 237.681 8.44318C237.326 8.44318 237.015 8.53693 236.748 8.72443C236.483 8.90909 236.277 9.1733 236.13 9.51705C235.982 9.85795 235.908 10.2614 235.908 10.7273C235.908 11.2045 235.98 11.6165 236.125 11.9631C236.27 12.3097 236.475 12.5781 236.739 12.7685C237.006 12.9588 237.32 13.054 237.681 13.054C237.922 13.054 238.141 13.0099 238.337 12.9219C238.536 12.831 238.702 12.7017 238.836 12.5341C238.972 12.3665 239.067 12.1648 239.121 11.929H240.361C240.316 12.3523 240.178 12.7301 239.948 13.0625C239.718 13.3949 239.409 13.6562 239.023 13.8466C238.64 14.0369 238.189 14.1321 237.672 14.1321ZM244.779 7.45455V8.47727H241.204V7.45455H244.779ZM242.163 5.88636H243.437V12.0781C243.437 12.3253 243.474 12.5114 243.548 12.6364C243.621 12.7585 243.717 12.8423 243.833 12.8878C243.952 12.9304 244.082 12.9517 244.221 12.9517C244.323 12.9517 244.413 12.9446 244.489 12.9304C244.566 12.9162 244.626 12.9048 244.668 12.8963L244.898 13.9489C244.825 13.9773 244.719 14.0057 244.583 14.0341C244.447 14.0653 244.276 14.0824 244.072 14.0852C243.737 14.0909 243.424 14.0312 243.134 13.9062C242.844 13.7812 242.61 13.5881 242.431 13.3267C242.252 13.0653 242.163 12.7372 242.163 12.3423V5.88636ZM248.639 10.3778C248.639 11.4489 248.498 12.4332 248.217 13.331C247.936 14.2287 247.525 15.0568 246.985 15.8153H245.818C246.028 15.5341 246.224 15.1889 246.406 14.7798C246.588 14.3707 246.747 13.9233 246.883 13.4375C247.02 12.9489 247.126 12.4432 247.203 11.9205C247.279 11.3977 247.318 10.8835 247.318 10.3778C247.318 9.70455 247.251 9.02131 247.118 8.32812C246.984 7.63494 246.804 6.99148 246.576 6.39773C246.349 5.80398 246.096 5.3196 245.818 4.9446H246.985C247.525 5.70312 247.936 6.53125 248.217 7.42898C248.498 8.3267 248.639 9.30966 248.639 10.3778Z" fill="#B5B5B5"/>
<rect x="49" y="30" width="128" height="8" rx="4" fill="#6360FF"/>
<rect x="42.5" y="24.5" width="259" height="19" rx="9.5" stroke="white" stroke-opacity="0.25"/>
</svg>
