<svg width="302" height="44" viewBox="0 0 302 44" fill="none" xmlns="http://www.w3.org/2000/svg">
<path d="M5.985 28.8037C5.89147 28.8696 5.78164 28.9086 5.66749 28.9164C5.55333 28.9242 5.43924 28.9005 5.33763 28.8478C5.23602 28.7952 5.15081 28.7157 5.09127 28.618C5.03174 28.5203 5.00017 28.4081 5 28.2937V15.7062C4.99994 15.5917 5.03134 15.4794 5.09079 15.3815C5.15023 15.2836 5.23543 15.2039 5.33708 15.1512C5.43872 15.0984 5.55291 15.0746 5.66718 15.0823C5.78144 15.09 5.89138 15.129 5.985 15.195L14.9012 21.4887C14.983 21.5464 15.0497 21.6229 15.0958 21.7118C15.1418 21.8007 15.1658 21.8993 15.1658 21.9994C15.1658 22.0994 15.1418 22.1981 15.0958 22.2869C15.0497 22.3758 14.983 22.4523 14.9012 22.51L5.985 28.8037ZM16.25 15.7062C16.2499 15.5917 16.2813 15.4794 16.3408 15.3815C16.4002 15.2836 16.4854 15.2039 16.5871 15.1512C16.6887 15.0984 16.8029 15.0746 16.9172 15.0823C17.0314 15.09 17.1414 15.129 17.235 15.195L26.1512 21.4887C26.233 21.5464 26.2997 21.6229 26.3458 21.7118C26.3918 21.8007 26.4158 21.8993 26.4158 21.9994C26.4158 22.0994 26.3918 22.1981 26.3458 22.2869C26.2997 22.3758 26.233 22.4523 26.1512 22.51L17.235 28.8037C17.1415 28.8696 17.0316 28.9086 16.9175 28.9164C16.8033 28.9242 16.6892 28.9005 16.5876 28.8478C16.486 28.7952 16.4008 28.7157 16.3413 28.618C16.2817 28.5203 16.2502 28.4081 16.25 28.2937V15.7062Z" fill="white"/>
<path d="M42.9588 14V5.27273H46.0696C46.7457 5.27273 47.3068 5.3892 47.7528 5.62216C48.2017 5.85511 48.5369 6.17756 48.7585 6.58949C48.9801 6.99858 49.0909 7.47159 49.0909 8.00852C49.0909 8.54261 48.9787 9.01278 48.7543 9.41903C48.5327 9.82244 48.1974 10.1364 47.7486 10.3608C47.3026 10.5852 46.7415 10.6974 46.0653 10.6974H43.7088V9.56392H45.946C46.3722 9.56392 46.7188 9.50284 46.9858 9.38068C47.2557 9.25852 47.4531 9.08097 47.5781 8.84801C47.7031 8.61506 47.7656 8.33523 47.7656 8.00852C47.7656 7.67898 47.7017 7.39347 47.5739 7.15199C47.4489 6.91051 47.2514 6.72585 46.9815 6.59801C46.7145 6.46733 46.3636 6.40199 45.929 6.40199H44.2756V14H42.9588ZM47.267 10.0625L49.4233 14H47.9233L45.8097 10.0625H47.267ZM51.4304 14H50.0327L53.1733 5.27273H54.6946L57.8352 14H56.4375L53.9702 6.85795H53.902L51.4304 14ZM51.6648 10.5824H56.1989V11.6903H51.6648V10.5824ZM59.0955 14V5.27273H62.2063C62.8853 5.27273 63.4478 5.39631 63.8938 5.64347C64.3398 5.89062 64.6737 6.22869 64.8952 6.65767C65.1168 7.08381 65.2276 7.56392 65.2276 8.09801C65.2276 8.63494 65.1154 9.1179 64.891 9.54688C64.6694 9.97301 64.3342 10.3111 63.8853 10.5611C63.4393 10.8082 62.8782 10.9318 62.2021 10.9318H60.0629V9.81534H62.0827C62.5117 9.81534 62.8597 9.74148 63.1268 9.59375C63.3938 9.44318 63.5898 9.23864 63.7148 8.98011C63.8398 8.72159 63.9023 8.42756 63.9023 8.09801C63.9023 7.76847 63.8398 7.47585 63.7148 7.22017C63.5898 6.96449 63.3924 6.7642 63.1225 6.61932C62.8555 6.47443 62.5032 6.40199 62.0657 6.40199H60.4123V14H59.0955ZM68.0881 5.27273V14H66.7713V5.27273H68.0881ZM72.831 14H70.0057V5.27273H72.9205C73.7756 5.27273 74.5099 5.44744 75.1236 5.79688C75.7372 6.14347 76.2074 6.64205 76.5341 7.29261C76.8636 7.94034 77.0284 8.71733 77.0284 9.62358C77.0284 10.5327 76.8622 11.3139 76.5298 11.9673C76.2003 12.6207 75.723 13.1236 75.098 13.4759C74.473 13.8253 73.7173 14 72.831 14ZM71.3224 12.8494H72.7585C73.4233 12.8494 73.9759 12.7244 74.4162 12.4744C74.8565 12.2216 75.1861 11.8565 75.4048 11.3793C75.6236 10.8991 75.733 10.3139 75.733 9.62358C75.733 8.93892 75.6236 8.35795 75.4048 7.88068C75.1889 7.40341 74.8665 7.04119 74.4375 6.79403C74.0085 6.54687 73.4759 6.4233 72.8395 6.4233H71.3224V12.8494ZM81.8416 14V5.27273H84.9524C85.6314 5.27273 86.1939 5.39631 86.6399 5.64347C87.0859 5.89062 87.4197 6.22869 87.6413 6.65767C87.8629 7.08381 87.9737 7.56392 87.9737 8.09801C87.9737 8.63494 87.8615 9.1179 87.6371 9.54688C87.4155 9.97301 87.0803 10.3111 86.6314 10.5611C86.1854 10.8082 85.6243 10.9318 84.9482 10.9318H82.8089V9.81534H84.8288C85.2578 9.81534 85.6058 9.74148 85.8729 9.59375C86.1399 9.44318 86.3359 9.23864 86.4609 8.98011C86.5859 8.72159 86.6484 8.42756 86.6484 8.09801C86.6484 7.76847 86.5859 7.47585 86.4609 7.22017C86.3359 6.96449 86.1385 6.7642 85.8686 6.61932C85.6016 6.47443 85.2493 6.40199 84.8118 6.40199H83.1584V14H81.8416ZM89.5174 14V5.27273H92.6282C93.3043 5.27273 93.8654 5.3892 94.3114 5.62216C94.7603 5.85511 95.0955 6.17756 95.3171 6.58949C95.5387 6.99858 95.6495 7.47159 95.6495 8.00852C95.6495 8.54261 95.5373 9.01278 95.3129 9.41903C95.0913 9.82244 94.756 10.1364 94.3072 10.3608C93.8612 10.5852 93.3001 10.6974 92.6239 10.6974H90.2674V9.56392H92.5046C92.9308 9.56392 93.2773 9.50284 93.5444 9.38068C93.8143 9.25852 94.0117 9.08097 94.1367 8.84801C94.2617 8.61506 94.3242 8.33523 94.3242 8.00852C94.3242 7.67898 94.2603 7.39347 94.1325 7.15199C94.0075 6.91051 93.81 6.72585 93.5401 6.59801C93.2731 6.46733 92.9222 6.40199 92.4876 6.40199H90.8342V14H89.5174ZM93.8256 10.0625L95.9819 14H94.4819L92.3683 10.0625H93.8256ZM104.833 9.63636C104.833 10.5682 104.662 11.3693 104.321 12.0398C103.98 12.7074 103.513 13.2216 102.919 13.5824C102.328 13.9403 101.657 14.1193 100.904 14.1193C100.148 14.1193 99.4734 13.9403 98.8796 13.5824C98.2887 13.2216 97.8228 12.706 97.4819 12.0355C97.141 11.3651 96.9705 10.5653 96.9705 9.63636C96.9705 8.70455 97.141 7.90483 97.4819 7.23722C97.8228 6.56676 98.2887 6.05256 98.8796 5.6946C99.4734 5.33381 100.148 5.15341 100.904 5.15341C101.657 5.15341 102.328 5.33381 102.919 5.6946C103.513 6.05256 103.98 6.56676 104.321 7.23722C104.662 7.90483 104.833 8.70455 104.833 9.63636ZM103.529 9.63636C103.529 8.92614 103.414 8.32812 103.184 7.84233C102.956 7.35369 102.644 6.98438 102.246 6.73438C101.851 6.48153 101.404 6.35511 100.904 6.35511C100.401 6.35511 99.9521 6.48153 99.5572 6.73438C99.1623 6.98438 98.8498 7.35369 98.6197 7.84233C98.3924 8.32812 98.2788 8.92614 98.2788 9.63636C98.2788 10.3466 98.3924 10.946 98.6197 11.4347C98.8498 11.9205 99.1623 12.2898 99.5572 12.5426C99.9521 12.7926 100.401 12.9176 100.904 12.9176C101.404 12.9176 101.851 12.7926 102.246 12.5426C102.644 12.2898 102.956 11.9205 103.184 11.4347C103.414 10.946 103.529 10.3466 103.529 9.63636ZM105.669 6.40625V5.27273H112.423V6.40625H109.7V14H108.388V6.40625H105.669ZM121.122 9.63636C121.122 10.5682 120.951 11.3693 120.61 12.0398C120.27 12.7074 119.802 13.2216 119.208 13.5824C118.618 13.9403 117.946 14.1193 117.193 14.1193C116.437 14.1193 115.762 13.9403 115.169 13.5824C114.578 13.2216 114.112 12.706 113.771 12.0355C113.43 11.3651 113.26 10.5653 113.26 9.63636C113.26 8.70455 113.43 7.90483 113.771 7.23722C114.112 6.56676 114.578 6.05256 115.169 5.6946C115.762 5.33381 116.437 5.15341 117.193 5.15341C117.946 5.15341 118.618 5.33381 119.208 5.6946C119.802 6.05256 120.27 6.56676 120.61 7.23722C120.951 7.90483 121.122 8.70455 121.122 9.63636ZM119.818 9.63636C119.818 8.92614 119.703 8.32812 119.473 7.84233C119.245 7.35369 118.933 6.98438 118.535 6.73438C118.14 6.48153 117.693 6.35511 117.193 6.35511C116.69 6.35511 116.241 6.48153 115.846 6.73438C115.451 6.98438 115.139 7.35369 114.909 7.84233C114.681 8.32812 114.568 8.92614 114.568 9.63636C114.568 10.3466 114.681 10.946 114.909 11.4347C115.139 11.9205 115.451 12.2898 115.846 12.5426C116.241 12.7926 116.69 12.9176 117.193 12.9176C117.693 12.9176 118.14 12.7926 118.535 12.5426C118.933 12.2898 119.245 11.9205 119.473 11.4347C119.703 10.946 119.818 10.3466 119.818 9.63636ZM121.958 6.40625V5.27273H128.712V6.40625H125.989V14H124.677V6.40625H121.958ZM129.532 5.27273H131.027L133.307 9.24006H133.401L135.681 5.27273H137.176L134.01 10.5739V14H132.698V10.5739L129.532 5.27273ZM138.42 14V5.27273H141.531C142.21 5.27273 142.772 5.39631 143.218 5.64347C143.664 5.89062 143.998 6.22869 144.219 6.65767C144.441 7.08381 144.552 7.56392 144.552 8.09801C144.552 8.63494 144.44 9.1179 144.215 9.54688C143.994 9.97301 143.658 10.3111 143.21 10.5611C142.763 10.8082 142.202 10.9318 141.526 10.9318H139.387V9.81534H141.407C141.836 9.81534 142.184 9.74148 142.451 9.59375C142.718 9.44318 142.914 9.23864 143.039 8.98011C143.164 8.72159 143.227 8.42756 143.227 8.09801C143.227 7.76847 143.164 7.47585 143.039 7.22017C142.914 6.96449 142.717 6.7642 142.447 6.61932C142.18 6.47443 141.827 6.40199 141.39 6.40199H139.737V14H138.42ZM147.412 5.27273V14H146.096V5.27273H147.412ZM156.374 5.27273V14H155.164L150.728 7.59943H150.647V14H149.33V5.27273H150.549L154.989 11.6818H155.07V5.27273H156.374ZM164.201 8.02983C164.119 7.77131 164.008 7.53977 163.869 7.33523C163.732 7.12784 163.569 6.9517 163.379 6.80682C163.188 6.65909 162.971 6.54687 162.727 6.47017C162.485 6.39347 162.219 6.35511 161.93 6.35511C161.438 6.35511 160.995 6.48153 160.6 6.73438C160.205 6.98722 159.893 7.35795 159.663 7.84659C159.435 8.33239 159.322 8.92756 159.322 9.6321C159.322 10.3395 159.437 10.9375 159.667 11.4261C159.897 11.9148 160.212 12.2855 160.613 12.5384C161.013 12.7912 161.469 12.9176 161.981 12.9176C162.455 12.9176 162.869 12.821 163.221 12.6278C163.576 12.4347 163.85 12.1619 164.043 11.8097C164.239 11.4545 164.337 11.0369 164.337 10.5568L164.678 10.6207H162.181V9.53409H165.612V10.527C165.612 11.2599 165.455 11.8963 165.143 12.4361C164.833 12.973 164.404 13.3878 163.856 13.6804C163.31 13.973 162.685 14.1193 161.981 14.1193C161.191 14.1193 160.498 13.9375 159.901 13.5739C159.308 13.2102 158.844 12.6946 158.512 12.027C158.18 11.3565 158.013 10.5611 158.013 9.64062C158.013 8.9446 158.11 8.3196 158.303 7.76562C158.496 7.21165 158.768 6.74148 159.117 6.35511C159.469 5.96591 159.883 5.66903 160.357 5.46449C160.835 5.2571 161.356 5.15341 161.921 5.15341C162.393 5.15341 162.832 5.22301 163.238 5.36222C163.647 5.50142 164.011 5.69886 164.329 5.95455C164.65 6.21023 164.915 6.5142 165.126 6.86648C165.336 7.21591 165.478 7.60369 165.552 8.02983H164.201Z" fill="#B5B5B5"/>
<rect x="49" y="30" width="227" height="8" rx="4" fill="#6360FF"/>
<rect x="42.5" y="24.5" width="259" height="19" rx="9.5" stroke="white" stroke-opacity="0.25"/>
</svg>
