<svg width="28" height="28" viewBox="0 0 28 28" fill="none" xmlns="http://www.w3.org/2000/svg">
<g id="Frame 911">
<path id="Vector" d="M20.4455 18.9296C20.2802 18.9419 20.1141 18.9215 19.9567 18.8695C19.7992 18.8175 19.6536 18.7349 19.5282 18.6265C19.4028 18.5181 19.2999 18.386 19.2257 18.2378C19.1514 18.0896 19.1071 17.9282 19.0953 17.7628L18.5397 10.1394L8.4507 21.8147C8.23227 22.0675 7.92237 22.2231 7.58918 22.2474C7.25599 22.2717 6.9268 22.1626 6.67403 21.9442C6.42125 21.7257 6.2656 21.4158 6.24132 21.0826C6.21703 20.7495 6.32611 20.4203 6.54454 20.1675L16.6335 8.49223L9.00854 9.04648C8.67477 9.07081 8.34501 8.96155 8.09179 8.74274C7.83858 8.52393 7.68266 8.21349 7.65834 7.87972C7.63401 7.54596 7.74327 7.21619 7.96208 6.96298C8.18089 6.70977 8.49132 6.55385 8.82509 6.52952L19.4851 5.75258C19.6505 5.74024 19.8166 5.76066 19.974 5.81267C20.1314 5.86467 20.277 5.94724 20.4025 6.05564C20.5279 6.16403 20.6307 6.29613 20.705 6.44434C20.7793 6.59255 20.8236 6.75397 20.8353 6.91934L21.6123 17.5794C21.6246 17.7447 21.6042 17.9108 21.5522 18.0683C21.5002 18.2257 21.4176 18.3713 21.3092 18.4967C21.2008 18.6222 21.0687 18.725 20.9205 18.7993C20.7723 18.8735 20.6109 18.9178 20.4455 18.9296Z" fill="white"/>
</g>
</svg>
