<svg width="1728" height="1010" viewBox="0 0 1728 1010" fill="none" xmlns="http://www.w3.org/2000/svg">
<path d="M278.5 875C278.102 875 277.721 874.842 277.439 874.561C277.158 874.279 277 873.898 277 873.5C277 873.102 277.158 872.721 277.439 872.439C277.721 872.158 278.102 872 278.5 872C278.898 872 279.279 872.158 279.561 872.439C279.842 872.721 280 873.102 280 873.5C280 873.898 279.842 874.279 279.561 874.561C279.279 874.842 278.898 875 278.5 875ZM275.5 871C275.102 871 274.721 870.842 274.439 870.561C274.158 870.279 274 869.898 274 869.5C274 869.102 274.158 868.721 274.439 868.439C274.721 868.158 275.102 868 275.5 868C275.898 868 276.279 868.158 276.561 868.439C276.842 868.721 277 869.102 277 869.5C277 869.898 276.842 870.279 276.561 870.561C276.279 870.842 275.898 871 275.5 871ZM270.5 871C270.102 871 269.721 870.842 269.439 870.561C269.158 870.279 269 869.898 269 869.5C269 869.102 269.158 868.721 269.439 868.439C269.721 868.158 270.102 868 270.5 868C270.898 868 271.279 868.158 271.561 868.439C271.842 868.721 272 869.102 272 869.5C272 869.898 271.842 870.279 271.561 870.561C271.279 870.842 270.898 871 270.5 871ZM267.5 875C267.102 875 266.721 874.842 266.439 874.561C266.158 874.279 266 873.898 266 873.5C266 873.102 266.158 872.721 266.439 872.439C266.721 872.158 267.102 872 267.5 872C267.898 872 268.279 872.158 268.561 872.439C268.842 872.721 269 873.102 269 873.5C269 873.898 268.842 874.279 268.561 874.561C268.279 874.842 267.898 875 267.5 875ZM273 866C270.613 866 268.324 866.948 266.636 868.636C264.948 870.324 264 872.613 264 875C264 877.387 264.948 879.676 266.636 881.364C268.324 883.052 270.613 884 273 884C273.398 884 273.779 883.842 274.061 883.561C274.342 883.279 274.5 882.898 274.5 882.5C274.5 882.11 274.35 881.76 274.11 881.5C273.88 881.23 273.73 880.88 273.73 880.5C273.73 880.102 273.888 879.721 274.169 879.439C274.451 879.158 274.832 879 275.23 879H277C278.326 879 279.598 878.473 280.536 877.536C281.473 876.598 282 875.326 282 874C282 869.58 277.97 866 273 866Z" fill="black"/>
<g filter="url(#filter0_d_630_6916)">
<ellipse cx="5.62507" cy="6.38703" rx="5.62507" ry="6.38703" transform="matrix(0.971487 0.237093 -0.181678 0.983358 1447.32 216)" fill="#5C58FF"/>
</g>
<g filter="url(#filter1_d_630_6916)">
<circle cx="1592.4" cy="617.932" r="11.0009" transform="rotate(11.9883 1592.4 617.932)" fill="#5C58FF"/>
</g>
<g filter="url(#filter2_d_630_6916)">
<circle cx="1417.94" cy="592.132" r="11.0009" transform="rotate(11.9883 1417.94 592.132)" fill="#5C58FF"/>
</g>
<g filter="url(#filter3_d_630_6916)">
<circle cx="1457.97" cy="491.918" r="11.0009" transform="rotate(11.9883 1457.97 491.918)" fill="#5C58FF"/>
</g>
<g filter="url(#filter4_d_630_6916)">
<circle cx="1306.83" cy="359.235" r="6.72275" transform="rotate(11.9883 1306.83 359.235)" fill="#5C58FF"/>
</g>
<g filter="url(#filter5_d_630_6916)">
<circle cx="1398.2" cy="851.803" r="8.55623" transform="rotate(-0.237733 1398.2 851.803)" fill="#5C58FF" fill-opacity="0.75" shape-rendering="crispEdges"/>
</g>
<line y1="-1" x2="392.192" y2="-1" transform="matrix(0.327845 0.944731 -0.909039 0.416711 1455.35 234.369)" stroke="#6360FF" stroke-width="2"/>
<line x1="1311.9" y1="371.567" x2="1408.54" y2="578.705" stroke="#6360FF" stroke-width="2"/>
<line x1="1584.17" y1="631.655" x2="1407.49" y2="844.005" stroke="#6360FF" stroke-width="2"/>
<line x1="1432.44" y1="594.106" x2="1577.79" y2="613.81" stroke="#6360FF" stroke-width="2"/>
<line x1="1426.09" y1="578.409" x2="1451.92" y2="508.463" stroke="#6360FF" stroke-width="2"/>
<circle cx="1599.5" cy="191.5" r="9.5" fill="#8280FF" fill-opacity="0.25"/>
<circle cx="1614.5" cy="890.5" r="9.5" fill="#8280FF" fill-opacity="0.25"/>
<ellipse cx="5.09627" cy="4.50843" rx="5.09627" ry="4.50843" transform="matrix(0.984665 0.174458 -0.210489 0.977596 160.49 193.099)" fill="#8280FF" fill-opacity="0.75"/>
<ellipse cx="6.75728" cy="7.38153" rx="6.75728" ry="7.38153" transform="matrix(0.981213 0.192928 -0.191442 0.981504 295.702 471.206)" fill="#8280FF" fill-opacity="0.75"/>
<ellipse cx="8.06294" cy="8.72558" rx="8.06294" ry="8.72558" transform="matrix(0.740116 0.672479 -0.662931 0.74868 404.569 599)" fill="#8280FF" fill-opacity="0.75"/>
<ellipse cx="8.06294" cy="8.72558" rx="8.06294" ry="8.72558" transform="matrix(0.984453 0.175645 -0.163005 0.986625 190.59 720.562)" fill="#8280FF" fill-opacity="0.75"/>
<ellipse cx="447.127" cy="760.824" rx="6.26766" ry="6.7898" transform="rotate(18.6257 447.127 760.824)" fill="#8280FF" fill-opacity="0.75"/>
<ellipse cx="184.157" cy="638.052" rx="6.26766" ry="6.7898" transform="rotate(5.1274 184.157 638.052)" fill="#8280FF" fill-opacity="0.75"/>
<line y1="-1" x2="286.645" y2="-1" transform="matrix(0.432923 0.901431 -0.939861 0.341558 170.03 209.278)" stroke="#6360FF" stroke-width="2"/>
<line y1="-1" x2="172" y2="-1" transform="matrix(0.585542 -0.810642 0.760437 0.649412 192.159 629.022)" stroke="#6360FF" stroke-width="2"/>
<line y1="-1" x2="276.985" y2="-1" transform="matrix(0.900897 0.434033 -0.41759 0.908636 189 638)" stroke="#6360FF" stroke-width="2"/>
<line y1="-1" x2="134.156" y2="-1" transform="matrix(0.292017 0.956413 -0.932309 0.361664 407.608 623.111)" stroke="#6360FF" stroke-width="2"/>
<line y1="-1" x2="68.6159" y2="-1" transform="matrix(0.117665 0.993053 -0.988373 0.152053 185.327 649.536)" stroke="#6360FF" stroke-width="2"/>
<circle cx="414.5" cy="207.5" r="9.5" fill="#8280FF" fill-opacity="0.25"/>
<circle cx="130.5" cy="480.5" r="9.5" fill="#8280FF" fill-opacity="0.25"/>
<defs>
<filter id="filter0_d_630_6916" x="1430.27" y="201.424" width="42.7112" height="44.38" filterUnits="userSpaceOnUse" color-interpolation-filters="sRGB">
<feFlood flood-opacity="0" result="BackgroundImageFix"/>
<feColorMatrix in="SourceAlpha" type="matrix" values="0 0 0 0 0 0 0 0 0 0 0 0 0 0 0 0 0 0 127 0" result="hardAlpha"/>
<feOffset/>
<feGaussianBlur stdDeviation="7.88395"/>
<feComposite in2="hardAlpha" operator="out"/>
<feColorMatrix type="matrix" values="0 0 0 0 0.388235 0 0 0 0 0.376471 0 0 0 0 1 0 0 0 0.75 0"/>
<feBlend mode="normal" in2="BackgroundImageFix" result="effect1_dropShadow_630_6916"/>
<feBlend mode="normal" in="SourceGraphic" in2="effect1_dropShadow_630_6916" result="shape"/>
</filter>
<filter id="filter1_d_630_6916" x="1565.63" y="591.161" width="53.5421" height="53.542" filterUnits="userSpaceOnUse" color-interpolation-filters="sRGB">
<feFlood flood-opacity="0" result="BackgroundImageFix"/>
<feColorMatrix in="SourceAlpha" type="matrix" values="0 0 0 0 0 0 0 0 0 0 0 0 0 0 0 0 0 0 127 0" result="hardAlpha"/>
<feOffset/>
<feGaussianBlur stdDeviation="7.88395"/>
<feComposite in2="hardAlpha" operator="out"/>
<feColorMatrix type="matrix" values="0 0 0 0 0.388235 0 0 0 0 0.376471 0 0 0 0 1 0 0 0 0.75 0"/>
<feBlend mode="normal" in2="BackgroundImageFix" result="effect1_dropShadow_630_6916"/>
<feBlend mode="normal" in="SourceGraphic" in2="effect1_dropShadow_630_6916" result="shape"/>
</filter>
<filter id="filter2_d_630_6916" x="1391.17" y="565.361" width="53.542" height="53.542" filterUnits="userSpaceOnUse" color-interpolation-filters="sRGB">
<feFlood flood-opacity="0" result="BackgroundImageFix"/>
<feColorMatrix in="SourceAlpha" type="matrix" values="0 0 0 0 0 0 0 0 0 0 0 0 0 0 0 0 0 0 127 0" result="hardAlpha"/>
<feOffset/>
<feGaussianBlur stdDeviation="7.88395"/>
<feComposite in2="hardAlpha" operator="out"/>
<feColorMatrix type="matrix" values="0 0 0 0 0.388235 0 0 0 0 0.376471 0 0 0 0 1 0 0 0 0.75 0"/>
<feBlend mode="normal" in2="BackgroundImageFix" result="effect1_dropShadow_630_6916"/>
<feBlend mode="normal" in="SourceGraphic" in2="effect1_dropShadow_630_6916" result="shape"/>
</filter>
<filter id="filter3_d_630_6916" x="1431.2" y="465.147" width="53.542" height="53.542" filterUnits="userSpaceOnUse" color-interpolation-filters="sRGB">
<feFlood flood-opacity="0" result="BackgroundImageFix"/>
<feColorMatrix in="SourceAlpha" type="matrix" values="0 0 0 0 0 0 0 0 0 0 0 0 0 0 0 0 0 0 127 0" result="hardAlpha"/>
<feOffset/>
<feGaussianBlur stdDeviation="7.88395"/>
<feComposite in2="hardAlpha" operator="out"/>
<feColorMatrix type="matrix" values="0 0 0 0 0.388235 0 0 0 0 0.376471 0 0 0 0 1 0 0 0 0.75 0"/>
<feBlend mode="normal" in2="BackgroundImageFix" result="effect1_dropShadow_630_6916"/>
<feBlend mode="normal" in="SourceGraphic" in2="effect1_dropShadow_630_6916" result="shape"/>
</filter>
<filter id="filter4_d_630_6916" x="1290.47" y="342.875" width="32.7201" height="32.7201" filterUnits="userSpaceOnUse" color-interpolation-filters="sRGB">
<feFlood flood-opacity="0" result="BackgroundImageFix"/>
<feColorMatrix in="SourceAlpha" type="matrix" values="0 0 0 0 0 0 0 0 0 0 0 0 0 0 0 0 0 0 127 0" result="hardAlpha"/>
<feOffset/>
<feGaussianBlur stdDeviation="4.81797"/>
<feComposite in2="hardAlpha" operator="out"/>
<feColorMatrix type="matrix" values="0 0 0 0 0.388235 0 0 0 0 0.376471 0 0 0 0 1 0 0 0 0.75 0"/>
<feBlend mode="normal" in2="BackgroundImageFix" result="effect1_dropShadow_630_6916"/>
<feBlend mode="normal" in="SourceGraphic" in2="effect1_dropShadow_630_6916" result="shape"/>
</filter>
<filter id="filter5_d_630_6916" x="1373.51" y="827.112" width="49.3817" height="49.3816" filterUnits="userSpaceOnUse" color-interpolation-filters="sRGB">
<feFlood flood-opacity="0" result="BackgroundImageFix"/>
<feColorMatrix in="SourceAlpha" type="matrix" values="0 0 0 0 0 0 0 0 0 0 0 0 0 0 0 0 0 0 127 0" result="hardAlpha"/>
<feOffset/>
<feGaussianBlur stdDeviation="8.0673"/>
<feComposite in2="hardAlpha" operator="out"/>
<feColorMatrix type="matrix" values="0 0 0 0 0.388235 0 0 0 0 0.376471 0 0 0 0 1 0 0 0 0.75 0"/>
<feBlend mode="normal" in2="BackgroundImageFix" result="effect1_dropShadow_630_6916"/>
<feBlend mode="normal" in="SourceGraphic" in2="effect1_dropShadow_630_6916" result="shape"/>
</filter>
</defs>
</svg>
