<svg width="1728" height="1073" viewBox="0 0 1728 1073" fill="none" xmlns="http://www.w3.org/2000/svg">
<g clip-path="url(#clip0_1757_13035)">
<rect width="1728" height="1073" fill="#101010"/>
<circle cx="1175.5" cy="974.5" r="9.5" fill="#8280FF" fill-opacity="0.75"/>
<ellipse cx="4.87763" cy="4.38089" rx="4.87763" ry="4.38089" transform="matrix(0.984431 0.175772 -0.208663 0.977988 134.084 264.094)" fill="#8280FF" fill-opacity="0.75"/>
<ellipse cx="6.46773" cy="7.17319" rx="6.46773" ry="7.17319" transform="matrix(0.980898 0.19452 -0.189896 0.981804 263.127 534.183)" fill="#8280FF" fill-opacity="0.75"/>
<ellipse cx="7.71993" cy="8.47717" rx="7.71993" ry="8.47717" transform="matrix(0.963655 0.267151 -0.249717 0.968319 317.553 658.395)" fill="#8280FF" fill-opacity="0.75"/>
<ellipse cx="7.71703" cy="8.47996" rx="7.71703" ry="8.47996" transform="matrix(0.984215 0.176977 -0.161883 0.98681 162.192 776.651)" fill="#8280FF" fill-opacity="0.75"/>
<ellipse cx="5.99885" cy="6.5984" rx="5.99885" ry="6.5984" transform="matrix(0.983473 0.181052 -0.178288 0.983978 421.737 773.421)" fill="#8280FF" fill-opacity="0.75"/>
<ellipse cx="156.145" cy="696.475" rx="5.99806" ry="6.59923" transform="rotate(5.1274 156.145 696.475)" fill="#8280FF" fill-opacity="0.75"/>
<line y1="-0.5" x2="277.484" y2="-0.5" transform="matrix(0.426793 0.904349 -0.9378 0.347175 143.193 279.805)" stroke="#6360FF"/>
<line y1="-0.5" x2="166.506" y2="-0.5" transform="matrix(0.580032 -0.814594 0.755654 0.654972 163.815 687.689)" stroke="#6360FF"/>
<line y1="-0.5" x2="265.261" y2="-0.5" transform="matrix(0.953009 0.302943 -0.279622 0.96011 165.17 699.351)" stroke="#6360FF"/>
<line y1="-0.5" x2="129.251" y2="-0.5" transform="matrix(0.68783 0.725872 -0.662004 0.7495 330.073 679.212)" stroke="#6360FF"/>
<line y1="-0.5" x2="66.6469" y2="-0.5" transform="matrix(0.114585 0.993414 -0.987814 0.155642 157.249 707.634)" stroke="#6360FF"/>
<g filter="url(#filter0_d_1757_13035)">
<circle cx="1450.24" cy="272.392" r="7.33391" transform="rotate(11.9883 1450.24 272.392)" fill="#5C58FF"/>
</g>
<g filter="url(#filter1_d_1757_13035)">
<circle cx="1632.4" cy="720.931" r="11.0009" transform="rotate(11.9883 1632.4 720.931)" fill="#5C58FF"/>
</g>
<g filter="url(#filter2_d_1757_13035)">
<circle cx="1457.94" cy="695.132" r="11.0009" transform="rotate(11.9883 1457.94 695.132)" fill="#5C58FF"/>
</g>
<g filter="url(#filter3_d_1757_13035)">
<circle cx="1497.97" cy="594.918" r="11.0009" transform="rotate(11.9883 1497.97 594.918)" fill="#5C58FF"/>
</g>
<g filter="url(#filter4_d_1757_13035)">
<circle cx="1346.83" cy="462.235" r="6.72275" transform="rotate(11.9883 1346.83 462.235)" fill="#5C58FF"/>
</g>
<g filter="url(#filter5_d_1757_13035)">
<circle cx="1438.2" cy="954.803" r="8.55623" transform="rotate(-0.237733 1438.2 954.803)" fill="#5C58FF" fill-opacity="0.75" shape-rendering="crispEdges"/>
</g>
<line x1="1455.7" y1="284.45" x2="1624.5" y2="707.659" stroke="#6360FF" stroke-width="1.22232"/>
<line x1="1351.55" y1="474.731" x2="1448.19" y2="681.869" stroke="#6360FF" stroke-width="1.22232"/>
<line x1="1623.87" y1="734.407" x2="1447.19" y2="946.757" stroke="#6360FF" stroke-width="1.22232"/>
<line x1="1472.39" y1="697.491" x2="1617.74" y2="717.195" stroke="#6360FF" stroke-width="1.22232"/>
<line x1="1466.46" y1="681.544" x2="1492.28" y2="611.598" stroke="#6360FF" stroke-width="1.22232"/>
<circle cx="1223" cy="699" r="6" fill="#8280FF" fill-opacity="0.25"/>
<circle cx="372" cy="957" r="6" fill="#8280FF" fill-opacity="0.25"/>
<circle cx="1614.5" cy="273.5" r="9.5" fill="#8280FF" fill-opacity="0.25"/>
<circle cx="281.5" cy="214.5" r="9.5" fill="#8280FF" fill-opacity="0.25"/>
<circle cx="1629.5" cy="972.5" r="9.5" fill="#8280FF" fill-opacity="0.25"/>
<circle cx="140.5" cy="495.5" r="9.5" fill="#8280FF" fill-opacity="0.25"/>
</g>
<defs>
<filter id="filter0_d_1757_13035" x="1427.14" y="249.288" width="46.2067" height="46.2067" filterUnits="userSpaceOnUse" color-interpolation-filters="sRGB">
<feFlood flood-opacity="0" result="BackgroundImageFix"/>
<feColorMatrix in="SourceAlpha" type="matrix" values="0 0 0 0 0 0 0 0 0 0 0 0 0 0 0 0 0 0 127 0" result="hardAlpha"/>
<feOffset/>
<feGaussianBlur stdDeviation="7.88395"/>
<feComposite in2="hardAlpha" operator="out"/>
<feColorMatrix type="matrix" values="0 0 0 0 0.388235 0 0 0 0 0.376471 0 0 0 0 1 0 0 0 0.75 0"/>
<feBlend mode="normal" in2="BackgroundImageFix" result="effect1_dropShadow_1757_13035"/>
<feBlend mode="normal" in="SourceGraphic" in2="effect1_dropShadow_1757_13035" result="shape"/>
</filter>
<filter id="filter1_d_1757_13035" x="1605.63" y="694.16" width="53.5419" height="53.5422" filterUnits="userSpaceOnUse" color-interpolation-filters="sRGB">
<feFlood flood-opacity="0" result="BackgroundImageFix"/>
<feColorMatrix in="SourceAlpha" type="matrix" values="0 0 0 0 0 0 0 0 0 0 0 0 0 0 0 0 0 0 127 0" result="hardAlpha"/>
<feOffset/>
<feGaussianBlur stdDeviation="7.88395"/>
<feComposite in2="hardAlpha" operator="out"/>
<feColorMatrix type="matrix" values="0 0 0 0 0.388235 0 0 0 0 0.376471 0 0 0 0 1 0 0 0 0.75 0"/>
<feBlend mode="normal" in2="BackgroundImageFix" result="effect1_dropShadow_1757_13035"/>
<feBlend mode="normal" in="SourceGraphic" in2="effect1_dropShadow_1757_13035" result="shape"/>
</filter>
<filter id="filter2_d_1757_13035" x="1431.17" y="668.361" width="53.5419" height="53.5422" filterUnits="userSpaceOnUse" color-interpolation-filters="sRGB">
<feFlood flood-opacity="0" result="BackgroundImageFix"/>
<feColorMatrix in="SourceAlpha" type="matrix" values="0 0 0 0 0 0 0 0 0 0 0 0 0 0 0 0 0 0 127 0" result="hardAlpha"/>
<feOffset/>
<feGaussianBlur stdDeviation="7.88395"/>
<feComposite in2="hardAlpha" operator="out"/>
<feColorMatrix type="matrix" values="0 0 0 0 0.388235 0 0 0 0 0.376471 0 0 0 0 1 0 0 0 0.75 0"/>
<feBlend mode="normal" in2="BackgroundImageFix" result="effect1_dropShadow_1757_13035"/>
<feBlend mode="normal" in="SourceGraphic" in2="effect1_dropShadow_1757_13035" result="shape"/>
</filter>
<filter id="filter3_d_1757_13035" x="1471.2" y="568.147" width="53.5419" height="53.5422" filterUnits="userSpaceOnUse" color-interpolation-filters="sRGB">
<feFlood flood-opacity="0" result="BackgroundImageFix"/>
<feColorMatrix in="SourceAlpha" type="matrix" values="0 0 0 0 0 0 0 0 0 0 0 0 0 0 0 0 0 0 127 0" result="hardAlpha"/>
<feOffset/>
<feGaussianBlur stdDeviation="7.88395"/>
<feComposite in2="hardAlpha" operator="out"/>
<feColorMatrix type="matrix" values="0 0 0 0 0.388235 0 0 0 0 0.376471 0 0 0 0 1 0 0 0 0.75 0"/>
<feBlend mode="normal" in2="BackgroundImageFix" result="effect1_dropShadow_1757_13035"/>
<feBlend mode="normal" in="SourceGraphic" in2="effect1_dropShadow_1757_13035" result="shape"/>
</filter>
<filter id="filter4_d_1757_13035" x="1330.47" y="445.875" width="32.7201" height="32.7201" filterUnits="userSpaceOnUse" color-interpolation-filters="sRGB">
<feFlood flood-opacity="0" result="BackgroundImageFix"/>
<feColorMatrix in="SourceAlpha" type="matrix" values="0 0 0 0 0 0 0 0 0 0 0 0 0 0 0 0 0 0 127 0" result="hardAlpha"/>
<feOffset/>
<feGaussianBlur stdDeviation="4.81797"/>
<feComposite in2="hardAlpha" operator="out"/>
<feColorMatrix type="matrix" values="0 0 0 0 0.388235 0 0 0 0 0.376471 0 0 0 0 1 0 0 0 0.75 0"/>
<feBlend mode="normal" in2="BackgroundImageFix" result="effect1_dropShadow_1757_13035"/>
<feBlend mode="normal" in="SourceGraphic" in2="effect1_dropShadow_1757_13035" result="shape"/>
</filter>
<filter id="filter5_d_1757_13035" x="1413.51" y="930.112" width="49.3817" height="49.3815" filterUnits="userSpaceOnUse" color-interpolation-filters="sRGB">
<feFlood flood-opacity="0" result="BackgroundImageFix"/>
<feColorMatrix in="SourceAlpha" type="matrix" values="0 0 0 0 0 0 0 0 0 0 0 0 0 0 0 0 0 0 127 0" result="hardAlpha"/>
<feOffset/>
<feGaussianBlur stdDeviation="8.0673"/>
<feComposite in2="hardAlpha" operator="out"/>
<feColorMatrix type="matrix" values="0 0 0 0 0.388235 0 0 0 0 0.376471 0 0 0 0 1 0 0 0 0.75 0"/>
<feBlend mode="normal" in2="BackgroundImageFix" result="effect1_dropShadow_1757_13035"/>
<feBlend mode="normal" in="SourceGraphic" in2="effect1_dropShadow_1757_13035" result="shape"/>
</filter>
<clipPath id="clip0_1757_13035">
<rect width="1728" height="1073" fill="white"/>
</clipPath>
</defs>
</svg>
