<svg xmlns="http://www.w3.org/2000/svg" xmlns:xlink="http://www.w3.org/1999/xlink" width="1080" zoomAndPan="magnify" viewBox="0 0 810 809.999993" height="1080" preserveAspectRatio="xMidYMid meet" version="1.0"><defs><clipPath id="2ed586b624"><path d="M 134.753906 540 L 406 540 L 406 810 L 134.753906 810 Z M 134.753906 540 " clip-rule="nonzero"/></clipPath><clipPath id="56e1131873"><path d="M 134.753906 270 L 406 270 L 406 540 L 134.753906 540 Z M 134.753906 270 " clip-rule="nonzero"/></clipPath><clipPath id="d71ccf52c1"><path d="M 134.753906 0 L 406 0 L 406 270 L 134.753906 270 Z M 134.753906 0 " clip-rule="nonzero"/></clipPath><clipPath id="9389862208"><path d="M 405 0 L 675.503906 0 L 675.503906 270 L 405 270 Z M 405 0 " clip-rule="nonzero"/></clipPath><clipPath id="b8a3385203"><path d="M 405 270 L 675.503906 270 L 675.503906 540 L 405 540 Z M 405 270 " clip-rule="nonzero"/></clipPath></defs><g clip-path="url(#2ed586b624)"><path fill="#0acf83" d="M 270.0625 810 C 344.621094 810 405.128906 749.519531 405.128906 675 L 405.128906 540 L 270.0625 540 C 195.503906 540 134.996094 600.480469 134.996094 675 C 134.996094 749.519531 195.503906 810 270.0625 810 Z M 270.0625 810 " fill-opacity="1" fill-rule="nonzero"/></g><g clip-path="url(#56e1131873)"><path fill="#a259ff" d="M 134.996094 405 C 134.996094 330.480469 195.503906 270 270.0625 270 L 405.128906 270 L 405.128906 540 L 270.0625 540 C 195.503906 540 134.996094 479.519531 134.996094 405 Z M 134.996094 405 " fill-opacity="1" fill-rule="nonzero"/></g><g clip-path="url(#d71ccf52c1)"><path fill="#f24e1e" d="M 134.996094 135 C 134.996094 60.480469 195.503906 0 270.0625 0 L 405.128906 0 L 405.128906 270 L 270.0625 270 C 195.503906 270 134.996094 209.519531 134.996094 135 Z M 134.996094 135 " fill-opacity="1" fill-rule="nonzero"/></g><g clip-path="url(#9389862208)"><path fill="#ff7262" d="M 405.128906 0 L 540.195312 0 C 614.753906 0 675.265625 60.480469 675.265625 135 C 675.265625 209.519531 614.753906 270 540.195312 270 L 405.128906 270 Z M 405.128906 0 " fill-opacity="1" fill-rule="nonzero"/></g><g clip-path="url(#b8a3385203)"><path fill="#1abcfe" d="M 675.265625 405 C 675.265625 479.519531 614.753906 540 540.195312 540 C 465.640625 540 405.128906 479.519531 405.128906 405 C 405.128906 330.480469 465.640625 270 540.195312 270 C 614.753906 270 675.265625 330.480469 675.265625 405 Z M 675.265625 405 " fill-opacity="1" fill-rule="nonzero"/></g></svg>