<svg xmlns="http://www.w3.org/2000/svg" xmlns:xlink="http://www.w3.org/1999/xlink" width="700" zoomAndPan="magnify" viewBox="0 0 525 525.000007" height="700" preserveAspectRatio="xMidYMid meet" version="1.0"><defs><g/><clipPath id="2ec4dda4f6"><path d="M 48 150 L 470 150 L 470 431 L 48 431 Z M 48 150 " clip-rule="nonzero"/></clipPath><clipPath id="67f97a013f"><path d="M 25.574219 195.867188 L 463.296875 142.9375 L 492.410156 383.722656 L 54.6875 436.652344 Z M 25.574219 195.867188 " clip-rule="nonzero"/></clipPath><clipPath id="25e0332a96"><path d="M 25.574219 195.867188 L 463.296875 142.9375 L 492.410156 383.722656 L 54.6875 436.652344 Z M 25.574219 195.867188 " clip-rule="nonzero"/></clipPath></defs><g fill="#cfa09a" fill-opacity="1"><g transform="translate(-5.244195, 301.324301)"><g><path d="M 167.1875 5.296875 C 107.414062 5.296875 65.347656 -7.113281 40.984375 -31.9375 C 20.492188 -52.769531 10.25 -82.878906 10.25 -122.265625 L 113.046875 -122.265625 C 113.046875 -105.191406 115.953125 -91.703125 121.765625 -81.796875 C 130.066406 -67.566406 145.207031 -60.453125 167.1875 -60.453125 C 189.382812 -60.453125 204.582031 -67.566406 212.78125 -81.796875 C 218.582031 -92.046875 221.484375 -105.535156 221.484375 -122.265625 L 221.484375 -244.875 L 324.296875 -244.875 L 324.296875 -120.90625 C 324.296875 -82.425781 314.101562 -52.769531 293.71875 -31.9375 C 269.238281 -7.113281 227.0625 5.296875 167.1875 5.296875 Z M 167.1875 5.296875 "/></g></g></g><g fill="#cfa09a" fill-opacity="1"><g transform="translate(85.411421, 459.173277)"><g><path d="M 339.25 -0.984375 L 435.453125 -200.703125 L 351.90625 -200.703125 L 300.5625 -71.03125 L 245.71875 -200.703125 L 193.390625 -200.703125 L 138.53125 -71.03125 L 87.203125 -200.703125 L 3.65625 -200.703125 L 99.859375 -0.984375 L 169.0625 -0.984375 L 219.546875 -133.890625 L 269.90625 -0.984375 Z M 340.515625 0.984375 L 268.640625 0.984375 L 219.546875 -128.265625 L 170.46875 0.984375 L 98.59375 0.984375 L 0.5625 -202.671875 L 88.609375 -202.671875 L 138.53125 -76.234375 L 192.125 -202.671875 L 246.984375 -202.671875 L 300.5625 -76.234375 L 350.5 -202.671875 L 438.546875 -202.671875 Z M 340.515625 0.984375 "/></g></g></g><g clip-path="url(#2ec4dda4f6)"><g clip-path="url(#67f97a013f)"><g clip-path="url(#25e0332a96)"><path fill="#cfa09a" d="M 467.480469 202.359375 C 463.28125 192.347656 453.660156 184.988281 438.882812 180.484375 C 431.257812 178.160156 422.425781 176.644531 412.476562 175.945312 C 415.472656 174.09375 420.132812 172.851562 427.796875 171.199219 L 427.796875 171.191406 C 420.1875 171.410156 415.421875 171.324219 412.078125 170.332031 C 410.667969 169.914062 409.511719 169.328125 408.507812 168.539062 C 405.113281 165.875 403.613281 161.019531 401.332031 150.433594 L 401.320312 150.433594 C 401.53125 157.808594 401.457031 162.515625 400.554688 165.839844 C 400.539062 165.890625 400.527344 165.945312 400.511719 165.992188 C 400.496094 166.046875 400.480469 166.101562 400.464844 166.15625 C 400.453125 166.191406 400.441406 166.226562 400.433594 166.265625 C 400.410156 166.339844 400.386719 166.414062 400.363281 166.484375 C 400.339844 166.558594 400.316406 166.628906 400.289062 166.699219 C 399.886719 167.867188 399.355469 168.855469 398.671875 169.730469 C 396.410156 172.609375 392.578125 174.125 385.011719 175.910156 C 384.804688 175.925781 384.597656 175.933594 384.390625 175.945312 C 362.441406 177.253906 337.957031 181.320312 311.613281 188.035156 C 284.347656 194.988281 256.269531 204.488281 228.167969 216.273438 C 200.0625 228.054688 173.609375 241.421875 149.539062 255.996094 C 126.285156 270.078125 106.21875 284.691406 89.90625 299.433594 C 73.570312 314.191406 61.804688 328.339844 54.945312 341.484375 C 47.796875 355.183594 46.300781 367.203125 50.496094 377.214844 C 54.691406 387.226562 64.3125 394.585938 79.089844 399.089844 C 85.332031 400.992188 92.375 402.351562 100.179688 403.167969 C 97.335938 405.808594 92.457031 407.214844 83.109375 409.230469 L 83.109375 409.238281 C 93.933594 408.929688 99.003906 409.230469 102.398438 411.894531 C 103.277344 412.582031 104.023438 413.414062 104.691406 414.453125 C 104.734375 414.515625 104.773438 414.582031 104.8125 414.644531 C 104.855469 414.707031 104.894531 414.773438 104.933594 414.839844 C 104.953125 414.871094 104.972656 414.90625 104.992188 414.941406 C 105.019531 414.992188 105.050781 415.039062 105.078125 415.089844 C 105.105469 415.136719 105.128906 415.179688 105.152344 415.226562 C 106.828125 418.242188 108.019531 422.792969 109.570312 430.003906 L 109.578125 430.003906 C 109.359375 422.222656 109.453125 417.414062 110.507812 414.0625 C 110.921875 412.75 111.484375 411.664062 112.234375 410.710938 C 114.757812 407.492188 119.253906 405.972656 128.738281 403.882812 C 130.332031 403.816406 131.945312 403.738281 133.582031 403.640625 C 155.53125 402.335938 180.015625 398.265625 206.359375 391.550781 C 233.625 384.597656 261.703125 375.097656 289.804688 363.316406 C 317.910156 351.53125 344.363281 338.164062 368.433594 323.589844 C 391.6875 309.507812 411.753906 294.894531 428.066406 280.152344 C 444.402344 265.394531 456.167969 251.246094 463.027344 238.101562 C 470.175781 224.402344 471.671875 212.382812 467.476562 202.371094 Z M 462.09375 237.597656 C 455.292969 250.632812 443.605469 264.683594 427.359375 279.355469 C 393.898438 309.585938 344.902344 339.050781 289.394531 362.324219 C 233.886719 385.601562 178.527344 399.890625 133.515625 402.566406 C 127.410156 402.929688 121.589844 403.074219 116.0625 403 C 115.550781 402.898438 115.070312 402.78125 114.613281 402.644531 C 113.203125 402.226562 112.046875 401.640625 111.042969 400.851562 C 107.648438 398.191406 106.148438 393.332031 103.867188 382.746094 L 103.855469 382.75 C 104.066406 390.121094 103.992188 394.828125 103.089844 398.152344 C 103.074219 398.207031 103.0625 398.257812 103.046875 398.304688 C 103.03125 398.359375 103.015625 398.414062 103 398.46875 C 102.988281 398.507812 102.976562 398.542969 102.96875 398.582031 C 102.945312 398.652344 102.921875 398.726562 102.898438 398.796875 C 102.875 398.871094 102.851562 398.941406 102.824219 399.015625 C 102.421875 400.183594 101.890625 401.167969 101.207031 402.042969 C 101.167969 402.097656 101.128906 402.144531 101.085938 402.191406 C 93.03125 401.390625 85.785156 400.019531 79.394531 398.074219 C 64.933594 393.664062 55.535156 386.507812 51.464844 376.800781 C 47.394531 367.09375 48.882812 355.375 55.878906 341.96875 C 62.679688 328.9375 74.367188 314.886719 90.613281 300.210938 C 124.074219 269.980469 173.070312 240.515625 228.578125 217.242188 C 284.085938 193.972656 339.445312 179.675781 384.457031 177 C 385.550781 176.933594 386.636719 176.878906 387.707031 176.828125 C 393.839844 176.910156 397.320312 177.578125 399.859375 179.574219 C 400.734375 180.261719 401.484375 181.09375 402.15625 182.132812 C 402.199219 182.195312 402.234375 182.257812 402.277344 182.324219 C 402.320312 182.386719 402.359375 182.453125 402.398438 182.519531 C 402.417969 182.550781 402.4375 182.585938 402.457031 182.621094 C 402.484375 182.667969 402.511719 182.71875 402.542969 182.765625 C 402.566406 182.8125 402.59375 182.855469 402.617188 182.902344 C 404.292969 185.917969 405.484375 190.46875 407.035156 197.683594 L 407.042969 197.679688 C 406.820312 189.898438 406.914062 185.089844 407.972656 181.738281 C 408.386719 180.425781 408.945312 179.339844 409.699219 178.386719 C 410.113281 177.855469 410.585938 177.371094 411.128906 176.917969 C 421.519531 177.570312 430.699219 179.101562 438.578125 181.503906 C 453.039062 185.910156 462.4375 193.066406 466.507812 202.773438 C 470.578125 212.480469 469.09375 224.203125 462.097656 237.609375 Z M 462.09375 237.597656 " fill-opacity="1" fill-rule="nonzero"/></g></g></g></svg>