<svg width="492" height="78" viewBox="0 0 492 78" fill="none" xmlns="http://www.w3.org/2000/svg">
<path d="M20.1873 11.5749L20.9686 7.57104H47.8237L47.0425 11.5749L38.1559 12.6491L32.3942 47.3167C31.8083 50.9625 31.1898 54.0549 30.5388 56.5939C29.8877 59.133 29.1065 61.3465 28.195 63.2345C26.893 66.3594 25.1677 68.9636 23.0193 71.0469C20.8709 73.1302 18.5923 74.6927 16.1834 75.7343C13.7746 76.776 11.4634 77.2968 9.24993 77.2968C7.03641 77.2968 5.05076 76.8737 3.29297 76.0273C1.60028 75.2461 0.591172 74.0091 0.265655 72.3164C0.656276 70.819 1.47007 69.7123 2.70703 68.9961C3.944 68.2149 5.34372 67.8243 6.90621 67.8243C7.94786 67.8243 9.02207 68.1498 10.1288 68.8008C11.3007 69.3868 12.9283 70.461 15.0116 72.0234C18.6574 69.2891 21.0988 65.0574 22.3357 59.3283C22.6612 57.7658 22.9542 56.1057 23.2146 54.3479C23.475 52.5901 23.8006 50.4091 24.1912 47.805C24.5818 45.2008 25.1026 41.8806 25.7537 37.8441C26.4047 33.6775 27.0557 29.5109 27.7068 25.3443C28.3578 21.1126 28.9763 16.8808 29.5622 12.6491L20.1873 11.5749ZM51.5369 58.7423C51.5369 61.7371 52.0577 63.9506 53.0994 65.3829C54.2061 66.8152 55.6384 67.5313 57.3962 67.5313C59.0889 67.5313 61.042 66.8477 63.2555 65.4806C65.469 64.1134 68.1708 61.672 71.3609 58.1564L76.6343 33.7426C75.7228 33.2218 74.7463 32.7986 73.7046 32.4731C72.7281 32.0825 71.719 31.8872 70.6773 31.8872C69.1148 31.8872 67.357 32.3754 65.4039 33.352C63.5159 34.3286 61.693 35.7283 59.9353 37.5512C57.5915 39.96 55.6059 43.0199 53.9783 46.7308C52.3507 50.4417 51.5369 54.4455 51.5369 58.7423ZM74.9741 74.2695C73.6721 74.2695 72.5002 73.8138 71.4586 72.9023C70.4169 71.9909 69.8961 70.5586 69.8961 68.6055C69.8961 66.7175 70.0263 64.9923 70.2867 63.4298C67.4873 66.6199 64.5901 69.224 61.5954 71.2422C58.6657 73.2604 55.8663 74.2695 53.197 74.2695C50.8533 74.2695 48.7049 73.3581 46.7518 71.5352C44.8638 69.7123 43.9198 66.7826 43.9198 62.7462C43.9198 59.3608 44.5383 55.9103 45.7753 52.3948C47.0773 48.8792 48.77 45.5263 50.8533 42.3363C53.0017 39.0811 55.378 36.184 57.9821 33.645C60.6514 31.1059 63.3532 29.1203 66.0875 27.688C68.887 26.1906 71.5562 25.4419 74.0953 25.4419C75.202 25.4419 76.2111 25.6698 77.1226 26.1255C78.034 26.5812 78.8804 27.2323 79.6616 28.0786L84.1537 24.4654L85.9115 25.3443L78.0991 59.8166C77.5132 62.2254 77.2202 64.0808 77.2202 65.3829C77.2202 66.0339 77.4481 66.5548 77.9038 66.9454C78.3595 67.336 78.9129 67.5313 79.5639 67.5313C80.8009 67.5313 82.2657 66.8803 83.9584 65.5782C85.7162 64.2761 87.4415 62.5834 89.1341 60.5001L91.4779 62.3556C90.2409 64.2436 88.7435 66.099 86.9857 67.9219C85.2279 69.7448 83.3399 71.2748 81.3217 72.5117C79.3035 73.6836 77.1877 74.2695 74.9741 74.2695ZM122.198 60.4025C122.198 64.4389 120.668 67.7592 117.608 70.3633C114.614 72.9674 110.642 74.2695 105.694 74.2695C101.918 74.2695 99.0212 73.3906 97.003 71.6328C95.0499 69.875 93.9106 67.5313 93.5851 64.6017C93.8455 63.7553 94.3012 63.1043 94.9523 62.6486C95.6684 62.1277 96.4171 61.8673 97.1983 61.8673C98.6306 61.8673 99.6723 62.2579 100.323 63.0392C101.039 63.7553 101.56 64.797 101.886 66.1641L102.96 70.3633C103.155 70.4284 103.351 70.461 103.546 70.461C103.806 70.461 104.067 70.461 104.327 70.461C107.713 70.461 110.349 69.7123 112.237 68.2149C114.125 66.7175 115.069 64.6993 115.069 62.1603C115.069 60.5978 114.711 59.1004 113.995 57.6681C113.279 56.2359 111.521 54.5106 108.722 52.4924C106.313 50.6044 104.262 48.6839 102.569 46.7308C100.942 44.7126 100.128 42.1735 100.128 39.1137C100.128 36.5746 100.779 34.2634 102.081 32.1801C103.383 30.0968 105.174 28.4692 107.452 27.2974C109.796 26.0604 112.53 25.4419 115.655 25.4419C118.52 25.4419 120.994 26.093 123.077 27.395C125.16 28.632 126.56 30.8455 127.276 34.0356C126.69 35.8585 125.453 36.7699 123.565 36.7699C121.287 36.7699 119.626 35.24 118.585 32.1801L117.706 29.3481C117.511 29.283 117.283 29.2505 117.022 29.2505C116.827 29.2505 116.599 29.2505 116.339 29.2505C112.953 29.2505 110.545 30.0317 109.112 31.5942C107.745 33.1567 107.062 35.0447 107.062 37.2582C107.062 39.2764 107.55 40.9691 108.526 42.3363C109.568 43.6383 111.489 45.331 114.288 47.4143C117.218 49.6279 119.268 51.6461 120.44 53.469C121.612 55.2268 122.198 57.5379 122.198 60.4025ZM188.931 74.2695C187.368 74.2695 186.131 73.8789 185.22 73.0977C184.374 72.3164 183.95 71.3073 183.95 70.0703C183.95 68.9636 184.081 67.8894 184.341 66.8477C184.667 65.741 185.057 64.1785 185.513 62.1603L189.712 44.973C190.103 43.2803 190.461 41.6852 190.786 40.1879C191.112 38.6905 191.275 37.4535 191.275 36.477C191.275 34.7843 190.982 33.6124 190.396 32.9614C189.81 32.3103 188.963 31.9848 187.857 31.9848C184.667 31.9848 179.621 34.8494 172.72 40.5785L170.181 52.4924C169.4 55.8778 168.684 59.2957 168.033 62.7462C167.382 66.1316 166.731 69.5495 166.08 73L159.732 73.7812L158.755 73L165.494 41.1644C165.624 40.3181 165.787 39.4717 165.982 38.6254C166.177 37.779 166.275 36.9652 166.275 36.184C166.275 34.6215 165.982 33.5473 165.396 32.9614C164.81 32.3103 163.964 31.9848 162.857 31.9848C161.099 31.9848 158.853 32.701 156.119 34.1332C153.449 35.5655 150.325 37.7465 146.744 40.6761L144.107 52.4924C143.391 55.8778 142.707 59.2957 142.056 62.7462C141.47 66.1316 140.852 69.5495 140.201 73L133.658 73.7812L132.681 73L140.982 33.8403L131.314 33.2543L131.705 30.4223L148.306 25.4419L149.576 26.4185L147.525 36.477C150.715 33.4171 154.166 30.813 157.877 28.6646C161.587 26.5161 164.94 25.4419 167.935 25.4419C172.037 25.4419 174.087 27.688 174.087 32.1801C174.087 32.8312 174.022 33.5148 173.892 34.2309C173.827 34.8819 173.729 35.5655 173.599 36.2817C176.659 33.2869 179.914 30.7479 183.365 28.6646C186.88 26.5161 190.103 25.4419 193.032 25.4419C197.134 25.4419 199.185 27.688 199.185 32.1801C199.185 33.7426 198.989 35.3377 198.599 36.9652C198.273 38.5277 197.915 40.1228 197.525 41.7503L193.13 59.8166C192.805 61.1837 192.512 62.3556 192.251 63.3321C191.991 64.2436 191.861 64.9597 191.861 65.4806C191.861 66.1316 192.056 66.6524 192.446 67.043C192.837 67.3686 193.293 67.5313 193.814 67.5313C196.288 67.5313 199.478 65.1876 203.384 60.5001L205.728 62.3556C204.36 64.3087 202.798 66.1967 201.04 68.0196C199.347 69.8425 197.492 71.3399 195.474 72.5117C193.456 73.6836 191.275 74.2695 188.931 74.2695ZM213.966 69.2891C213.966 68.573 214.031 67.7266 214.161 66.7501C214.291 65.7084 214.584 64.1785 215.04 62.1603L220.899 33.8403L211.231 33.2543L211.622 30.4223L228.223 25.4419L229.493 26.4185L222.559 59.8166C222.299 61.0535 222.071 62.1603 221.876 63.1368C221.746 64.1134 221.68 64.8621 221.68 65.3829C221.68 66.0339 221.908 66.5548 222.364 66.9454C222.82 67.336 223.308 67.5313 223.829 67.5313C226.173 67.5313 229.298 65.1876 233.204 60.5001L235.645 62.3556C234.213 64.3087 232.65 66.1967 230.958 68.0196C229.33 69.8425 227.54 71.3399 225.587 72.5117C223.699 73.6836 221.583 74.2695 219.239 74.2695C217.937 74.2695 216.733 73.8463 215.626 73C214.519 72.1537 213.966 70.9167 213.966 69.2891ZM228.321 12.1608C226.759 12.1608 225.489 11.6726 224.512 10.696C223.536 9.65435 223.048 8.22207 223.048 6.39917C223.048 4.77159 223.634 3.37186 224.805 2.2C225.977 0.963037 227.312 0.344554 228.809 0.344554C230.372 0.344554 231.641 0.865381 232.618 1.90703C233.594 2.88359 234.083 4.25076 234.083 6.00855C234.083 7.57103 233.497 9.00331 232.325 10.3054C231.153 11.5423 229.818 12.1608 228.321 12.1608ZM249.872 73L243.329 73.7812L242.353 73L250.654 33.8403L240.986 33.2543L241.376 30.4223L257.978 25.4419L259.247 26.4185L257.196 36.477C260.452 33.4171 263.902 30.813 267.548 28.6646C271.259 26.5161 274.612 25.4419 277.606 25.4419C281.773 25.4419 283.856 27.688 283.856 32.1801C283.856 33.7426 283.694 35.3377 283.368 36.9652C283.042 38.5277 282.684 40.1228 282.294 41.7503L277.899 59.8166C277.574 61.1837 277.281 62.3556 277.02 63.3321C276.76 64.2436 276.63 64.9597 276.63 65.4806C276.63 66.8477 277.248 67.5313 278.485 67.5313C279.722 67.5313 281.187 66.9128 282.88 65.6759C284.638 64.4389 286.395 62.7137 288.153 60.5001L290.497 62.3556C289.26 64.2436 287.73 66.1316 285.907 68.0196C284.149 69.8425 282.229 71.3399 280.145 72.5117C278.062 73.6836 275.881 74.2695 273.602 74.2695C272.105 74.2695 270.901 73.8789 269.989 73.0977C269.143 72.3164 268.72 71.3073 268.72 70.0703C268.72 68.9636 268.85 67.8894 269.11 66.8477C269.436 65.741 269.826 64.1785 270.282 62.1603L274.481 44.973C274.872 43.2803 275.23 41.6852 275.556 40.1879C275.881 38.6905 276.044 37.4535 276.044 36.477C276.044 34.7843 275.751 33.6124 275.165 32.9614C274.579 32.3103 273.733 31.9848 272.626 31.9848C270.868 31.9848 268.622 32.701 265.888 34.1332C263.153 35.5655 259.996 37.7465 256.415 40.6761L253.778 52.4924C253.062 55.8778 252.379 59.2957 251.728 62.7462C251.142 66.1316 250.523 69.5495 249.872 73ZM318.57 29.6411C317.073 29.6411 315.413 30.227 313.59 31.3989C311.832 32.5708 310.107 34.1983 308.414 36.2817C306.722 38.365 305.289 40.7738 304.117 43.5081C303.011 46.1774 302.327 49.0419 302.067 52.1018C307.47 50.5393 311.767 48.8141 314.957 46.9261C318.212 44.973 320.523 43.0199 321.891 41.0668C323.323 39.0486 324.039 37.1606 324.039 35.4028C324.039 33.5799 323.518 32.1801 322.477 31.2036C321.5 30.1619 320.198 29.6411 318.57 29.6411ZM309.977 74.2695C305.68 74.2695 302.132 72.8047 299.332 69.875C296.598 66.9454 295.231 62.3556 295.231 56.1057C295.231 52.1994 295.914 48.4234 297.282 44.7777C298.649 41.0668 300.504 37.779 302.848 34.9145C305.192 31.9848 307.893 29.6737 310.953 27.981C314.078 26.2883 317.333 25.4419 320.719 25.4419C323.909 25.4419 326.318 26.2232 327.945 27.7857C329.638 29.3481 330.484 31.5617 330.484 34.4262C330.484 36.5095 329.671 38.8207 328.043 41.3597C326.415 43.8337 323.518 46.3401 319.352 48.8792C315.25 51.4182 309.488 53.7619 302.067 55.9103C302.262 60.077 303.239 63.0717 304.996 64.8946C306.754 66.6524 309.13 67.5313 312.125 67.5313C315.185 67.5313 317.822 66.7501 320.035 65.1876C322.249 63.6251 324.007 62.0301 325.309 60.4025L327.555 62.1603C325.536 65.4806 322.997 68.3451 319.938 70.7539C316.878 73.0977 313.557 74.2695 309.977 74.2695ZM425.855 11.5749L426.733 7.57104H448.511L447.729 11.5749L439.722 12.7468L411.695 73.9766H407.788L401.05 21.8287L375.757 73.9766H371.754L366.285 12.5515L358.668 11.5749L359.449 7.57104H384.937L384.156 11.5749L374.976 12.7468L377.711 60.0119L400.464 12.7468L391.089 11.5749L391.871 7.57104H417.554L416.773 11.5749L407.691 12.6491L412.964 60.5978L434.546 12.8444L425.855 11.5749ZM475.053 74.2695C473.751 74.2695 472.546 73.8463 471.44 73C470.398 72.1537 469.877 70.8841 469.877 69.1914C469.877 68.5404 469.91 67.7917 469.975 66.9454C470.105 66.0339 470.333 64.7644 470.658 63.1368C466.882 66.5873 463.432 69.3217 460.307 71.3399C457.182 73.293 454.122 74.2695 451.127 74.2695C449.304 74.2695 447.709 73.7487 446.342 72.707C445.04 71.6654 444.389 69.8099 444.389 67.1407C444.389 65.3178 444.617 63.2996 445.073 61.0861C445.594 58.8074 446.049 56.7241 446.44 54.8361L450.932 33.7426L441.264 33.2543L441.655 30.3247L458.647 25.4419L459.916 26.4185L453.764 54.0549C453.308 56.0731 452.95 57.8634 452.69 59.4259C452.429 60.9233 452.299 62.2254 452.299 63.3321C452.299 66.1316 453.536 67.5313 456.01 67.5313C458.093 67.5313 460.274 66.8803 462.553 65.5782C464.832 64.211 467.826 62.0626 471.537 59.133L474.174 46.1448C474.825 43.0199 475.443 39.8949 476.029 36.7699C476.68 33.645 477.234 30.52 477.69 27.395L484.037 25.4419L485.307 26.4185L478.373 59.8166C478.113 61.0535 477.885 62.1603 477.69 63.1368C477.559 64.1134 477.494 64.8621 477.494 65.3829C477.494 66.0339 477.722 66.5548 478.178 66.9454C478.634 67.336 479.154 67.5313 479.74 67.5313C481.042 67.5313 482.475 66.9454 484.037 65.7735C485.6 64.6017 487.39 62.8439 489.408 60.5001L491.752 62.3556C490.255 64.3087 488.659 66.1967 486.967 68.0196C485.274 69.8425 483.451 71.3399 481.498 72.5117C479.545 73.6836 477.397 74.2695 475.053 74.2695Z" fill="url(#paint0_linear_1773_9055)"/>
<defs>
<linearGradient id="paint0_linear_1773_9055" x1="232.5" y1="-8" x2="247" y2="104" gradientUnits="userSpaceOnUse">
<stop stop-color="white"/>
<stop offset="1" stop-color="#999999"/>
</linearGradient>
</defs>
</svg>
