<svg width="396" height="55" viewBox="0 0 396 55" fill="none" xmlns="http://www.w3.org/2000/svg">
<path d="M12.634 14.6766H18.8806V32.802C18.8721 34.5002 18.4667 35.985 17.6646 37.2565C16.8624 38.5195 15.753 39.5009 14.3365 40.2006C12.9284 40.9004 11.2985 41.2503 9.44671 41.2503C7.80826 41.2503 6.31914 40.9644 4.97936 40.3926C3.64812 39.8209 2.58568 38.9334 1.79206 37.7301C1.00697 36.5269 0.618687 34.9866 0.627221 33.1092H6.93783C6.96343 33.7833 7.09143 34.3594 7.32184 34.8372C7.56078 35.3066 7.88932 35.6607 8.30747 35.8997C8.72562 36.1386 9.22484 36.2581 9.80512 36.2581C10.411 36.2581 10.923 36.1301 11.3412 35.8741C11.7593 35.6095 12.0751 35.2213 12.2884 34.7092C12.5103 34.1972 12.6255 33.5615 12.634 32.802V14.6766ZM28.5289 40.8918H21.7191L30.5642 14.6766H38.9997L47.8448 40.8918H41.0349L34.8779 21.2816H34.6731L28.5289 40.8918ZM27.6201 30.5747H41.8542V35.3877H27.6201V30.5747ZM64.0277 22.536C63.9424 21.5973 63.5626 20.8677 62.8885 20.3472C62.2228 19.8181 61.2713 19.5535 60.034 19.5535C59.2147 19.5535 58.532 19.6602 57.9859 19.8736C57.4397 20.0869 57.0301 20.3813 56.7571 20.7568C56.484 21.1237 56.3432 21.5461 56.3346 22.024C56.3176 22.4166 56.3944 22.7622 56.5651 23.0609C56.7443 23.3595 57.0003 23.6241 57.3331 23.8545C57.6744 24.0764 58.084 24.2726 58.5619 24.4433C59.0398 24.614 59.5774 24.7633 60.1748 24.8913L62.4276 25.4033C63.7248 25.6849 64.8683 26.0604 65.8582 26.5298C66.8566 26.9991 67.6929 27.5581 68.367 28.2066C69.0497 28.8552 69.566 29.6019 69.9159 30.4467C70.2658 31.2915 70.445 32.2388 70.4535 33.2884C70.445 34.9439 70.0268 36.3648 69.1991 37.5509C68.3713 38.7371 67.1809 39.6459 65.6277 40.2774C64.0832 40.9089 62.2186 41.2247 60.034 41.2247C57.8408 41.2247 55.9293 40.8961 54.2994 40.239C52.6695 39.5819 51.4022 38.5835 50.4977 37.2437C49.5931 35.9039 49.128 34.21 49.1024 32.162H55.1698C55.221 33.0068 55.4471 33.7108 55.8482 34.274C56.2493 34.8372 56.7997 35.2639 57.4995 35.5541C58.2078 35.8442 59.027 35.9893 59.9572 35.9893C60.8105 35.9893 61.5359 35.8741 62.1332 35.6437C62.7391 35.4133 63.2042 35.0933 63.5285 34.6836C63.8528 34.274 64.0192 33.8047 64.0277 33.2756C64.0192 32.7806 63.8656 32.3582 63.5669 32.0084C63.2682 31.6499 62.8074 31.3427 62.1844 31.0867C61.57 30.8222 60.7849 30.579 59.8292 30.3571L57.0899 29.7171C54.8199 29.1965 53.0321 28.356 51.7265 27.1954C50.4208 26.0263 49.7723 24.4476 49.7808 22.4592C49.7723 20.8379 50.2075 19.417 51.0865 18.1967C51.9654 16.9764 53.1815 16.0249 54.7346 15.3422C56.2877 14.6595 58.0584 14.3182 60.0468 14.3182C62.0778 14.3182 63.84 14.6638 65.3333 15.355C66.8353 16.0377 68.0001 16.9977 68.8279 18.2351C69.6556 19.4725 70.078 20.9061 70.0951 22.536H64.0277ZM73.6536 14.6766H81.5003L88.1565 30.9075H88.4637L95.1199 14.6766H102.967V40.8918H96.7968V24.7889H96.5792L90.2813 40.7254H86.3388L80.041 24.6993H79.8234V40.8918H73.6536V14.6766ZM113.255 14.6766V40.8918H106.919V14.6766H113.255ZM139.544 14.6766V40.8918H134.168L123.735 25.7618H123.569V40.8918H117.233V14.6766H122.686L133.003 29.7811H133.22V14.6766H139.544ZM143.528 40.8918V14.6766H161.807V19.8224H149.864V25.1985H160.872V30.3571H149.864V35.7461H161.807V40.8918H143.528ZM187.549 40.8918L179.919 14.6766H186.921L190.877 31.8547H191.094L195.613 14.6766H201.322L205.84 31.8932H206.058L210.026 14.6766H217.015L209.399 40.8918H203.293L198.57 24.9937H198.365L193.642 40.8918H187.549ZM235.492 14.6766H241.816V31.5859C241.816 33.5401 241.351 35.2426 240.421 36.6933C239.49 38.1355 238.193 39.2534 236.529 40.047C234.865 40.8321 232.932 41.2247 230.731 41.2247C228.503 41.2247 226.558 40.8321 224.894 40.047C223.23 39.2534 221.937 38.1355 221.015 36.6933C220.094 35.2426 219.633 33.5401 219.633 31.5859V14.6766H225.969V31.0355C225.969 31.9401 226.165 32.7465 226.558 33.4548C226.959 34.1631 227.518 34.7178 228.235 35.1189C228.951 35.5199 229.784 35.7205 230.731 35.7205C231.678 35.7205 232.506 35.5199 233.214 35.1189C233.931 34.7178 234.49 34.1631 234.891 33.4548C235.292 32.7465 235.492 31.9401 235.492 31.0355V14.6766Z" fill="white"/>
<path d="M271.346 13.4477L262.898 44.8344H258.2L266.649 13.4477H271.346Z" fill="white"/>
<path d="M295.047 14.6504V19.877H313.683V14.6504H295.047ZM292.416 12.2353H316.459V22.3282H292.416V12.2353ZM288.451 32.0245H320.532V34.4036H288.451V32.0245ZM290.758 25.7165H318.549V28.1316H290.758V25.7165ZM303.014 26.4374H305.789C305.104 36.7826 302.978 41.6849 289.316 43.8476C289.1 43.1627 288.487 42.1174 287.982 41.5407C300.851 39.7744 302.473 35.6652 303.014 26.4374ZM306.438 32.385C308.096 38.1524 312.566 40.7116 320.892 41.3604C320.316 41.9372 319.667 43.0186 319.342 43.7755C310.439 42.7302 305.969 39.7023 303.951 32.7094L306.438 32.385ZM324.497 33.5385H356.614V36.0617H324.497V33.5385ZM325.506 14.8666H355.749V17.3538H325.506V14.8666ZM332.86 20.9945H348.323V23.3014H332.86V20.9945ZM332.86 27.2304H348.323V29.5734H332.86V27.2304ZM331.129 10.6853H333.797V34.6559H331.129V10.6853ZM347.242 10.6853H349.981V34.6559H347.242V10.6853ZM343.205 38.5849L345.043 36.8547C349.333 38.3686 353.91 40.3512 356.722 41.8651L354.271 43.6313C351.712 42.1174 347.422 40.1349 343.205 38.5849ZM335.563 36.6384L337.942 38.3686C334.734 40.3512 329.832 42.4418 325.939 43.7034C325.542 43.1627 324.713 42.2255 324.137 41.6488C328.029 40.5314 333.004 38.4047 335.563 36.6384ZM361.516 12.0911H391.723V43.7395H388.983V14.3981H364.148V43.7395H361.516V12.0911ZM363.138 40.1349H390.497V42.3697H363.138V40.1349ZM370.744 18.1829V20.9224H382.243V18.1829H370.744ZM368.329 16.2724H384.766V22.8328H368.329V16.2724ZM375.502 28.2037H377.917V30.4025C377.917 33.2501 376.692 36.9268 366.635 39.2698C366.346 38.693 365.661 37.7198 365.157 37.2152C374.745 35.3408 375.502 32.385 375.502 30.3304V28.2037ZM377.376 35.0884L378.458 33.3582C381.269 34.5117 385.09 36.278 387.145 37.3954L385.991 39.414C384.081 38.2244 380.224 36.3501 377.376 35.0884ZM367.464 24.9956H385.667V34.1512H383.108V27.1223H369.915V34.2954H367.464V24.9956Z" fill="white" fill-opacity="0.5"/>
</svg>
