<svg xmlns="http://www.w3.org/2000/svg" xmlns:xlink="http://www.w3.org/1999/xlink" width="3456" zoomAndPan="magnify" viewBox="0 0 2592 1675.499945" height="2234" preserveAspectRatio="xMidYMid meet" version="1.0"><defs><g/><clipPath id="33c3cdf74f"><path d="M 674.207031 979.949219 L 1849.300781 979.949219 L 1849.300781 1214.933594 L 674.207031 1214.933594 Z M 674.207031 979.949219 " clip-rule="nonzero"/></clipPath><clipPath id="ca269d2ef6"><path d="M 1881.144531 998.894531 L 2064.839844 998.894531 L 2064.839844 1182.589844 L 1881.144531 1182.589844 Z M 1881.144531 998.894531 " clip-rule="nonzero"/></clipPath><clipPath id="89e6ba0366"><path d="M 731.359375 1307.90625 L 915.054688 1307.90625 L 915.054688 1491.601562 L 731.359375 1491.601562 Z M 731.359375 1307.90625 " clip-rule="nonzero"/></clipPath><clipPath id="d456ff3866"><path d="M 1682.179688 439.421875 L 1774.402344 439.421875 L 1774.402344 531.644531 L 1682.179688 531.644531 Z M 1682.179688 439.421875 " clip-rule="nonzero"/></clipPath><clipPath id="c3693d7ace"><path d="M 1926.25 587.210938 L 2018.472656 587.210938 L 2018.472656 679.429688 L 1926.25 679.429688 Z M 1926.25 587.210938 " clip-rule="nonzero"/></clipPath></defs><g clip-path="url(#33c3cdf74f)"><path fill="#a284f9" d="M 674.207031 979.949219 L 1849.300781 979.949219 L 1849.300781 1214.933594 L 674.207031 1214.933594 Z M 674.207031 979.949219 " fill-opacity="1" fill-rule="nonzero"/></g><path stroke-linecap="round" transform="matrix(0.750159, 0.00407289, -0.00407075, 0.749765, 1682.208609, 553.704563)" fill="none" stroke-linejoin="miter" d="M 4.997923 4.998548 L 440.775151 5.001846 " stroke="#ffffff" stroke-width="10" stroke-opacity="1" stroke-miterlimit="4"/><g clip-path="url(#ca269d2ef6)"><path fill="#ffffff" d="M 1932.253906 1094.375 C 1945.023438 1096.296875 1953.164062 1099.597656 1958.644531 1105.078125 C 1964.125 1110.5625 1967.429688 1118.699219 1969.351562 1131.472656 C 1971.214844 1143.863281 1971.78125 1160.230469 1972.375 1182 L 1972.390625 1182.582031 L 1973.585938 1182.582031 L 1973.601562 1182 C 1974.195312 1160.238281 1974.761719 1143.875 1976.628906 1131.472656 C 1978.550781 1118.699219 1981.851562 1110.558594 1987.332031 1105.078125 C 1992.8125 1099.597656 2000.953125 1096.296875 2013.726562 1094.375 C 2026.113281 1092.511719 2042.484375 1091.945312 2064.253906 1091.347656 L 2064.835938 1091.332031 L 2064.835938 1090.140625 L 2064.253906 1090.121094 C 2042.484375 1089.527344 2026.117188 1088.960938 2013.726562 1087.097656 C 2000.949219 1085.175781 1992.8125 1081.871094 1987.332031 1076.390625 C 1981.851562 1070.910156 1978.550781 1062.773438 1976.628906 1050 C 1974.761719 1037.597656 1974.195312 1021.230469 1973.601562 999.46875 L 1973.585938 998.886719 L 1972.390625 998.886719 L 1972.375 999.46875 C 1971.78125 1021.238281 1971.214844 1037.605469 1969.351562 1050 C 1967.429688 1062.769531 1964.128906 1070.910156 1958.644531 1076.390625 C 1953.167969 1081.871094 1945.027344 1085.171875 1932.253906 1087.09375 C 1919.859375 1088.960938 1903.492188 1089.527344 1881.722656 1090.121094 L 1881.140625 1090.136719 L 1881.140625 1091.328125 L 1881.722656 1091.347656 C 1903.496094 1091.941406 1919.867188 1092.507812 1932.253906 1094.371094 Z M 1932.429688 1088.28125 C 1945.472656 1086.320312 1953.816406 1082.914062 1959.488281 1077.238281 C 1965.164062 1071.566406 1968.566406 1063.222656 1970.53125 1050.179688 C 1971.828125 1041.5625 1972.5 1031.0625 1972.988281 1018.1875 C 1973.472656 1031.058594 1974.144531 1041.558594 1975.445312 1050.179688 C 1977.40625 1063.222656 1980.8125 1071.566406 1986.484375 1077.238281 C 1992.15625 1082.914062 2000.5 1086.316406 2013.542969 1088.28125 C 2022.164062 1089.578125 2032.671875 1090.25 2045.546875 1090.738281 C 2032.667969 1091.222656 2022.160156 1091.898438 2013.542969 1093.195312 C 2000.503906 1095.15625 1992.160156 1098.5625 1986.484375 1104.234375 C 1980.8125 1109.910156 1977.40625 1118.253906 1975.445312 1131.292969 C 1974.144531 1139.917969 1973.472656 1150.417969 1972.988281 1163.289062 C 1972.5 1150.414062 1971.828125 1139.914062 1970.53125 1131.292969 C 1968.566406 1118.253906 1965.164062 1109.910156 1959.488281 1104.234375 C 1953.816406 1098.5625 1945.472656 1095.15625 1932.429688 1093.195312 C 1923.8125 1091.898438 1913.308594 1091.226562 1900.425781 1090.738281 C 1913.304688 1090.25 1923.8125 1089.578125 1932.429688 1088.28125 Z M 1932.429688 1088.28125 " fill-opacity="1" fill-rule="nonzero"/></g><g clip-path="url(#89e6ba0366)"><path fill="#ffffff" d="M 782.46875 1403.386719 C 795.238281 1405.308594 803.378906 1408.613281 808.859375 1414.09375 C 814.339844 1419.574219 817.644531 1427.714844 819.566406 1440.484375 C 821.429688 1452.878906 821.996094 1469.246094 822.589844 1491.015625 L 822.609375 1491.597656 L 823.800781 1491.597656 L 823.816406 1491.015625 C 824.410156 1469.253906 824.976562 1452.886719 826.84375 1440.484375 C 828.765625 1427.714844 832.066406 1419.574219 837.546875 1414.09375 C 843.027344 1408.613281 851.167969 1405.3125 863.941406 1403.386719 C 876.328125 1401.523438 892.699219 1400.957031 914.46875 1400.363281 L 915.050781 1400.34375 L 915.050781 1399.152344 L 914.46875 1399.136719 C 892.703125 1398.542969 876.335938 1397.976562 863.941406 1396.109375 C 851.164062 1394.1875 843.027344 1390.886719 837.546875 1385.40625 C 832.066406 1379.925781 828.765625 1371.785156 826.84375 1359.011719 C 824.976562 1346.609375 824.410156 1330.246094 823.816406 1308.484375 L 823.800781 1307.902344 L 822.609375 1307.902344 L 822.589844 1308.484375 C 821.996094 1330.253906 821.429688 1346.621094 819.566406 1359.011719 C 817.644531 1371.785156 814.34375 1379.925781 808.859375 1385.40625 C 803.382812 1390.886719 795.242188 1394.1875 782.46875 1396.109375 C 770.074219 1397.972656 753.707031 1398.539062 731.9375 1399.132812 L 731.355469 1399.152344 L 731.355469 1400.34375 L 731.9375 1400.359375 C 753.710938 1400.957031 770.082031 1401.523438 782.46875 1403.386719 Z M 782.644531 1397.292969 C 795.6875 1395.332031 804.03125 1391.925781 809.703125 1386.253906 C 815.378906 1380.578125 818.78125 1372.234375 820.746094 1359.195312 C 822.042969 1350.578125 822.714844 1340.078125 823.203125 1327.203125 C 823.6875 1340.070312 824.359375 1350.570312 825.660156 1359.195312 C 827.621094 1372.234375 831.027344 1380.582031 836.699219 1386.253906 C 842.371094 1391.925781 850.714844 1395.332031 863.757812 1397.292969 C 872.378906 1398.59375 882.886719 1399.261719 895.765625 1399.75 C 882.882812 1400.238281 872.378906 1400.910156 863.757812 1402.207031 C 850.71875 1404.167969 842.375 1407.574219 836.699219 1413.25 C 831.027344 1418.921875 827.621094 1427.269531 825.660156 1440.308594 C 824.359375 1448.929688 823.6875 1459.433594 823.203125 1472.300781 C 822.714844 1459.425781 822.042969 1448.925781 820.746094 1440.308594 C 818.785156 1427.269531 815.378906 1418.921875 809.703125 1413.25 C 804.03125 1407.574219 795.6875 1404.171875 782.644531 1402.207031 C 774.027344 1400.910156 763.523438 1400.238281 750.640625 1399.75 C 763.519531 1399.261719 774.027344 1398.59375 782.644531 1397.292969 Z M 782.644531 1397.292969 " fill-opacity="1" fill-rule="nonzero"/></g><g clip-path="url(#d456ff3866)"><path fill="#ffffff" d="M 1760.425781 484.640625 C 1758.289062 484.464844 1756.417969 484.273438 1754.703125 484.0625 C 1752.867188 483.835938 1751.246094 483.59375 1749.75 483.3125 C 1743.394531 482.132812 1739.277344 480.320312 1736.390625 477.433594 C 1733.503906 474.550781 1731.691406 470.429688 1730.511719 464.078125 C 1730.234375 462.578125 1729.988281 460.960938 1729.765625 459.121094 C 1729.554688 457.410156 1729.363281 455.539062 1729.183594 453.402344 C 1728.820312 449.070312 1728.542969 444.125 1728.292969 439.421875 L 1728.289062 439.421875 C 1728.042969 444.125 1727.761719 449.070312 1727.398438 453.402344 C 1727.21875 455.539062 1727.03125 457.410156 1726.820312 459.121094 C 1726.59375 460.957031 1726.347656 462.578125 1726.070312 464.078125 C 1724.890625 470.429688 1723.078125 474.550781 1720.191406 477.433594 C 1717.304688 480.320312 1713.1875 482.132812 1706.835938 483.3125 C 1705.335938 483.59375 1703.714844 483.835938 1701.878906 484.0625 C 1700.164062 484.273438 1698.292969 484.464844 1696.160156 484.640625 C 1691.828125 485.007812 1686.882812 485.285156 1682.179688 485.53125 L 1682.179688 485.539062 C 1686.882812 485.785156 1691.828125 486.0625 1696.160156 486.425781 C 1698.292969 486.605469 1700.164062 486.796875 1701.878906 487.007812 C 1703.714844 487.230469 1705.335938 487.476562 1706.835938 487.753906 C 1713.1875 488.933594 1717.308594 490.75 1720.191406 493.632812 C 1723.078125 496.519531 1724.890625 500.640625 1726.070312 506.992188 C 1726.347656 508.488281 1726.59375 510.109375 1726.820312 511.945312 C 1727.03125 513.660156 1727.21875 515.53125 1727.398438 517.667969 C 1727.765625 521.996094 1728.042969 526.945312 1728.289062 531.648438 L 1728.292969 531.648438 C 1728.542969 526.945312 1728.820312 522 1729.183594 517.667969 C 1729.363281 515.53125 1729.554688 513.660156 1729.765625 511.945312 C 1729.988281 510.113281 1730.234375 508.488281 1730.511719 506.992188 C 1731.691406 500.640625 1733.503906 496.519531 1736.390625 493.632812 C 1739.277344 490.75 1743.398438 488.933594 1749.75 487.753906 C 1751.246094 487.476562 1752.867188 487.234375 1754.703125 487.007812 C 1756.417969 486.796875 1758.289062 486.605469 1760.425781 486.425781 C 1764.753906 486.0625 1769.703125 485.785156 1774.402344 485.539062 L 1774.402344 485.53125 C 1769.703125 485.285156 1764.753906 485.007812 1760.425781 484.640625 Z M 1760.425781 484.640625 " fill-opacity="1" fill-rule="nonzero"/></g><g fill="#ffffff" fill-opacity="1"><g transform="translate(664.05277, 627.140259)"><g><path d="M 63.546875 1.953125 C 52.347656 1.953125 42.613281 -0.046875 34.34375 -4.046875 C 26.082031 -8.046875 19.691406 -14.226562 15.171875 -22.59375 C 10.648438 -30.957031 8.390625 -41.675781 8.390625 -54.75 C 8.390625 -68.15625 10.910156 -79.117188 15.953125 -87.640625 C 20.992188 -96.171875 27.90625 -102.453125 36.6875 -106.484375 C 45.476562 -110.515625 55.4375 -112.53125 66.5625 -112.53125 C 73.332031 -112.53125 79.757812 -111.78125 85.84375 -110.28125 C 91.925781 -108.789062 97.570312 -106.742188 102.78125 -104.140625 L 91.546875 -75.9375 C 86.992188 -77.945312 82.75 -79.554688 78.8125 -80.765625 C 74.875 -81.972656 70.789062 -82.578125 66.5625 -82.578125 C 62.726562 -82.578125 59.34375 -81.566406 56.40625 -79.546875 C 53.476562 -77.523438 51.203125 -74.476562 49.578125 -70.40625 C 47.953125 -66.34375 47.140625 -61.191406 47.140625 -54.953125 C 47.140625 -48.578125 47.96875 -43.4375 49.625 -39.53125 C 51.289062 -35.625 53.601562 -32.789062 56.5625 -31.03125 C 59.519531 -29.28125 62.921875 -28.40625 66.765625 -28.40625 C 72.296875 -28.40625 77.804688 -29.265625 83.296875 -30.984375 C 88.796875 -32.710938 94.019531 -35.101562 98.96875 -38.15625 L 98.96875 -7.8125 C 94.414062 -4.8125 89.273438 -2.429688 83.546875 -0.671875 C 77.816406 1.078125 71.148438 1.953125 63.546875 1.953125 Z M 63.546875 1.953125 "/></g></g><g transform="translate(771.802111, 627.140259)"><g><path d="M 120.734375 -110.578125 L 120.734375 0 L 91.9375 0 L 87.15625 -13.765625 L 84.921875 -13.765625 C 82.640625 -10.054688 79.757812 -7.046875 76.28125 -4.734375 C 72.800781 -2.421875 68.941406 -0.726562 64.703125 0.34375 C 60.472656 1.414062 56.082031 1.953125 51.53125 1.953125 C 44.3125 1.953125 37.789062 0.554688 31.96875 -2.234375 C 26.144531 -5.035156 21.523438 -9.429688 18.109375 -15.421875 C 14.691406 -21.410156 12.984375 -29.117188 12.984375 -38.546875 L 12.984375 -110.578125 L 51.140625 -110.578125 L 51.140625 -50.171875 C 51.140625 -43.015625 52.164062 -37.5625 54.21875 -33.8125 C 56.269531 -30.070312 59.632812 -28.203125 64.3125 -28.203125 C 69.132812 -28.203125 72.863281 -29.503906 75.5 -32.109375 C 78.132812 -34.710938 79.972656 -38.550781 81.015625 -43.625 C 82.054688 -48.695312 82.578125 -54.878906 82.578125 -62.171875 L 82.578125 -110.578125 Z M 120.734375 -110.578125 "/></g></g><g transform="translate(905.707997, 627.140259)"><g><path d="M 79.9375 -112.53125 C 82.019531 -112.53125 84.195312 -112.382812 86.46875 -112.09375 C 88.75 -111.800781 90.441406 -111.554688 91.546875 -111.359375 L 88.140625 -75.34375 C 86.898438 -75.675781 85.300781 -75.953125 83.34375 -76.171875 C 81.394531 -76.398438 78.664062 -76.515625 75.15625 -76.515625 C 72.75 -76.515625 70.175781 -76.285156 67.4375 -75.828125 C 64.707031 -75.378906 62.125 -74.421875 59.6875 -72.953125 C 57.25 -71.492188 55.25 -69.28125 53.6875 -66.3125 C 52.125 -63.351562 51.34375 -59.367188 51.34375 -54.359375 L 51.34375 0 L 13.171875 0 L 13.171875 -110.578125 L 41.578125 -110.578125 L 47.53125 -92.921875 L 49.390625 -92.921875 C 51.398438 -96.566406 53.984375 -99.867188 57.140625 -102.828125 C 60.296875 -105.785156 63.84375 -108.140625 67.78125 -109.890625 C 71.71875 -111.648438 75.769531 -112.53125 79.9375 -112.53125 Z M 79.9375 -112.53125 "/></g></g></g><g fill="#ffffff" fill-opacity="1"><g transform="translate(999.500646, 627.140259)"><g><path d="M 51.53125 -110.578125 L 51.53125 0 L 13.375 0 L 13.375 -110.578125 Z M 32.59375 -155.09375 C 38.0625 -155.09375 42.828125 -153.953125 46.890625 -151.671875 C 50.960938 -149.398438 53 -144.878906 53 -138.109375 C 53 -131.535156 50.960938 -127.09375 46.890625 -124.78125 C 42.828125 -122.476562 38.0625 -121.328125 32.59375 -121.328125 C 27 -121.328125 22.234375 -122.476562 18.296875 -124.78125 C 14.359375 -127.09375 12.390625 -131.535156 12.390625 -138.109375 C 12.390625 -144.878906 14.359375 -149.398438 18.296875 -151.671875 C 22.234375 -153.953125 27 -155.09375 32.59375 -155.09375 Z M 32.59375 -155.09375 "/></g></g></g><g fill="#ffffff" fill-opacity="1"><g transform="translate(1064.50163, 627.140259)"><g><path d="M 118.78125 -55.53125 C 118.78125 -46.289062 117.507812 -38.09375 114.96875 -30.9375 C 112.4375 -23.78125 108.757812 -17.757812 103.9375 -12.875 C 99.125 -8 93.300781 -4.304688 86.46875 -1.796875 C 79.644531 0.703125 71.9375 1.953125 63.34375 1.953125 C 55.34375 1.953125 48.003906 0.703125 41.328125 -1.796875 C 34.660156 -4.304688 28.851562 -8 23.90625 -12.875 C 18.96875 -17.757812 15.144531 -23.78125 12.4375 -30.9375 C 9.738281 -38.09375 8.390625 -46.289062 8.390625 -55.53125 C 8.390625 -67.769531 10.617188 -78.117188 15.078125 -86.578125 C 19.535156 -95.035156 25.910156 -101.472656 34.203125 -105.890625 C 42.503906 -110.316406 52.414062 -112.53125 63.9375 -112.53125 C 74.539062 -112.53125 83.972656 -110.316406 92.234375 -105.890625 C 100.492188 -101.472656 106.984375 -95.035156 111.703125 -86.578125 C 116.421875 -78.117188 118.78125 -67.769531 118.78125 -55.53125 Z M 47.140625 -55.53125 C 47.140625 -49.21875 47.691406 -43.898438 48.796875 -39.578125 C 49.898438 -35.253906 51.671875 -31.96875 54.109375 -29.71875 C 56.554688 -27.476562 59.765625 -26.359375 63.734375 -26.359375 C 67.703125 -26.359375 70.859375 -27.476562 73.203125 -29.71875 C 75.546875 -31.96875 77.253906 -35.253906 78.328125 -39.578125 C 79.398438 -43.898438 79.9375 -49.21875 79.9375 -55.53125 C 79.9375 -61.84375 79.398438 -67.113281 78.328125 -71.34375 C 77.253906 -75.570312 75.53125 -78.757812 73.15625 -80.90625 C 70.78125 -83.0625 67.578125 -84.140625 63.546875 -84.140625 C 57.753906 -84.140625 53.570312 -81.726562 51 -76.90625 C 48.425781 -72.09375 47.140625 -64.96875 47.140625 -55.53125 Z M 47.140625 -55.53125 "/></g></g></g><g fill="#ffffff" fill-opacity="1"><g transform="translate(1191.868399, 627.140259)"><g><path d="M 95.359375 -33.96875 C 95.359375 -26.9375 93.796875 -20.71875 90.671875 -15.3125 C 87.546875 -9.914062 82.550781 -5.6875 75.6875 -2.625 C 68.820312 0.425781 59.796875 1.953125 48.609375 1.953125 C 40.734375 1.953125 33.6875 1.53125 27.46875 0.6875 C 21.257812 -0.15625 14.96875 -1.785156 8.59375 -4.203125 L 8.59375 -34.75 C 15.550781 -31.5625 22.640625 -29.265625 29.859375 -27.859375 C 37.085938 -26.460938 42.785156 -25.765625 46.953125 -25.765625 C 51.242188 -25.765625 54.378906 -26.234375 56.359375 -27.171875 C 58.347656 -28.117188 59.34375 -29.535156 59.34375 -31.421875 C 59.34375 -33.054688 58.675781 -34.441406 57.34375 -35.578125 C 56.007812 -36.710938 53.632812 -38.03125 50.21875 -39.53125 C 46.800781 -41.03125 42 -43.046875 35.8125 -45.578125 C 29.695312 -48.117188 24.601562 -50.882812 20.53125 -53.875 C 16.46875 -56.863281 13.425781 -60.441406 11.40625 -64.609375 C 9.394531 -68.773438 8.390625 -73.882812 8.390625 -79.9375 C 8.390625 -90.738281 12.550781 -98.867188 20.875 -104.328125 C 29.207031 -109.796875 40.238281 -112.53125 53.96875 -112.53125 C 61.257812 -112.53125 68.125 -111.734375 74.5625 -110.140625 C 81.007812 -108.546875 87.679688 -106.222656 94.578125 -103.171875 L 84.140625 -78.5625 C 78.671875 -81.039062 73.132812 -83.023438 67.53125 -84.515625 C 61.9375 -86.015625 57.484375 -86.765625 54.171875 -86.765625 C 51.179688 -86.765625 48.867188 -86.375 47.234375 -85.59375 C 45.609375 -84.8125 44.796875 -83.675781 44.796875 -82.1875 C 44.796875 -80.8125 45.363281 -79.601562 46.5 -78.5625 C 47.644531 -77.53125 49.8125 -76.328125 53 -74.953125 C 56.1875 -73.585938 60.835938 -71.671875 66.953125 -69.203125 C 73.398438 -66.597656 78.71875 -63.816406 82.90625 -60.859375 C 87.101562 -57.898438 90.226562 -54.300781 92.28125 -50.0625 C 94.332031 -45.832031 95.359375 -40.46875 95.359375 -33.96875 Z M 95.359375 -33.96875 "/></g></g></g><g fill="#ffffff" fill-opacity="1"><g transform="translate(1295.225762, 627.140259)"><g><path d="M 51.53125 -110.578125 L 51.53125 0 L 13.375 0 L 13.375 -110.578125 Z M 32.59375 -155.09375 C 38.0625 -155.09375 42.828125 -153.953125 46.890625 -151.671875 C 50.960938 -149.398438 53 -144.878906 53 -138.109375 C 53 -131.535156 50.960938 -127.09375 46.890625 -124.78125 C 42.828125 -122.476562 38.0625 -121.328125 32.59375 -121.328125 C 27 -121.328125 22.234375 -122.476562 18.296875 -124.78125 C 14.359375 -127.09375 12.390625 -131.535156 12.390625 -138.109375 C 12.390625 -144.878906 14.359375 -149.398438 18.296875 -151.671875 C 22.234375 -153.953125 27 -155.09375 32.59375 -155.09375 Z M 32.59375 -155.09375 "/></g></g></g><g fill="#ffffff" fill-opacity="1"><g transform="translate(1360.226745, 627.140259)"><g><path d="M 67.34375 -28.203125 C 70.789062 -28.203125 73.945312 -28.5625 76.8125 -29.28125 C 79.675781 -30 82.671875 -30.910156 85.796875 -32.015625 L 85.796875 -4.203125 C 81.628906 -2.378906 77.21875 -0.898438 72.5625 0.234375 C 67.914062 1.378906 61.976562 1.953125 54.75 1.953125 C 47.59375 1.953125 41.28125 0.832031 35.8125 -1.40625 C 30.351562 -3.65625 26.109375 -7.5625 23.078125 -13.125 C 20.054688 -18.6875 18.546875 -26.445312 18.546875 -36.40625 L 18.546875 -81.984375 L 5.171875 -81.984375 L 5.171875 -97.5 L 22.15625 -109.515625 L 32.015625 -132.734375 L 57 -132.734375 L 57 -110.578125 L 84.140625 -110.578125 L 84.140625 -81.984375 L 57 -81.984375 L 57 -38.9375 C 57 -35.363281 57.910156 -32.679688 59.734375 -30.890625 C 61.554688 -29.097656 64.09375 -28.203125 67.34375 -28.203125 Z M 67.34375 -28.203125 "/></g></g></g><g fill="#ffffff" fill-opacity="1"><g transform="translate(1452.165031, 627.140259)"><g><path d="M -0.1875 -110.578125 L 40.015625 -110.578125 L 58.75 -47.140625 C 59.007812 -46.234375 59.269531 -45.113281 59.53125 -43.78125 C 59.789062 -42.445312 60.019531 -41.03125 60.21875 -39.53125 C 60.414062 -38.03125 60.546875 -36.566406 60.609375 -35.140625 L 61.390625 -35.140625 C 61.710938 -37.804688 62.085938 -40.128906 62.515625 -42.109375 C 62.941406 -44.097656 63.347656 -45.710938 63.734375 -46.953125 L 82.96875 -110.578125 L 121.90625 -110.578125 L 78.1875 7.03125 C 74.800781 16.007812 70.878906 23.539062 66.421875 29.625 C 61.960938 35.707031 56.460938 40.289062 49.921875 43.375 C 43.378906 46.46875 35.265625 48.015625 25.578125 48.015625 C 22.054688 48.015625 19.039062 47.835938 16.53125 47.484375 C 14.03125 47.128906 11.835938 46.753906 9.953125 46.359375 L 9.953125 16.390625 C 11.390625 16.648438 13.144531 16.910156 15.21875 17.171875 C 17.300781 17.429688 19.484375 17.5625 21.765625 17.5625 C 25.992188 17.5625 29.425781 16.71875 32.0625 15.03125 C 34.695312 13.34375 36.859375 11.113281 38.546875 8.34375 C 40.242188 5.582031 41.707031 2.609375 42.9375 -0.578125 L 43.328125 -1.5625 Z M -0.1875 -110.578125 "/></g></g></g><path stroke-linecap="butt" transform="matrix(0.706158, 0, 0, 0.706158, 664.05277, 160.732467)" fill="none" stroke-linejoin="miter" d="M 97.620569 335.997965 C 80.422524 335.997965 65.481411 332.922341 52.780635 326.776626 C 40.085391 320.630911 30.266629 311.132987 23.318818 298.288388 C 16.371007 285.438256 12.897101 268.970395 12.897101 248.879272 C 12.897101 228.284765 16.769289 211.440748 24.519196 198.34169 C 32.263571 185.248164 42.884429 175.600884 56.381769 169.405384 C 69.87911 163.204352 85.174251 160.106602 102.267194 160.106602 C 112.661253 160.106602 122.535331 161.257195 131.883899 163.552849 C 141.226935 165.854035 149.900635 169.00157 157.899469 173.000987 L 140.651638 216.3363 C 133.654042 213.238549 127.132171 210.765881 121.086027 208.912762 C 115.039882 207.065176 108.766938 206.141382 102.267194 206.141382 C 96.370406 206.141382 91.170611 207.690258 86.673341 210.788008 C 82.17054 213.89129 78.674507 218.560042 76.174181 224.810859 C 73.673854 231.056145 72.42369 238.983066 72.42369 248.575028 C 72.42369 258.371663 73.701512 266.270927 76.251624 272.267286 C 78.801737 278.269177 82.347554 282.617091 86.894609 285.316559 C 91.447195 288.016027 96.669117 289.365761 102.565906 289.365761 C 111.062592 289.365761 119.537152 288.038153 127.984053 285.388471 C 136.430954 282.738788 144.451914 279.065741 152.052465 274.369331 L 152.052465 321.001535 C 145.054869 325.603906 137.155606 329.249294 128.360208 331.948762 C 119.559278 334.648231 109.314576 335.997965 97.620569 335.997965 Z M 351.033131 163.104781 L 351.033131 332.999785 L 306.801683 332.999785 L 299.450058 311.85764 L 296.003811 311.85764 C 292.502247 317.555287 288.082421 322.179786 282.73327 325.725604 C 277.38412 329.276953 271.459672 331.87685 264.96546 333.525296 C 258.465717 335.173742 251.717046 335.997965 244.71945 335.997965 C 233.622866 335.997965 223.604963 333.851666 214.654678 329.553538 C 205.709924 325.249878 198.612757 318.506739 193.363177 309.307528 C 188.113597 300.108316 185.491573 288.264953 185.491573 273.771907 L 185.491573 163.104781 L 244.122027 163.104781 L 244.122027 255.926654 C 244.122027 266.923667 245.693029 275.293124 248.846096 281.040557 C 251.993631 286.78799 257.165768 289.664472 264.362505 289.664472 C 271.763916 289.664472 277.48369 287.661998 281.532892 283.668113 C 285.582094 279.668696 288.408791 273.771907 290.007452 265.972215 C 291.606112 258.172522 292.402676 248.680131 292.402676 237.478445 L 292.402676 163.104781 Z M 474.743998 289.664472 C 480.043363 289.664472 484.894661 289.116834 489.29236 288.016027 C 493.690059 286.915219 498.286899 285.5157 503.088412 283.817469 L 503.088412 326.549826 C 496.688239 329.348865 489.917442 331.627924 482.77049 333.37594 C 475.618006 335.123956 466.496238 335.997965 455.399654 335.997965 C 444.402641 335.997965 434.711108 334.272075 426.308461 330.825828 C 417.911345 327.379581 411.389474 321.37769 406.742849 312.831218 C 402.096224 304.284747 399.767379 292.36394 399.767379 277.068799 L 399.767379 207.043049 L 379.228189 207.043049 L 379.228189 183.201436 L 405.315671 164.753227 L 420.461457 129.068251 L 458.851433 129.068251 L 458.851433 163.104781 L 500.5383 163.104781 L 500.5383 207.043049 L 458.851433 207.043049 L 458.851433 273.168952 C 458.851433 278.667459 460.250952 282.794105 463.049991 285.537826 C 465.849029 288.28708 469.748875 289.664472 474.743998 289.664472 Z M 591.407483 332.999785 L 532.777029 332.999785 L 532.777029 99.678346 L 591.407483 99.678346 Z M 690.972493 163.104781 L 690.972493 332.999785 L 632.342039 332.999785 L 632.342039 163.104781 Z M 661.886832 94.727477 C 670.283947 94.727477 677.602382 96.475494 683.8532 99.977058 C 690.098485 103.47309 693.223894 110.420901 693.223894 120.820491 C 693.223894 130.915838 690.098485 137.73642 683.8532 141.287769 C 677.602382 144.833587 670.283947 146.609262 661.886832 146.609262 C 653.285043 146.609262 645.966608 144.833587 639.914932 141.287769 C 633.868788 137.73642 630.842949 130.915838 630.842949 120.820491 C 630.842949 110.420901 633.868788 103.47309 639.914932 99.977058 C 645.966608 96.475494 653.285043 94.727477 661.886832 94.727477 Z M 776.448272 332.999785 L 711.666571 163.104781 L 772.847138 163.104781 L 801.639619 263.571458 C 801.938331 264.473125 802.463842 266.774311 803.216153 270.469484 C 803.962932 274.17019 804.339087 277.616437 804.339087 280.819289 L 805.39011 280.819289 C 805.39011 277.417296 805.738607 274.17019 806.435601 271.072439 C 807.138126 267.969157 807.685764 265.573933 808.089578 263.87017 L 838.226262 163.104781 L 899.257473 163.104781 L 834.475772 332.999785 Z M 1002.423618 160.106602 C 1023.91426 160.106602 1040.708491 165.428094 1052.806312 176.07661 C 1064.904133 186.725127 1070.950278 201.893039 1070.950278 221.58588 L 1070.950278 332.999785 L 1030.314433 332.999785 L 1019.068493 310.507906 L 1017.868115 310.507906 C 1013.072134 316.504265 1008.148924 321.37769 1003.098485 325.12818 C 998.048046 328.878671 992.278486 331.627924 985.778742 333.37594 C 979.278998 335.123956 971.335482 335.997965 961.937129 335.997965 C 952.140494 335.997965 943.345096 334.001022 935.545404 330.001605 C 927.745711 326.002188 921.599996 319.956044 917.102727 311.85764 C 912.605457 303.759236 910.354056 293.514533 910.354056 281.118001 C 910.354056 262.92425 916.649127 249.42691 929.244801 240.631512 C 941.846006 231.830582 960.089542 226.885245 983.980941 225.784438 L 1012.319823 224.882771 L 1012.319823 222.487546 C 1012.319823 214.886995 1010.444578 209.488059 1006.699619 206.290738 C 1002.949129 203.093417 997.926348 201.494757 991.625746 201.494757 C 984.926861 201.494757 977.45907 202.667477 969.21131 205.018448 C 960.96355 207.363887 952.688132 210.389726 944.390587 214.090431 L 927.447 175.401743 C 937.243635 170.401089 948.340218 166.606345 960.736751 164.006448 C 973.133283 161.40655 987.028906 160.106602 1002.423618 160.106602 Z M 1012.618535 257.127032 L 999.126727 257.724455 C 988.328854 258.122737 980.755962 259.997982 976.408048 263.350191 C 972.060134 266.696867 969.886177 271.470721 969.886177 277.666222 C 969.886177 283.46344 971.435052 287.739442 974.532803 290.488695 C 977.630553 293.237948 981.72954 294.609809 986.829765 294.609809 C 993.926932 294.609809 1000.000735 292.36394 1005.045642 287.866671 C 1010.096081 283.36387 1012.618535 277.516866 1012.618535 270.320129 Z M 1194.063721 289.664472 C 1199.357555 289.664472 1204.208853 289.116834 1208.606552 288.016027 C 1213.004251 286.915219 1217.601091 285.5157 1222.402604 283.817469 L 1222.402604 326.549826 C 1216.002431 329.348865 1209.231634 331.627924 1202.084682 333.37594 C 1194.93773 335.123956 1185.815962 335.997965 1174.719378 335.997965 C 1163.722365 335.997965 1154.0253 334.272075 1145.628184 330.825828 C 1137.231069 327.379581 1130.709198 321.37769 1126.057041 312.831218 C 1121.410416 304.284747 1119.087103 292.36394 1119.087103 277.068799 L 1119.087103 207.043049 L 1098.542381 207.043049 L 1098.542381 183.201436 L 1124.635395 164.753227 L 1139.781181 129.068251 L 1178.165625 129.068251 L 1178.165625 163.104781 L 1219.852492 163.104781 L 1219.852492 207.043049 L 1178.165625 207.043049 L 1178.165625 273.168952 C 1178.165625 278.667459 1179.565144 282.794105 1182.364183 285.537826 C 1185.163221 288.28708 1189.063068 289.664472 1194.063721 289.664472 Z M 1311.020387 163.104781 L 1311.020387 332.999785 L 1252.389932 332.999785 L 1252.389932 163.104781 Z M 1281.934725 94.727477 C 1290.331841 94.727477 1297.650276 96.475494 1303.901093 99.977058 C 1310.146379 103.47309 1313.271787 110.420901 1313.271787 120.820491 C 1313.271787 130.915838 1310.146379 137.73642 1303.901093 141.287769 C 1297.650276 144.833587 1290.331841 146.609262 1281.934725 146.609262 C 1273.332936 146.609262 1266.014502 144.833587 1259.962825 141.287769 C 1253.916681 137.73642 1250.890843 130.915838 1250.890843 120.820491 C 1250.890843 110.420901 1253.916681 103.47309 1259.962825 99.977058 C 1266.014502 96.475494 1273.332936 94.727477 1281.934725 94.727477 Z M 1458.274155 160.106602 C 1475.770912 160.106602 1490.064817 165.051939 1501.1614 174.953676 C 1512.257984 184.849881 1517.806276 200.692661 1517.806276 222.487546 L 1517.806276 332.999785 L 1459.175822 332.999785 L 1459.175822 240.3328 C 1459.175822 229.031544 1457.549503 220.512731 1454.302397 214.765298 C 1451.049759 209.017865 1445.827837 206.141382 1438.6311 206.141382 C 1427.534516 206.141382 1420.088852 210.66631 1416.288577 219.710635 C 1412.488301 228.760491 1410.590929 241.73232 1410.590929 258.626122 L 1410.590929 332.999785 L 1351.960475 332.999785 L 1351.960475 163.104781 L 1396.197454 163.104781 L 1404.14097 185.596661 L 1406.392371 185.596661 C 1409.993506 180.197724 1414.291634 175.600884 1419.286756 171.800609 C 1424.28741 168.005865 1430.034843 165.107256 1436.534587 163.104781 C 1443.028799 161.107839 1450.275322 160.106602 1458.274155 160.106602 Z M 1615.722841 406.776025 C 1591.632301 406.776025 1573.062395 402.754481 1560.018654 394.705863 C 1546.969382 386.657244 1540.447511 375.084934 1540.447511 359.988934 C 1540.447511 349.893587 1543.595047 341.546256 1549.895649 334.946942 C 1556.19072 328.35316 1565.638858 323.601432 1578.234532 320.702823 C 1573.040269 318.506739 1568.515341 314.95539 1564.66528 310.059838 C 1560.815219 305.158755 1558.890188 300.312989 1558.890188 295.511476 C 1558.890188 290.21211 1560.339493 285.537826 1563.243634 281.494156 C 1566.142243 277.444954 1572.188387 272.621314 1581.387599 267.023237 C 1572.586669 263.123391 1565.666517 257.027461 1560.616078 248.729916 C 1555.57117 240.432371 1553.043185 230.331492 1553.043185 218.438344 C 1553.043185 206.141382 1555.869882 195.642222 1561.517744 186.946395 C 1567.165607 178.250567 1575.413366 171.601468 1586.261024 167.004628 C 1597.10315 162.407788 1610.323905 160.106602 1625.92329 160.106602 C 1628.019803 160.106602 1631.217124 160.283616 1635.515252 160.632113 C 1639.81338 160.98061 1644.166826 161.378892 1648.564525 161.832491 C 1652.962224 162.280559 1656.358686 162.706499 1658.759442 163.104781 L 1717.992851 163.104781 L 1717.992851 191.443664 L 1694.748661 199.995667 C 1696.347322 202.894276 1697.5477 206.041812 1698.344264 209.438274 C 1699.14636 212.840267 1699.544642 216.43587 1699.544642 220.236146 C 1699.544642 238.529467 1693.122342 252.723801 1680.277743 262.824679 C 1667.433143 272.920026 1648.265813 277.970465 1622.770223 277.970465 C 1616.475152 277.970465 1611.474498 277.566651 1607.773793 276.770087 C 1607.076799 278.070036 1606.551288 279.342326 1606.202791 280.592489 C 1605.854294 281.842653 1605.67728 283.015373 1605.67728 284.11618 C 1605.67728 286.417366 1607.04914 288.237294 1609.798394 289.587028 C 1612.547647 290.936762 1615.899855 291.866088 1619.849487 292.36394 C 1623.793587 292.861793 1627.571735 293.110719 1631.167338 293.110719 L 1659.356865 293.110719 C 1678.452283 293.110719 1692.746187 297.110136 1702.24411 305.10897 C 1711.742034 313.107803 1716.493761 325.150307 1716.493761 341.247545 C 1716.493761 361.941622 1707.670705 378.033328 1690.024592 389.533726 C 1672.378479 401.028592 1647.613073 406.776025 1615.722841 406.776025 Z M 1618.571665 370.189382 C 1625.668832 370.189382 1632.815784 369.564301 1640.018053 368.314137 C 1647.214791 367.063974 1653.260935 365.039373 1658.162019 362.240334 C 1663.05757 359.441296 1665.508112 355.74059 1665.508112 351.14375 C 1665.508112 347.647718 1664.058808 345.020162 1661.160198 343.272146 C 1658.261589 341.52413 1654.511099 340.345878 1649.914259 339.748455 C 1645.311887 339.1455 1640.466121 338.846788 1635.365896 338.846788 L 1612.575305 338.846788 C 1608.376748 338.846788 1604.554345 339.521655 1601.102566 340.871389 C 1597.656319 342.221123 1594.929193 344.046583 1592.93225 346.347769 C 1590.929776 348.643423 1589.934071 351.243321 1589.934071 354.14193 C 1589.934071 358.943443 1592.533968 362.815631 1597.728231 365.764025 C 1602.928026 368.712419 1609.875837 370.189382 1618.571665 370.189382 Z M 1626.520713 244.83007 C 1632.11879 244.83007 1636.444577 242.67824 1639.492542 238.380111 C 1642.540507 234.081983 1644.067255 227.632024 1644.067255 219.035768 C 1644.067255 210.24037 1642.612419 203.641055 1639.71381 199.243357 C 1636.815201 194.845658 1632.417502 192.644042 1626.520713 192.644042 C 1620.424783 192.644042 1615.872197 194.817999 1612.874017 199.165913 C 1609.875837 203.519358 1608.376748 210.041229 1608.376748 218.737056 C 1608.376748 227.432883 1609.875837 233.954754 1612.874017 238.308199 C 1615.872197 242.656113 1620.424783 244.83007 1626.520713 244.83007 Z M 1626.520713 244.83007 " stroke="#ffffff" stroke-width="11.516325" stroke-opacity="1" stroke-miterlimit="4"/><g fill="#ffffff" fill-opacity="1"><g transform="translate(991.200686, 1474.026964)"><g><path d="M 75.0625 2.3125 C 61.832031 2.3125 50.335938 -0.0507812 40.578125 -4.78125 C 30.816406 -9.507812 23.265625 -16.8125 17.921875 -26.6875 C 12.585938 -36.5625 9.921875 -49.226562 9.921875 -64.6875 C 9.921875 -80.519531 12.894531 -93.46875 18.84375 -103.53125 C 24.800781 -113.601562 32.96875 -121.019531 43.34375 -125.78125 C 53.726562 -130.550781 65.488281 -132.9375 78.625 -132.9375 C 86.625 -132.9375 94.21875 -132.050781 101.40625 -130.28125 C 108.59375 -128.507812 115.257812 -126.085938 121.40625 -123.015625 L 108.140625 -89.703125 C 102.765625 -92.085938 97.75 -93.988281 93.09375 -95.40625 C 88.445312 -96.832031 83.625 -97.546875 78.625 -97.546875 C 74.09375 -97.546875 70.097656 -96.351562 66.640625 -93.96875 C 63.179688 -91.582031 60.488281 -87.988281 58.5625 -83.1875 C 56.644531 -78.382812 55.6875 -72.289062 55.6875 -64.90625 C 55.6875 -57.375 56.664062 -51.300781 58.625 -46.6875 C 60.582031 -42.082031 63.3125 -38.738281 66.8125 -36.65625 C 70.3125 -34.582031 74.328125 -33.546875 78.859375 -33.546875 C 85.390625 -33.546875 91.898438 -34.5625 98.390625 -36.59375 C 104.890625 -38.632812 111.0625 -41.460938 116.90625 -45.078125 L 116.90625 -9.21875 C 111.53125 -5.6875 105.457031 -2.878906 98.6875 -0.796875 C 91.925781 1.273438 84.050781 2.3125 75.0625 2.3125 Z M 75.0625 2.3125 "/></g></g><g transform="translate(1118.487262, 1474.026964)"><g><path d="M 94.421875 -132.9375 C 96.878906 -132.9375 99.453125 -132.757812 102.140625 -132.40625 C 104.835938 -132.0625 106.835938 -131.773438 108.140625 -131.546875 L 104.109375 -89.015625 C 102.648438 -89.390625 100.765625 -89.710938 98.453125 -89.984375 C 96.148438 -90.253906 92.925781 -90.390625 88.78125 -90.390625 C 85.9375 -90.390625 82.898438 -90.117188 79.671875 -89.578125 C 76.441406 -89.046875 73.382812 -87.914062 70.5 -86.1875 C 67.613281 -84.457031 65.25 -81.84375 63.40625 -78.34375 C 61.5625 -74.84375 60.640625 -70.132812 60.640625 -64.21875 L 60.640625 0 L 15.5625 0 L 15.5625 -130.625 L 49.109375 -130.625 L 56.15625 -109.765625 L 58.34375 -109.765625 C 60.71875 -114.066406 63.769531 -117.960938 67.5 -121.453125 C 71.226562 -124.953125 75.414062 -127.738281 80.0625 -129.8125 C 84.71875 -131.894531 89.503906 -132.9375 94.421875 -132.9375 Z M 94.421875 -132.9375 "/></g></g></g><g fill="#ffffff" fill-opacity="1"><g transform="translate(1229.286522, 1474.026964)"><g><path d="M 74.359375 -132.9375 C 87.046875 -132.9375 98 -130.722656 107.21875 -126.296875 C 116.445312 -121.878906 123.554688 -115.25 128.546875 -106.40625 C 133.546875 -97.570312 136.046875 -86.507812 136.046875 -73.21875 L 136.046875 -53.15625 L 55.453125 -53.15625 C 55.835938 -46.3125 58.394531 -40.695312 63.125 -36.3125 C 67.851562 -31.9375 74.828125 -29.75 84.046875 -29.75 C 92.191406 -29.75 99.664062 -30.554688 106.46875 -32.171875 C 113.269531 -33.785156 120.285156 -36.28125 127.515625 -39.65625 L 127.515625 -7.265625 C 121.210938 -3.960938 114.332031 -1.539062 106.875 0 C 99.414062 1.539062 90 2.3125 78.625 2.3125 C 65.488281 2.3125 53.726562 -0.03125 43.34375 -4.71875 C 32.96875 -9.414062 24.800781 -16.679688 18.84375 -26.515625 C 12.894531 -36.359375 9.921875 -49.003906 9.921875 -64.453125 C 9.921875 -80.128906 12.609375 -93.019531 17.984375 -103.125 C 23.367188 -113.238281 30.898438 -120.734375 40.578125 -125.609375 C 50.265625 -130.492188 61.523438 -132.9375 74.359375 -132.9375 Z M 75.984375 -102.265625 C 70.679688 -102.265625 66.238281 -100.59375 62.65625 -97.25 C 59.082031 -93.90625 56.988281 -88.660156 56.375 -81.515625 L 95.125 -81.515625 C 95.039062 -85.359375 94.269531 -88.851562 92.8125 -92 C 91.351562 -95.15625 89.21875 -97.65625 86.40625 -99.5 C 83.601562 -101.34375 80.128906 -102.265625 75.984375 -102.265625 Z M 75.984375 -102.265625 "/></g></g><g transform="translate(1375.251018, 1474.026964)"><g><path d="M 79.328125 -132.9375 C 95.847656 -132.9375 108.757812 -128.84375 118.0625 -120.65625 C 127.363281 -112.46875 132.015625 -100.804688 132.015625 -85.671875 L 132.015625 0 L 100.765625 0 L 92.125 -17.296875 L 91.203125 -17.296875 C 87.515625 -12.679688 83.726562 -8.929688 79.84375 -6.046875 C 75.957031 -3.171875 71.515625 -1.0625 66.515625 0.28125 C 61.523438 1.632812 55.414062 2.3125 48.1875 2.3125 C 40.65625 2.3125 33.890625 0.773438 27.890625 -2.296875 C 21.898438 -5.378906 17.175781 -10.03125 13.71875 -16.25 C 10.257812 -22.476562 8.53125 -30.359375 8.53125 -39.890625 C 8.53125 -53.878906 13.375 -64.253906 23.0625 -71.015625 C 32.75 -77.785156 46.773438 -81.59375 65.140625 -82.4375 L 86.9375 -83.125 L 86.9375 -84.96875 C 86.9375 -90.8125 85.492188 -94.960938 82.609375 -97.421875 C 79.722656 -99.878906 75.859375 -101.109375 71.015625 -101.109375 C 65.867188 -101.109375 60.125 -100.203125 53.78125 -98.390625 C 47.445312 -96.585938 41.085938 -94.265625 34.703125 -91.421875 L 21.671875 -121.171875 C 29.203125 -125.015625 37.734375 -127.9375 47.265625 -129.9375 C 56.796875 -131.9375 67.484375 -132.9375 79.328125 -132.9375 Z M 87.15625 -58.34375 L 76.78125 -57.875 C 68.476562 -57.570312 62.65625 -56.128906 59.3125 -53.546875 C 55.96875 -50.972656 54.296875 -47.304688 54.296875 -42.546875 C 54.296875 -38.085938 55.488281 -34.800781 57.875 -32.6875 C 60.257812 -30.570312 63.410156 -29.515625 67.328125 -29.515625 C 72.785156 -29.515625 77.453125 -31.242188 81.328125 -34.703125 C 85.210938 -38.160156 87.15625 -42.65625 87.15625 -48.1875 Z M 87.15625 -58.34375 "/></g></g><g transform="translate(1522.368474, 1474.026964)"><g><path d="M 79.546875 -33.328125 C 83.628906 -33.328125 87.359375 -33.75 90.734375 -34.59375 C 94.117188 -35.4375 97.65625 -36.507812 101.34375 -37.8125 L 101.34375 -4.953125 C 96.425781 -2.804688 91.21875 -1.0625 85.71875 0.28125 C 80.226562 1.632812 73.21875 2.3125 64.6875 2.3125 C 56.226562 2.3125 48.769531 0.984375 42.3125 -1.671875 C 35.851562 -4.328125 30.835938 -8.9375 27.265625 -15.5 C 23.691406 -22.070312 21.90625 -31.238281 21.90625 -43 L 21.90625 -96.84375 L 6.109375 -96.84375 L 6.109375 -115.1875 L 26.171875 -129.359375 L 37.8125 -156.796875 L 67.328125 -156.796875 L 67.328125 -130.625 L 99.390625 -130.625 L 99.390625 -96.84375 L 67.328125 -96.84375 L 67.328125 -46 C 67.328125 -41.769531 68.40625 -38.597656 70.5625 -36.484375 C 72.71875 -34.378906 75.710938 -33.328125 79.546875 -33.328125 Z M 79.546875 -33.328125 "/></g></g><g transform="translate(1630.977129, 1474.026964)"><g><path d="M 60.875 -130.625 L 60.875 0 L 15.796875 0 L 15.796875 -130.625 Z M 38.515625 -183.203125 C 44.960938 -183.203125 50.585938 -181.859375 55.390625 -179.171875 C 60.203125 -176.484375 62.609375 -171.140625 62.609375 -163.140625 C 62.609375 -155.378906 60.203125 -150.132812 55.390625 -147.40625 C 50.585938 -144.675781 44.960938 -143.3125 38.515625 -143.3125 C 31.898438 -143.3125 26.265625 -144.675781 21.609375 -147.40625 C 16.960938 -150.132812 14.640625 -155.378906 14.640625 -163.140625 C 14.640625 -171.140625 16.960938 -176.484375 21.609375 -179.171875 C 26.265625 -181.859375 31.898438 -183.203125 38.515625 -183.203125 Z M 38.515625 -183.203125 "/></g></g></g><g fill="#ffffff" fill-opacity="1"><g transform="translate(1707.764196, 1474.026964)"><g><path d="M 140.3125 -65.609375 C 140.3125 -54.691406 138.8125 -45.003906 135.8125 -36.546875 C 132.820312 -28.085938 128.476562 -20.976562 122.78125 -15.21875 C 117.09375 -9.457031 110.210938 -5.09375 102.140625 -2.125 C 94.078125 0.832031 84.972656 2.3125 74.828125 2.3125 C 65.367188 2.3125 56.703125 0.832031 48.828125 -2.125 C 40.953125 -5.09375 34.09375 -9.457031 28.25 -15.21875 C 22.40625 -20.976562 17.890625 -28.085938 14.703125 -36.546875 C 11.515625 -45.003906 9.921875 -54.691406 9.921875 -65.609375 C 9.921875 -80.054688 12.550781 -92.273438 17.8125 -102.265625 C 23.070312 -112.253906 30.601562 -119.863281 40.40625 -125.09375 C 50.207031 -130.320312 61.910156 -132.9375 75.515625 -132.9375 C 88.046875 -132.9375 99.191406 -130.320312 108.953125 -125.09375 C 118.710938 -119.863281 126.378906 -112.253906 131.953125 -102.265625 C 137.523438 -92.273438 140.3125 -80.054688 140.3125 -65.609375 Z M 55.6875 -65.609375 C 55.6875 -58.148438 56.335938 -51.863281 57.640625 -46.75 C 58.953125 -41.632812 61.046875 -37.75 63.921875 -35.09375 C 66.804688 -32.445312 70.59375 -31.125 75.28125 -31.125 C 79.976562 -31.125 83.707031 -32.445312 86.46875 -35.09375 C 89.238281 -37.75 91.253906 -41.632812 92.515625 -46.75 C 93.785156 -51.863281 94.421875 -58.148438 94.421875 -65.609375 C 94.421875 -73.054688 93.785156 -79.28125 92.515625 -84.28125 C 91.253906 -89.28125 89.21875 -93.046875 86.40625 -95.578125 C 83.601562 -98.117188 79.820312 -99.390625 75.0625 -99.390625 C 68.21875 -99.390625 63.273438 -96.546875 60.234375 -90.859375 C 57.203125 -85.171875 55.6875 -76.753906 55.6875 -65.609375 Z M 55.6875 -65.609375 "/></g></g></g><g fill="#ffffff" fill-opacity="1"><g transform="translate(1858.225206, 1474.026964)"><g><path d="M 97.3125 -132.9375 C 110.757812 -132.9375 121.75 -129.128906 130.28125 -121.515625 C 138.8125 -113.910156 143.078125 -101.726562 143.078125 -84.96875 L 143.078125 0 L 98 0 L 98 -71.25 C 98 -79.9375 96.75 -86.488281 94.25 -90.90625 C 91.75 -95.332031 87.734375 -97.546875 82.203125 -97.546875 C 73.671875 -97.546875 67.941406 -94.066406 65.015625 -87.109375 C 62.097656 -80.148438 60.640625 -70.175781 60.640625 -57.1875 L 60.640625 0 L 15.5625 0 L 15.5625 -130.625 L 49.578125 -130.625 L 55.6875 -113.328125 L 57.421875 -113.328125 C 60.179688 -117.484375 63.484375 -121.019531 67.328125 -123.9375 C 71.171875 -126.863281 75.585938 -129.09375 80.578125 -130.625 C 85.578125 -132.164062 91.15625 -132.9375 97.3125 -132.9375 Z M 97.3125 -132.9375 "/></g></g></g><path stroke-linecap="butt" transform="matrix(0.749776, 0, 0, 0.749776, 915.150611, 613.212201)" fill="none" stroke-linejoin="miter" d="M 128.707384 166.558434 C 148.213205 166.558434 163.514646 174.368056 174.616917 189.982091 C 185.719188 205.596125 191.267719 228.082002 191.267719 257.44493 C 191.267719 277.47174 188.470009 294.304888 182.86417 307.949584 C 177.26354 321.594281 169.610215 331.86297 159.909403 338.760862 C 150.208592 345.663963 139.184469 349.112909 126.837034 349.112909 C 118.537683 349.112909 111.509544 348.076142 105.752618 345.997396 C 99.990481 343.923861 95.218224 341.329337 91.430635 338.219034 C 87.643047 335.10352 84.454595 331.941118 81.860071 328.726618 L 79.994931 328.726618 C 80.51071 332.769491 80.953551 337.130167 81.318243 341.798227 C 81.677725 346.466286 81.860071 351.915829 81.860071 358.141645 L 81.860071 422.57233 L 21.00858 422.57233 L 21.00858 169.668737 L 70.502515 169.668737 L 79.062361 192.081676 L 81.860071 192.081676 C 84.767189 187.517814 88.294283 183.287385 92.446564 179.400808 C 96.593634 175.509022 101.652436 172.393509 107.617757 170.059479 C 113.583079 167.725449 120.611218 166.558434 128.707384 166.558434 Z M 105.830766 214.338317 C 99.912333 214.338317 95.244273 215.739777 91.821377 218.537487 C 88.398481 221.340406 85.934204 225.570836 84.428546 231.223564 C 82.922888 236.876292 82.068467 243.904431 81.860071 252.313191 L 81.860071 257.137547 C 81.860071 266.473666 82.589456 274.330177 84.037804 280.71229 C 85.491363 287.094403 87.98169 291.918759 91.508784 295.185359 C 95.035878 298.457168 99.912333 300.087863 106.138149 300.087863 C 111.223 300.087863 115.479478 298.634305 118.902375 295.732397 C 122.325271 292.825279 124.919795 288.209319 126.680738 281.879305 C 128.44689 275.549291 129.327361 267.197841 129.327361 256.824954 C 129.327361 241.367216 127.331974 230.421241 123.335989 223.98703 C 119.340005 217.552818 113.504931 214.338317 105.830766 214.338317 Z M 397.480295 169.668737 L 397.480295 345.997396 L 351.565552 345.997396 L 343.943486 324.058558 L 340.364293 324.058558 C 336.733001 329.971781 332.13788 334.770088 326.589349 338.453478 C 321.040819 342.136869 314.893151 344.830381 308.146346 346.544435 C 301.404751 348.258488 294.397452 349.112909 287.134868 349.112909 C 275.621015 349.112909 265.216869 346.883077 255.932849 342.418203 C 246.648828 337.958539 239.282047 330.95645 233.832504 321.411935 C 228.388171 311.86742 225.663399 299.572084 225.663399 284.525928 L 225.663399 169.668737 L 286.514891 169.668737 L 286.514891 266.004776 C 286.514891 277.419641 288.150796 286.109734 291.417396 292.075056 C 294.683995 298.040377 300.05539 301.020433 307.526369 301.020433 C 315.200534 301.020433 321.139807 298.946898 325.344186 294.799827 C 329.548566 290.647546 332.476523 284.525928 334.138477 276.434972 C 335.795221 268.338806 336.628804 258.481698 336.628804 246.863648 L 336.628804 169.668737 Z M 545.951683 166.558434 C 549.270382 166.558434 552.745377 166.792879 556.376669 167.256559 C 560.007961 167.725449 562.706683 168.116191 564.467625 168.428784 L 559.023292 225.852169 C 557.048744 225.336391 554.511529 224.89355 551.396016 224.528858 C 548.285713 224.169376 543.925037 223.98703 538.324407 223.98703 C 534.48472 223.98703 530.384538 224.351722 526.029071 225.075896 C 521.673605 225.800071 517.547374 227.331778 513.655587 229.665807 C 509.763801 231.999837 506.57535 235.526931 504.085023 240.24709 C 501.594697 244.972458 500.349533 251.323312 500.349533 259.31528 L 500.349533 345.997396 L 439.498042 345.997396 L 439.498042 169.668737 L 484.787598 169.668737 L 494.280014 197.838602 L 497.23923 197.838602 C 500.453731 192.029577 504.579962 186.76238 509.607504 182.042221 C 514.640256 177.322063 520.298195 173.560524 526.57611 170.762814 C 532.848815 167.959894 539.309076 166.558434 545.951683 166.558434 Z M 720.097399 291.840611 C 720.097399 303.04708 717.607072 312.956287 712.631629 321.568232 C 707.650976 330.180176 699.685058 336.921771 688.739083 341.798227 C 677.793108 346.674682 663.398188 349.112909 645.554321 349.112909 C 632.998491 349.112909 621.765973 348.435624 611.856766 347.091473 C 601.952769 345.742112 591.913315 343.147588 581.743613 339.3079 L 581.743613 290.595447 C 592.845885 295.680298 604.156552 299.337639 615.670404 301.567472 C 627.189466 303.797304 636.265091 304.91222 642.907698 304.91222 C 649.753491 304.91222 654.760193 304.161996 657.927805 302.656338 C 661.090207 301.15068 662.674013 298.894799 662.674013 295.888694 C 662.674013 293.294169 661.605986 291.090387 659.480352 289.272136 C 657.354718 287.459095 653.567129 285.3543 648.122796 282.968171 C 642.673253 280.582043 635.019928 277.367542 625.16282 273.319459 C 615.40991 269.276586 607.292904 264.863811 600.806594 260.091553 C 594.325493 255.319296 589.475087 249.614469 586.255376 242.971861 C 583.040876 236.334464 581.43102 228.186199 581.43102 218.537487 C 581.43102 201.313597 588.073627 188.346186 601.353632 179.630043 C 614.633636 170.913901 632.222218 166.558434 654.114167 166.558434 C 665.732218 166.558434 676.678192 167.829647 686.952091 170.372072 C 697.220781 172.914498 707.854162 176.623938 718.852235 181.500393 L 702.201433 220.72043 C 693.485291 216.776545 684.67016 213.608933 675.745622 211.222804 C 666.821084 208.836675 659.714797 207.643611 654.421551 207.643611 C 649.649293 207.643611 645.965903 208.268798 643.371378 209.513961 C 640.782064 210.759124 639.484802 212.572165 639.484802 214.958294 C 639.484802 217.136027 640.391322 219.058476 642.204363 220.72043 C 644.022614 222.377174 647.47156 224.299623 652.556411 226.477356 C 657.641262 228.655089 665.060142 231.713293 674.813052 235.657179 C 685.081742 239.809459 693.563439 244.243074 700.258145 248.963233 C 706.947641 253.683391 711.928294 259.419478 715.194894 266.161073 C 718.466704 272.907878 720.097399 281.467724 720.097399 291.840611 Z M 925.377405 169.668737 L 925.377405 345.997396 L 879.462662 345.997396 L 871.840596 324.058558 L 868.261403 324.058558 C 864.630111 329.971781 860.03499 334.770088 854.486459 338.453478 C 848.932719 342.136869 842.790261 344.830381 836.043456 346.544435 C 829.301861 348.258488 822.294561 349.112909 815.031978 349.112909 C 803.518125 349.112909 793.113979 346.883077 783.829958 342.418203 C 774.545938 337.958539 767.179156 330.95645 761.729614 321.411935 C 756.285281 311.86742 753.560509 299.572084 753.560509 284.525928 L 753.560509 169.668737 L 814.412001 169.668737 L 814.412001 266.004776 C 814.412001 277.419641 816.042696 286.109734 819.314505 292.075056 C 822.581105 298.040377 827.9525 301.020433 835.423479 301.020433 C 843.097644 301.020433 849.036916 298.946898 853.241296 294.799827 C 857.440466 290.647546 860.373633 284.525928 862.035587 276.434972 C 863.692331 268.338806 864.525913 258.481698 864.525913 246.863648 L 864.525913 169.668737 Z M 1028.559237 169.668737 L 1028.559237 345.997396 L 967.707745 345.997396 L 967.707745 169.668737 Z M 998.367936 98.704853 C 1007.078868 98.704853 1014.680095 100.517894 1021.166406 104.149186 C 1027.652716 107.780478 1030.893266 114.990963 1030.893266 125.785851 C 1030.893266 136.262936 1027.652716 143.343173 1021.166406 147.026564 C 1014.680095 150.709955 1007.078868 152.554255 998.367936 152.554255 C 989.443398 152.554255 981.842171 150.709955 975.564256 147.026564 C 969.286341 143.343173 966.149988 136.262936 966.149988 125.785851 C 966.149988 114.990963 969.286341 107.780478 975.564256 104.149186 C 981.842171 100.517894 989.443398 98.704853 998.367936 98.704853 Z M 1157.420606 301.020433 C 1162.917038 301.020433 1167.94979 300.452556 1172.513651 299.31159 C 1177.082723 298.170625 1181.854981 296.717066 1186.835634 294.950914 L 1186.835634 339.3079 C 1180.193026 342.215018 1173.164887 344.575097 1165.746007 346.388138 C 1158.327126 348.206389 1148.86076 349.112909 1137.341698 349.112909 C 1125.932043 349.112909 1115.866539 347.320708 1107.150397 343.741515 C 1098.434254 340.162322 1091.66661 333.936506 1086.842253 325.069276 C 1082.017897 316.196837 1079.605719 303.823353 1079.605719 287.948824 L 1079.605719 215.270887 L 1058.281648 215.270887 L 1058.281648 190.523919 L 1085.362645 171.382791 L 1101.080877 134.345697 L 1140.920891 134.345697 L 1140.920891 169.668737 L 1184.18901 169.668737 L 1184.18901 215.270887 L 1140.920891 215.270887 L 1140.920891 283.905951 C 1140.920891 289.610779 1142.374449 293.888097 1145.281567 296.743115 C 1148.183475 299.598134 1152.231558 301.020433 1157.420606 301.020433 Z M 1157.420606 301.020433 " stroke="#ffffff" stroke-width="11.952375" stroke-opacity="1" stroke-miterlimit="4"/><g fill="#ffffff" fill-opacity="1"><g transform="translate(674.207139, 863.515375)"><g><path d="M 28.09375 -60.296875 L 28.09375 0 L 7.296875 0 L 7.296875 -60.296875 Z M 17.78125 -84.5625 C 20.757812 -84.5625 23.351562 -83.9375 25.5625 -82.6875 C 27.78125 -81.445312 28.890625 -78.984375 28.890625 -75.296875 C 28.890625 -71.710938 27.78125 -69.289062 25.5625 -68.03125 C 23.351562 -66.769531 20.757812 -66.140625 17.78125 -66.140625 C 14.726562 -66.140625 12.128906 -66.769531 9.984375 -68.03125 C 7.835938 -69.289062 6.765625 -71.710938 6.765625 -75.296875 C 6.765625 -78.984375 7.835938 -81.445312 9.984375 -82.6875 C 12.128906 -83.9375 14.726562 -84.5625 17.78125 -84.5625 Z M 17.78125 -84.5625 "/></g></g></g><g fill="#ffffff" fill-opacity="1"><g transform="translate(709.64539, 863.515375)"><g><path d="M 44.90625 -61.359375 C 51.113281 -61.359375 56.1875 -59.601562 60.125 -56.09375 C 64.070312 -52.582031 66.046875 -46.957031 66.046875 -39.21875 L 66.046875 0 L 45.234375 0 L 45.234375 -32.890625 C 45.234375 -36.898438 44.65625 -39.921875 43.5 -41.953125 C 42.351562 -43.992188 40.5 -45.015625 37.9375 -45.015625 C 34 -45.015625 31.351562 -43.410156 30 -40.203125 C 28.65625 -36.992188 27.984375 -32.390625 27.984375 -26.390625 L 27.984375 0 L 7.1875 0 L 7.1875 -60.296875 L 22.875 -60.296875 L 25.703125 -52.3125 L 26.5 -52.3125 C 27.78125 -54.226562 29.304688 -55.859375 31.078125 -57.203125 C 32.847656 -58.554688 34.882812 -59.585938 37.1875 -60.296875 C 39.5 -61.003906 42.070312 -61.359375 44.90625 -61.359375 Z M 44.90625 -61.359375 "/></g></g></g><g fill="#ffffff" fill-opacity="1"><g transform="translate(782.650317, 863.515375)"><g/></g></g><g fill="#ffffff" fill-opacity="1"><g transform="translate(810.959292, 863.515375)"><g><path d="M 36.609375 -61.359375 C 44.234375 -61.359375 50.191406 -59.46875 54.484375 -55.6875 C 58.785156 -51.90625 60.9375 -46.519531 60.9375 -39.53125 L 60.9375 0 L 46.515625 0 L 42.515625 -7.984375 L 42.09375 -7.984375 C 40.382812 -5.859375 38.632812 -4.128906 36.84375 -2.796875 C 35.050781 -1.460938 33.003906 -0.488281 30.703125 0.125 C 28.398438 0.75 25.582031 1.0625 22.25 1.0625 C 18.769531 1.0625 15.644531 0.351562 12.875 -1.0625 C 10.113281 -2.476562 7.929688 -4.625 6.328125 -7.5 C 4.734375 -10.375 3.9375 -14.007812 3.9375 -18.40625 C 3.9375 -24.863281 6.171875 -29.65625 10.640625 -32.78125 C 15.109375 -35.90625 21.582031 -37.660156 30.0625 -38.046875 L 40.125 -38.375 L 40.125 -39.21875 C 40.125 -41.914062 39.457031 -43.832031 38.125 -44.96875 C 36.800781 -46.101562 35.019531 -46.671875 32.78125 -46.671875 C 30.40625 -46.671875 27.753906 -46.253906 24.828125 -45.421875 C 21.898438 -44.585938 18.960938 -43.515625 16.015625 -42.203125 L 10 -55.921875 C 13.476562 -57.703125 17.414062 -59.050781 21.8125 -59.96875 C 26.21875 -60.894531 31.148438 -61.359375 36.609375 -61.359375 Z M 40.234375 -26.921875 L 35.4375 -26.71875 C 31.601562 -26.570312 28.914062 -25.90625 27.375 -24.71875 C 25.832031 -23.53125 25.0625 -21.835938 25.0625 -19.640625 C 25.0625 -17.578125 25.609375 -16.054688 26.703125 -15.078125 C 27.804688 -14.109375 29.265625 -13.625 31.078125 -13.625 C 33.597656 -13.625 35.753906 -14.421875 37.546875 -16.015625 C 39.335938 -17.609375 40.234375 -19.6875 40.234375 -22.25 Z M 40.234375 -26.921875 "/></g></g></g><g fill="#ffffff" fill-opacity="1"><g transform="translate(1857.730641, 863.634403)"><g><path d="M 64.765625 -30.28125 C 64.765625 -25.238281 64.070312 -20.765625 62.6875 -16.859375 C 61.300781 -12.960938 59.296875 -9.679688 56.671875 -7.015625 C 54.046875 -4.359375 50.867188 -2.347656 47.140625 -0.984375 C 43.421875 0.378906 39.21875 1.0625 34.53125 1.0625 C 30.164062 1.0625 26.164062 0.378906 22.53125 -0.984375 C 18.894531 -2.347656 15.726562 -4.359375 13.03125 -7.015625 C 10.34375 -9.679688 8.257812 -12.960938 6.78125 -16.859375 C 5.3125 -20.765625 4.578125 -25.238281 4.578125 -30.28125 C 4.578125 -36.945312 5.789062 -42.585938 8.21875 -47.203125 C 10.644531 -51.816406 14.117188 -55.328125 18.640625 -57.734375 C 23.171875 -60.148438 28.578125 -61.359375 34.859375 -61.359375 C 40.640625 -61.359375 45.78125 -60.148438 50.28125 -57.734375 C 54.789062 -55.328125 58.332031 -51.816406 60.90625 -47.203125 C 63.476562 -42.585938 64.765625 -36.945312 64.765625 -30.28125 Z M 25.703125 -30.28125 C 25.703125 -26.84375 26.003906 -23.941406 26.609375 -21.578125 C 27.210938 -19.222656 28.175781 -17.429688 29.5 -16.203125 C 30.832031 -14.984375 32.582031 -14.375 34.75 -14.375 C 36.914062 -14.375 38.632812 -14.984375 39.90625 -16.203125 C 41.1875 -17.429688 42.117188 -19.222656 42.703125 -21.578125 C 43.285156 -23.941406 43.578125 -26.84375 43.578125 -30.28125 C 43.578125 -33.71875 43.285156 -36.585938 42.703125 -38.890625 C 42.117188 -41.203125 41.175781 -42.941406 39.875 -44.109375 C 38.582031 -45.285156 36.835938 -45.875 34.640625 -45.875 C 31.484375 -45.875 29.203125 -44.5625 27.796875 -41.9375 C 26.398438 -39.3125 25.703125 -35.425781 25.703125 -30.28125 Z M 25.703125 -30.28125 "/></g></g></g><g fill="#ffffff" fill-opacity="1"><g transform="translate(1927.170458, 863.634403)"><g><path d="M 44.015625 -44.703125 L 31.1875 -44.703125 L 31.1875 0 L 10.375 0 L 10.375 -44.703125 L 2.390625 -44.703125 L 2.390625 -54.921875 L 10.796875 -60.03125 L 10.796875 -61.03125 C 10.796875 -66.25 11.488281 -70.5 12.875 -73.78125 C 14.257812 -77.0625 16.457031 -79.484375 19.46875 -81.046875 C 22.488281 -82.609375 26.429688 -83.390625 31.296875 -83.390625 C 34.410156 -83.390625 37.234375 -83.140625 39.765625 -82.640625 C 42.304688 -82.140625 44.960938 -81.429688 47.734375 -80.515625 L 43.265625 -67.046875 C 42.234375 -67.335938 41.085938 -67.585938 39.828125 -67.796875 C 38.566406 -68.003906 37.210938 -68.109375 35.765625 -68.109375 C 34.160156 -68.109375 32.992188 -67.617188 32.265625 -66.640625 C 31.546875 -65.671875 31.1875 -64.085938 31.1875 -61.890625 L 31.1875 -60.296875 L 44.015625 -60.296875 Z M 44.015625 -44.703125 "/></g></g></g><g clip-path="url(#c3693d7ace)"><path fill="#ffffff" d="M 2004.492188 632.429688 C 2002.355469 632.25 2000.484375 632.058594 1998.773438 631.847656 C 1996.9375 631.625 1995.316406 631.378906 1993.816406 631.097656 C 1987.464844 629.917969 1983.34375 628.105469 1980.460938 625.21875 C 1977.574219 622.335938 1975.761719 618.214844 1974.582031 611.863281 C 1974.300781 610.363281 1974.058594 608.746094 1973.832031 606.90625 C 1973.621094 605.195312 1973.433594 603.324219 1973.253906 601.1875 C 1972.890625 596.855469 1972.609375 591.910156 1972.363281 587.210938 L 1972.359375 587.210938 C 1972.109375 591.910156 1971.832031 596.855469 1971.46875 601.1875 C 1971.289062 603.324219 1971.097656 605.195312 1970.886719 606.90625 C 1970.664062 608.742188 1970.417969 610.363281 1970.140625 611.863281 C 1968.960938 618.214844 1967.144531 622.335938 1964.261719 625.21875 C 1961.375 628.105469 1957.253906 629.917969 1950.902344 631.097656 C 1949.40625 631.378906 1947.785156 631.621094 1945.949219 631.847656 C 1944.234375 632.058594 1942.363281 632.25 1940.226562 632.429688 C 1935.898438 632.792969 1930.949219 633.070312 1926.25 633.316406 L 1926.25 633.324219 C 1930.949219 633.570312 1935.898438 633.847656 1940.226562 634.210938 C 1942.363281 634.390625 1944.234375 634.582031 1945.949219 634.792969 C 1947.785156 635.015625 1949.40625 635.261719 1950.902344 635.542969 C 1957.253906 636.722656 1961.375 638.535156 1964.261719 641.421875 C 1967.144531 644.304688 1968.960938 648.425781 1970.140625 654.777344 C 1970.417969 656.277344 1970.660156 657.894531 1970.886719 659.734375 C 1971.097656 661.445312 1971.289062 663.316406 1971.46875 665.453125 C 1971.832031 669.785156 1972.109375 674.730469 1972.359375 679.433594 L 1972.363281 679.433594 C 1972.609375 674.730469 1972.890625 669.785156 1973.253906 665.453125 C 1973.433594 663.316406 1973.621094 661.445312 1973.832031 659.734375 C 1974.058594 657.898438 1974.300781 656.277344 1974.582031 654.777344 C 1975.761719 648.425781 1977.574219 644.304688 1980.460938 641.421875 C 1983.34375 638.535156 1987.464844 636.722656 1993.816406 635.542969 C 1995.316406 635.261719 1996.9375 635.019531 1998.773438 634.792969 C 2000.484375 634.582031 2002.355469 634.390625 2004.492188 634.210938 C 2008.824219 633.847656 2013.769531 633.570312 2018.472656 633.324219 L 2018.472656 633.316406 C 2013.769531 633.070312 2008.824219 632.792969 2004.492188 632.429688 Z M 2004.492188 632.429688 " fill-opacity="1" fill-rule="nonzero"/></g><g fill="#ffffff" fill-opacity="1"><g transform="translate(703.919647, 1160.827678)"><g><path d="M 31.078125 1.609375 C 25.023438 1.609375 19.628906 1.175781 14.890625 0.3125 C 10.148438 -0.539062 6.015625 -1.796875 2.484375 -3.453125 L 2.484375 -28.421875 C 7.410156 -25.742188 11.988281 -23.867188 16.21875 -22.796875 C 20.445312 -21.734375 24.726562 -21.203125 29.0625 -21.203125 C 30.351562 -21.203125 31.851562 -21.320312 33.5625 -21.5625 C 35.28125 -21.800781 36.78125 -22.320312 38.0625 -23.125 C 39.34375 -23.925781 39.984375 -25.15625 39.984375 -26.8125 C 39.984375 -28.050781 39.703125 -29.164062 39.140625 -30.15625 C 38.578125 -31.144531 37.410156 -32.265625 35.640625 -33.515625 C 33.878906 -34.773438 31.15625 -36.425781 27.46875 -38.46875 C 23.71875 -40.550781 20.632812 -42.820312 18.21875 -45.28125 C 15.8125 -47.75 14.03125 -50.492188 12.875 -53.515625 C 11.726562 -56.546875 11.15625 -59.988281 11.15625 -63.84375 C 11.15625 -69.570312 12.492188 -74.585938 15.171875 -78.890625 C 17.847656 -83.203125 21.957031 -86.5625 27.5 -88.96875 C 33.039062 -91.375 40.039062 -92.578125 48.5 -92.578125 C 54.4375 -92.578125 59.894531 -91.867188 64.875 -90.453125 C 69.851562 -89.035156 74.644531 -86.910156 79.25 -84.078125 L 69.546875 -63.84375 C 66.546875 -65.820312 63.128906 -67.570312 59.296875 -69.09375 C 55.472656 -70.625 51.984375 -71.390625 48.828125 -71.390625 C 46.953125 -71.390625 45.460938 -70.929688 44.359375 -70.015625 C 43.265625 -69.109375 42.71875 -67.742188 42.71875 -65.921875 C 42.71875 -64.910156 43.078125 -63.972656 43.796875 -63.109375 C 44.523438 -62.253906 45.691406 -61.382812 47.296875 -60.5 C 48.898438 -59.625 50.960938 -58.539062 53.484375 -57.25 C 57.597656 -55.21875 60.976562 -52.914062 63.625 -50.34375 C 66.28125 -47.78125 68.265625 -44.941406 69.578125 -41.828125 C 70.890625 -38.722656 71.546875 -35.300781 71.546875 -31.5625 C 71.546875 -24.0625 69.882812 -17.863281 66.5625 -12.96875 C 63.25 -8.070312 58.566406 -4.414062 52.515625 -2 C 46.460938 0.40625 39.316406 1.609375 31.078125 1.609375 Z M 31.078125 1.609375 "/></g></g></g><g fill="#ffffff" fill-opacity="1"><g transform="translate(786.462667, 1160.827678)"><g><path d="M 42.71875 1.609375 C 35.0625 1.609375 28.554688 0.164062 23.203125 -2.71875 C 17.847656 -5.613281 13.765625 -9.75 10.953125 -15.125 C 8.148438 -20.507812 6.75 -26.925781 6.75 -34.375 C 6.75 -41.8125 7.804688 -49.007812 9.921875 -55.96875 C 12.035156 -62.925781 15.242188 -69.160156 19.546875 -74.671875 C 23.859375 -80.191406 29.28125 -84.554688 35.8125 -87.765625 C 42.34375 -90.972656 50.023438 -92.578125 58.859375 -92.578125 C 69.085938 -92.578125 77.101562 -90.273438 82.90625 -85.671875 C 88.71875 -81.078125 91.625 -74.953125 91.625 -67.296875 C 91.625 -62.265625 90.660156 -57.695312 88.734375 -53.59375 C 86.804688 -49.5 83.847656 -45.976562 79.859375 -43.03125 C 75.867188 -40.09375 70.796875 -37.832031 64.640625 -36.25 C 58.484375 -34.675781 51.175781 -33.890625 42.71875 -33.890625 L 37.984375 -33.890625 C 37.984375 -33.671875 37.984375 -33.46875 37.984375 -33.28125 C 37.984375 -33.09375 37.984375 -32.863281 37.984375 -32.59375 C 37.984375 -28.53125 39.078125 -25.535156 41.265625 -23.609375 C 43.460938 -21.679688 46.757812 -20.71875 51.15625 -20.71875 C 55.757812 -20.71875 60.117188 -21.410156 64.234375 -22.796875 C 68.359375 -24.191406 72.773438 -26.125 77.484375 -28.59375 L 77.484375 -6.578125 C 72.617188 -4.117188 67.585938 -2.140625 62.390625 -0.640625 C 57.203125 0.859375 50.644531 1.609375 42.71875 1.609375 Z M 41.109375 -53.3125 L 43.4375 -53.3125 C 48.09375 -53.3125 51.785156 -53.925781 54.515625 -55.15625 C 57.253906 -56.394531 59.210938 -57.953125 60.390625 -59.828125 C 61.566406 -61.703125 62.15625 -63.570312 62.15625 -65.4375 C 62.15625 -67.15625 61.617188 -68.601562 60.546875 -69.78125 C 59.472656 -70.957031 57.757812 -71.546875 55.40625 -71.546875 C 53 -71.546875 50.773438 -70.609375 48.734375 -68.734375 C 46.703125 -66.859375 45.015625 -64.515625 43.671875 -61.703125 C 42.335938 -58.898438 41.484375 -56.101562 41.109375 -53.3125 Z M 41.109375 -53.3125 "/></g></g></g><g fill="#ffffff" fill-opacity="1"><g transform="translate(881.69225, 1160.827678)"><g><path d="M 1.84375 0 L 21.03125 -90.984375 L 45.84375 -90.984375 L 44.40625 -75.796875 L 45.046875 -75.796875 C 47.566406 -80.085938 50.132812 -83.445312 52.75 -85.875 C 55.375 -88.3125 58.28125 -90.035156 61.46875 -91.046875 C 64.65625 -92.066406 68.28125 -92.578125 72.34375 -92.578125 C 73.519531 -92.578125 74.765625 -92.507812 76.078125 -92.375 C 77.390625 -92.25 78.289062 -92.101562 78.78125 -91.9375 L 72.03125 -61.1875 C 70.851562 -61.664062 69.40625 -62.078125 67.6875 -62.421875 C 65.976562 -62.773438 64.132812 -62.953125 62.15625 -62.953125 C 59.738281 -62.953125 57.472656 -62.5625 55.359375 -61.78125 C 53.242188 -61.007812 51.316406 -59.753906 49.578125 -58.015625 C 47.835938 -56.273438 46.285156 -53.921875 44.921875 -50.953125 C 43.554688 -47.984375 42.394531 -44.328125 41.4375 -39.984375 L 32.921875 0 Z M 1.84375 0 "/></g></g></g><g fill="#ffffff" fill-opacity="1"><g transform="translate(953.556061, 1160.827678)"><g><path d="M 42.71875 1.609375 C 35.0625 1.609375 28.554688 0.164062 23.203125 -2.71875 C 17.847656 -5.613281 13.765625 -9.75 10.953125 -15.125 C 8.148438 -20.507812 6.75 -26.925781 6.75 -34.375 C 6.75 -41.8125 7.804688 -49.007812 9.921875 -55.96875 C 12.035156 -62.925781 15.242188 -69.160156 19.546875 -74.671875 C 23.859375 -80.191406 29.28125 -84.554688 35.8125 -87.765625 C 42.34375 -90.972656 50.023438 -92.578125 58.859375 -92.578125 C 69.085938 -92.578125 77.101562 -90.273438 82.90625 -85.671875 C 88.71875 -81.078125 91.625 -74.953125 91.625 -67.296875 C 91.625 -62.265625 90.660156 -57.695312 88.734375 -53.59375 C 86.804688 -49.5 83.847656 -45.976562 79.859375 -43.03125 C 75.867188 -40.09375 70.796875 -37.832031 64.640625 -36.25 C 58.484375 -34.675781 51.175781 -33.890625 42.71875 -33.890625 L 37.984375 -33.890625 C 37.984375 -33.671875 37.984375 -33.46875 37.984375 -33.28125 C 37.984375 -33.09375 37.984375 -32.863281 37.984375 -32.59375 C 37.984375 -28.53125 39.078125 -25.535156 41.265625 -23.609375 C 43.460938 -21.679688 46.757812 -20.71875 51.15625 -20.71875 C 55.757812 -20.71875 60.117188 -21.410156 64.234375 -22.796875 C 68.359375 -24.191406 72.773438 -26.125 77.484375 -28.59375 L 77.484375 -6.578125 C 72.617188 -4.117188 67.585938 -2.140625 62.390625 -0.640625 C 57.203125 0.859375 50.644531 1.609375 42.71875 1.609375 Z M 41.109375 -53.3125 L 43.4375 -53.3125 C 48.09375 -53.3125 51.785156 -53.925781 54.515625 -55.15625 C 57.253906 -56.394531 59.210938 -57.953125 60.390625 -59.828125 C 61.566406 -61.703125 62.15625 -63.570312 62.15625 -65.4375 C 62.15625 -67.15625 61.617188 -68.601562 60.546875 -69.78125 C 59.472656 -70.957031 57.757812 -71.546875 55.40625 -71.546875 C 53 -71.546875 50.773438 -70.609375 48.734375 -68.734375 C 46.703125 -66.859375 45.015625 -64.515625 43.671875 -61.703125 C 42.335938 -58.898438 41.484375 -56.101562 41.109375 -53.3125 Z M 41.109375 -53.3125 "/></g></g></g><g fill="#ffffff" fill-opacity="1"><g transform="translate(1048.785664, 1160.827678)"><g><path d="M 1.84375 0 L 21.03125 -90.984375 L 45.84375 -90.984375 L 44.890625 -78.296875 L 45.53125 -78.296875 C 47.507812 -81.722656 49.703125 -84.476562 52.109375 -86.5625 C 54.523438 -88.644531 57.242188 -90.164062 60.265625 -91.125 C 63.285156 -92.09375 66.722656 -92.578125 70.578125 -92.578125 C 76.253906 -92.578125 80.84375 -91.398438 84.34375 -89.046875 C 87.851562 -86.691406 90.4375 -83.5625 92.09375 -79.65625 C 93.757812 -75.75 94.59375 -71.441406 94.59375 -66.734375 C 94.59375 -63.734375 94.40625 -60.640625 94.03125 -57.453125 C 93.65625 -54.265625 93.171875 -51.226562 92.578125 -48.34375 L 82.390625 0 L 51.3125 0 L 61.671875 -49.625 C 61.992188 -51.019531 62.3125 -52.800781 62.625 -54.96875 C 62.945312 -57.132812 63.109375 -59.15625 63.109375 -61.03125 C 63.109375 -63.332031 62.519531 -65.054688 61.34375 -66.203125 C 60.164062 -67.359375 58.75 -67.9375 57.09375 -67.9375 C 55.0625 -67.9375 53.117188 -67.09375 51.265625 -65.40625 C 49.421875 -63.71875 47.734375 -61.144531 46.203125 -57.6875 C 44.679688 -54.238281 43.359375 -49.8125 42.234375 -44.40625 L 32.921875 0 Z M 1.84375 0 "/></g></g></g><g fill="#ffffff" fill-opacity="1"><g transform="translate(1151.081207, 1160.827678)"><g><path d="M 32.59375 1.609375 C 27.9375 1.609375 23.640625 0.507812 19.703125 -1.6875 C 15.773438 -3.882812 12.632812 -7.507812 10.28125 -12.5625 C 7.925781 -17.625 6.75 -24.460938 6.75 -33.078125 C 6.75 -37.523438 7.253906 -42.394531 8.265625 -47.6875 C 9.285156 -52.988281 10.851562 -58.273438 12.96875 -63.546875 C 15.082031 -68.828125 17.742188 -73.660156 20.953125 -78.046875 C 24.171875 -82.441406 27.945312 -85.960938 32.28125 -88.609375 C 36.613281 -91.253906 41.539062 -92.578125 47.0625 -92.578125 C 50.375 -92.578125 53.128906 -92.082031 55.328125 -91.09375 C 57.523438 -90.101562 59.460938 -88.695312 61.140625 -86.875 C 62.828125 -85.0625 64.476562 -82.894531 66.09375 -80.375 L 66.734375 -80.375 C 66.734375 -81.070312 66.796875 -82.554688 66.921875 -84.828125 C 67.054688 -87.109375 67.285156 -89.707031 67.609375 -92.625 C 67.929688 -95.539062 68.359375 -98.257812 68.890625 -100.78125 L 73.875 -124.953125 L 105.265625 -124.953125 L 78.78125 0 L 53.96875 0 L 54.765625 -9.875 L 54.125 -9.875 C 52.625 -7.789062 50.9375 -5.878906 49.0625 -4.140625 C 47.1875 -2.398438 44.9375 -1.007812 42.3125 0.03125 C 39.695312 1.082031 36.457031 1.609375 32.59375 1.609375 Z M 45.375 -23.359375 C 46.976562 -23.359375 48.472656 -23.851562 49.859375 -24.84375 C 51.253906 -25.84375 52.523438 -27.179688 53.671875 -28.859375 C 54.828125 -30.546875 55.859375 -32.488281 56.765625 -34.6875 C 57.679688 -36.882812 58.457031 -39.210938 59.09375 -41.671875 C 59.738281 -44.140625 60.222656 -46.601562 60.546875 -49.0625 C 60.867188 -51.519531 61.03125 -53.847656 61.03125 -56.046875 C 61.03125 -59.523438 60.503906 -62.320312 59.453125 -64.4375 C 58.410156 -66.550781 56.796875 -67.609375 54.609375 -67.609375 C 52.890625 -67.609375 51.226562 -66.976562 49.625 -65.71875 C 48.019531 -64.46875 46.546875 -62.753906 45.203125 -60.578125 C 43.867188 -58.410156 42.691406 -55.921875 41.671875 -53.109375 C 40.660156 -50.304688 39.875 -47.351562 39.3125 -44.25 C 38.75 -41.144531 38.46875 -38.007812 38.46875 -34.84375 C 38.46875 -31.15625 39.039062 -28.316406 40.1875 -26.328125 C 41.34375 -24.347656 43.070312 -23.359375 45.375 -23.359375 Z M 45.375 -23.359375 "/></g></g></g><g fill="#ffffff" fill-opacity="1"><g transform="translate(1250.405859, 1160.827678)"><g><path d="M 1.84375 0 L 21.03125 -90.984375 L 52.28125 -90.984375 L 32.921875 0 Z M 40.15625 -99.65625 C 35.757812 -99.65625 32.101562 -100.492188 29.1875 -102.171875 C 26.269531 -103.859375 24.8125 -106.789062 24.8125 -110.96875 C 24.8125 -114.613281 25.535156 -117.679688 26.984375 -120.171875 C 28.429688 -122.660156 30.503906 -124.546875 33.203125 -125.828125 C 35.910156 -127.109375 39.160156 -127.75 42.953125 -127.75 C 47.078125 -127.75 50.648438 -126.90625 53.671875 -125.21875 C 56.703125 -123.539062 58.21875 -120.613281 58.21875 -116.4375 C 58.21875 -111.40625 56.742188 -107.347656 53.796875 -104.265625 C 50.859375 -101.191406 46.3125 -99.65625 40.15625 -99.65625 Z M 40.15625 -99.65625 "/></g></g></g><g fill="#ffffff" fill-opacity="1"><g transform="translate(1303.882184, 1160.827678)"><g><path d="M -6.578125 39.5 L 21.03125 -90.984375 L 45.84375 -90.984375 L 44.890625 -80.78125 L 45.53125 -80.78125 C 47.1875 -83.351562 49.03125 -85.519531 51.0625 -87.28125 C 53.101562 -89.050781 55.378906 -90.375 57.890625 -91.25 C 60.410156 -92.132812 63.195312 -92.578125 66.25 -92.578125 C 71.707031 -92.578125 76.441406 -91.265625 80.453125 -88.640625 C 84.472656 -86.023438 87.578125 -82.210938 89.765625 -77.203125 C 91.960938 -72.203125 93.0625 -66.140625 93.0625 -59.015625 C 93.0625 -53.023438 92.445312 -47.097656 91.21875 -41.234375 C 89.988281 -35.367188 88.222656 -29.851562 85.921875 -24.6875 C 83.617188 -19.519531 80.796875 -14.96875 77.453125 -11.03125 C 74.109375 -7.101562 70.332031 -4.015625 66.125 -1.765625 C 61.925781 0.484375 57.3125 1.609375 52.28125 1.609375 C 49.539062 1.609375 47.035156 1.125 44.765625 0.15625 C 42.492188 -0.800781 40.445312 -2.148438 38.625 -3.890625 C 36.800781 -5.628906 35.164062 -7.675781 33.71875 -10.03125 L 33.078125 -10.03125 C 32.703125 -5.75 32.234375 -1.484375 31.671875 2.765625 C 31.109375 7.023438 30.082031 12.6875 28.59375 19.75 L 24.484375 39.5 Z M 46.015625 -23.359375 C 47.722656 -23.359375 49.351562 -23.988281 50.90625 -25.25 C 52.457031 -26.507812 53.863281 -28.222656 55.125 -30.390625 C 56.382812 -32.554688 57.484375 -35.03125 58.421875 -37.8125 C 59.359375 -40.601562 60.078125 -43.5625 60.578125 -46.6875 C 61.085938 -49.820312 61.34375 -52.941406 61.34375 -56.046875 C 61.34375 -59.796875 60.765625 -62.660156 59.609375 -64.640625 C 58.460938 -66.617188 56.738281 -67.609375 54.4375 -67.609375 C 52.832031 -67.609375 51.347656 -67.125 49.984375 -66.15625 C 48.617188 -65.195312 47.359375 -63.890625 46.203125 -62.234375 C 45.054688 -60.578125 44.023438 -58.660156 43.109375 -56.484375 C 42.203125 -54.316406 41.441406 -52 40.828125 -49.53125 C 40.210938 -47.070312 39.742188 -44.597656 39.421875 -42.109375 C 39.097656 -39.628906 38.9375 -37.207031 38.9375 -34.84375 C 38.9375 -31.414062 39.566406 -28.644531 40.828125 -26.53125 C 42.085938 -24.414062 43.816406 -23.359375 46.015625 -23.359375 Z M 46.015625 -23.359375 "/></g></g></g><g fill="#ffffff" fill-opacity="1"><g transform="translate(1403.688594, 1160.827678)"><g><path d="M 1.84375 0 L 21.03125 -90.984375 L 52.28125 -90.984375 L 32.921875 0 Z M 40.15625 -99.65625 C 35.757812 -99.65625 32.101562 -100.492188 29.1875 -102.171875 C 26.269531 -103.859375 24.8125 -106.789062 24.8125 -110.96875 C 24.8125 -114.613281 25.535156 -117.679688 26.984375 -120.171875 C 28.429688 -122.660156 30.503906 -124.546875 33.203125 -125.828125 C 35.910156 -127.109375 39.160156 -127.75 42.953125 -127.75 C 47.078125 -127.75 50.648438 -126.90625 53.671875 -125.21875 C 56.703125 -123.539062 58.21875 -120.613281 58.21875 -116.4375 C 58.21875 -111.40625 56.742188 -107.347656 53.796875 -104.265625 C 50.859375 -101.191406 46.3125 -99.65625 40.15625 -99.65625 Z M 40.15625 -99.65625 "/></g></g></g><g fill="#ffffff" fill-opacity="1"><g transform="translate(1457.164879, 1160.827678)"><g><path d="M 32.921875 1.609375 C 24.992188 1.609375 18.984375 -0.0859375 14.890625 -3.484375 C 10.796875 -6.890625 8.75 -12.472656 8.75 -20.234375 C 8.75 -22.429688 8.945312 -24.945312 9.34375 -27.78125 C 9.75 -30.625 10.195312 -33.140625 10.6875 -35.328125 L 17.421875 -67.609375 L 5.0625 -67.609375 L 8.34375 -82.875 L 25.859375 -89.9375 L 36.859375 -109.203125 L 57.578125 -109.203125 L 53.640625 -90.984375 L 76.765625 -90.984375 L 71.703125 -67.609375 L 48.5 -67.609375 L 41.75 -36.859375 C 41.4375 -35.304688 41.144531 -33.738281 40.875 -32.15625 C 40.601562 -30.582031 40.46875 -29.335938 40.46875 -28.421875 C 40.46875 -26.609375 40.9375 -25.3125 41.875 -24.53125 C 42.8125 -23.75 44.03125 -23.359375 45.53125 -23.359375 C 47.5625 -23.359375 49.863281 -23.71875 52.4375 -24.4375 C 55.007812 -25.164062 57.601562 -26.066406 60.21875 -27.140625 L 60.21875 -3.78125 C 56.851562 -2.113281 52.929688 -0.800781 48.453125 0.15625 C 43.984375 1.125 38.804688 1.609375 32.921875 1.609375 Z M 32.921875 1.609375 "/></g></g></g><g fill="#ffffff" fill-opacity="1"><g transform="translate(1532.320821, 1160.827678)"><g><path d="M 41.75 1.609375 C 34.3125 1.609375 27.984375 0.242188 22.765625 -2.484375 C 17.546875 -5.210938 13.570312 -9.1875 10.84375 -14.40625 C 8.113281 -19.632812 6.75 -25.96875 6.75 -33.40625 C 6.75 -39.613281 7.441406 -45.617188 8.828125 -51.421875 C 10.222656 -57.234375 12.3125 -62.628906 15.09375 -67.609375 C 17.875 -72.585938 21.328125 -76.953125 25.453125 -80.703125 C 29.578125 -84.453125 34.351562 -87.367188 39.78125 -89.453125 C 45.21875 -91.535156 51.3125 -92.578125 58.0625 -92.578125 C 65.5 -92.578125 71.828125 -91.210938 77.046875 -88.484375 C 82.265625 -85.753906 86.238281 -81.78125 88.96875 -76.5625 C 91.695312 -71.34375 93.0625 -65.015625 93.0625 -57.578125 C 93.0625 -51.367188 92.363281 -45.359375 90.96875 -39.546875 C 89.582031 -33.734375 87.5 -28.335938 84.71875 -23.359375 C 81.9375 -18.390625 78.484375 -14.03125 74.359375 -10.28125 C 70.234375 -6.53125 65.453125 -3.609375 60.015625 -1.515625 C 54.585938 0.566406 48.5 1.609375 41.75 1.609375 Z M 45.203125 -21.6875 C 47.023438 -21.6875 48.753906 -22.378906 50.390625 -23.765625 C 52.023438 -25.160156 53.507812 -27.070312 54.84375 -29.5 C 56.1875 -31.9375 57.335938 -34.722656 58.296875 -37.859375 C 59.265625 -40.992188 60.015625 -44.328125 60.546875 -47.859375 C 61.078125 -51.390625 61.34375 -54.945312 61.34375 -58.53125 C 61.34375 -60.894531 61.0625 -62.863281 60.5 -64.4375 C 59.9375 -66.019531 59.144531 -67.210938 58.125 -68.015625 C 57.113281 -68.816406 55.882812 -69.21875 54.4375 -69.21875 C 52.625 -69.21875 50.898438 -68.519531 49.265625 -67.125 C 47.628906 -65.738281 46.15625 -63.835938 44.84375 -61.421875 C 43.53125 -59.015625 42.390625 -56.242188 41.421875 -53.109375 C 40.460938 -49.984375 39.726562 -46.640625 39.21875 -43.078125 C 38.71875 -39.515625 38.46875 -35.941406 38.46875 -32.359375 C 38.46875 -28.828125 39.054688 -26.164062 40.234375 -24.375 C 41.410156 -22.582031 43.066406 -21.6875 45.203125 -21.6875 Z M 45.203125 -21.6875 "/></g></g></g><g fill="#ffffff" fill-opacity="1"><g transform="translate(1632.127191, 1160.827678)"><g><path d="M 31.71875 1.609375 C 26.09375 1.609375 21.515625 0.429688 17.984375 -1.921875 C 14.453125 -4.273438 11.851562 -7.40625 10.1875 -11.3125 C 8.53125 -15.226562 7.703125 -19.515625 7.703125 -24.171875 C 7.703125 -27.222656 7.890625 -30.335938 8.265625 -33.515625 C 8.640625 -36.703125 9.125 -39.71875 9.71875 -42.5625 L 19.921875 -90.984375 L 50.984375 -90.984375 L 40.625 -41.4375 C 40.3125 -40.039062 39.976562 -38.269531 39.625 -36.125 C 39.28125 -33.988281 39.109375 -31.984375 39.109375 -30.109375 C 39.109375 -27.804688 39.707031 -26.078125 40.90625 -24.921875 C 42.113281 -23.773438 43.546875 -23.203125 45.203125 -23.203125 C 47.023438 -23.203125 48.859375 -24.03125 50.703125 -25.6875 C 52.554688 -27.351562 54.296875 -29.925781 55.921875 -33.40625 C 57.554688 -36.882812 58.9375 -41.328125 60.0625 -46.734375 L 69.375 -90.984375 L 100.453125 -90.984375 L 81.265625 0 L 56.375 0 L 57.40625 -12.6875 L 56.765625 -12.6875 C 54.785156 -9.3125 52.59375 -6.566406 50.1875 -4.453125 C 47.78125 -2.335938 45.0625 -0.800781 42.03125 0.15625 C 39.007812 1.125 35.570312 1.609375 31.71875 1.609375 Z M 31.71875 1.609375 "/></g></g></g><g fill="#ffffff" fill-opacity="1"><g transform="translate(1734.422693, 1160.827678)"><g><path d="M 31.078125 1.609375 C 25.023438 1.609375 19.628906 1.175781 14.890625 0.3125 C 10.148438 -0.539062 6.015625 -1.796875 2.484375 -3.453125 L 2.484375 -28.421875 C 7.410156 -25.742188 11.988281 -23.867188 16.21875 -22.796875 C 20.445312 -21.734375 24.726562 -21.203125 29.0625 -21.203125 C 30.351562 -21.203125 31.851562 -21.320312 33.5625 -21.5625 C 35.28125 -21.800781 36.78125 -22.320312 38.0625 -23.125 C 39.34375 -23.925781 39.984375 -25.15625 39.984375 -26.8125 C 39.984375 -28.050781 39.703125 -29.164062 39.140625 -30.15625 C 38.578125 -31.144531 37.410156 -32.265625 35.640625 -33.515625 C 33.878906 -34.773438 31.15625 -36.425781 27.46875 -38.46875 C 23.71875 -40.550781 20.632812 -42.820312 18.21875 -45.28125 C 15.8125 -47.75 14.03125 -50.492188 12.875 -53.515625 C 11.726562 -56.546875 11.15625 -59.988281 11.15625 -63.84375 C 11.15625 -69.570312 12.492188 -74.585938 15.171875 -78.890625 C 17.847656 -83.203125 21.957031 -86.5625 27.5 -88.96875 C 33.039062 -91.375 40.039062 -92.578125 48.5 -92.578125 C 54.4375 -92.578125 59.894531 -91.867188 64.875 -90.453125 C 69.851562 -89.035156 74.644531 -86.910156 79.25 -84.078125 L 69.546875 -63.84375 C 66.546875 -65.820312 63.128906 -67.570312 59.296875 -69.09375 C 55.472656 -70.625 51.984375 -71.390625 48.828125 -71.390625 C 46.953125 -71.390625 45.460938 -70.929688 44.359375 -70.015625 C 43.265625 -69.109375 42.71875 -67.742188 42.71875 -65.921875 C 42.71875 -64.910156 43.078125 -63.972656 43.796875 -63.109375 C 44.523438 -62.253906 45.691406 -61.382812 47.296875 -60.5 C 48.898438 -59.625 50.960938 -58.539062 53.484375 -57.25 C 57.597656 -55.21875 60.976562 -52.914062 63.625 -50.34375 C 66.28125 -47.78125 68.265625 -44.941406 69.578125 -41.828125 C 70.890625 -38.722656 71.546875 -35.300781 71.546875 -31.5625 C 71.546875 -24.0625 69.882812 -17.863281 66.5625 -12.96875 C 63.25 -8.070312 58.566406 -4.414062 52.515625 -2 C 46.460938 0.40625 39.316406 1.609375 31.078125 1.609375 Z M 31.078125 1.609375 "/></g></g></g></svg>