<svg width="687" height="386" viewBox="0 0 687 386" fill="none" xmlns="http://www.w3.org/2000/svg">
<g clip-path="url(#clip0_58_1649)">
<circle cx="343.5" cy="343.5" r="343.5" fill="#4946FF" fill-opacity="0.25"/>
<circle cx="343" cy="352" r="309" fill="#4946FF" fill-opacity="0.25"/>
<circle cx="343.188" cy="344.187" r="269.093" fill="#211F76"/>
<g clip-path="url(#clip1_58_1649)">
<rect x="101.454" y="102.454" width="483.468" height="483.468" rx="241.734" fill="#6360FF"/>
<rect x="107.825" y="320.201" width="179.52" height="74.5814" rx="37.2907" fill="#413DFF"/>
<rect x="367.923" y="121.942" width="216.998" height="73.0823" rx="36.5412" fill="#413DFF"/>
<rect x="403.152" y="351.683" width="164.154" height="63.7128" rx="31.8564" fill="#413DFF"/>
<rect x="150.925" y="268.482" width="73.0823" height="77.2049" rx="29.9825" fill="#413DFF"/>
<circle cx="217.074" cy="248.806" r="126.114" fill="#8280FF"/>
<path fill-rule="evenodd" clip-rule="evenodd" d="M287.152 353.673C267.109 367.093 243.006 374.919 217.074 374.919C178.194 374.919 143.424 357.326 120.29 329.666C126.883 323.779 135.582 320.201 145.116 320.201H250.054C269.36 320.201 285.239 334.872 287.152 353.673Z" fill="#5350FF"/>
<rect x="75.219" y="195.024" width="299.45" height="106.063" rx="37.4781" fill="#413DFF"/>
<path fill-rule="evenodd" clip-rule="evenodd" d="M331.874 301.088C339.139 285.16 343.187 267.455 343.187 248.806C343.187 229.569 338.88 211.338 331.178 195.024H112.697C109.086 195.024 105.594 195.535 102.29 196.488C95.0139 212.426 90.9597 230.142 90.9597 248.806C90.9597 266.796 94.7266 283.906 101.515 299.391C105.046 300.493 108.802 301.088 112.697 301.088H331.874Z" fill="#5350FF"/>
</g>
<rect x="296.34" y="234.002" width="153.285" height="42.3503" rx="21.1751" fill="#A09EFF"/>
<path fill-rule="evenodd" clip-rule="evenodd" d="M340.17 276.352C342.145 267.486 343.187 258.267 343.187 248.806C343.187 243.797 342.895 238.857 342.328 234.002L317.515 234.002C305.82 234.002 296.34 243.482 296.34 255.177C296.34 266.872 305.82 276.352 317.515 276.352H340.17Z" fill="#B7B5FF"/>
<rect x="433.135" y="288.72" width="52.0946" height="42.3503" rx="21.1751" fill="#A09EFF"/>
<rect x="185.779" y="175.911" width="52.0946" height="42.3503" rx="21.1751" fill="#B7B5FF"/>
<rect x="77.0928" y="373.795" width="150.662" height="36.3538" rx="18.1769" fill="#A09EFF"/>
<rect x="459.37" y="175.911" width="118.056" height="47.972" rx="23.986" fill="#A09EFF"/>
</g>
<defs>
<clipPath id="clip0_58_1649">
<rect width="687" height="386" fill="white"/>
</clipPath>
<clipPath id="clip1_58_1649">
<rect x="101.454" y="102.454" width="483.468" height="483.468" rx="241.734" fill="white"/>
</clipPath>
</defs>
</svg>
