<svg width="194" height="196" viewBox="0 0 194 196" fill="none" xmlns="http://www.w3.org/2000/svg">
<path fill-rule="evenodd" clip-rule="evenodd" d="M101.087 59.3276C99.6957 57.4758 99.0002 56.5499 98.1485 56.2189C97.4017 55.9286 96.5734 55.9286 95.8273 56.2189C94.9749 56.5499 94.2794 57.4758 92.8885 59.3276L73.6889 84.8882C71.7053 87.5287 70.7135 88.8493 70.7359 89.9543C70.7554 90.9166 71.2061 91.819 71.9636 92.412C72.8339 93.0939 74.4853 93.0939 77.7881 93.0939H116.187C119.49 93.0939 121.142 93.0939 122.012 92.412C122.769 91.819 123.22 90.9166 123.239 89.9543C123.262 88.8493 122.27 87.5287 120.287 84.8882L101.087 59.3276ZM87.1671 19.16C87.1671 17.3654 87.1671 16.4681 87.516 15.7827C87.8236 15.1798 88.3134 14.6897 88.9169 14.3824C89.6019 14.0332 90.4994 14.0332 92.2937 14.0332H101.682C103.476 14.0332 104.374 14.0332 105.059 14.3824C105.662 14.6897 106.152 15.1798 106.46 15.7827C106.809 16.4681 106.809 17.3654 106.809 19.16V39.3894L121.143 25.077C122.411 23.8107 123.045 23.1776 123.776 22.9404C124.419 22.7317 125.111 22.7317 125.754 22.9404C126.486 23.1776 127.119 23.8107 128.387 25.077L135.02 31.6998C136.292 32.9695 136.928 33.6044 137.166 34.3367C137.376 34.9808 137.376 35.6747 137.166 36.3188C136.928 37.0511 136.292 37.6859 135.02 38.9558L120.697 53.2572H140.965C142.76 53.2572 143.657 53.2572 144.342 53.6062C144.946 53.9131 145.435 54.4036 145.743 55.0064C146.092 55.692 146.092 56.5888 146.092 58.3838V67.742C146.092 69.5363 146.092 70.4337 145.743 71.1193C145.435 71.7222 144.946 72.212 144.342 72.5196C143.657 72.8685 142.76 72.8686 140.965 72.8686H53.0106C51.216 72.8686 50.3187 72.8685 49.6333 72.5196C49.0304 72.212 48.5402 71.7222 48.233 71.1193C47.8838 70.4337 47.8838 69.5363 47.8838 67.742V58.3838C47.8838 56.5888 47.8838 55.692 48.233 55.0064C48.5402 54.4036 49.0304 53.9131 49.6333 53.6062C50.3187 53.2572 51.216 53.2572 53.0106 53.2572H73.278L58.9551 38.9558C57.6835 37.6862 57.0477 37.0514 56.8094 36.3191C56.6 35.675 56.5999 34.9811 56.8094 34.337C57.0476 33.6047 57.6834 32.9698 58.9551 31.7001L65.588 25.0772C66.8561 23.811 67.4902 23.1779 68.2212 22.9407C68.8641 22.732 69.5567 22.732 70.1996 22.9407C70.9306 23.1779 71.5646 23.811 72.8328 25.0772L87.1671 39.3894V19.16Z" fill="url(#paint0_linear_623_6616)"/>
<path d="M10.9844 172.203C10.901 171.464 10.5573 170.891 9.95312 170.484C9.34896 170.073 8.58854 169.867 7.67188 169.867C7.01563 169.867 6.44792 169.971 5.96875 170.18C5.48958 170.383 5.11719 170.664 4.85156 171.023C4.59115 171.378 4.46094 171.781 4.46094 172.234C4.46094 172.615 4.54948 172.943 4.72656 173.219C4.90885 173.495 5.14583 173.727 5.4375 173.914C5.73438 174.096 6.05208 174.25 6.39063 174.375C6.72917 174.495 7.05469 174.594 7.36719 174.672L8.92969 175.078C9.4401 175.203 9.96354 175.372 10.5 175.586C11.0365 175.799 11.5339 176.081 11.9922 176.43C12.4505 176.779 12.8203 177.211 13.1016 177.727C13.388 178.242 13.5313 178.859 13.5313 179.578C13.5313 180.484 13.2969 181.289 12.8281 181.992C12.3646 182.695 11.6901 183.25 10.8047 183.656C9.92448 184.063 8.85938 184.266 7.60937 184.266C6.41146 184.266 5.375 184.076 4.5 183.695C3.625 183.315 2.9401 182.776 2.44531 182.078C1.95052 181.375 1.67708 180.542 1.625 179.578H4.04688C4.09375 180.156 4.28125 180.638 4.60938 181.023C4.94271 181.404 5.36719 181.687 5.88281 181.875C6.40365 182.057 6.97396 182.148 7.59375 182.148C8.27604 182.148 8.88281 182.042 9.41406 181.828C9.95052 181.609 10.3724 181.307 10.6797 180.922C10.987 180.531 11.1406 180.076 11.1406 179.555C11.1406 179.081 11.0052 178.693 10.7344 178.391C10.4688 178.089 10.1068 177.839 9.64844 177.641C9.19531 177.443 8.68229 177.268 8.10938 177.117L6.21875 176.602C4.9375 176.253 3.92188 175.74 3.17188 175.062C2.42708 174.385 2.05469 173.49 2.05469 172.375C2.05469 171.453 2.30469 170.648 2.80469 169.961C3.30469 169.273 3.98177 168.74 4.83594 168.359C5.6901 167.974 6.65365 167.781 7.72656 167.781C8.8099 167.781 9.76563 167.971 10.5938 168.352C11.4271 168.732 12.0833 169.255 12.5625 169.922C13.0417 170.583 13.2917 171.344 13.3125 172.203H10.9844ZM16.2285 188.5V172H18.5098V173.945H18.7051C18.8405 173.695 19.0358 173.406 19.291 173.078C19.5462 172.75 19.9004 172.464 20.3535 172.219C20.8066 171.969 21.4056 171.844 22.1504 171.844C23.1191 171.844 23.9837 172.089 24.7441 172.578C25.5046 173.068 26.1009 173.773 26.5332 174.695C26.9707 175.617 27.1895 176.727 27.1895 178.023C27.1895 179.32 26.9733 180.432 26.541 181.359C26.1087 182.281 25.515 182.992 24.7598 183.492C24.0046 183.987 23.1426 184.234 22.1738 184.234C21.4447 184.234 20.8483 184.112 20.3848 183.867C19.9264 183.622 19.5671 183.336 19.3066 183.008C19.0462 182.68 18.8457 182.388 18.7051 182.133H18.5645V188.5H16.2285ZM18.5176 178C18.5176 178.844 18.64 179.583 18.8848 180.219C19.1296 180.854 19.4837 181.352 19.9473 181.711C20.4108 182.065 20.9785 182.242 21.6504 182.242C22.3483 182.242 22.9316 182.057 23.4004 181.687C23.8691 181.312 24.2233 180.805 24.4629 180.164C24.7077 179.523 24.8301 178.802 24.8301 178C24.8301 177.208 24.7103 176.497 24.4707 175.867C24.2363 175.237 23.8822 174.74 23.4082 174.375C22.9395 174.01 22.3535 173.828 21.6504 173.828C20.9733 173.828 20.4004 174.003 19.9316 174.352C19.4681 174.701 19.1165 175.187 18.877 175.812C18.6374 176.437 18.5176 177.167 18.5176 178ZM33.2988 184.266C32.5384 184.266 31.8509 184.125 31.2363 183.844C30.6217 183.557 30.1348 183.143 29.7754 182.602C29.4212 182.06 29.2441 181.396 29.2441 180.609C29.2441 179.932 29.3743 179.375 29.6348 178.937C29.8952 178.5 30.2467 178.154 30.6895 177.898C31.1322 177.643 31.627 177.451 32.1738 177.32C32.7207 177.19 33.278 177.091 33.8457 177.023C34.5645 176.94 35.1478 176.872 35.5957 176.82C36.0436 176.763 36.3691 176.672 36.5723 176.547C36.7754 176.422 36.877 176.219 36.877 175.937V175.883C36.877 175.201 36.6842 174.672 36.2988 174.297C35.9186 173.922 35.3509 173.734 34.5957 173.734C33.8092 173.734 33.1895 173.909 32.7363 174.258C32.2884 174.602 31.9785 174.984 31.8066 175.406L29.6113 174.906C29.8717 174.177 30.252 173.589 30.752 173.141C31.2572 172.687 31.8379 172.359 32.4941 172.156C33.1504 171.948 33.8405 171.844 34.5645 171.844C35.0436 171.844 35.5514 171.901 36.0879 172.016C36.6296 172.125 37.1348 172.328 37.6035 172.625C38.0775 172.922 38.4655 173.346 38.7676 173.898C39.0697 174.445 39.2207 175.156 39.2207 176.031V184H36.9395V182.359H36.8457C36.6947 182.661 36.4681 182.958 36.166 183.25C35.8639 183.542 35.4759 183.784 35.002 183.977C34.528 184.169 33.9603 184.266 33.2988 184.266ZM33.8066 182.391C34.4525 182.391 35.0046 182.263 35.4629 182.008C35.9264 181.753 36.278 181.419 36.5176 181.008C36.7624 180.591 36.8848 180.146 36.8848 179.672V178.125C36.8014 178.208 36.64 178.286 36.4004 178.359C36.166 178.427 35.8978 178.487 35.5957 178.539C35.2936 178.586 34.9993 178.63 34.7129 178.672C34.4264 178.708 34.1868 178.74 33.9941 178.766C33.541 178.823 33.127 178.919 32.752 179.055C32.3822 179.19 32.0853 179.385 31.8613 179.641C31.6426 179.891 31.5332 180.224 31.5332 180.641C31.5332 181.219 31.7467 181.656 32.1738 181.953C32.6009 182.245 33.1452 182.391 33.8066 182.391ZM47.3867 184.242C46.2253 184.242 45.2253 183.979 44.3867 183.453C43.5534 182.922 42.9128 182.19 42.4648 181.258C42.0169 180.326 41.793 179.258 41.793 178.055C41.793 176.836 42.0221 175.76 42.4805 174.828C42.9388 173.891 43.5846 173.159 44.418 172.633C45.2513 172.107 46.2331 171.844 47.3633 171.844C48.2747 171.844 49.0872 172.013 49.8008 172.352C50.5143 172.685 51.0898 173.154 51.5273 173.758C51.9701 174.362 52.2331 175.068 52.3164 175.875H50.043C49.918 175.312 49.6315 174.828 49.1836 174.422C48.7409 174.016 48.1471 173.812 47.4023 173.812C46.7513 173.812 46.181 173.984 45.6914 174.328C45.207 174.667 44.8294 175.151 44.5586 175.781C44.2878 176.406 44.1523 177.146 44.1523 178C44.1523 178.875 44.2852 179.63 44.5508 180.266C44.8164 180.901 45.1914 181.393 45.6758 181.742C46.1654 182.091 46.7409 182.266 47.4023 182.266C47.8451 182.266 48.2461 182.185 48.6055 182.023C48.9701 181.857 49.2747 181.62 49.5195 181.312C49.7695 181.005 49.944 180.635 50.043 180.203H52.3164C52.2331 180.979 51.9805 181.672 51.5586 182.281C51.1367 182.891 50.5716 183.37 49.8633 183.719C49.1602 184.068 48.3346 184.242 47.3867 184.242ZM59.9863 184.242C58.804 184.242 57.7858 183.99 56.9316 183.484C56.0827 182.974 55.4264 182.258 54.9629 181.336C54.5046 180.409 54.2754 179.323 54.2754 178.078C54.2754 176.849 54.5046 175.766 54.9629 174.828C55.4264 173.891 56.0723 173.159 56.9004 172.633C57.7337 172.107 58.7077 171.844 59.8223 171.844C60.4993 171.844 61.1556 171.956 61.791 172.18C62.4264 172.404 62.9967 172.755 63.502 173.234C64.0072 173.714 64.4056 174.336 64.6973 175.102C64.9889 175.862 65.1348 176.786 65.1348 177.875V178.703H55.5957V176.953H62.8457C62.8457 176.339 62.7207 175.794 62.4707 175.32C62.2207 174.841 61.8691 174.464 61.416 174.187C60.9681 173.911 60.4421 173.773 59.8379 173.773C59.1816 173.773 58.6087 173.935 58.1191 174.258C57.6348 174.576 57.2598 174.992 56.9941 175.508C56.7337 176.018 56.6035 176.573 56.6035 177.172V178.539C56.6035 179.341 56.7441 180.023 57.0254 180.586C57.3118 181.148 57.7103 181.578 58.2207 181.875C58.7311 182.167 59.3275 182.312 60.0098 182.312C60.4525 182.312 60.8561 182.25 61.2207 182.125C61.5853 181.995 61.9004 181.802 62.166 181.547C62.4316 181.292 62.6348 180.977 62.7754 180.602L64.9863 181C64.8092 181.651 64.4915 182.221 64.0332 182.711C63.5801 183.195 63.0098 183.573 62.3223 183.844C61.64 184.109 60.8613 184.242 59.9863 184.242ZM72.2188 184.234C71.25 184.234 70.3854 183.987 69.625 183.492C68.8698 182.992 68.276 182.281 67.8438 181.359C67.4167 180.432 67.2031 179.32 67.2031 178.023C67.2031 176.727 67.4193 175.617 67.8516 174.695C68.2891 173.773 68.888 173.068 69.6484 172.578C70.4089 172.089 71.2708 171.844 72.2344 171.844C72.9792 171.844 73.5781 171.969 74.0313 172.219C74.4896 172.464 74.8438 172.75 75.0938 173.078C75.349 173.406 75.5469 173.695 75.6875 173.945H75.8281V168H78.1641V184H75.8828V182.133H75.6875C75.5469 182.388 75.3438 182.68 75.0781 183.008C74.8177 183.336 74.4583 183.622 74 183.867C73.5417 184.112 72.9479 184.234 72.2188 184.234ZM72.7344 182.242C73.4063 182.242 73.974 182.065 74.4375 181.711C74.9063 181.352 75.2604 180.854 75.5 180.219C75.7448 179.583 75.8672 178.844 75.8672 178C75.8672 177.167 75.7474 176.437 75.5078 175.812C75.2682 175.187 74.9167 174.701 74.4531 174.352C73.9896 174.003 73.4167 173.828 72.7344 173.828C72.0313 173.828 71.4453 174.01 70.9766 174.375C70.5078 174.74 70.1536 175.237 69.9141 175.867C69.6797 176.497 69.5625 177.208 69.5625 178C69.5625 178.802 69.6823 179.523 69.9219 180.164C70.1615 180.805 70.5156 181.312 70.9844 181.687C71.4583 182.057 72.0417 182.242 72.7344 182.242ZM87.5078 184V168H93.2109C94.4505 168 95.4792 168.214 96.2969 168.641C97.1198 169.068 97.7344 169.659 98.1406 170.414C98.5469 171.164 98.75 172.031 98.75 173.016C98.75 173.995 98.5443 174.857 98.1328 175.602C97.7266 176.341 97.112 176.917 96.2891 177.328C95.4714 177.74 94.4427 177.945 93.2031 177.945H88.8828V175.867H92.9844C93.7656 175.867 94.401 175.755 94.8906 175.531C95.3854 175.307 95.7474 174.982 95.9766 174.555C96.2057 174.128 96.3203 173.615 96.3203 173.016C96.3203 172.411 96.2031 171.888 95.9688 171.445C95.7396 171.003 95.3776 170.664 94.8828 170.43C94.3932 170.19 93.75 170.07 92.9531 170.07H89.9219V184H87.5078ZM95.4063 176.781L99.3594 184H96.6094L92.7344 176.781H95.4063ZM106.521 184.242C105.339 184.242 104.321 183.99 103.467 183.484C102.618 182.974 101.962 182.258 101.498 181.336C101.04 180.409 100.811 179.323 100.811 178.078C100.811 176.849 101.04 175.766 101.498 174.828C101.962 173.891 102.607 173.159 103.436 172.633C104.269 172.107 105.243 171.844 106.357 171.844C107.035 171.844 107.691 171.956 108.326 172.18C108.962 172.404 109.532 172.755 110.037 173.234C110.542 173.714 110.941 174.336 111.232 175.102C111.524 175.862 111.67 176.786 111.67 177.875V178.703H102.131V176.953H109.381C109.381 176.339 109.256 175.794 109.006 175.32C108.756 174.841 108.404 174.464 107.951 174.187C107.503 173.911 106.977 173.773 106.373 173.773C105.717 173.773 105.144 173.935 104.654 174.258C104.17 174.576 103.795 174.992 103.529 175.508C103.269 176.018 103.139 176.573 103.139 177.172V178.539C103.139 179.341 103.279 180.023 103.561 180.586C103.847 181.148 104.245 181.578 104.756 181.875C105.266 182.167 105.863 182.312 106.545 182.312C106.988 182.312 107.391 182.25 107.756 182.125C108.12 181.995 108.436 181.802 108.701 181.547C108.967 181.292 109.17 180.977 109.311 180.602L111.521 181C111.344 181.651 111.027 182.221 110.568 182.711C110.115 183.195 109.545 183.573 108.857 183.844C108.175 184.109 107.396 184.242 106.521 184.242ZM114.262 188.5V172H116.543V173.945H116.738C116.874 173.695 117.069 173.406 117.324 173.078C117.579 172.75 117.934 172.464 118.387 172.219C118.84 171.969 119.439 171.844 120.184 171.844C121.152 171.844 122.017 172.089 122.777 172.578C123.538 173.068 124.134 173.773 124.566 174.695C125.004 175.617 125.223 176.727 125.223 178.023C125.223 179.32 125.007 180.432 124.574 181.359C124.142 182.281 123.548 182.992 122.793 183.492C122.038 183.987 121.176 184.234 120.207 184.234C119.478 184.234 118.882 184.112 118.418 183.867C117.96 183.622 117.6 183.336 117.34 183.008C117.079 182.68 116.879 182.388 116.738 182.133H116.598V188.5H114.262ZM116.551 178C116.551 178.844 116.673 179.583 116.918 180.219C117.163 180.854 117.517 181.352 117.98 181.711C118.444 182.065 119.012 182.242 119.684 182.242C120.382 182.242 120.965 182.057 121.434 181.687C121.902 181.312 122.257 180.805 122.496 180.164C122.741 179.523 122.863 178.802 122.863 178C122.863 177.208 122.743 176.497 122.504 175.867C122.27 175.237 121.915 174.74 121.441 174.375C120.973 174.01 120.387 173.828 119.684 173.828C119.007 173.828 118.434 174.003 117.965 174.352C117.501 174.701 117.15 175.187 116.91 175.812C116.671 176.437 116.551 177.167 116.551 178ZM133.012 184.242C131.829 184.242 130.811 183.99 129.957 183.484C129.108 182.974 128.452 182.258 127.988 181.336C127.53 180.409 127.301 179.323 127.301 178.078C127.301 176.849 127.53 175.766 127.988 174.828C128.452 173.891 129.098 173.159 129.926 172.633C130.759 172.107 131.733 171.844 132.848 171.844C133.525 171.844 134.181 171.956 134.816 172.18C135.452 172.404 136.022 172.755 136.527 173.234C137.033 173.714 137.431 174.336 137.723 175.102C138.014 175.862 138.16 176.786 138.16 177.875V178.703H128.621V176.953H135.871C135.871 176.339 135.746 175.794 135.496 175.32C135.246 174.841 134.895 174.464 134.441 174.187C133.993 173.911 133.467 173.773 132.863 173.773C132.207 173.773 131.634 173.935 131.145 174.258C130.66 174.576 130.285 174.992 130.02 175.508C129.759 176.018 129.629 176.573 129.629 177.172V178.539C129.629 179.341 129.77 180.023 130.051 180.586C130.337 181.148 130.736 181.578 131.246 181.875C131.757 182.167 132.353 182.312 133.035 182.312C133.478 182.312 133.882 182.25 134.246 182.125C134.611 181.995 134.926 181.802 135.191 181.547C135.457 181.292 135.66 180.977 135.801 180.602L138.012 181C137.835 181.651 137.517 182.221 137.059 182.711C136.605 183.195 136.035 183.573 135.348 183.844C134.665 184.109 133.887 184.242 133.012 184.242ZM146.354 172V173.875H139.799V172H146.354ZM141.557 169.125H143.893V180.477C143.893 180.93 143.96 181.271 144.096 181.5C144.231 181.724 144.406 181.878 144.619 181.961C144.838 182.039 145.075 182.078 145.33 182.078C145.518 182.078 145.682 182.065 145.822 182.039C145.963 182.013 146.072 181.992 146.15 181.977L146.572 183.906C146.437 183.958 146.244 184.01 145.994 184.063C145.744 184.12 145.432 184.151 145.057 184.156C144.442 184.167 143.869 184.057 143.338 183.828C142.807 183.599 142.377 183.245 142.049 182.766C141.721 182.286 141.557 181.685 141.557 180.961V169.125ZM148.938 184V172H151.273V184H148.938ZM150.117 170.148C149.711 170.148 149.362 170.013 149.07 169.742C148.784 169.466 148.641 169.138 148.641 168.758C148.641 168.372 148.784 168.044 149.07 167.773C149.362 167.497 149.711 167.359 150.117 167.359C150.523 167.359 150.87 167.497 151.156 167.773C151.448 168.044 151.594 168.372 151.594 168.758C151.594 169.138 151.448 169.466 151.156 169.742C150.87 170.013 150.523 170.148 150.117 170.148ZM160.018 172V173.875H153.463V172H160.018ZM155.221 169.125H157.557V180.477C157.557 180.93 157.624 181.271 157.76 181.5C157.895 181.724 158.07 181.878 158.283 181.961C158.502 182.039 158.739 182.078 158.994 182.078C159.182 182.078 159.346 182.065 159.486 182.039C159.627 182.013 159.736 181.992 159.814 181.977L160.236 183.906C160.101 183.958 159.908 184.01 159.658 184.063C159.408 184.12 159.096 184.151 158.721 184.156C158.106 184.167 157.533 184.057 157.002 183.828C156.471 183.599 156.041 183.245 155.713 182.766C155.385 182.286 155.221 181.685 155.221 180.961V169.125ZM162.602 184V172H164.938V184H162.602ZM163.781 170.148C163.375 170.148 163.026 170.013 162.734 169.742C162.448 169.466 162.305 169.138 162.305 168.758C162.305 168.372 162.448 168.044 162.734 167.773C163.026 167.497 163.375 167.359 163.781 167.359C164.188 167.359 164.534 167.497 164.82 167.773C165.112 168.044 165.258 168.372 165.258 168.758C165.258 169.138 165.112 169.466 164.82 169.742C164.534 170.013 164.188 170.148 163.781 170.148ZM173.135 184.242C172.01 184.242 171.028 183.984 170.189 183.469C169.351 182.953 168.7 182.232 168.236 181.305C167.773 180.378 167.541 179.294 167.541 178.055C167.541 176.81 167.773 175.721 168.236 174.789C168.7 173.857 169.351 173.133 170.189 172.617C171.028 172.102 172.01 171.844 173.135 171.844C174.26 171.844 175.242 172.102 176.08 172.617C176.919 173.133 177.57 173.857 178.033 174.789C178.497 175.721 178.729 176.81 178.729 178.055C178.729 179.294 178.497 180.378 178.033 181.305C177.57 182.232 176.919 182.953 176.08 183.469C175.242 183.984 174.26 184.242 173.135 184.242ZM173.143 182.281C173.872 182.281 174.476 182.089 174.955 181.703C175.434 181.318 175.788 180.805 176.018 180.164C176.252 179.523 176.369 178.818 176.369 178.047C176.369 177.281 176.252 176.578 176.018 175.937C175.788 175.292 175.434 174.773 174.955 174.383C174.476 173.992 173.872 173.797 173.143 173.797C172.408 173.797 171.799 173.992 171.314 174.383C170.835 174.773 170.479 175.292 170.244 175.937C170.015 176.578 169.9 177.281 169.9 178.047C169.9 178.818 170.015 179.523 170.244 180.164C170.479 180.805 170.835 181.318 171.314 181.703C171.799 182.089 172.408 182.281 173.143 182.281ZM183.672 176.875V184H181.336V172H183.578V173.953H183.727C184.003 173.318 184.435 172.807 185.023 172.422C185.617 172.036 186.365 171.844 187.266 171.844C188.083 171.844 188.799 172.016 189.414 172.359C190.029 172.698 190.505 173.203 190.844 173.875C191.182 174.547 191.352 175.378 191.352 176.367V184H189.016V176.648C189.016 175.779 188.789 175.099 188.336 174.609C187.883 174.115 187.26 173.867 186.469 173.867C185.927 173.867 185.445 173.984 185.023 174.219C184.607 174.453 184.276 174.797 184.031 175.25C183.792 175.698 183.672 176.24 183.672 176.875Z" fill="white"/>
<defs>
<linearGradient id="paint0_linear_623_6616" x1="69.1931" y1="18.048" x2="129.106" y2="82.5936" gradientUnits="userSpaceOnUse">
<stop stop-color="#4B73FF"/>
<stop offset="1" stop-color="#523BE4"/>
</linearGradient>
</defs>
</svg>
